%FSLAX44Y44*%
%MOMM*%
G71*
G01*
G75*
G04 Layer_Color=8388736*
G04:AMPARAMS|DCode=10|XSize=1mm|YSize=0.9mm|CornerRadius=0.198mm|HoleSize=0mm|Usage=FLASHONLY|Rotation=270.000|XOffset=0mm|YOffset=0mm|HoleType=Round|Shape=RoundedRectangle|*
%AMROUNDEDRECTD10*
21,1,1.0000,0.5040,0,0,270.0*
21,1,0.6040,0.9000,0,0,270.0*
1,1,0.3960,-0.2520,-0.3020*
1,1,0.3960,-0.2520,0.3020*
1,1,0.3960,0.2520,0.3020*
1,1,0.3960,0.2520,-0.3020*
%
%ADD10ROUNDEDRECTD10*%
G04:AMPARAMS|DCode=11|XSize=0.9mm|YSize=0.4mm|CornerRadius=0.15mm|HoleSize=0mm|Usage=FLASHONLY|Rotation=90.000|XOffset=0mm|YOffset=0mm|HoleType=Round|Shape=RoundedRectangle|*
%AMROUNDEDRECTD11*
21,1,0.9000,0.1000,0,0,90.0*
21,1,0.6000,0.4000,0,0,90.0*
1,1,0.3000,0.0500,0.3000*
1,1,0.3000,0.0500,-0.3000*
1,1,0.3000,-0.0500,-0.3000*
1,1,0.3000,-0.0500,0.3000*
%
%ADD11ROUNDEDRECTD11*%
%ADD12O,0.6000X1.5500*%
G04:AMPARAMS|DCode=13|XSize=1mm|YSize=0.9mm|CornerRadius=0.198mm|HoleSize=0mm|Usage=FLASHONLY|Rotation=0.000|XOffset=0mm|YOffset=0mm|HoleType=Round|Shape=RoundedRectangle|*
%AMROUNDEDRECTD13*
21,1,1.0000,0.5040,0,0,0.0*
21,1,0.6040,0.9000,0,0,0.0*
1,1,0.3960,0.3020,-0.2520*
1,1,0.3960,-0.3020,-0.2520*
1,1,0.3960,-0.3020,0.2520*
1,1,0.3960,0.3020,0.2520*
%
%ADD13ROUNDEDRECTD13*%
G04:AMPARAMS|DCode=14|XSize=1.05mm|YSize=0.65mm|CornerRadius=0.2015mm|HoleSize=0mm|Usage=FLASHONLY|Rotation=0.000|XOffset=0mm|YOffset=0mm|HoleType=Round|Shape=RoundedRectangle|*
%AMROUNDEDRECTD14*
21,1,1.0500,0.2470,0,0,0.0*
21,1,0.6470,0.6500,0,0,0.0*
1,1,0.4030,0.3235,-0.1235*
1,1,0.4030,-0.3235,-0.1235*
1,1,0.4030,-0.3235,0.1235*
1,1,0.4030,0.3235,0.1235*
%
%ADD14ROUNDEDRECTD14*%
G04:AMPARAMS|DCode=15|XSize=1mm|YSize=0.95mm|CornerRadius=0.1995mm|HoleSize=0mm|Usage=FLASHONLY|Rotation=180.000|XOffset=0mm|YOffset=0mm|HoleType=Round|Shape=RoundedRectangle|*
%AMROUNDEDRECTD15*
21,1,1.0000,0.5510,0,0,180.0*
21,1,0.6010,0.9500,0,0,180.0*
1,1,0.3990,-0.3005,0.2755*
1,1,0.3990,0.3005,0.2755*
1,1,0.3990,0.3005,-0.2755*
1,1,0.3990,-0.3005,-0.2755*
%
%ADD15ROUNDEDRECTD15*%
%ADD16C,0.4000*%
%ADD17O,0.8500X0.2500*%
%ADD18O,0.2500X0.8500*%
G04:AMPARAMS|DCode=19|XSize=1mm|YSize=0.95mm|CornerRadius=0.1995mm|HoleSize=0mm|Usage=FLASHONLY|Rotation=90.000|XOffset=0mm|YOffset=0mm|HoleType=Round|Shape=RoundedRectangle|*
%AMROUNDEDRECTD19*
21,1,1.0000,0.5510,0,0,90.0*
21,1,0.6010,0.9500,0,0,90.0*
1,1,0.3990,0.2755,0.3005*
1,1,0.3990,0.2755,-0.3005*
1,1,0.3990,-0.2755,-0.3005*
1,1,0.3990,-0.2755,0.3005*
%
%ADD19ROUNDEDRECTD19*%
G04:AMPARAMS|DCode=20|XSize=1.45mm|YSize=1.15mm|CornerRadius=0.2013mm|HoleSize=0mm|Usage=FLASHONLY|Rotation=270.000|XOffset=0mm|YOffset=0mm|HoleType=Round|Shape=RoundedRectangle|*
%AMROUNDEDRECTD20*
21,1,1.4500,0.7475,0,0,270.0*
21,1,1.0475,1.1500,0,0,270.0*
1,1,0.4025,-0.3738,-0.5238*
1,1,0.4025,-0.3738,0.5238*
1,1,0.4025,0.3738,0.5238*
1,1,0.4025,0.3738,-0.5238*
%
%ADD20ROUNDEDRECTD20*%
G04:AMPARAMS|DCode=21|XSize=1.45mm|YSize=1.15mm|CornerRadius=0.2013mm|HoleSize=0mm|Usage=FLASHONLY|Rotation=0.000|XOffset=0mm|YOffset=0mm|HoleType=Round|Shape=RoundedRectangle|*
%AMROUNDEDRECTD21*
21,1,1.4500,0.7475,0,0,0.0*
21,1,1.0475,1.1500,0,0,0.0*
1,1,0.4025,0.5238,-0.3738*
1,1,0.4025,-0.5238,-0.3738*
1,1,0.4025,-0.5238,0.3738*
1,1,0.4025,0.5238,0.3738*
%
%ADD21ROUNDEDRECTD21*%
%ADD22C,0.6000*%
%ADD23O,1.3500X0.5000*%
G04:AMPARAMS|DCode=24|XSize=1.75mm|YSize=1.05mm|CornerRadius=0.1995mm|HoleSize=0mm|Usage=FLASHONLY|Rotation=90.000|XOffset=0mm|YOffset=0mm|HoleType=Round|Shape=RoundedRectangle|*
%AMROUNDEDRECTD24*
21,1,1.7500,0.6510,0,0,90.0*
21,1,1.3510,1.0500,0,0,90.0*
1,1,0.3990,0.3255,0.6755*
1,1,0.3990,0.3255,-0.6755*
1,1,0.3990,-0.3255,-0.6755*
1,1,0.3990,-0.3255,0.6755*
%
%ADD24ROUNDEDRECTD24*%
G04:AMPARAMS|DCode=25|XSize=1.75mm|YSize=1.05mm|CornerRadius=0.1995mm|HoleSize=0mm|Usage=FLASHONLY|Rotation=0.000|XOffset=0mm|YOffset=0mm|HoleType=Round|Shape=RoundedRectangle|*
%AMROUNDEDRECTD25*
21,1,1.7500,0.6510,0,0,0.0*
21,1,1.3510,1.0500,0,0,0.0*
1,1,0.3990,0.6755,-0.3255*
1,1,0.3990,-0.6755,-0.3255*
1,1,0.3990,-0.6755,0.3255*
1,1,0.3990,0.6755,0.3255*
%
%ADD25ROUNDEDRECTD25*%
%ADD26O,1.5500X0.6000*%
%ADD27O,0.5000X1.3500*%
G04:AMPARAMS|DCode=28|XSize=6.5mm|YSize=5mm|CornerRadius=0.25mm|HoleSize=0mm|Usage=FLASHONLY|Rotation=90.000|XOffset=0mm|YOffset=0mm|HoleType=Round|Shape=RoundedRectangle|*
%AMROUNDEDRECTD28*
21,1,6.5000,4.5000,0,0,90.0*
21,1,6.0000,5.0000,0,0,90.0*
1,1,0.5000,2.2500,3.0000*
1,1,0.5000,2.2500,-3.0000*
1,1,0.5000,-2.2500,-3.0000*
1,1,0.5000,-2.2500,3.0000*
%
%ADD28ROUNDEDRECTD28*%
%ADD29C,1.3000*%
%ADD30R,1.3000X1.3000*%
G04:AMPARAMS|DCode=31|XSize=4.9mm|YSize=1.6mm|CornerRadius=0.2mm|HoleSize=0mm|Usage=FLASHONLY|Rotation=180.000|XOffset=0mm|YOffset=0mm|HoleType=Round|Shape=RoundedRectangle|*
%AMROUNDEDRECTD31*
21,1,4.9000,1.2000,0,0,180.0*
21,1,4.5000,1.6000,0,0,180.0*
1,1,0.4000,-2.2500,0.6000*
1,1,0.4000,2.2500,0.6000*
1,1,0.4000,2.2500,-0.6000*
1,1,0.4000,-2.2500,-0.6000*
%
%ADD31ROUNDEDRECTD31*%
%ADD32O,1.5000X0.3000*%
%ADD33O,0.3000X1.5000*%
%ADD34C,1.0000*%
G04:AMPARAMS|DCode=35|XSize=1.1mm|YSize=0.6mm|CornerRadius=0.201mm|HoleSize=0mm|Usage=FLASHONLY|Rotation=270.000|XOffset=0mm|YOffset=0mm|HoleType=Round|Shape=RoundedRectangle|*
%AMROUNDEDRECTD35*
21,1,1.1000,0.1980,0,0,270.0*
21,1,0.6980,0.6000,0,0,270.0*
1,1,0.4020,-0.0990,-0.3490*
1,1,0.4020,-0.0990,0.3490*
1,1,0.4020,0.0990,0.3490*
1,1,0.4020,0.0990,-0.3490*
%
%ADD35ROUNDEDRECTD35*%
G04:AMPARAMS|DCode=36|XSize=2.5mm|YSize=2mm|CornerRadius=0.2mm|HoleSize=0mm|Usage=FLASHONLY|Rotation=180.000|XOffset=0mm|YOffset=0mm|HoleType=Round|Shape=RoundedRectangle|*
%AMROUNDEDRECTD36*
21,1,2.5000,1.6000,0,0,180.0*
21,1,2.1000,2.0000,0,0,180.0*
1,1,0.4000,-1.0500,0.8000*
1,1,0.4000,1.0500,0.8000*
1,1,0.4000,1.0500,-0.8000*
1,1,0.4000,-1.0500,-0.8000*
%
%ADD36ROUNDEDRECTD36*%
G04:AMPARAMS|DCode=37|XSize=2.3mm|YSize=0.5mm|CornerRadius=0.2mm|HoleSize=0mm|Usage=FLASHONLY|Rotation=180.000|XOffset=0mm|YOffset=0mm|HoleType=Round|Shape=RoundedRectangle|*
%AMROUNDEDRECTD37*
21,1,2.3000,0.1000,0,0,180.0*
21,1,1.9000,0.5000,0,0,180.0*
1,1,0.4000,-0.9500,0.0500*
1,1,0.4000,0.9500,0.0500*
1,1,0.4000,0.9500,-0.0500*
1,1,0.4000,-0.9500,-0.0500*
%
%ADD37ROUNDEDRECTD37*%
G04:AMPARAMS|DCode=38|XSize=1mm|YSize=0.45mm|CornerRadius=0.1125mm|HoleSize=0mm|Usage=FLASHONLY|Rotation=0.000|XOffset=0mm|YOffset=0mm|HoleType=Round|Shape=RoundedRectangle|*
%AMROUNDEDRECTD38*
21,1,1.0000,0.2250,0,0,0.0*
21,1,0.7750,0.4500,0,0,0.0*
1,1,0.2250,0.3875,-0.1125*
1,1,0.2250,-0.3875,-0.1125*
1,1,0.2250,-0.3875,0.1125*
1,1,0.2250,0.3875,0.1125*
%
%ADD38ROUNDEDRECTD38*%
G04:AMPARAMS|DCode=39|XSize=1.35mm|YSize=1.65mm|CornerRadius=0.27mm|HoleSize=0mm|Usage=FLASHONLY|Rotation=90.000|XOffset=0mm|YOffset=0mm|HoleType=Round|Shape=RoundedRectangle|*
%AMROUNDEDRECTD39*
21,1,1.3500,1.1100,0,0,90.0*
21,1,0.8100,1.6500,0,0,90.0*
1,1,0.5400,0.5550,0.4050*
1,1,0.5400,0.5550,-0.4050*
1,1,0.5400,-0.5550,-0.4050*
1,1,0.5400,-0.5550,0.4050*
%
%ADD39ROUNDEDRECTD39*%
G04:AMPARAMS|DCode=40|XSize=0.7mm|YSize=0.25mm|CornerRadius=0.0838mm|HoleSize=0mm|Usage=FLASHONLY|Rotation=0.000|XOffset=0mm|YOffset=0mm|HoleType=Round|Shape=RoundedRectangle|*
%AMROUNDEDRECTD40*
21,1,0.7000,0.0825,0,0,0.0*
21,1,0.5325,0.2500,0,0,0.0*
1,1,0.1675,0.2662,-0.0413*
1,1,0.1675,-0.2662,-0.0413*
1,1,0.1675,-0.2662,0.0413*
1,1,0.1675,0.2662,0.0413*
%
%ADD40ROUNDEDRECTD40*%
G04:AMPARAMS|DCode=41|XSize=3mm|YSize=1.65mm|CornerRadius=0.1073mm|HoleSize=0mm|Usage=FLASHONLY|Rotation=90.000|XOffset=0mm|YOffset=0mm|HoleType=Round|Shape=RoundedRectangle|*
%AMROUNDEDRECTD41*
21,1,3.0000,1.4355,0,0,90.0*
21,1,2.7855,1.6500,0,0,90.0*
1,1,0.2145,0.7178,1.3927*
1,1,0.2145,0.7178,-1.3927*
1,1,0.2145,-0.7178,-1.3927*
1,1,0.2145,-0.7178,1.3927*
%
%ADD41ROUNDEDRECTD41*%
G04:AMPARAMS|DCode=42|XSize=1.2mm|YSize=1.2mm|CornerRadius=0.198mm|HoleSize=0mm|Usage=FLASHONLY|Rotation=0.000|XOffset=0mm|YOffset=0mm|HoleType=Round|Shape=RoundedRectangle|*
%AMROUNDEDRECTD42*
21,1,1.2000,0.8040,0,0,0.0*
21,1,0.8040,1.2000,0,0,0.0*
1,1,0.3960,0.4020,-0.4020*
1,1,0.3960,-0.4020,-0.4020*
1,1,0.3960,-0.4020,0.4020*
1,1,0.3960,0.4020,0.4020*
%
%ADD42ROUNDEDRECTD42*%
G04:AMPARAMS|DCode=43|XSize=1.2mm|YSize=1.2mm|CornerRadius=0.198mm|HoleSize=0mm|Usage=FLASHONLY|Rotation=270.000|XOffset=0mm|YOffset=0mm|HoleType=Round|Shape=RoundedRectangle|*
%AMROUNDEDRECTD43*
21,1,1.2000,0.8040,0,0,270.0*
21,1,0.8040,1.2000,0,0,270.0*
1,1,0.3960,-0.4020,-0.4020*
1,1,0.3960,-0.4020,0.4020*
1,1,0.3960,0.4020,0.4020*
1,1,0.3960,0.4020,-0.4020*
%
%ADD43ROUNDEDRECTD43*%
G04:AMPARAMS|DCode=44|XSize=6.45mm|YSize=6mm|CornerRadius=0.21mm|HoleSize=0mm|Usage=FLASHONLY|Rotation=90.000|XOffset=0mm|YOffset=0mm|HoleType=Round|Shape=RoundedRectangle|*
%AMROUNDEDRECTD44*
21,1,6.4500,5.5800,0,0,90.0*
21,1,6.0300,6.0000,0,0,90.0*
1,1,0.4200,2.7900,3.0150*
1,1,0.4200,2.7900,-3.0150*
1,1,0.4200,-2.7900,-3.0150*
1,1,0.4200,-2.7900,3.0150*
%
%ADD44ROUNDEDRECTD44*%
G04:AMPARAMS|DCode=45|XSize=2.85mm|YSize=1mm|CornerRadius=0.2mm|HoleSize=0mm|Usage=FLASHONLY|Rotation=90.000|XOffset=0mm|YOffset=0mm|HoleType=Round|Shape=RoundedRectangle|*
%AMROUNDEDRECTD45*
21,1,2.8500,0.6000,0,0,90.0*
21,1,2.4500,1.0000,0,0,90.0*
1,1,0.4000,0.3000,1.2250*
1,1,0.4000,0.3000,-1.2250*
1,1,0.4000,-0.3000,-1.2250*
1,1,0.4000,-0.3000,1.2250*
%
%ADD45ROUNDEDRECTD45*%
G04:AMPARAMS|DCode=46|XSize=3.95mm|YSize=1.5mm|CornerRadius=0.2475mm|HoleSize=0mm|Usage=FLASHONLY|Rotation=90.000|XOffset=0mm|YOffset=0mm|HoleType=Round|Shape=RoundedRectangle|*
%AMROUNDEDRECTD46*
21,1,3.9500,1.0050,0,0,90.0*
21,1,3.4550,1.5000,0,0,90.0*
1,1,0.4950,0.5025,1.7275*
1,1,0.4950,0.5025,-1.7275*
1,1,0.4950,-0.5025,-1.7275*
1,1,0.4950,-0.5025,1.7275*
%
%ADD46ROUNDEDRECTD46*%
G04:AMPARAMS|DCode=47|XSize=6.4mm|YSize=10.5mm|CornerRadius=0.128mm|HoleSize=0mm|Usage=FLASHONLY|Rotation=90.000|XOffset=0mm|YOffset=0mm|HoleType=Round|Shape=RoundedRectangle|*
%AMROUNDEDRECTD47*
21,1,6.4000,10.2440,0,0,90.0*
21,1,6.1440,10.5000,0,0,90.0*
1,1,0.2560,5.1220,3.0720*
1,1,0.2560,5.1220,-3.0720*
1,1,0.2560,-5.1220,-3.0720*
1,1,0.2560,-5.1220,3.0720*
%
%ADD47ROUNDEDRECTD47*%
%ADD48C,0.2500*%
%ADD49C,0.3000*%
%ADD50C,0.5000*%
%ADD51C,0.6000*%
%ADD52C,0.2540*%
%ADD53C,1.0000*%
%ADD54C,0.4000*%
%ADD55C,0.4500*%
%ADD56C,0.8000*%
%ADD57C,0.5500*%
%ADD58C,1.6000*%
%ADD59R,1.6000X1.6000*%
%ADD60C,6.0000*%
%ADD61C,3.0000*%
%ADD62C,2.0000*%
%ADD63C,0.5000*%
%ADD64C,1.8500*%
%ADD65C,3.5000*%
%ADD66C,2.3000*%
%ADD67C,2.0000*%
%ADD68C,1.8000*%
%ADD69C,0.0000*%
G04:AMPARAMS|DCode=70|XSize=1.15mm|YSize=1.05mm|CornerRadius=0.273mm|HoleSize=0mm|Usage=FLASHONLY|Rotation=270.000|XOffset=0mm|YOffset=0mm|HoleType=Round|Shape=RoundedRectangle|*
%AMROUNDEDRECTD70*
21,1,1.1500,0.5040,0,0,270.0*
21,1,0.6040,1.0500,0,0,270.0*
1,1,0.5460,-0.2520,-0.3020*
1,1,0.5460,-0.2520,0.3020*
1,1,0.5460,0.2520,0.3020*
1,1,0.5460,0.2520,-0.3020*
%
%ADD70ROUNDEDRECTD70*%
G04:AMPARAMS|DCode=71|XSize=1.05mm|YSize=0.55mm|CornerRadius=0.225mm|HoleSize=0mm|Usage=FLASHONLY|Rotation=90.000|XOffset=0mm|YOffset=0mm|HoleType=Round|Shape=RoundedRectangle|*
%AMROUNDEDRECTD71*
21,1,1.0500,0.1000,0,0,90.0*
21,1,0.6000,0.5500,0,0,90.0*
1,1,0.4500,0.0500,0.3000*
1,1,0.4500,0.0500,-0.3000*
1,1,0.4500,-0.0500,-0.3000*
1,1,0.4500,-0.0500,0.3000*
%
%ADD71ROUNDEDRECTD71*%
%ADD72O,0.7500X1.7000*%
G04:AMPARAMS|DCode=73|XSize=1.15mm|YSize=1.05mm|CornerRadius=0.273mm|HoleSize=0mm|Usage=FLASHONLY|Rotation=0.000|XOffset=0mm|YOffset=0mm|HoleType=Round|Shape=RoundedRectangle|*
%AMROUNDEDRECTD73*
21,1,1.1500,0.5040,0,0,0.0*
21,1,0.6040,1.0500,0,0,0.0*
1,1,0.5460,0.3020,-0.2520*
1,1,0.5460,-0.3020,-0.2520*
1,1,0.5460,-0.3020,0.2520*
1,1,0.5460,0.3020,0.2520*
%
%ADD73ROUNDEDRECTD73*%
G04:AMPARAMS|DCode=74|XSize=1.2mm|YSize=0.8mm|CornerRadius=0.2765mm|HoleSize=0mm|Usage=FLASHONLY|Rotation=0.000|XOffset=0mm|YOffset=0mm|HoleType=Round|Shape=RoundedRectangle|*
%AMROUNDEDRECTD74*
21,1,1.2000,0.2470,0,0,0.0*
21,1,0.6470,0.8000,0,0,0.0*
1,1,0.5530,0.3235,-0.1235*
1,1,0.5530,-0.3235,-0.1235*
1,1,0.5530,-0.3235,0.1235*
1,1,0.5530,0.3235,0.1235*
%
%ADD74ROUNDEDRECTD74*%
G04:AMPARAMS|DCode=75|XSize=1.15mm|YSize=1.1mm|CornerRadius=0.2745mm|HoleSize=0mm|Usage=FLASHONLY|Rotation=180.000|XOffset=0mm|YOffset=0mm|HoleType=Round|Shape=RoundedRectangle|*
%AMROUNDEDRECTD75*
21,1,1.1500,0.5510,0,0,180.0*
21,1,0.6010,1.1000,0,0,180.0*
1,1,0.5490,-0.3005,0.2755*
1,1,0.5490,0.3005,0.2755*
1,1,0.5490,0.3005,-0.2755*
1,1,0.5490,-0.3005,-0.2755*
%
%ADD75ROUNDEDRECTD75*%
%ADD76O,1.0500X0.4500*%
%ADD77O,0.4500X1.0500*%
G04:AMPARAMS|DCode=78|XSize=1.15mm|YSize=1.1mm|CornerRadius=0.2745mm|HoleSize=0mm|Usage=FLASHONLY|Rotation=90.000|XOffset=0mm|YOffset=0mm|HoleType=Round|Shape=RoundedRectangle|*
%AMROUNDEDRECTD78*
21,1,1.1500,0.5510,0,0,90.0*
21,1,0.6010,1.1000,0,0,90.0*
1,1,0.5490,0.2755,0.3005*
1,1,0.5490,0.2755,-0.3005*
1,1,0.5490,-0.2755,-0.3005*
1,1,0.5490,-0.2755,0.3005*
%
%ADD78ROUNDEDRECTD78*%
G04:AMPARAMS|DCode=79|XSize=1.6mm|YSize=1.3mm|CornerRadius=0.2763mm|HoleSize=0mm|Usage=FLASHONLY|Rotation=270.000|XOffset=0mm|YOffset=0mm|HoleType=Round|Shape=RoundedRectangle|*
%AMROUNDEDRECTD79*
21,1,1.6000,0.7475,0,0,270.0*
21,1,1.0475,1.3000,0,0,270.0*
1,1,0.5525,-0.3738,-0.5238*
1,1,0.5525,-0.3738,0.5238*
1,1,0.5525,0.3738,0.5238*
1,1,0.5525,0.3738,-0.5238*
%
%ADD79ROUNDEDRECTD79*%
G04:AMPARAMS|DCode=80|XSize=1.6mm|YSize=1.3mm|CornerRadius=0.2763mm|HoleSize=0mm|Usage=FLASHONLY|Rotation=0.000|XOffset=0mm|YOffset=0mm|HoleType=Round|Shape=RoundedRectangle|*
%AMROUNDEDRECTD80*
21,1,1.6000,0.7475,0,0,0.0*
21,1,1.0475,1.3000,0,0,0.0*
1,1,0.5525,0.5238,-0.3738*
1,1,0.5525,-0.5238,-0.3738*
1,1,0.5525,-0.5238,0.3738*
1,1,0.5525,0.5238,0.3738*
%
%ADD80ROUNDEDRECTD80*%
%ADD81C,0.8000*%
%ADD82O,1.5000X0.6500*%
G04:AMPARAMS|DCode=83|XSize=1.9mm|YSize=1.2mm|CornerRadius=0.2745mm|HoleSize=0mm|Usage=FLASHONLY|Rotation=90.000|XOffset=0mm|YOffset=0mm|HoleType=Round|Shape=RoundedRectangle|*
%AMROUNDEDRECTD83*
21,1,1.9000,0.6510,0,0,90.0*
21,1,1.3510,1.2000,0,0,90.0*
1,1,0.5490,0.3255,0.6755*
1,1,0.5490,0.3255,-0.6755*
1,1,0.5490,-0.3255,-0.6755*
1,1,0.5490,-0.3255,0.6755*
%
%ADD83ROUNDEDRECTD83*%
G04:AMPARAMS|DCode=84|XSize=1.9mm|YSize=1.2mm|CornerRadius=0.2745mm|HoleSize=0mm|Usage=FLASHONLY|Rotation=0.000|XOffset=0mm|YOffset=0mm|HoleType=Round|Shape=RoundedRectangle|*
%AMROUNDEDRECTD84*
21,1,1.9000,0.6510,0,0,0.0*
21,1,1.3510,1.2000,0,0,0.0*
1,1,0.5490,0.6755,-0.3255*
1,1,0.5490,-0.6755,-0.3255*
1,1,0.5490,-0.6755,0.3255*
1,1,0.5490,0.6755,0.3255*
%
%ADD84ROUNDEDRECTD84*%
%ADD85O,1.7000X0.7500*%
%ADD86O,0.6500X1.5000*%
G04:AMPARAMS|DCode=87|XSize=6.65mm|YSize=5.15mm|CornerRadius=0.325mm|HoleSize=0mm|Usage=FLASHONLY|Rotation=90.000|XOffset=0mm|YOffset=0mm|HoleType=Round|Shape=RoundedRectangle|*
%AMROUNDEDRECTD87*
21,1,6.6500,4.5000,0,0,90.0*
21,1,6.0000,5.1500,0,0,90.0*
1,1,0.6500,2.2500,3.0000*
1,1,0.6500,2.2500,-3.0000*
1,1,0.6500,-2.2500,-3.0000*
1,1,0.6500,-2.2500,3.0000*
%
%ADD87ROUNDEDRECTD87*%
%ADD88C,1.5000*%
%ADD89R,1.5000X1.5000*%
G04:AMPARAMS|DCode=90|XSize=5.05mm|YSize=1.75mm|CornerRadius=0.275mm|HoleSize=0mm|Usage=FLASHONLY|Rotation=180.000|XOffset=0mm|YOffset=0mm|HoleType=Round|Shape=RoundedRectangle|*
%AMROUNDEDRECTD90*
21,1,5.0500,1.2000,0,0,180.0*
21,1,4.5000,1.7500,0,0,180.0*
1,1,0.5500,-2.2500,0.6000*
1,1,0.5500,2.2500,0.6000*
1,1,0.5500,2.2500,-0.6000*
1,1,0.5500,-2.2500,-0.6000*
%
%ADD90ROUNDEDRECTD90*%
%ADD91O,1.6000X0.4000*%
%ADD92O,0.4000X1.6000*%
%ADD93C,2.0000*%
G04:AMPARAMS|DCode=94|XSize=1.25mm|YSize=0.75mm|CornerRadius=0.276mm|HoleSize=0mm|Usage=FLASHONLY|Rotation=270.000|XOffset=0mm|YOffset=0mm|HoleType=Round|Shape=RoundedRectangle|*
%AMROUNDEDRECTD94*
21,1,1.2500,0.1980,0,0,270.0*
21,1,0.6980,0.7500,0,0,270.0*
1,1,0.5520,-0.0990,-0.3490*
1,1,0.5520,-0.0990,0.3490*
1,1,0.5520,0.0990,0.3490*
1,1,0.5520,0.0990,-0.3490*
%
%ADD94ROUNDEDRECTD94*%
G04:AMPARAMS|DCode=95|XSize=2.65mm|YSize=2.15mm|CornerRadius=0.275mm|HoleSize=0mm|Usage=FLASHONLY|Rotation=180.000|XOffset=0mm|YOffset=0mm|HoleType=Round|Shape=RoundedRectangle|*
%AMROUNDEDRECTD95*
21,1,2.6500,1.6000,0,0,180.0*
21,1,2.1000,2.1500,0,0,180.0*
1,1,0.5500,-1.0500,0.8000*
1,1,0.5500,1.0500,0.8000*
1,1,0.5500,1.0500,-0.8000*
1,1,0.5500,-1.0500,-0.8000*
%
%ADD95ROUNDEDRECTD95*%
G04:AMPARAMS|DCode=96|XSize=2.45mm|YSize=0.65mm|CornerRadius=0.275mm|HoleSize=0mm|Usage=FLASHONLY|Rotation=180.000|XOffset=0mm|YOffset=0mm|HoleType=Round|Shape=RoundedRectangle|*
%AMROUNDEDRECTD96*
21,1,2.4500,0.1000,0,0,180.0*
21,1,1.9000,0.6500,0,0,180.0*
1,1,0.5500,-0.9500,0.0500*
1,1,0.5500,0.9500,0.0500*
1,1,0.5500,0.9500,-0.0500*
1,1,0.5500,-0.9500,-0.0500*
%
%ADD96ROUNDEDRECTD96*%
G04:AMPARAMS|DCode=97|XSize=1.1mm|YSize=0.55mm|CornerRadius=0.1625mm|HoleSize=0mm|Usage=FLASHONLY|Rotation=0.000|XOffset=0mm|YOffset=0mm|HoleType=Round|Shape=RoundedRectangle|*
%AMROUNDEDRECTD97*
21,1,1.1000,0.2250,0,0,0.0*
21,1,0.7750,0.5500,0,0,0.0*
1,1,0.3250,0.3875,-0.1125*
1,1,0.3250,-0.3875,-0.1125*
1,1,0.3250,-0.3875,0.1125*
1,1,0.3250,0.3875,0.1125*
%
%ADD97ROUNDEDRECTD97*%
G04:AMPARAMS|DCode=98|XSize=1.5mm|YSize=1.8mm|CornerRadius=0.345mm|HoleSize=0mm|Usage=FLASHONLY|Rotation=90.000|XOffset=0mm|YOffset=0mm|HoleType=Round|Shape=RoundedRectangle|*
%AMROUNDEDRECTD98*
21,1,1.5000,1.1100,0,0,90.0*
21,1,0.8100,1.8000,0,0,90.0*
1,1,0.6900,0.5550,0.4050*
1,1,0.6900,0.5550,-0.4050*
1,1,0.6900,-0.5550,-0.4050*
1,1,0.6900,-0.5550,0.4050*
%
%ADD98ROUNDEDRECTD98*%
G04:AMPARAMS|DCode=99|XSize=0.8mm|YSize=0.35mm|CornerRadius=0.1338mm|HoleSize=0mm|Usage=FLASHONLY|Rotation=0.000|XOffset=0mm|YOffset=0mm|HoleType=Round|Shape=RoundedRectangle|*
%AMROUNDEDRECTD99*
21,1,0.8000,0.0825,0,0,0.0*
21,1,0.5325,0.3500,0,0,0.0*
1,1,0.2675,0.2662,-0.0413*
1,1,0.2675,-0.2662,-0.0413*
1,1,0.2675,-0.2662,0.0413*
1,1,0.2675,0.2662,0.0413*
%
%ADD99ROUNDEDRECTD99*%
G04:AMPARAMS|DCode=100|XSize=3.15mm|YSize=1.8mm|CornerRadius=0.1823mm|HoleSize=0mm|Usage=FLASHONLY|Rotation=90.000|XOffset=0mm|YOffset=0mm|HoleType=Round|Shape=RoundedRectangle|*
%AMROUNDEDRECTD100*
21,1,3.1500,1.4355,0,0,90.0*
21,1,2.7855,1.8000,0,0,90.0*
1,1,0.3645,0.7178,1.3927*
1,1,0.3645,0.7178,-1.3927*
1,1,0.3645,-0.7178,-1.3927*
1,1,0.3645,-0.7178,1.3927*
%
%ADD100ROUNDEDRECTD100*%
G04:AMPARAMS|DCode=101|XSize=1.35mm|YSize=1.35mm|CornerRadius=0.273mm|HoleSize=0mm|Usage=FLASHONLY|Rotation=0.000|XOffset=0mm|YOffset=0mm|HoleType=Round|Shape=RoundedRectangle|*
%AMROUNDEDRECTD101*
21,1,1.3500,0.8040,0,0,0.0*
21,1,0.8040,1.3500,0,0,0.0*
1,1,0.5460,0.4020,-0.4020*
1,1,0.5460,-0.4020,-0.4020*
1,1,0.5460,-0.4020,0.4020*
1,1,0.5460,0.4020,0.4020*
%
%ADD101ROUNDEDRECTD101*%
G04:AMPARAMS|DCode=102|XSize=1.35mm|YSize=1.35mm|CornerRadius=0.273mm|HoleSize=0mm|Usage=FLASHONLY|Rotation=270.000|XOffset=0mm|YOffset=0mm|HoleType=Round|Shape=RoundedRectangle|*
%AMROUNDEDRECTD102*
21,1,1.3500,0.8040,0,0,270.0*
21,1,0.8040,1.3500,0,0,270.0*
1,1,0.5460,-0.4020,-0.4020*
1,1,0.5460,-0.4020,0.4020*
1,1,0.5460,0.4020,0.4020*
1,1,0.5460,0.4020,-0.4020*
%
%ADD102ROUNDEDRECTD102*%
G04:AMPARAMS|DCode=103|XSize=6.6mm|YSize=6.15mm|CornerRadius=0.285mm|HoleSize=0mm|Usage=FLASHONLY|Rotation=90.000|XOffset=0mm|YOffset=0mm|HoleType=Round|Shape=RoundedRectangle|*
%AMROUNDEDRECTD103*
21,1,6.6000,5.5800,0,0,90.0*
21,1,6.0300,6.1500,0,0,90.0*
1,1,0.5700,2.7900,3.0150*
1,1,0.5700,2.7900,-3.0150*
1,1,0.5700,-2.7900,-3.0150*
1,1,0.5700,-2.7900,3.0150*
%
%ADD103ROUNDEDRECTD103*%
G04:AMPARAMS|DCode=104|XSize=3mm|YSize=1.15mm|CornerRadius=0.275mm|HoleSize=0mm|Usage=FLASHONLY|Rotation=90.000|XOffset=0mm|YOffset=0mm|HoleType=Round|Shape=RoundedRectangle|*
%AMROUNDEDRECTD104*
21,1,3.0000,0.6000,0,0,90.0*
21,1,2.4500,1.1500,0,0,90.0*
1,1,0.5500,0.3000,1.2250*
1,1,0.5500,0.3000,-1.2250*
1,1,0.5500,-0.3000,-1.2250*
1,1,0.5500,-0.3000,1.2250*
%
%ADD104ROUNDEDRECTD104*%
G04:AMPARAMS|DCode=105|XSize=4.1mm|YSize=1.65mm|CornerRadius=0.3225mm|HoleSize=0mm|Usage=FLASHONLY|Rotation=90.000|XOffset=0mm|YOffset=0mm|HoleType=Round|Shape=RoundedRectangle|*
%AMROUNDEDRECTD105*
21,1,4.1000,1.0050,0,0,90.0*
21,1,3.4550,1.6500,0,0,90.0*
1,1,0.6450,0.5025,1.7275*
1,1,0.6450,0.5025,-1.7275*
1,1,0.6450,-0.5025,-1.7275*
1,1,0.6450,-0.5025,1.7275*
%
%ADD105ROUNDEDRECTD105*%
G04:AMPARAMS|DCode=106|XSize=6.55mm|YSize=10.65mm|CornerRadius=0.203mm|HoleSize=0mm|Usage=FLASHONLY|Rotation=90.000|XOffset=0mm|YOffset=0mm|HoleType=Round|Shape=RoundedRectangle|*
%AMROUNDEDRECTD106*
21,1,6.5500,10.2440,0,0,90.0*
21,1,6.1440,10.6500,0,0,90.0*
1,1,0.4060,5.1220,3.0720*
1,1,0.4060,5.1220,-3.0720*
1,1,0.4060,-5.1220,-3.0720*
1,1,0.4060,-5.1220,3.0720*
%
%ADD106ROUNDEDRECTD106*%
%ADD107C,1.7500*%
%ADD108R,1.7500X1.7500*%
%ADD109C,6.2000*%
%ADD110C,3.2000*%
%ADD111C,2.2000*%
%ADD112C,1.0500*%
%ADD113C,3.7000*%
%ADD114C,3.1500*%
%ADD115C,2.4500*%
G36*
X125530Y-73366D02*
X126192Y-73808D01*
X126634Y-74470D01*
X126789Y-75250D01*
X126750D01*
X126789Y-124750D01*
X126634Y-125530D01*
X126192Y-126192D01*
X125530Y-126634D01*
X124750Y-126789D01*
Y-126750D01*
X75870D01*
X73250Y-124130D01*
X73211Y-75250D01*
X73366Y-74470D01*
X73808Y-73808D01*
X74470Y-73366D01*
X75250Y-73211D01*
Y-73250D01*
X124750Y-73211D01*
X125530Y-73366D01*
D02*
G37*
G36*
X-274470D02*
X-273808Y-73808D01*
X-273366Y-74470D01*
X-273211Y-75250D01*
X-273250D01*
X-273211Y-124750D01*
X-273366Y-125530D01*
X-273808Y-126192D01*
X-274470Y-126634D01*
X-275250Y-126789D01*
Y-126750D01*
X-324130D01*
X-326750Y-124130D01*
X-326789Y-75250D01*
X-326634Y-74470D01*
X-326192Y-73808D01*
X-325530Y-73366D01*
X-324750Y-73211D01*
Y-73250D01*
X-275250Y-73211D01*
X-274470Y-73366D01*
D02*
G37*
G36*
X-124750Y126750D02*
X-75870D01*
X-73250Y124130D01*
X-73211Y75250D01*
X-73366Y74470D01*
X-73808Y73808D01*
X-74470Y73366D01*
X-75250Y73211D01*
Y73250D01*
X-124750Y73211D01*
X-125530Y73366D01*
X-126192Y73808D01*
X-126634Y74470D01*
X-126789Y75250D01*
X-126750D01*
X-126789Y124750D01*
X-126634Y125530D01*
X-126192Y126192D01*
X-125530Y126634D01*
X-124750Y126789D01*
Y126750D01*
D02*
G37*
G36*
X-274470Y126634D02*
X-273808Y126192D01*
X-273366Y125530D01*
X-273211Y124750D01*
X-273250D01*
X-273211Y75250D01*
X-273366Y74470D01*
X-273808Y73808D01*
X-274470Y73366D01*
X-275250Y73211D01*
Y73250D01*
X-324130D01*
X-326750Y75870D01*
X-326789Y124750D01*
X-326634Y125530D01*
X-326192Y126192D01*
X-325530Y126634D01*
X-324750Y126789D01*
Y126750D01*
X-275250Y126789D01*
X-274470Y126634D01*
D02*
G37*
G36*
X275250Y126750D02*
X324130D01*
X326750Y124130D01*
X326789Y75250D01*
X326634Y74470D01*
X326192Y73808D01*
X325530Y73366D01*
X324750Y73211D01*
Y73250D01*
X275250Y73211D01*
X274470Y73366D01*
X273808Y73808D01*
X273366Y74470D01*
X273211Y75250D01*
X273250D01*
X273211Y124750D01*
X273366Y125530D01*
X273808Y126192D01*
X274470Y126634D01*
X275250Y126789D01*
Y126750D01*
D02*
G37*
G36*
Y-73250D02*
X324130D01*
X326750Y-75870D01*
X326789Y-124750D01*
X326634Y-125530D01*
X326192Y-126192D01*
X325530Y-126634D01*
X324750Y-126789D01*
Y-126750D01*
X275250Y-126789D01*
X274470Y-126634D01*
X273808Y-126192D01*
X273366Y-125530D01*
X273211Y-124750D01*
X273250D01*
X273211Y-75250D01*
X273366Y-74470D01*
X273808Y-73808D01*
X274470Y-73366D01*
X275250Y-73211D01*
Y-73250D01*
D02*
G37*
G36*
Y-273250D02*
X324130D01*
X326750Y-275870D01*
X326789Y-324750D01*
X326634Y-325530D01*
X326192Y-326192D01*
X325530Y-326634D01*
X324750Y-326789D01*
Y-326750D01*
X275250Y-326789D01*
X274470Y-326634D01*
X273808Y-326192D01*
X273366Y-325530D01*
X273211Y-324750D01*
X273250D01*
X273211Y-275250D01*
X273366Y-274470D01*
X273808Y-273808D01*
X274470Y-273366D01*
X275250Y-273211D01*
Y-273250D01*
D02*
G37*
G36*
X-124750D02*
X-75870D01*
X-73250Y-275870D01*
X-73211Y-324750D01*
X-73366Y-325530D01*
X-73808Y-326192D01*
X-74470Y-326634D01*
X-75250Y-326789D01*
Y-326750D01*
X-124750Y-326789D01*
X-125530Y-326634D01*
X-126192Y-326192D01*
X-126634Y-325530D01*
X-126789Y-324750D01*
X-126750D01*
X-126789Y-275250D01*
X-126634Y-274470D01*
X-126192Y-273808D01*
X-125530Y-273366D01*
X-124750Y-273211D01*
Y-273250D01*
D02*
G37*
G36*
X-274470Y-273366D02*
X-273808Y-273808D01*
X-273366Y-274470D01*
X-273211Y-275250D01*
X-273250D01*
X-273211Y-324750D01*
X-273366Y-325530D01*
X-273808Y-326192D01*
X-274470Y-326634D01*
X-275250Y-326789D01*
Y-326750D01*
X-324130D01*
X-326750Y-324130D01*
X-326789Y-275250D01*
X-326634Y-274470D01*
X-326192Y-273808D01*
X-325530Y-273366D01*
X-324750Y-273211D01*
Y-273250D01*
X-275250Y-273211D01*
X-274470Y-273366D01*
D02*
G37*
G36*
X-124750Y-73250D02*
X-75870D01*
X-73250Y-75870D01*
X-73211Y-124750D01*
X-73366Y-125530D01*
X-73808Y-126192D01*
X-74470Y-126634D01*
X-75250Y-126789D01*
Y-126750D01*
X-124750Y-126789D01*
X-125530Y-126634D01*
X-126192Y-126192D01*
X-126634Y-125530D01*
X-126789Y-124750D01*
X-126750D01*
X-126789Y-75250D01*
X-126634Y-74470D01*
X-126192Y-73808D01*
X-125530Y-73366D01*
X-124750Y-73211D01*
Y-73250D01*
D02*
G37*
G36*
X125530Y-273366D02*
X126192Y-273808D01*
X126634Y-274470D01*
X126789Y-275250D01*
X126750D01*
X126789Y-324750D01*
X126634Y-325530D01*
X126192Y-326192D01*
X125530Y-326634D01*
X124750Y-326789D01*
Y-326750D01*
X75870D01*
X73250Y-324130D01*
X73211Y-275250D01*
X73366Y-274470D01*
X73808Y-273808D01*
X74470Y-273366D01*
X75250Y-273211D01*
Y-273250D01*
X124750Y-273211D01*
X125530Y-273366D01*
D02*
G37*
G36*
X-109001Y612999D02*
X-137501D01*
Y618499D01*
X-147501D01*
Y661499D01*
X-137501D01*
Y666999D01*
X-109001D01*
Y612999D01*
D02*
G37*
G36*
X-399000Y555500D02*
X-427500D01*
Y561000D01*
X-437500D01*
Y604000D01*
X-427500D01*
Y609500D01*
X-399000D01*
Y555500D01*
D02*
G37*
G36*
X-398951Y613749D02*
X-427451D01*
Y619249D01*
X-437451D01*
Y662249D01*
X-427451D01*
Y667749D01*
X-398951D01*
Y613749D01*
D02*
G37*
G36*
X-388500Y725000D02*
X-383000D01*
Y696500D01*
X-437000D01*
Y725000D01*
X-431500D01*
Y735000D01*
X-388500D01*
Y725000D01*
D02*
G37*
G36*
X-98550Y724250D02*
X-93050D01*
Y695750D01*
X-147050D01*
Y724250D01*
X-141550D01*
Y734250D01*
X-98550D01*
Y724250D01*
D02*
G37*
G36*
X-109000Y554300D02*
X-137500D01*
Y559800D01*
X-147500D01*
Y602800D01*
X-137500D01*
Y608300D01*
X-109000D01*
Y554300D01*
D02*
G37*
G36*
X-124750Y326750D02*
X-75870D01*
X-73250Y324130D01*
X-73211Y275250D01*
X-73366Y274470D01*
X-73808Y273808D01*
X-74470Y273366D01*
X-75250Y273211D01*
Y273250D01*
X-124750Y273211D01*
X-125530Y273366D01*
X-126192Y273808D01*
X-126634Y274470D01*
X-126789Y275250D01*
X-126750D01*
X-126789Y324750D01*
X-126634Y325530D01*
X-126192Y326192D01*
X-125530Y326634D01*
X-124750Y326789D01*
Y326750D01*
D02*
G37*
G36*
X125530Y126634D02*
X126192Y126192D01*
X126634Y125530D01*
X126789Y124750D01*
X126750D01*
X126789Y75250D01*
X126634Y74470D01*
X126192Y73808D01*
X125530Y73366D01*
X124750Y73211D01*
Y73250D01*
X75870D01*
X73250Y75870D01*
X73211Y124750D01*
X73366Y125530D01*
X73808Y126192D01*
X74470Y126634D01*
X75250Y126789D01*
Y126750D01*
X124750Y126789D01*
X125530Y126634D01*
D02*
G37*
G36*
X275250Y326750D02*
X324130D01*
X326750Y324130D01*
X326789Y275250D01*
X326634Y274470D01*
X326192Y273808D01*
X325530Y273366D01*
X324750Y273211D01*
Y273250D01*
X275250Y273211D01*
X274470Y273366D01*
X273808Y273808D01*
X273366Y274470D01*
X273211Y275250D01*
X273250D01*
X273211Y324750D01*
X273366Y325530D01*
X273808Y326192D01*
X274470Y326634D01*
X275250Y326789D01*
Y326750D01*
D02*
G37*
G36*
X125530Y326634D02*
X126192Y326192D01*
X126634Y325530D01*
X126789Y324750D01*
X126750D01*
X126789Y275250D01*
X126634Y274470D01*
X126192Y273808D01*
X125530Y273366D01*
X124750Y273211D01*
Y273250D01*
X75870D01*
X73250Y275870D01*
X73211Y324750D01*
X73366Y325530D01*
X73808Y326192D01*
X74470Y326634D01*
X75250Y326789D01*
Y326750D01*
X124750Y326789D01*
X125530Y326634D01*
D02*
G37*
G36*
X-274470D02*
X-273808Y326192D01*
X-273366Y325530D01*
X-273211Y324750D01*
X-273250D01*
X-273211Y275250D01*
X-273366Y274470D01*
X-273808Y273808D01*
X-274470Y273366D01*
X-275250Y273211D01*
Y273250D01*
X-324130D01*
X-326750Y275870D01*
X-326789Y324750D01*
X-326634Y325530D01*
X-326192Y326192D01*
X-325530Y326634D01*
X-324750Y326789D01*
Y326750D01*
X-275250Y326789D01*
X-274470Y326634D01*
D02*
G37*
D22*
X300000Y-300000D02*
D03*
Y-100000D02*
D03*
Y100000D02*
D03*
Y300000D02*
D03*
X100000D02*
D03*
Y100000D02*
D03*
Y-100000D02*
D03*
Y-300000D02*
D03*
X-100000D02*
D03*
Y-100000D02*
D03*
Y100000D02*
D03*
Y300000D02*
D03*
X-300000D02*
D03*
Y100000D02*
D03*
Y-100000D02*
D03*
Y-300000D02*
D03*
D62*
X135000Y835000D02*
D03*
Y810000D02*
D03*
Y785000D02*
D03*
Y760000D02*
D03*
D70*
X295500Y447500D02*
D03*
X279500D02*
D03*
X288000Y735000D02*
D03*
X272000D02*
D03*
X288000Y750000D02*
D03*
X272000D02*
D03*
X223000Y465000D02*
D03*
X207000D02*
D03*
X62500Y375000D02*
D03*
X46500D02*
D03*
X62500Y390000D02*
D03*
X46500D02*
D03*
X208500Y512500D02*
D03*
X192500D02*
D03*
X305500Y557500D02*
D03*
X289500D02*
D03*
X310500Y525000D02*
D03*
X294500D02*
D03*
X305500Y572500D02*
D03*
X289500D02*
D03*
X265500Y462500D02*
D03*
X249500D02*
D03*
X294500Y465000D02*
D03*
X310500D02*
D03*
X294500Y480000D02*
D03*
X310500D02*
D03*
X294500Y495000D02*
D03*
X310500D02*
D03*
X294500Y510000D02*
D03*
X310500D02*
D03*
X329000Y620000D02*
D03*
X345000D02*
D03*
X329000Y635000D02*
D03*
X345000D02*
D03*
X207000Y480000D02*
D03*
X223000D02*
D03*
X159500Y570000D02*
D03*
X175500D02*
D03*
X92000Y620000D02*
D03*
X108000D02*
D03*
X133000Y685000D02*
D03*
X117000D02*
D03*
X-117000Y790000D02*
D03*
X-133000D02*
D03*
X192500Y537500D02*
D03*
X208500D02*
D03*
X345000Y605000D02*
D03*
X329000D02*
D03*
X350500Y535000D02*
D03*
X334500D02*
D03*
D71*
X309500Y429000D02*
D03*
X316000D02*
D03*
X322500D02*
D03*
Y450000D02*
D03*
X309500D02*
D03*
D72*
X234400Y795500D02*
D03*
X247100D02*
D03*
X259800D02*
D03*
X272500D02*
D03*
X285200D02*
D03*
X297900D02*
D03*
X310600D02*
D03*
Y849500D02*
D03*
X297900D02*
D03*
X285200D02*
D03*
X272500D02*
D03*
X259800D02*
D03*
X247100D02*
D03*
X234400D02*
D03*
X395700Y523000D02*
D03*
X408400D02*
D03*
X421100D02*
D03*
X433800D02*
D03*
Y467000D02*
D03*
X421100D02*
D03*
X408400D02*
D03*
X395700D02*
D03*
D73*
X377500Y478000D02*
D03*
Y462000D02*
D03*
X360000Y-302500D02*
D03*
Y-286500D02*
D03*
Y-102500D02*
D03*
Y-86500D02*
D03*
Y97500D02*
D03*
Y113500D02*
D03*
Y297500D02*
D03*
Y313500D02*
D03*
X40000Y302500D02*
D03*
Y286500D02*
D03*
Y102500D02*
D03*
Y86500D02*
D03*
Y-97500D02*
D03*
Y-113500D02*
D03*
Y-297000D02*
D03*
Y-313000D02*
D03*
X-40000Y-302500D02*
D03*
Y-286500D02*
D03*
Y-100500D02*
D03*
Y-84500D02*
D03*
Y97500D02*
D03*
Y113500D02*
D03*
Y297500D02*
D03*
Y313500D02*
D03*
X-360000Y302500D02*
D03*
Y286500D02*
D03*
Y102500D02*
D03*
Y86500D02*
D03*
Y-97500D02*
D03*
Y-113500D02*
D03*
Y-297500D02*
D03*
Y-313500D02*
D03*
X262500Y550500D02*
D03*
Y534500D02*
D03*
X100000Y675000D02*
D03*
Y691000D02*
D03*
X200000Y755000D02*
D03*
Y739000D02*
D03*
X185000D02*
D03*
Y755000D02*
D03*
X120000Y587000D02*
D03*
Y603000D02*
D03*
X77500Y602000D02*
D03*
Y618000D02*
D03*
X125000Y637000D02*
D03*
Y653000D02*
D03*
X175000Y537000D02*
D03*
Y553000D02*
D03*
X99000Y808000D02*
D03*
Y792000D02*
D03*
X190000Y851000D02*
D03*
Y835000D02*
D03*
D74*
X340000Y444000D02*
D03*
Y425000D02*
D03*
X363000Y434500D02*
D03*
X-297499Y689952D02*
D03*
X-274499Y699452D02*
D03*
Y680452D02*
D03*
X56000Y845000D02*
D03*
X79000Y854500D02*
D03*
Y835500D02*
D03*
X-7500Y689951D02*
D03*
X15500Y699451D02*
D03*
Y680451D02*
D03*
D75*
X360000Y-272500D02*
D03*
Y-256500D02*
D03*
Y-72500D02*
D03*
Y-56500D02*
D03*
Y127500D02*
D03*
Y143500D02*
D03*
Y327500D02*
D03*
Y343500D02*
D03*
Y-329000D02*
D03*
Y-345000D02*
D03*
X360000Y-129500D02*
D03*
Y-145500D02*
D03*
X360000Y71000D02*
D03*
Y55000D02*
D03*
Y271000D02*
D03*
Y255000D02*
D03*
X337500Y-238002D02*
D03*
Y-222002D02*
D03*
Y-38000D02*
D03*
Y-22000D02*
D03*
Y161998D02*
D03*
Y177998D02*
D03*
Y362000D02*
D03*
Y378000D02*
D03*
Y-360000D02*
D03*
Y-376000D02*
D03*
Y-159500D02*
D03*
Y-175500D02*
D03*
Y40500D02*
D03*
Y24500D02*
D03*
Y240500D02*
D03*
Y224500D02*
D03*
X312500Y-360000D02*
D03*
Y-376000D02*
D03*
Y-238500D02*
D03*
Y-222500D02*
D03*
Y-159500D02*
D03*
Y-175500D02*
D03*
Y-38500D02*
D03*
Y-22500D02*
D03*
Y240500D02*
D03*
Y224500D02*
D03*
Y362000D02*
D03*
Y378000D02*
D03*
X272430Y-360000D02*
D03*
Y-376000D02*
D03*
X267500Y-238500D02*
D03*
Y-222500D02*
D03*
X272430Y-160000D02*
D03*
Y-176000D02*
D03*
X267500Y-38500D02*
D03*
Y-22500D02*
D03*
X272430Y40000D02*
D03*
Y24000D02*
D03*
X267500Y161500D02*
D03*
Y177500D02*
D03*
X272430Y240000D02*
D03*
Y224000D02*
D03*
X267500Y362000D02*
D03*
Y378000D02*
D03*
X240000Y-312500D02*
D03*
Y-328500D02*
D03*
X239500Y-272500D02*
D03*
Y-256500D02*
D03*
X240000Y-112500D02*
D03*
Y-128500D02*
D03*
X239500Y-72500D02*
D03*
Y-56500D02*
D03*
X240000Y87500D02*
D03*
Y71500D02*
D03*
Y127500D02*
D03*
Y143500D02*
D03*
Y288000D02*
D03*
Y272000D02*
D03*
X239500Y327500D02*
D03*
Y343500D02*
D03*
X40000Y272500D02*
D03*
Y256500D02*
D03*
Y72500D02*
D03*
Y56500D02*
D03*
Y-127500D02*
D03*
Y-143500D02*
D03*
Y-327500D02*
D03*
Y-343500D02*
D03*
Y329000D02*
D03*
Y345000D02*
D03*
Y129000D02*
D03*
Y145000D02*
D03*
Y-71000D02*
D03*
Y-55000D02*
D03*
Y-271000D02*
D03*
Y-255000D02*
D03*
X62500Y238002D02*
D03*
Y222002D02*
D03*
Y38002D02*
D03*
Y22002D02*
D03*
Y-161998D02*
D03*
Y-177998D02*
D03*
Y-361998D02*
D03*
Y-377998D02*
D03*
Y160000D02*
D03*
Y176000D02*
D03*
Y-40000D02*
D03*
Y-24000D02*
D03*
Y-240000D02*
D03*
Y-224000D02*
D03*
X87500Y360000D02*
D03*
Y376000D02*
D03*
Y238500D02*
D03*
Y222500D02*
D03*
Y160000D02*
D03*
Y176000D02*
D03*
Y38500D02*
D03*
Y22500D02*
D03*
Y-40000D02*
D03*
Y-24000D02*
D03*
Y-161500D02*
D03*
Y-177500D02*
D03*
Y-240000D02*
D03*
Y-224000D02*
D03*
Y-361500D02*
D03*
Y-377500D02*
D03*
X127570Y360000D02*
D03*
Y376000D02*
D03*
X132500Y238500D02*
D03*
Y222500D02*
D03*
X127570Y160000D02*
D03*
Y176000D02*
D03*
X132500Y38500D02*
D03*
Y22500D02*
D03*
X127570Y-40000D02*
D03*
Y-24000D02*
D03*
X132500Y-161500D02*
D03*
Y-177500D02*
D03*
X127570Y-240000D02*
D03*
Y-224000D02*
D03*
X132500Y-361500D02*
D03*
Y-377500D02*
D03*
X160000Y312500D02*
D03*
Y328500D02*
D03*
X160500Y272500D02*
D03*
Y256500D02*
D03*
X160000Y112500D02*
D03*
Y128500D02*
D03*
X160500Y72500D02*
D03*
Y56500D02*
D03*
X160000Y-87500D02*
D03*
Y-71500D02*
D03*
X160500Y-127500D02*
D03*
Y-143500D02*
D03*
X160000Y-287500D02*
D03*
Y-271500D02*
D03*
X160500Y-327500D02*
D03*
Y-343500D02*
D03*
X-40000Y-272500D02*
D03*
Y-256500D02*
D03*
Y-72500D02*
D03*
Y-56500D02*
D03*
Y127500D02*
D03*
Y143500D02*
D03*
Y-329000D02*
D03*
Y-345000D02*
D03*
Y-129000D02*
D03*
Y-145000D02*
D03*
Y71000D02*
D03*
Y55000D02*
D03*
Y271000D02*
D03*
Y255000D02*
D03*
X-62500Y-238002D02*
D03*
Y-222002D02*
D03*
Y-38002D02*
D03*
Y-22002D02*
D03*
Y161998D02*
D03*
Y177998D02*
D03*
X-46500Y345998D02*
D03*
Y361998D02*
D03*
X-62500Y-360000D02*
D03*
Y-376000D02*
D03*
Y-160000D02*
D03*
Y-176000D02*
D03*
Y40000D02*
D03*
Y24000D02*
D03*
Y240000D02*
D03*
Y224000D02*
D03*
X-87500Y-360000D02*
D03*
Y-376000D02*
D03*
Y-238500D02*
D03*
Y-222500D02*
D03*
Y-160000D02*
D03*
Y-176000D02*
D03*
Y-38000D02*
D03*
Y-22000D02*
D03*
Y40000D02*
D03*
Y24000D02*
D03*
Y161500D02*
D03*
Y177500D02*
D03*
Y240000D02*
D03*
Y224000D02*
D03*
Y361500D02*
D03*
Y377500D02*
D03*
X-127570Y-360000D02*
D03*
Y-376000D02*
D03*
X-132500Y-238500D02*
D03*
Y-222500D02*
D03*
X-127570Y-160000D02*
D03*
Y-176000D02*
D03*
X-132500Y-38500D02*
D03*
Y-22500D02*
D03*
X-127570Y40000D02*
D03*
Y24000D02*
D03*
X-132500Y161500D02*
D03*
Y177500D02*
D03*
X-127570Y240000D02*
D03*
Y224000D02*
D03*
X-132500Y361500D02*
D03*
Y377500D02*
D03*
X-160000Y-312500D02*
D03*
Y-328500D02*
D03*
X-160500Y-272500D02*
D03*
Y-256500D02*
D03*
X-160000Y-112500D02*
D03*
Y-128500D02*
D03*
X-160500Y-72500D02*
D03*
Y-56500D02*
D03*
X-160000Y87500D02*
D03*
Y71500D02*
D03*
X-160500Y127500D02*
D03*
Y143500D02*
D03*
X-160000Y287500D02*
D03*
Y271500D02*
D03*
X-160500Y327500D02*
D03*
Y343500D02*
D03*
X-360000Y272500D02*
D03*
Y256500D02*
D03*
Y72500D02*
D03*
Y56500D02*
D03*
X-360000Y-126500D02*
D03*
Y-142500D02*
D03*
X-360000Y-327500D02*
D03*
Y-343500D02*
D03*
X-337500Y238002D02*
D03*
Y222002D02*
D03*
X-360000Y129000D02*
D03*
Y145000D02*
D03*
Y-71000D02*
D03*
Y-55000D02*
D03*
Y-271000D02*
D03*
Y-255000D02*
D03*
Y329000D02*
D03*
Y345000D02*
D03*
X-337500Y38002D02*
D03*
Y22002D02*
D03*
Y-161998D02*
D03*
Y-177998D02*
D03*
Y-361998D02*
D03*
Y-377998D02*
D03*
Y359500D02*
D03*
Y375500D02*
D03*
Y160000D02*
D03*
Y176000D02*
D03*
Y-40000D02*
D03*
Y-24000D02*
D03*
Y-240000D02*
D03*
Y-224000D02*
D03*
X-312500Y359500D02*
D03*
Y375500D02*
D03*
Y238500D02*
D03*
Y222500D02*
D03*
Y159000D02*
D03*
Y175000D02*
D03*
Y38500D02*
D03*
Y22500D02*
D03*
Y-40000D02*
D03*
Y-24000D02*
D03*
Y-161500D02*
D03*
Y-177500D02*
D03*
Y-240000D02*
D03*
Y-224000D02*
D03*
Y-361500D02*
D03*
Y-377500D02*
D03*
X-272500Y359500D02*
D03*
Y375500D02*
D03*
X-267500Y238500D02*
D03*
Y222500D02*
D03*
X-272430Y160000D02*
D03*
Y176000D02*
D03*
X-267500Y38500D02*
D03*
Y22500D02*
D03*
X-272430Y-40000D02*
D03*
Y-24000D02*
D03*
X-267500Y-161500D02*
D03*
Y-177500D02*
D03*
X-272430Y-240000D02*
D03*
Y-224000D02*
D03*
X-267500Y-361500D02*
D03*
Y-377500D02*
D03*
X-240000Y312500D02*
D03*
Y328500D02*
D03*
X-239500Y272500D02*
D03*
Y256500D02*
D03*
X-240000Y112500D02*
D03*
Y128500D02*
D03*
X-239500Y72500D02*
D03*
Y56500D02*
D03*
X-240000Y-87500D02*
D03*
Y-71500D02*
D03*
X-239500Y-127500D02*
D03*
Y-143500D02*
D03*
X-240000Y-287500D02*
D03*
Y-271500D02*
D03*
X-239500Y-327500D02*
D03*
Y-343500D02*
D03*
X225000Y565000D02*
D03*
Y549000D02*
D03*
Y756000D02*
D03*
Y740000D02*
D03*
X60500Y601500D02*
D03*
Y617500D02*
D03*
X307500Y620500D02*
D03*
Y604500D02*
D03*
X350000Y650000D02*
D03*
Y666000D02*
D03*
X312500Y161500D02*
D03*
Y177500D02*
D03*
Y40000D02*
D03*
Y24000D02*
D03*
D76*
X334500Y-272500D02*
D03*
Y-277500D02*
D03*
Y-282500D02*
D03*
Y-287500D02*
D03*
Y-292500D02*
D03*
Y-297500D02*
D03*
Y-302500D02*
D03*
Y-307500D02*
D03*
Y-312500D02*
D03*
Y-317500D02*
D03*
Y-322500D02*
D03*
Y-327500D02*
D03*
X265500D02*
D03*
Y-322500D02*
D03*
Y-317500D02*
D03*
Y-312500D02*
D03*
Y-307500D02*
D03*
Y-302500D02*
D03*
Y-297500D02*
D03*
Y-292500D02*
D03*
Y-287500D02*
D03*
Y-282500D02*
D03*
Y-277500D02*
D03*
Y-272500D02*
D03*
X334500Y-72500D02*
D03*
Y-77500D02*
D03*
Y-82500D02*
D03*
Y-87500D02*
D03*
Y-92500D02*
D03*
Y-97500D02*
D03*
Y-102500D02*
D03*
Y-107500D02*
D03*
Y-112500D02*
D03*
Y-117500D02*
D03*
Y-122500D02*
D03*
Y-127500D02*
D03*
X265500D02*
D03*
Y-122500D02*
D03*
Y-117500D02*
D03*
Y-112500D02*
D03*
Y-107500D02*
D03*
Y-102500D02*
D03*
Y-97500D02*
D03*
Y-92500D02*
D03*
Y-87500D02*
D03*
Y-82500D02*
D03*
Y-77500D02*
D03*
Y-72500D02*
D03*
X334500Y127500D02*
D03*
Y122500D02*
D03*
Y117500D02*
D03*
Y112500D02*
D03*
Y107500D02*
D03*
Y102500D02*
D03*
Y97500D02*
D03*
Y92500D02*
D03*
Y87500D02*
D03*
Y82500D02*
D03*
Y77500D02*
D03*
Y72500D02*
D03*
X265500D02*
D03*
Y77500D02*
D03*
Y82500D02*
D03*
Y87500D02*
D03*
Y92500D02*
D03*
Y97500D02*
D03*
Y102500D02*
D03*
Y107500D02*
D03*
Y112500D02*
D03*
Y117500D02*
D03*
Y122500D02*
D03*
Y127500D02*
D03*
X334500Y327500D02*
D03*
Y322500D02*
D03*
Y317500D02*
D03*
Y312500D02*
D03*
Y307500D02*
D03*
Y302500D02*
D03*
Y297500D02*
D03*
Y292500D02*
D03*
Y287500D02*
D03*
Y282500D02*
D03*
Y277500D02*
D03*
Y272500D02*
D03*
X265500D02*
D03*
Y277500D02*
D03*
Y282500D02*
D03*
Y287500D02*
D03*
Y292500D02*
D03*
Y297500D02*
D03*
Y302500D02*
D03*
Y307500D02*
D03*
Y312500D02*
D03*
Y317500D02*
D03*
Y322500D02*
D03*
Y327500D02*
D03*
X65500Y272500D02*
D03*
Y277500D02*
D03*
Y282500D02*
D03*
Y287500D02*
D03*
Y292500D02*
D03*
Y297500D02*
D03*
Y302500D02*
D03*
Y307500D02*
D03*
Y312500D02*
D03*
Y317500D02*
D03*
Y322500D02*
D03*
Y327500D02*
D03*
X134500D02*
D03*
Y322500D02*
D03*
Y317500D02*
D03*
Y312500D02*
D03*
Y307500D02*
D03*
Y302500D02*
D03*
Y297500D02*
D03*
Y292500D02*
D03*
Y287500D02*
D03*
Y282500D02*
D03*
Y277500D02*
D03*
Y272500D02*
D03*
X65500Y72500D02*
D03*
Y77500D02*
D03*
Y82500D02*
D03*
Y87500D02*
D03*
Y92500D02*
D03*
Y97500D02*
D03*
Y102500D02*
D03*
Y107500D02*
D03*
Y112500D02*
D03*
Y117500D02*
D03*
Y122500D02*
D03*
Y127500D02*
D03*
X134500D02*
D03*
Y122500D02*
D03*
Y117500D02*
D03*
Y112500D02*
D03*
Y107500D02*
D03*
Y102500D02*
D03*
Y97500D02*
D03*
Y92500D02*
D03*
Y87500D02*
D03*
Y82500D02*
D03*
Y77500D02*
D03*
Y72500D02*
D03*
X65500Y-127500D02*
D03*
Y-122500D02*
D03*
Y-117500D02*
D03*
Y-112500D02*
D03*
Y-107500D02*
D03*
Y-102500D02*
D03*
Y-97500D02*
D03*
Y-92500D02*
D03*
Y-87500D02*
D03*
Y-82500D02*
D03*
Y-77500D02*
D03*
Y-72500D02*
D03*
X134500D02*
D03*
Y-77500D02*
D03*
Y-82500D02*
D03*
Y-87500D02*
D03*
Y-92500D02*
D03*
Y-97500D02*
D03*
Y-102500D02*
D03*
Y-107500D02*
D03*
Y-112500D02*
D03*
Y-117500D02*
D03*
Y-122500D02*
D03*
Y-127500D02*
D03*
X65500Y-327500D02*
D03*
Y-322500D02*
D03*
Y-317500D02*
D03*
Y-312500D02*
D03*
Y-307500D02*
D03*
Y-302500D02*
D03*
Y-297500D02*
D03*
Y-292500D02*
D03*
Y-287500D02*
D03*
Y-282500D02*
D03*
Y-277500D02*
D03*
Y-272500D02*
D03*
X134500D02*
D03*
Y-277500D02*
D03*
Y-282500D02*
D03*
Y-287500D02*
D03*
Y-292500D02*
D03*
Y-297500D02*
D03*
Y-302500D02*
D03*
Y-307500D02*
D03*
Y-312500D02*
D03*
Y-317500D02*
D03*
Y-322500D02*
D03*
Y-327500D02*
D03*
X-65500Y-272500D02*
D03*
Y-277500D02*
D03*
Y-282500D02*
D03*
Y-287500D02*
D03*
Y-292500D02*
D03*
Y-297500D02*
D03*
Y-302500D02*
D03*
Y-307500D02*
D03*
Y-312500D02*
D03*
Y-317500D02*
D03*
Y-322500D02*
D03*
Y-327500D02*
D03*
X-134500D02*
D03*
Y-322500D02*
D03*
Y-317500D02*
D03*
Y-312500D02*
D03*
Y-307500D02*
D03*
Y-302500D02*
D03*
Y-297500D02*
D03*
Y-292500D02*
D03*
Y-287500D02*
D03*
Y-282500D02*
D03*
Y-277500D02*
D03*
Y-272500D02*
D03*
X-65500Y-72500D02*
D03*
Y-77500D02*
D03*
Y-82500D02*
D03*
Y-87500D02*
D03*
Y-92500D02*
D03*
Y-97500D02*
D03*
Y-102500D02*
D03*
Y-107500D02*
D03*
Y-112500D02*
D03*
Y-117500D02*
D03*
Y-122500D02*
D03*
Y-127500D02*
D03*
X-134500D02*
D03*
Y-122500D02*
D03*
Y-117500D02*
D03*
Y-112500D02*
D03*
Y-107500D02*
D03*
Y-102500D02*
D03*
Y-97500D02*
D03*
Y-92500D02*
D03*
Y-87500D02*
D03*
Y-82500D02*
D03*
Y-77500D02*
D03*
Y-72500D02*
D03*
X-65500Y127500D02*
D03*
Y122500D02*
D03*
Y117500D02*
D03*
Y112500D02*
D03*
Y107500D02*
D03*
Y102500D02*
D03*
Y97500D02*
D03*
Y92500D02*
D03*
Y87500D02*
D03*
Y82500D02*
D03*
Y77500D02*
D03*
Y72500D02*
D03*
X-134500D02*
D03*
Y77500D02*
D03*
Y82500D02*
D03*
Y87500D02*
D03*
Y92500D02*
D03*
Y97500D02*
D03*
Y102500D02*
D03*
Y107500D02*
D03*
Y112500D02*
D03*
Y117500D02*
D03*
Y122500D02*
D03*
Y127500D02*
D03*
X-65500Y327500D02*
D03*
Y322500D02*
D03*
Y317500D02*
D03*
Y312500D02*
D03*
Y307500D02*
D03*
Y302500D02*
D03*
Y297500D02*
D03*
Y292500D02*
D03*
Y287500D02*
D03*
Y282500D02*
D03*
Y277500D02*
D03*
Y272500D02*
D03*
X-134500D02*
D03*
Y277500D02*
D03*
Y282500D02*
D03*
Y287500D02*
D03*
Y292500D02*
D03*
Y297500D02*
D03*
Y302500D02*
D03*
Y307500D02*
D03*
Y312500D02*
D03*
Y317500D02*
D03*
Y322500D02*
D03*
Y327500D02*
D03*
X-334500Y272500D02*
D03*
Y277500D02*
D03*
Y282500D02*
D03*
Y287500D02*
D03*
Y292500D02*
D03*
Y297500D02*
D03*
Y302500D02*
D03*
Y307500D02*
D03*
Y312500D02*
D03*
Y317500D02*
D03*
Y322500D02*
D03*
Y327500D02*
D03*
X-265500D02*
D03*
Y322500D02*
D03*
Y317500D02*
D03*
Y312500D02*
D03*
Y307500D02*
D03*
Y302500D02*
D03*
Y297500D02*
D03*
Y292500D02*
D03*
Y287500D02*
D03*
Y282500D02*
D03*
Y277500D02*
D03*
Y272500D02*
D03*
X-334500Y72500D02*
D03*
Y77500D02*
D03*
Y82500D02*
D03*
Y87500D02*
D03*
Y92500D02*
D03*
Y97500D02*
D03*
Y102500D02*
D03*
Y107500D02*
D03*
Y112500D02*
D03*
Y117500D02*
D03*
Y122500D02*
D03*
Y127500D02*
D03*
X-265500D02*
D03*
Y122500D02*
D03*
Y117500D02*
D03*
Y112500D02*
D03*
Y107500D02*
D03*
Y102500D02*
D03*
Y97500D02*
D03*
Y92500D02*
D03*
Y87500D02*
D03*
Y82500D02*
D03*
Y77500D02*
D03*
Y72500D02*
D03*
X-334500Y-127500D02*
D03*
Y-122500D02*
D03*
Y-117500D02*
D03*
Y-112500D02*
D03*
Y-107500D02*
D03*
Y-102500D02*
D03*
Y-97500D02*
D03*
Y-92500D02*
D03*
Y-87500D02*
D03*
Y-82500D02*
D03*
Y-77500D02*
D03*
Y-72500D02*
D03*
X-265500D02*
D03*
Y-77500D02*
D03*
Y-82500D02*
D03*
Y-87500D02*
D03*
Y-92500D02*
D03*
Y-97500D02*
D03*
Y-102500D02*
D03*
Y-107500D02*
D03*
Y-112500D02*
D03*
Y-117500D02*
D03*
Y-122500D02*
D03*
Y-127500D02*
D03*
X-334500Y-327500D02*
D03*
Y-322500D02*
D03*
Y-317500D02*
D03*
Y-312500D02*
D03*
Y-307500D02*
D03*
Y-302500D02*
D03*
Y-297500D02*
D03*
Y-292500D02*
D03*
Y-287500D02*
D03*
Y-282500D02*
D03*
Y-277500D02*
D03*
Y-272500D02*
D03*
X-265500D02*
D03*
Y-277500D02*
D03*
Y-282500D02*
D03*
Y-287500D02*
D03*
Y-292500D02*
D03*
Y-297500D02*
D03*
Y-302500D02*
D03*
Y-307500D02*
D03*
Y-312500D02*
D03*
Y-317500D02*
D03*
Y-322500D02*
D03*
Y-327500D02*
D03*
D77*
X327500Y-334500D02*
D03*
X322500D02*
D03*
X317500D02*
D03*
X312500D02*
D03*
X307500D02*
D03*
X302500D02*
D03*
X297500D02*
D03*
X292500D02*
D03*
X287500D02*
D03*
X282500D02*
D03*
X277500D02*
D03*
X272500D02*
D03*
Y-265500D02*
D03*
X277500D02*
D03*
X282500D02*
D03*
X287500D02*
D03*
X292500D02*
D03*
X297500D02*
D03*
X302500D02*
D03*
X307500D02*
D03*
X312500D02*
D03*
X317500D02*
D03*
X322500D02*
D03*
X327500D02*
D03*
Y-134500D02*
D03*
X322500D02*
D03*
X317500D02*
D03*
X312500D02*
D03*
X307500D02*
D03*
X302500D02*
D03*
X297500D02*
D03*
X292500D02*
D03*
X287500D02*
D03*
X282500D02*
D03*
X277500D02*
D03*
X272500D02*
D03*
Y-65500D02*
D03*
X277500D02*
D03*
X282500D02*
D03*
X287500D02*
D03*
X292500D02*
D03*
X297500D02*
D03*
X302500D02*
D03*
X307500D02*
D03*
X312500D02*
D03*
X317500D02*
D03*
X322500D02*
D03*
X327500D02*
D03*
Y65500D02*
D03*
X322500D02*
D03*
X317500D02*
D03*
X312500D02*
D03*
X307500D02*
D03*
X302500D02*
D03*
X297500D02*
D03*
X292500D02*
D03*
X287500D02*
D03*
X282500D02*
D03*
X277500D02*
D03*
X272500D02*
D03*
Y134500D02*
D03*
X277500D02*
D03*
X282500D02*
D03*
X287500D02*
D03*
X292500D02*
D03*
X297500D02*
D03*
X302500D02*
D03*
X307500D02*
D03*
X312500D02*
D03*
X317500D02*
D03*
X322500D02*
D03*
X327500D02*
D03*
Y265500D02*
D03*
X322500D02*
D03*
X317500D02*
D03*
X312500D02*
D03*
X307500D02*
D03*
X302500D02*
D03*
X297500D02*
D03*
X292500D02*
D03*
X287500D02*
D03*
X282500D02*
D03*
X277500D02*
D03*
X272500D02*
D03*
Y334500D02*
D03*
X277500D02*
D03*
X282500D02*
D03*
X287500D02*
D03*
X292500D02*
D03*
X297500D02*
D03*
X302500D02*
D03*
X307500D02*
D03*
X312500D02*
D03*
X317500D02*
D03*
X322500D02*
D03*
X327500D02*
D03*
X72500D02*
D03*
X77500D02*
D03*
X82500D02*
D03*
X87500D02*
D03*
X92500D02*
D03*
X97500D02*
D03*
X102500D02*
D03*
X107500D02*
D03*
X112500D02*
D03*
X117500D02*
D03*
X122500D02*
D03*
X127500D02*
D03*
Y265500D02*
D03*
X122500D02*
D03*
X117500D02*
D03*
X112500D02*
D03*
X107500D02*
D03*
X102500D02*
D03*
X97500D02*
D03*
X92500D02*
D03*
X87500D02*
D03*
X82500D02*
D03*
X77500D02*
D03*
X72500D02*
D03*
Y134500D02*
D03*
X77500D02*
D03*
X82500D02*
D03*
X87500D02*
D03*
X92500D02*
D03*
X97500D02*
D03*
X102500D02*
D03*
X107500D02*
D03*
X112500D02*
D03*
X117500D02*
D03*
X122500D02*
D03*
X127500D02*
D03*
Y65500D02*
D03*
X122500D02*
D03*
X117500D02*
D03*
X112500D02*
D03*
X107500D02*
D03*
X102500D02*
D03*
X97500D02*
D03*
X92500D02*
D03*
X87500D02*
D03*
X82500D02*
D03*
X77500D02*
D03*
X72500D02*
D03*
Y-65500D02*
D03*
X77500D02*
D03*
X82500D02*
D03*
X87500D02*
D03*
X92500D02*
D03*
X97500D02*
D03*
X102500D02*
D03*
X107500D02*
D03*
X112500D02*
D03*
X117500D02*
D03*
X122500D02*
D03*
X127500D02*
D03*
Y-134500D02*
D03*
X122500D02*
D03*
X117500D02*
D03*
X112500D02*
D03*
X107500D02*
D03*
X102500D02*
D03*
X97500D02*
D03*
X92500D02*
D03*
X87500D02*
D03*
X82500D02*
D03*
X77500D02*
D03*
X72500D02*
D03*
Y-265500D02*
D03*
X77500D02*
D03*
X82500D02*
D03*
X87500D02*
D03*
X92500D02*
D03*
X97500D02*
D03*
X102500D02*
D03*
X107500D02*
D03*
X112500D02*
D03*
X117500D02*
D03*
X122500D02*
D03*
X127500D02*
D03*
Y-334500D02*
D03*
X122500D02*
D03*
X117500D02*
D03*
X112500D02*
D03*
X107500D02*
D03*
X102500D02*
D03*
X97500D02*
D03*
X92500D02*
D03*
X87500D02*
D03*
X82500D02*
D03*
X77500D02*
D03*
X72500D02*
D03*
X-72500D02*
D03*
X-77500D02*
D03*
X-82500D02*
D03*
X-87500D02*
D03*
X-92500D02*
D03*
X-97500D02*
D03*
X-102500D02*
D03*
X-107500D02*
D03*
X-112500D02*
D03*
X-117500D02*
D03*
X-122500D02*
D03*
X-127500D02*
D03*
Y-265500D02*
D03*
X-122500D02*
D03*
X-117500D02*
D03*
X-112500D02*
D03*
X-107500D02*
D03*
X-102500D02*
D03*
X-97500D02*
D03*
X-92500D02*
D03*
X-87500D02*
D03*
X-82500D02*
D03*
X-77500D02*
D03*
X-72500D02*
D03*
Y-134500D02*
D03*
X-77500D02*
D03*
X-82500D02*
D03*
X-87500D02*
D03*
X-92500D02*
D03*
X-97500D02*
D03*
X-102500D02*
D03*
X-107500D02*
D03*
X-112500D02*
D03*
X-117500D02*
D03*
X-122500D02*
D03*
X-127500D02*
D03*
Y-65500D02*
D03*
X-122500D02*
D03*
X-117500D02*
D03*
X-112500D02*
D03*
X-107500D02*
D03*
X-102500D02*
D03*
X-97500D02*
D03*
X-92500D02*
D03*
X-87500D02*
D03*
X-82500D02*
D03*
X-77500D02*
D03*
X-72500D02*
D03*
Y65500D02*
D03*
X-77500D02*
D03*
X-82500D02*
D03*
X-87500D02*
D03*
X-92500D02*
D03*
X-97500D02*
D03*
X-102500D02*
D03*
X-107500D02*
D03*
X-112500D02*
D03*
X-117500D02*
D03*
X-122500D02*
D03*
X-127500D02*
D03*
Y134500D02*
D03*
X-122500D02*
D03*
X-117500D02*
D03*
X-112500D02*
D03*
X-107500D02*
D03*
X-102500D02*
D03*
X-97500D02*
D03*
X-92500D02*
D03*
X-87500D02*
D03*
X-82500D02*
D03*
X-77500D02*
D03*
X-72500D02*
D03*
Y265500D02*
D03*
X-77500D02*
D03*
X-82500D02*
D03*
X-87500D02*
D03*
X-92500D02*
D03*
X-97500D02*
D03*
X-102500D02*
D03*
X-107500D02*
D03*
X-112500D02*
D03*
X-117500D02*
D03*
X-122500D02*
D03*
X-127500D02*
D03*
Y334500D02*
D03*
X-122500D02*
D03*
X-117500D02*
D03*
X-112500D02*
D03*
X-107500D02*
D03*
X-102500D02*
D03*
X-97500D02*
D03*
X-92500D02*
D03*
X-87500D02*
D03*
X-82500D02*
D03*
X-77500D02*
D03*
X-72500D02*
D03*
X-327500D02*
D03*
X-322500D02*
D03*
X-317500D02*
D03*
X-312500D02*
D03*
X-307500D02*
D03*
X-302500D02*
D03*
X-297500D02*
D03*
X-292500D02*
D03*
X-287500D02*
D03*
X-282500D02*
D03*
X-277500D02*
D03*
X-272500D02*
D03*
Y265500D02*
D03*
X-277500D02*
D03*
X-282500D02*
D03*
X-287500D02*
D03*
X-292500D02*
D03*
X-297500D02*
D03*
X-302500D02*
D03*
X-307500D02*
D03*
X-312500D02*
D03*
X-317500D02*
D03*
X-322500D02*
D03*
X-327500D02*
D03*
Y134500D02*
D03*
X-322500D02*
D03*
X-317500D02*
D03*
X-312500D02*
D03*
X-307500D02*
D03*
X-302500D02*
D03*
X-297500D02*
D03*
X-292500D02*
D03*
X-287500D02*
D03*
X-282500D02*
D03*
X-277500D02*
D03*
X-272500D02*
D03*
Y65500D02*
D03*
X-277500D02*
D03*
X-282500D02*
D03*
X-287500D02*
D03*
X-292500D02*
D03*
X-297500D02*
D03*
X-302500D02*
D03*
X-307500D02*
D03*
X-312500D02*
D03*
X-317500D02*
D03*
X-322500D02*
D03*
X-327500D02*
D03*
Y-65500D02*
D03*
X-322500D02*
D03*
X-317500D02*
D03*
X-312500D02*
D03*
X-307500D02*
D03*
X-302500D02*
D03*
X-297500D02*
D03*
X-292500D02*
D03*
X-287500D02*
D03*
X-282500D02*
D03*
X-277500D02*
D03*
X-272500D02*
D03*
Y-134500D02*
D03*
X-277500D02*
D03*
X-282500D02*
D03*
X-287500D02*
D03*
X-292500D02*
D03*
X-297500D02*
D03*
X-302500D02*
D03*
X-307500D02*
D03*
X-312500D02*
D03*
X-317500D02*
D03*
X-322500D02*
D03*
X-327500D02*
D03*
Y-265500D02*
D03*
X-322500D02*
D03*
X-317500D02*
D03*
X-312500D02*
D03*
X-307500D02*
D03*
X-302500D02*
D03*
X-297500D02*
D03*
X-292500D02*
D03*
X-287500D02*
D03*
X-282500D02*
D03*
X-277500D02*
D03*
X-272500D02*
D03*
Y-334500D02*
D03*
X-277500D02*
D03*
X-282500D02*
D03*
X-287500D02*
D03*
X-292500D02*
D03*
X-297500D02*
D03*
X-302500D02*
D03*
X-307500D02*
D03*
X-312500D02*
D03*
X-317500D02*
D03*
X-322500D02*
D03*
X-327500D02*
D03*
D78*
X229000Y-347500D02*
D03*
X245000D02*
D03*
X229500Y-147500D02*
D03*
X245500D02*
D03*
X230000Y52500D02*
D03*
X246000D02*
D03*
X229500Y252500D02*
D03*
X245500D02*
D03*
X62500Y360000D02*
D03*
X46500D02*
D03*
X171000Y347500D02*
D03*
X155000D02*
D03*
X171000Y147500D02*
D03*
X155000D02*
D03*
X171000Y-52500D02*
D03*
X155000D02*
D03*
X171000Y-252500D02*
D03*
X155000D02*
D03*
X-40000Y327500D02*
D03*
X-24000D02*
D03*
X-171000Y-347500D02*
D03*
X-155000D02*
D03*
X-171000Y-147500D02*
D03*
X-155000D02*
D03*
X-171000Y52500D02*
D03*
X-155000D02*
D03*
X-171000Y252500D02*
D03*
X-155000D02*
D03*
X-229000Y347500D02*
D03*
X-245000D02*
D03*
X-229000Y147500D02*
D03*
X-245000D02*
D03*
X-229000Y-52500D02*
D03*
X-245000D02*
D03*
X-229000Y-252500D02*
D03*
X-245000D02*
D03*
X340000Y590000D02*
D03*
X324000D02*
D03*
X92000Y655000D02*
D03*
X108000D02*
D03*
X340000Y575000D02*
D03*
X324000D02*
D03*
X401000Y730000D02*
D03*
X385000D02*
D03*
X351500D02*
D03*
X367500D02*
D03*
X192000Y567500D02*
D03*
X208000D02*
D03*
Y552500D02*
D03*
X192000D02*
D03*
D79*
X-361450Y692451D02*
D03*
X-343450D02*
D03*
X-71500Y691701D02*
D03*
X-53500D02*
D03*
X-252249Y661751D02*
D03*
X-270249D02*
D03*
X-356500Y582500D02*
D03*
X-338500D02*
D03*
X61000Y440000D02*
D03*
X79000D02*
D03*
X61000Y460000D02*
D03*
X79000D02*
D03*
X30500D02*
D03*
X12500D02*
D03*
X-216000Y365000D02*
D03*
X-234000D02*
D03*
X36500Y660000D02*
D03*
X18500D02*
D03*
X-166000Y407500D02*
D03*
X-184000D02*
D03*
X-166000Y427500D02*
D03*
X-184000D02*
D03*
X30500Y440000D02*
D03*
X12500D02*
D03*
X30500Y540000D02*
D03*
X12500D02*
D03*
X119000Y470000D02*
D03*
X101000D02*
D03*
X-64000Y582500D02*
D03*
X-46000D02*
D03*
X55000Y660000D02*
D03*
X73000D02*
D03*
X408000Y702500D02*
D03*
X390000D02*
D03*
X261000Y770000D02*
D03*
X279000D02*
D03*
X323500Y555000D02*
D03*
X341500D02*
D03*
X374000Y497500D02*
D03*
X356000D02*
D03*
X-76000Y792500D02*
D03*
X-94000D02*
D03*
X61000D02*
D03*
X79000D02*
D03*
X-166000Y507500D02*
D03*
X-184000D02*
D03*
X-251000Y582500D02*
D03*
X-269000D02*
D03*
X-166000Y655000D02*
D03*
X-184000D02*
D03*
X-64000Y622500D02*
D03*
X-46000D02*
D03*
X-184000Y580000D02*
D03*
X-166000D02*
D03*
X-184000Y700000D02*
D03*
X-166000D02*
D03*
X-206000Y660000D02*
D03*
X-224000D02*
D03*
X12500Y600000D02*
D03*
X30500D02*
D03*
X12500Y520000D02*
D03*
X30500D02*
D03*
X-46000Y562500D02*
D03*
X-64000D02*
D03*
X-46000Y602500D02*
D03*
X-64000D02*
D03*
X12500Y560000D02*
D03*
X30500D02*
D03*
X65500Y520000D02*
D03*
X47500D02*
D03*
X-184000Y467500D02*
D03*
X-166000D02*
D03*
X-184000Y600000D02*
D03*
X-166000D02*
D03*
X101000Y550000D02*
D03*
X119000D02*
D03*
X79000Y480000D02*
D03*
X61000D02*
D03*
X-18500Y395000D02*
D03*
X-36500D02*
D03*
X-184000Y487500D02*
D03*
X-166000D02*
D03*
X-184000Y560000D02*
D03*
X-166000D02*
D03*
X-184000Y540000D02*
D03*
X-166000D02*
D03*
X12500Y480000D02*
D03*
X30500D02*
D03*
X83000Y540000D02*
D03*
X65000D02*
D03*
X83000Y560000D02*
D03*
X65000D02*
D03*
X-206000Y700000D02*
D03*
X-224000D02*
D03*
X-184000Y677500D02*
D03*
X-166000D02*
D03*
X101000Y530000D02*
D03*
X119000D02*
D03*
X154000Y510000D02*
D03*
X136000D02*
D03*
X101000D02*
D03*
X119000D02*
D03*
X154000Y530000D02*
D03*
X136000D02*
D03*
X-68500Y405000D02*
D03*
X-86500D02*
D03*
X154000Y470000D02*
D03*
X136000D02*
D03*
X-269000Y562500D02*
D03*
X-251000D02*
D03*
X12500Y580000D02*
D03*
X30500D02*
D03*
X-184000Y447500D02*
D03*
X-166000D02*
D03*
X-338500Y562500D02*
D03*
X-356500D02*
D03*
X-229000Y572500D02*
D03*
X-211000D02*
D03*
X-131000Y407500D02*
D03*
X-149000D02*
D03*
D80*
X152500Y431000D02*
D03*
Y449000D02*
D03*
X-335000Y391000D02*
D03*
Y409000D02*
D03*
X-355000Y391000D02*
D03*
Y409000D02*
D03*
X-225000Y549000D02*
D03*
Y531000D02*
D03*
X-312451Y619749D02*
D03*
Y601749D02*
D03*
X242500Y756500D02*
D03*
Y738500D02*
D03*
X80000Y680750D02*
D03*
Y698750D02*
D03*
X175000Y501000D02*
D03*
Y519000D02*
D03*
X25000Y621000D02*
D03*
Y639000D02*
D03*
X150000Y711500D02*
D03*
Y693500D02*
D03*
X36250Y680863D02*
D03*
Y698863D02*
D03*
X340000Y479000D02*
D03*
Y461000D02*
D03*
X337500Y496000D02*
D03*
Y514000D02*
D03*
X360000Y479000D02*
D03*
Y461000D02*
D03*
X-315000Y391000D02*
D03*
Y409000D02*
D03*
X-202500Y501000D02*
D03*
Y519000D02*
D03*
X-255000Y391000D02*
D03*
Y409000D02*
D03*
X-235000Y391000D02*
D03*
Y409000D02*
D03*
X-352500Y620000D02*
D03*
Y602000D02*
D03*
X-187500Y636500D02*
D03*
Y618500D02*
D03*
X-167500Y636500D02*
D03*
Y618500D02*
D03*
X35000Y752000D02*
D03*
Y770000D02*
D03*
X115000Y752000D02*
D03*
Y770000D02*
D03*
X100000Y601500D02*
D03*
Y583500D02*
D03*
X-40001Y734999D02*
D03*
Y716999D02*
D03*
X-27500Y613000D02*
D03*
Y631000D02*
D03*
X-7500Y613000D02*
D03*
Y631000D02*
D03*
X-115000Y752000D02*
D03*
Y770000D02*
D03*
X-207500Y636500D02*
D03*
Y618500D02*
D03*
X55000Y752000D02*
D03*
Y770000D02*
D03*
X-10000Y752000D02*
D03*
Y770000D02*
D03*
X-55000Y752000D02*
D03*
Y770000D02*
D03*
X20000Y735000D02*
D03*
Y717000D02*
D03*
X-0Y735000D02*
D03*
Y717000D02*
D03*
X-20000Y735000D02*
D03*
Y717000D02*
D03*
X-253749Y680864D02*
D03*
Y698864D02*
D03*
X-272500Y600999D02*
D03*
Y618999D02*
D03*
X-252500Y601000D02*
D03*
Y619000D02*
D03*
X-332451Y601749D02*
D03*
Y619749D02*
D03*
X-292500Y601000D02*
D03*
Y619000D02*
D03*
X75000Y752000D02*
D03*
Y770000D02*
D03*
X60000Y735000D02*
D03*
Y717000D02*
D03*
X80000Y735000D02*
D03*
Y717000D02*
D03*
X40000Y735000D02*
D03*
Y717000D02*
D03*
X-80000Y735000D02*
D03*
Y717000D02*
D03*
X-135000Y752000D02*
D03*
Y770000D02*
D03*
X95000Y752000D02*
D03*
Y770000D02*
D03*
X-60000Y735000D02*
D03*
Y717000D02*
D03*
X100000Y735000D02*
D03*
Y717000D02*
D03*
X-75000Y752000D02*
D03*
Y770000D02*
D03*
X-95000Y752000D02*
D03*
Y770000D02*
D03*
X-202500Y536000D02*
D03*
Y554000D02*
D03*
X-232500Y601000D02*
D03*
Y619000D02*
D03*
X-275000Y409000D02*
D03*
Y391000D02*
D03*
X-295000Y409000D02*
D03*
Y391000D02*
D03*
X-417451Y754249D02*
D03*
Y772249D02*
D03*
X-397451Y754249D02*
D03*
Y772249D02*
D03*
X-437451Y754249D02*
D03*
Y772249D02*
D03*
D81*
X-52500Y-297500D02*
D03*
Y-94500D02*
D03*
X-50000Y102500D02*
D03*
X-320000Y347500D02*
D03*
X-327500Y352500D02*
D03*
X-52500Y302500D02*
D03*
X350000D02*
D03*
Y102500D02*
D03*
Y-97500D02*
D03*
Y-297500D02*
D03*
X52500Y97500D02*
D03*
X50000Y-102500D02*
D03*
Y-302500D02*
D03*
Y297500D02*
D03*
X-350000Y-302500D02*
D03*
X-347500Y297500D02*
D03*
X-350000Y97500D02*
D03*
Y-102500D02*
D03*
X318655Y-281250D02*
D03*
X318801Y-288853D02*
D03*
Y-296345D02*
D03*
X318853Y-303802D02*
D03*
X318801Y-311345D02*
D03*
X318853Y-318853D02*
D03*
X311345Y-318801D02*
D03*
X311294Y-311294D02*
D03*
X311345Y-303750D02*
D03*
X311294Y-296294D02*
D03*
Y-288802D02*
D03*
X311147Y-281199D02*
D03*
X304051Y-318801D02*
D03*
X304000Y-311294D02*
D03*
X304051Y-303750D02*
D03*
X304000Y-296294D02*
D03*
Y-288802D02*
D03*
X303853Y-281199D02*
D03*
X296345Y-318801D02*
D03*
X296294Y-311294D02*
D03*
X296345Y-303750D02*
D03*
X296294Y-296294D02*
D03*
Y-288802D02*
D03*
X296147Y-281199D02*
D03*
X288853Y-318801D02*
D03*
X288801Y-311294D02*
D03*
X288853Y-303750D02*
D03*
X288801Y-296294D02*
D03*
Y-288802D02*
D03*
X288655Y-281199D02*
D03*
X281345Y-318801D02*
D03*
X281294Y-311294D02*
D03*
X281345Y-303750D02*
D03*
X281294Y-296294D02*
D03*
Y-288802D02*
D03*
X281147Y-281199D02*
D03*
X318655Y-81250D02*
D03*
X318801Y-88853D02*
D03*
Y-96345D02*
D03*
X318853Y-103801D02*
D03*
X318801Y-111345D02*
D03*
X318853Y-118853D02*
D03*
X311345Y-118801D02*
D03*
X311294Y-111294D02*
D03*
X311345Y-103750D02*
D03*
X311294Y-96294D02*
D03*
Y-88801D02*
D03*
X311147Y-81199D02*
D03*
X304051Y-118801D02*
D03*
X304000Y-111294D02*
D03*
X304051Y-103750D02*
D03*
X304000Y-96294D02*
D03*
Y-88801D02*
D03*
X303853Y-81199D02*
D03*
X296345Y-118801D02*
D03*
X296294Y-111294D02*
D03*
X296345Y-103750D02*
D03*
X296294Y-96294D02*
D03*
Y-88801D02*
D03*
X296147Y-81199D02*
D03*
X288853Y-118801D02*
D03*
X288801Y-111294D02*
D03*
X288853Y-103750D02*
D03*
X288801Y-96294D02*
D03*
Y-88801D02*
D03*
X288655Y-81199D02*
D03*
X281345Y-118801D02*
D03*
X281294Y-111294D02*
D03*
X281345Y-103750D02*
D03*
X281294Y-96294D02*
D03*
Y-88801D02*
D03*
X281147Y-81199D02*
D03*
X318655Y118750D02*
D03*
X318801Y111147D02*
D03*
Y103655D02*
D03*
X318853Y96199D02*
D03*
X318801Y88655D02*
D03*
X318853Y81147D02*
D03*
X311345Y81199D02*
D03*
X311294Y88706D02*
D03*
X311345Y96250D02*
D03*
X311294Y103706D02*
D03*
Y111199D02*
D03*
X311147Y118801D02*
D03*
X304051Y81199D02*
D03*
X304000Y88706D02*
D03*
X304051Y96250D02*
D03*
X304000Y103706D02*
D03*
Y111199D02*
D03*
X303853Y118801D02*
D03*
X296345Y81199D02*
D03*
X296294Y88706D02*
D03*
X296345Y96250D02*
D03*
X296294Y103706D02*
D03*
Y111199D02*
D03*
X296147Y118801D02*
D03*
X288853Y81199D02*
D03*
X288801Y88706D02*
D03*
X288853Y96250D02*
D03*
X288801Y103706D02*
D03*
Y111199D02*
D03*
X288655Y118801D02*
D03*
X281345Y81199D02*
D03*
X281294Y88706D02*
D03*
X281345Y96250D02*
D03*
X281294Y103706D02*
D03*
Y111199D02*
D03*
X281147Y118801D02*
D03*
X318655Y318750D02*
D03*
X318801Y311147D02*
D03*
Y303655D02*
D03*
X318853Y296199D02*
D03*
X318801Y288655D02*
D03*
X318853Y281147D02*
D03*
X311345Y281199D02*
D03*
X311294Y288706D02*
D03*
X311345Y296250D02*
D03*
X311294Y303706D02*
D03*
Y311199D02*
D03*
X311147Y318801D02*
D03*
X304051Y281199D02*
D03*
X304000Y288706D02*
D03*
X304051Y296250D02*
D03*
X304000Y303706D02*
D03*
Y311199D02*
D03*
X303853Y318801D02*
D03*
X296345Y281199D02*
D03*
X296294Y288706D02*
D03*
X296345Y296250D02*
D03*
X296294Y303706D02*
D03*
Y311199D02*
D03*
X296147Y318801D02*
D03*
X288853Y281199D02*
D03*
X288801Y288706D02*
D03*
X288853Y296250D02*
D03*
X288801Y303706D02*
D03*
Y311199D02*
D03*
X288655Y318801D02*
D03*
X281345Y281199D02*
D03*
X281294Y288706D02*
D03*
X281345Y296250D02*
D03*
X281294Y303706D02*
D03*
Y311199D02*
D03*
X281147Y318801D02*
D03*
X81345Y281250D02*
D03*
X81199Y288853D02*
D03*
Y296345D02*
D03*
X81147Y303801D02*
D03*
X81199Y311345D02*
D03*
X81147Y318853D02*
D03*
X88655Y318801D02*
D03*
X88706Y311294D02*
D03*
X88655Y303750D02*
D03*
X88706Y296294D02*
D03*
Y288801D02*
D03*
X88853Y281199D02*
D03*
X95949Y318801D02*
D03*
X96000Y311294D02*
D03*
X95949Y303750D02*
D03*
X96000Y296294D02*
D03*
Y288801D02*
D03*
X96147Y281199D02*
D03*
X103655Y318801D02*
D03*
X103706Y311294D02*
D03*
X103655Y303750D02*
D03*
X103706Y296294D02*
D03*
Y288801D02*
D03*
X103853Y281199D02*
D03*
X111147Y318801D02*
D03*
X111199Y311294D02*
D03*
X111147Y303750D02*
D03*
X111199Y296294D02*
D03*
Y288801D02*
D03*
X111345Y281199D02*
D03*
X118655Y318801D02*
D03*
X118706Y311294D02*
D03*
X118655Y303750D02*
D03*
X118706Y296294D02*
D03*
Y288801D02*
D03*
X118853Y281199D02*
D03*
X81345Y81250D02*
D03*
X81199Y88853D02*
D03*
Y96345D02*
D03*
X81147Y103801D02*
D03*
X81199Y111345D02*
D03*
X81147Y118853D02*
D03*
X88655Y118801D02*
D03*
X88706Y111294D02*
D03*
X88655Y103750D02*
D03*
X88706Y96294D02*
D03*
Y88801D02*
D03*
X88853Y81199D02*
D03*
X95949Y118801D02*
D03*
X96000Y111294D02*
D03*
X95949Y103750D02*
D03*
X96000Y96294D02*
D03*
Y88801D02*
D03*
X96147Y81199D02*
D03*
X103655Y118801D02*
D03*
X103706Y111294D02*
D03*
X103655Y103750D02*
D03*
X103706Y96294D02*
D03*
Y88801D02*
D03*
X103853Y81199D02*
D03*
X111147Y118801D02*
D03*
X111199Y111294D02*
D03*
X111147Y103750D02*
D03*
X111199Y96294D02*
D03*
Y88801D02*
D03*
X111345Y81199D02*
D03*
X118655Y118801D02*
D03*
X118706Y111294D02*
D03*
X118655Y103750D02*
D03*
X118706Y96294D02*
D03*
Y88801D02*
D03*
X118853Y81199D02*
D03*
X81345Y-118750D02*
D03*
X81199Y-111147D02*
D03*
Y-103655D02*
D03*
X81147Y-96199D02*
D03*
X81199Y-88655D02*
D03*
X81147Y-81147D02*
D03*
X88655Y-81199D02*
D03*
X88706Y-88706D02*
D03*
X88655Y-96250D02*
D03*
X88706Y-103706D02*
D03*
Y-111199D02*
D03*
X88853Y-118801D02*
D03*
X95949Y-81199D02*
D03*
X96000Y-88706D02*
D03*
X95949Y-96250D02*
D03*
X96000Y-103706D02*
D03*
Y-111199D02*
D03*
X96147Y-118801D02*
D03*
X103655Y-81199D02*
D03*
X103706Y-88706D02*
D03*
X103655Y-96250D02*
D03*
X103706Y-103706D02*
D03*
Y-111199D02*
D03*
X103853Y-118801D02*
D03*
X111147Y-81199D02*
D03*
X111199Y-88706D02*
D03*
X111147Y-96250D02*
D03*
X111199Y-103706D02*
D03*
Y-111199D02*
D03*
X111345Y-118801D02*
D03*
X118655Y-81199D02*
D03*
X118706Y-88706D02*
D03*
X118655Y-96250D02*
D03*
X118706Y-103706D02*
D03*
Y-111199D02*
D03*
X118853Y-118801D02*
D03*
X81345Y-318750D02*
D03*
X81199Y-311147D02*
D03*
Y-303655D02*
D03*
X81147Y-296199D02*
D03*
X81199Y-288655D02*
D03*
X81147Y-281147D02*
D03*
X88655Y-281199D02*
D03*
X88706Y-288706D02*
D03*
X88655Y-296250D02*
D03*
X88706Y-303706D02*
D03*
Y-311199D02*
D03*
X88853Y-318801D02*
D03*
X95949Y-281199D02*
D03*
X96000Y-288706D02*
D03*
X95949Y-296250D02*
D03*
X96000Y-303706D02*
D03*
Y-311199D02*
D03*
X96147Y-318801D02*
D03*
X103655Y-281199D02*
D03*
X103706Y-288706D02*
D03*
X103655Y-296250D02*
D03*
X103706Y-303706D02*
D03*
Y-311199D02*
D03*
X103853Y-318801D02*
D03*
X111147Y-281199D02*
D03*
X111199Y-288706D02*
D03*
X111147Y-296250D02*
D03*
X111199Y-303706D02*
D03*
Y-311199D02*
D03*
X111345Y-318801D02*
D03*
X118655Y-281199D02*
D03*
X118706Y-288706D02*
D03*
X118655Y-296250D02*
D03*
X118706Y-303706D02*
D03*
Y-311199D02*
D03*
X118853Y-318801D02*
D03*
X-81345Y-281250D02*
D03*
X-81199Y-288853D02*
D03*
Y-296345D02*
D03*
X-81147Y-303802D02*
D03*
X-81199Y-311345D02*
D03*
X-81147Y-318853D02*
D03*
X-88655Y-318801D02*
D03*
X-88706Y-311294D02*
D03*
X-88655Y-303750D02*
D03*
X-88706Y-296294D02*
D03*
Y-288802D02*
D03*
X-88853Y-281199D02*
D03*
X-95949Y-318801D02*
D03*
X-96000Y-311294D02*
D03*
X-95949Y-303750D02*
D03*
X-96000Y-296294D02*
D03*
Y-288802D02*
D03*
X-96147Y-281199D02*
D03*
X-103655Y-318801D02*
D03*
X-103706Y-311294D02*
D03*
X-103655Y-303750D02*
D03*
X-103706Y-296294D02*
D03*
Y-288802D02*
D03*
X-103853Y-281199D02*
D03*
X-111147Y-318801D02*
D03*
X-111199Y-311294D02*
D03*
X-111147Y-303750D02*
D03*
X-111199Y-296294D02*
D03*
Y-288802D02*
D03*
X-111345Y-281199D02*
D03*
X-118655Y-318801D02*
D03*
X-118706Y-311294D02*
D03*
X-118655Y-303750D02*
D03*
X-118706Y-296294D02*
D03*
Y-288802D02*
D03*
X-118853Y-281199D02*
D03*
X-81345Y-81250D02*
D03*
X-81199Y-88853D02*
D03*
Y-96345D02*
D03*
X-81147Y-103801D02*
D03*
X-81199Y-111345D02*
D03*
X-81147Y-118853D02*
D03*
X-88655Y-118801D02*
D03*
X-88706Y-111294D02*
D03*
X-88655Y-103750D02*
D03*
X-88706Y-96294D02*
D03*
Y-88801D02*
D03*
X-88853Y-81199D02*
D03*
X-95949Y-118801D02*
D03*
X-96000Y-111294D02*
D03*
X-95949Y-103750D02*
D03*
X-96000Y-96294D02*
D03*
Y-88801D02*
D03*
X-96147Y-81199D02*
D03*
X-103655Y-118801D02*
D03*
X-103706Y-111294D02*
D03*
X-103655Y-103750D02*
D03*
X-103706Y-96294D02*
D03*
Y-88801D02*
D03*
X-103853Y-81199D02*
D03*
X-111147Y-118801D02*
D03*
X-111199Y-111294D02*
D03*
X-111147Y-103750D02*
D03*
X-111199Y-96294D02*
D03*
Y-88801D02*
D03*
X-111345Y-81199D02*
D03*
X-118655Y-118801D02*
D03*
X-118706Y-111294D02*
D03*
X-118655Y-103750D02*
D03*
X-118706Y-96294D02*
D03*
Y-88801D02*
D03*
X-118853Y-81199D02*
D03*
X-81345Y118750D02*
D03*
X-81199Y111147D02*
D03*
Y103655D02*
D03*
X-81147Y96199D02*
D03*
X-81199Y88655D02*
D03*
X-81147Y81147D02*
D03*
X-88655Y81199D02*
D03*
X-88706Y88706D02*
D03*
X-88655Y96250D02*
D03*
X-88706Y103706D02*
D03*
Y111199D02*
D03*
X-88853Y118801D02*
D03*
X-95949Y81199D02*
D03*
X-96000Y88706D02*
D03*
X-95949Y96250D02*
D03*
X-96000Y103706D02*
D03*
Y111199D02*
D03*
X-96147Y118801D02*
D03*
X-103655Y81199D02*
D03*
X-103706Y88706D02*
D03*
X-103655Y96250D02*
D03*
X-103706Y103706D02*
D03*
Y111199D02*
D03*
X-103853Y118801D02*
D03*
X-111147Y81199D02*
D03*
X-111199Y88706D02*
D03*
X-111147Y96250D02*
D03*
X-111199Y103706D02*
D03*
Y111199D02*
D03*
X-111345Y118801D02*
D03*
X-118655Y81199D02*
D03*
X-118706Y88706D02*
D03*
X-118655Y96250D02*
D03*
X-118706Y103706D02*
D03*
Y111199D02*
D03*
X-118853Y118801D02*
D03*
X-81345Y318750D02*
D03*
X-81199Y311147D02*
D03*
Y303655D02*
D03*
X-81147Y296199D02*
D03*
X-81199Y288655D02*
D03*
X-81147Y281147D02*
D03*
X-88655Y281199D02*
D03*
X-88706Y288706D02*
D03*
X-88655Y296250D02*
D03*
X-88706Y303706D02*
D03*
Y311199D02*
D03*
X-88853Y318801D02*
D03*
X-95949Y281199D02*
D03*
X-96000Y288706D02*
D03*
X-95949Y296250D02*
D03*
X-96000Y303706D02*
D03*
Y311199D02*
D03*
X-96147Y318801D02*
D03*
X-103655Y281199D02*
D03*
X-103706Y288706D02*
D03*
X-103655Y296250D02*
D03*
X-103706Y303706D02*
D03*
Y311199D02*
D03*
X-103853Y318801D02*
D03*
X-111147Y281199D02*
D03*
X-111199Y288706D02*
D03*
X-111147Y296250D02*
D03*
X-111199Y303706D02*
D03*
Y311199D02*
D03*
X-111345Y318801D02*
D03*
X-118655Y281199D02*
D03*
X-118706Y288706D02*
D03*
X-118655Y296250D02*
D03*
X-118706Y303706D02*
D03*
Y311199D02*
D03*
X-118853Y318801D02*
D03*
X-318655Y281250D02*
D03*
X-318801Y288853D02*
D03*
Y296345D02*
D03*
X-318853Y303801D02*
D03*
X-318801Y311345D02*
D03*
X-318853Y318853D02*
D03*
X-311345Y318801D02*
D03*
X-311294Y311294D02*
D03*
X-311345Y303750D02*
D03*
X-311294Y296294D02*
D03*
Y288801D02*
D03*
X-311147Y281199D02*
D03*
X-304051Y318801D02*
D03*
X-304000Y311294D02*
D03*
X-304051Y303750D02*
D03*
X-304000Y296294D02*
D03*
Y288801D02*
D03*
X-303853Y281199D02*
D03*
X-296345Y318801D02*
D03*
X-296294Y311294D02*
D03*
X-296345Y303750D02*
D03*
X-296294Y296294D02*
D03*
Y288801D02*
D03*
X-296147Y281199D02*
D03*
X-288853Y318801D02*
D03*
X-288801Y311294D02*
D03*
X-288853Y303750D02*
D03*
X-288801Y296294D02*
D03*
Y288801D02*
D03*
X-288655Y281199D02*
D03*
X-281345Y318801D02*
D03*
X-281294Y311294D02*
D03*
X-281345Y303750D02*
D03*
X-281294Y296294D02*
D03*
Y288801D02*
D03*
X-281147Y281199D02*
D03*
X-318655Y81250D02*
D03*
X-318801Y88853D02*
D03*
Y96345D02*
D03*
X-318853Y103801D02*
D03*
X-318801Y111345D02*
D03*
X-318853Y118853D02*
D03*
X-311345Y118801D02*
D03*
X-311294Y111294D02*
D03*
X-311345Y103750D02*
D03*
X-311294Y96294D02*
D03*
Y88801D02*
D03*
X-311147Y81199D02*
D03*
X-304051Y118801D02*
D03*
X-304000Y111294D02*
D03*
X-304051Y103750D02*
D03*
X-304000Y96294D02*
D03*
Y88801D02*
D03*
X-303853Y81199D02*
D03*
X-296345Y118801D02*
D03*
X-296294Y111294D02*
D03*
X-296345Y103750D02*
D03*
X-296294Y96294D02*
D03*
Y88801D02*
D03*
X-296147Y81199D02*
D03*
X-288853Y118801D02*
D03*
X-288801Y111294D02*
D03*
X-288853Y103750D02*
D03*
X-288801Y96294D02*
D03*
Y88801D02*
D03*
X-288655Y81199D02*
D03*
X-281345Y118801D02*
D03*
X-281294Y111294D02*
D03*
X-281345Y103750D02*
D03*
X-281294Y96294D02*
D03*
Y88801D02*
D03*
X-281147Y81199D02*
D03*
X-318655Y-118750D02*
D03*
X-318801Y-111147D02*
D03*
Y-103655D02*
D03*
X-318853Y-96199D02*
D03*
X-318801Y-88655D02*
D03*
X-318853Y-81147D02*
D03*
X-311345Y-81199D02*
D03*
X-311294Y-88706D02*
D03*
X-311345Y-96250D02*
D03*
X-311294Y-103706D02*
D03*
Y-111199D02*
D03*
X-311147Y-118801D02*
D03*
X-304051Y-81199D02*
D03*
X-304000Y-88706D02*
D03*
X-304051Y-96250D02*
D03*
X-304000Y-103706D02*
D03*
Y-111199D02*
D03*
X-303853Y-118801D02*
D03*
X-296345Y-81199D02*
D03*
X-296294Y-88706D02*
D03*
X-296345Y-96250D02*
D03*
X-296294Y-103706D02*
D03*
Y-111199D02*
D03*
X-296147Y-118801D02*
D03*
X-288853Y-81199D02*
D03*
X-288801Y-88706D02*
D03*
X-288853Y-96250D02*
D03*
X-288801Y-103706D02*
D03*
Y-111199D02*
D03*
X-288655Y-118801D02*
D03*
X-281345Y-81199D02*
D03*
X-281294Y-88706D02*
D03*
X-281345Y-96250D02*
D03*
X-281294Y-103706D02*
D03*
Y-111199D02*
D03*
X-281147Y-118801D02*
D03*
X-318655Y-318750D02*
D03*
X-318801Y-311147D02*
D03*
Y-303655D02*
D03*
X-318853Y-296199D02*
D03*
X-318801Y-288655D02*
D03*
X-318853Y-281147D02*
D03*
X-311345Y-281199D02*
D03*
X-311294Y-288706D02*
D03*
X-311345Y-296250D02*
D03*
X-311294Y-303706D02*
D03*
Y-311199D02*
D03*
X-311147Y-318801D02*
D03*
X-304051Y-281199D02*
D03*
X-304000Y-288706D02*
D03*
X-304051Y-296250D02*
D03*
X-304000Y-303706D02*
D03*
Y-311199D02*
D03*
X-303853Y-318801D02*
D03*
X-296345Y-281199D02*
D03*
X-296294Y-288706D02*
D03*
X-296345Y-296250D02*
D03*
X-296294Y-303706D02*
D03*
Y-311199D02*
D03*
X-296147Y-318801D02*
D03*
X-288853Y-281199D02*
D03*
X-288801Y-288706D02*
D03*
X-288853Y-296250D02*
D03*
X-288801Y-303706D02*
D03*
Y-311199D02*
D03*
X-288655Y-318801D02*
D03*
X-281345Y-281199D02*
D03*
X-281294Y-288706D02*
D03*
X-281345Y-296250D02*
D03*
X-281294Y-303706D02*
D03*
Y-311199D02*
D03*
X-281147Y-318801D02*
D03*
D82*
X-147501Y620949D02*
D03*
Y633649D02*
D03*
Y646349D02*
D03*
Y659049D02*
D03*
X-92501D02*
D03*
Y646349D02*
D03*
Y633649D02*
D03*
Y620949D02*
D03*
X-437451Y621699D02*
D03*
Y634399D02*
D03*
Y647099D02*
D03*
Y659799D02*
D03*
X-382451D02*
D03*
Y647099D02*
D03*
Y634399D02*
D03*
Y621699D02*
D03*
X-147500Y562250D02*
D03*
Y574950D02*
D03*
Y587650D02*
D03*
Y600350D02*
D03*
X-92500D02*
D03*
Y587650D02*
D03*
Y574950D02*
D03*
Y562250D02*
D03*
X-437500Y563450D02*
D03*
Y576150D02*
D03*
Y588850D02*
D03*
Y601550D02*
D03*
X-382500D02*
D03*
Y588850D02*
D03*
Y576150D02*
D03*
Y563450D02*
D03*
D83*
X392500Y545000D02*
D03*
X422500D02*
D03*
X85000Y815000D02*
D03*
X55000D02*
D03*
D84*
X372500Y552500D02*
D03*
Y522500D02*
D03*
D85*
X18000Y783450D02*
D03*
Y796150D02*
D03*
Y808850D02*
D03*
Y821550D02*
D03*
X-38000D02*
D03*
Y808850D02*
D03*
Y796150D02*
D03*
Y783450D02*
D03*
D86*
X-139100Y734250D02*
D03*
X-126400D02*
D03*
X-113700D02*
D03*
X-101000D02*
D03*
Y679250D02*
D03*
X-113700D02*
D03*
X-126400D02*
D03*
X-139100D02*
D03*
X-429050Y735000D02*
D03*
X-416350D02*
D03*
X-403650D02*
D03*
X-390950D02*
D03*
Y680000D02*
D03*
X-403650D02*
D03*
X-416350D02*
D03*
X-429050D02*
D03*
D87*
X-30000Y484500D02*
D03*
X-129500D02*
D03*
X-257750Y485000D02*
D03*
X-357250D02*
D03*
D88*
X140000Y559000D02*
D03*
Y584500D02*
D03*
Y610000D02*
D03*
Y635000D02*
D03*
D89*
Y660500D02*
D03*
D90*
X328500Y765000D02*
D03*
X421500D02*
D03*
D91*
X170000Y685000D02*
D03*
Y680000D02*
D03*
Y675000D02*
D03*
Y670000D02*
D03*
Y665000D02*
D03*
Y660000D02*
D03*
Y655000D02*
D03*
Y650000D02*
D03*
Y645000D02*
D03*
Y640000D02*
D03*
Y635000D02*
D03*
Y630000D02*
D03*
Y625000D02*
D03*
Y620000D02*
D03*
Y615000D02*
D03*
Y610000D02*
D03*
X285000D02*
D03*
Y615000D02*
D03*
Y620000D02*
D03*
Y625000D02*
D03*
Y630000D02*
D03*
Y635000D02*
D03*
Y640000D02*
D03*
Y645000D02*
D03*
Y650000D02*
D03*
Y655000D02*
D03*
Y660000D02*
D03*
Y665000D02*
D03*
Y670000D02*
D03*
Y675000D02*
D03*
Y680000D02*
D03*
Y685000D02*
D03*
D92*
X190000Y590000D02*
D03*
X195000D02*
D03*
X200000D02*
D03*
X205000D02*
D03*
X210000D02*
D03*
X215000D02*
D03*
X220000D02*
D03*
X225000D02*
D03*
X230000D02*
D03*
X235000D02*
D03*
X240000D02*
D03*
X245000D02*
D03*
X250000D02*
D03*
X255000D02*
D03*
X260000D02*
D03*
X265000D02*
D03*
Y705000D02*
D03*
X260000D02*
D03*
X255000D02*
D03*
X250000D02*
D03*
X245000D02*
D03*
X240000D02*
D03*
X235000D02*
D03*
X230000D02*
D03*
X225000D02*
D03*
X220000D02*
D03*
X215000D02*
D03*
X210000D02*
D03*
X205000D02*
D03*
X200000D02*
D03*
X195000D02*
D03*
X190000D02*
D03*
D93*
X170000Y590000D02*
D03*
X285000Y705000D02*
D03*
D94*
X424500Y482000D02*
D03*
X405500D02*
D03*
Y508000D02*
D03*
X415000D02*
D03*
X424500D02*
D03*
D95*
X375000Y586500D02*
D03*
X430000D02*
D03*
Y675500D02*
D03*
X375000D02*
D03*
D96*
X374000Y647000D02*
D03*
Y639000D02*
D03*
Y631000D02*
D03*
Y623000D02*
D03*
Y615000D02*
D03*
D97*
X-362450Y672750D02*
D03*
X-313450D02*
D03*
Y666250D02*
D03*
Y659750D02*
D03*
Y653250D02*
D03*
X-362450D02*
D03*
Y659750D02*
D03*
Y666250D02*
D03*
X-72500Y672000D02*
D03*
X-23500D02*
D03*
Y665500D02*
D03*
Y659000D02*
D03*
Y652500D02*
D03*
X-72500D02*
D03*
Y659000D02*
D03*
Y665500D02*
D03*
D98*
X-337950Y663000D02*
D03*
X-48000Y662250D02*
D03*
D99*
X-323950Y669750D02*
D03*
Y665250D02*
D03*
Y660750D02*
D03*
X-351950D02*
D03*
Y665250D02*
D03*
Y669750D02*
D03*
Y656250D02*
D03*
X-323950D02*
D03*
X-34000Y669000D02*
D03*
Y664500D02*
D03*
Y660000D02*
D03*
X-62000D02*
D03*
Y664500D02*
D03*
Y669000D02*
D03*
Y655500D02*
D03*
X-34000D02*
D03*
D100*
X-337950Y663000D02*
D03*
X-48000Y662250D02*
D03*
D101*
X145000Y730000D02*
D03*
X166000D02*
D03*
D102*
X125000Y735000D02*
D03*
Y714000D02*
D03*
X315000Y728000D02*
D03*
Y707000D02*
D03*
X334000Y728000D02*
D03*
Y707000D02*
D03*
D103*
X-10000Y825000D02*
D03*
D104*
X12900Y760000D02*
D03*
X-32900D02*
D03*
D105*
X-35400Y766500D02*
D03*
X15400D02*
D03*
D106*
X-10000Y832500D02*
D03*
D107*
X-0Y-75000D02*
D03*
X200000Y325000D02*
D03*
X-0Y125000D02*
D03*
X-200000Y-275000D02*
D03*
Y125000D02*
D03*
X200000D02*
D03*
X-0Y325000D02*
D03*
X-200000D02*
D03*
Y-75000D02*
D03*
X200000D02*
D03*
Y-275000D02*
D03*
X-0D02*
D03*
D108*
Y-125000D02*
D03*
X200000Y275000D02*
D03*
X-0Y75000D02*
D03*
X-200000Y-325000D02*
D03*
Y75000D02*
D03*
X200000D02*
D03*
X-0Y275000D02*
D03*
X-200000D02*
D03*
Y-125000D02*
D03*
X200000D02*
D03*
Y-325000D02*
D03*
X-0D02*
D03*
D109*
X-110000Y830000D02*
D03*
X-200000Y200000D02*
D03*
Y-200000D02*
D03*
X200000Y200000D02*
D03*
Y-200000D02*
D03*
X-412500Y412500D02*
D03*
X412500D02*
D03*
X-412500Y-412500D02*
D03*
X412500D02*
D03*
X-412500Y825000D02*
D03*
X412500D02*
D03*
X-215400Y831600D02*
D03*
X-317000D02*
D03*
D110*
X-339951Y780749D02*
D03*
X-290000Y780000D02*
D03*
X-240000D02*
D03*
D111*
X170000Y835000D02*
D03*
X100000D02*
D03*
D112*
X400000Y653000D02*
D03*
Y609000D02*
D03*
D113*
X-367800Y755400D02*
D03*
X-164600D02*
D03*
D114*
X-190000Y730000D02*
D03*
X-240800D02*
D03*
X-291600D02*
D03*
D115*
X-342400D02*
D03*
M02*
