%FSLAX44Y44*%
%MOMM*%
G71*
G01*
G75*
G04 Layer_Color=16711935*
G04:AMPARAMS|DCode=10|XSize=1mm|YSize=0.9mm|CornerRadius=0.198mm|HoleSize=0mm|Usage=FLASHONLY|Rotation=270.000|XOffset=0mm|YOffset=0mm|HoleType=Round|Shape=RoundedRectangle|*
%AMROUNDEDRECTD10*
21,1,1.0000,0.5040,0,0,270.0*
21,1,0.6040,0.9000,0,0,270.0*
1,1,0.3960,-0.2520,-0.3020*
1,1,0.3960,-0.2520,0.3020*
1,1,0.3960,0.2520,0.3020*
1,1,0.3960,0.2520,-0.3020*
%
%ADD10ROUNDEDRECTD10*%
G04:AMPARAMS|DCode=11|XSize=0.9mm|YSize=0.4mm|CornerRadius=0.15mm|HoleSize=0mm|Usage=FLASHONLY|Rotation=90.000|XOffset=0mm|YOffset=0mm|HoleType=Round|Shape=RoundedRectangle|*
%AMROUNDEDRECTD11*
21,1,0.9000,0.1000,0,0,90.0*
21,1,0.6000,0.4000,0,0,90.0*
1,1,0.3000,0.0500,0.3000*
1,1,0.3000,0.0500,-0.3000*
1,1,0.3000,-0.0500,-0.3000*
1,1,0.3000,-0.0500,0.3000*
%
%ADD11ROUNDEDRECTD11*%
%ADD12O,0.6000X1.5500*%
G04:AMPARAMS|DCode=13|XSize=1mm|YSize=0.9mm|CornerRadius=0.198mm|HoleSize=0mm|Usage=FLASHONLY|Rotation=0.000|XOffset=0mm|YOffset=0mm|HoleType=Round|Shape=RoundedRectangle|*
%AMROUNDEDRECTD13*
21,1,1.0000,0.5040,0,0,0.0*
21,1,0.6040,0.9000,0,0,0.0*
1,1,0.3960,0.3020,-0.2520*
1,1,0.3960,-0.3020,-0.2520*
1,1,0.3960,-0.3020,0.2520*
1,1,0.3960,0.3020,0.2520*
%
%ADD13ROUNDEDRECTD13*%
G04:AMPARAMS|DCode=14|XSize=1.05mm|YSize=0.65mm|CornerRadius=0.2015mm|HoleSize=0mm|Usage=FLASHONLY|Rotation=0.000|XOffset=0mm|YOffset=0mm|HoleType=Round|Shape=RoundedRectangle|*
%AMROUNDEDRECTD14*
21,1,1.0500,0.2470,0,0,0.0*
21,1,0.6470,0.6500,0,0,0.0*
1,1,0.4030,0.3235,-0.1235*
1,1,0.4030,-0.3235,-0.1235*
1,1,0.4030,-0.3235,0.1235*
1,1,0.4030,0.3235,0.1235*
%
%ADD14ROUNDEDRECTD14*%
G04:AMPARAMS|DCode=15|XSize=1mm|YSize=0.95mm|CornerRadius=0.1995mm|HoleSize=0mm|Usage=FLASHONLY|Rotation=180.000|XOffset=0mm|YOffset=0mm|HoleType=Round|Shape=RoundedRectangle|*
%AMROUNDEDRECTD15*
21,1,1.0000,0.5510,0,0,180.0*
21,1,0.6010,0.9500,0,0,180.0*
1,1,0.3990,-0.3005,0.2755*
1,1,0.3990,0.3005,0.2755*
1,1,0.3990,0.3005,-0.2755*
1,1,0.3990,-0.3005,-0.2755*
%
%ADD15ROUNDEDRECTD15*%
%ADD16C,0.4000*%
%ADD17O,0.8500X0.2500*%
%ADD18O,0.2500X0.8500*%
G04:AMPARAMS|DCode=19|XSize=1mm|YSize=0.95mm|CornerRadius=0.1995mm|HoleSize=0mm|Usage=FLASHONLY|Rotation=90.000|XOffset=0mm|YOffset=0mm|HoleType=Round|Shape=RoundedRectangle|*
%AMROUNDEDRECTD19*
21,1,1.0000,0.5510,0,0,90.0*
21,1,0.6010,0.9500,0,0,90.0*
1,1,0.3990,0.2755,0.3005*
1,1,0.3990,0.2755,-0.3005*
1,1,0.3990,-0.2755,-0.3005*
1,1,0.3990,-0.2755,0.3005*
%
%ADD19ROUNDEDRECTD19*%
G04:AMPARAMS|DCode=20|XSize=1.45mm|YSize=1.15mm|CornerRadius=0.2013mm|HoleSize=0mm|Usage=FLASHONLY|Rotation=270.000|XOffset=0mm|YOffset=0mm|HoleType=Round|Shape=RoundedRectangle|*
%AMROUNDEDRECTD20*
21,1,1.4500,0.7475,0,0,270.0*
21,1,1.0475,1.1500,0,0,270.0*
1,1,0.4025,-0.3738,-0.5238*
1,1,0.4025,-0.3738,0.5238*
1,1,0.4025,0.3738,0.5238*
1,1,0.4025,0.3738,-0.5238*
%
%ADD20ROUNDEDRECTD20*%
G04:AMPARAMS|DCode=21|XSize=1.45mm|YSize=1.15mm|CornerRadius=0.2013mm|HoleSize=0mm|Usage=FLASHONLY|Rotation=0.000|XOffset=0mm|YOffset=0mm|HoleType=Round|Shape=RoundedRectangle|*
%AMROUNDEDRECTD21*
21,1,1.4500,0.7475,0,0,0.0*
21,1,1.0475,1.1500,0,0,0.0*
1,1,0.4025,0.5238,-0.3738*
1,1,0.4025,-0.5238,-0.3738*
1,1,0.4025,-0.5238,0.3738*
1,1,0.4025,0.5238,0.3738*
%
%ADD21ROUNDEDRECTD21*%
%ADD22C,0.6000*%
%ADD23O,1.3500X0.5000*%
G04:AMPARAMS|DCode=24|XSize=1.75mm|YSize=1.05mm|CornerRadius=0.1995mm|HoleSize=0mm|Usage=FLASHONLY|Rotation=90.000|XOffset=0mm|YOffset=0mm|HoleType=Round|Shape=RoundedRectangle|*
%AMROUNDEDRECTD24*
21,1,1.7500,0.6510,0,0,90.0*
21,1,1.3510,1.0500,0,0,90.0*
1,1,0.3990,0.3255,0.6755*
1,1,0.3990,0.3255,-0.6755*
1,1,0.3990,-0.3255,-0.6755*
1,1,0.3990,-0.3255,0.6755*
%
%ADD24ROUNDEDRECTD24*%
G04:AMPARAMS|DCode=25|XSize=1.75mm|YSize=1.05mm|CornerRadius=0.1995mm|HoleSize=0mm|Usage=FLASHONLY|Rotation=0.000|XOffset=0mm|YOffset=0mm|HoleType=Round|Shape=RoundedRectangle|*
%AMROUNDEDRECTD25*
21,1,1.7500,0.6510,0,0,0.0*
21,1,1.3510,1.0500,0,0,0.0*
1,1,0.3990,0.6755,-0.3255*
1,1,0.3990,-0.6755,-0.3255*
1,1,0.3990,-0.6755,0.3255*
1,1,0.3990,0.6755,0.3255*
%
%ADD25ROUNDEDRECTD25*%
%ADD26O,1.5500X0.6000*%
%ADD27O,0.5000X1.3500*%
G04:AMPARAMS|DCode=28|XSize=6.5mm|YSize=5mm|CornerRadius=0.25mm|HoleSize=0mm|Usage=FLASHONLY|Rotation=90.000|XOffset=0mm|YOffset=0mm|HoleType=Round|Shape=RoundedRectangle|*
%AMROUNDEDRECTD28*
21,1,6.5000,4.5000,0,0,90.0*
21,1,6.0000,5.0000,0,0,90.0*
1,1,0.5000,2.2500,3.0000*
1,1,0.5000,2.2500,-3.0000*
1,1,0.5000,-2.2500,-3.0000*
1,1,0.5000,-2.2500,3.0000*
%
%ADD28ROUNDEDRECTD28*%
%ADD29C,1.3000*%
%ADD30R,1.3000X1.3000*%
G04:AMPARAMS|DCode=31|XSize=4.9mm|YSize=1.6mm|CornerRadius=0.2mm|HoleSize=0mm|Usage=FLASHONLY|Rotation=180.000|XOffset=0mm|YOffset=0mm|HoleType=Round|Shape=RoundedRectangle|*
%AMROUNDEDRECTD31*
21,1,4.9000,1.2000,0,0,180.0*
21,1,4.5000,1.6000,0,0,180.0*
1,1,0.4000,-2.2500,0.6000*
1,1,0.4000,2.2500,0.6000*
1,1,0.4000,2.2500,-0.6000*
1,1,0.4000,-2.2500,-0.6000*
%
%ADD31ROUNDEDRECTD31*%
%ADD32O,1.5000X0.3000*%
%ADD33O,0.3000X1.5000*%
%ADD34C,1.0000*%
G04:AMPARAMS|DCode=35|XSize=1.1mm|YSize=0.6mm|CornerRadius=0.201mm|HoleSize=0mm|Usage=FLASHONLY|Rotation=270.000|XOffset=0mm|YOffset=0mm|HoleType=Round|Shape=RoundedRectangle|*
%AMROUNDEDRECTD35*
21,1,1.1000,0.1980,0,0,270.0*
21,1,0.6980,0.6000,0,0,270.0*
1,1,0.4020,-0.0990,-0.3490*
1,1,0.4020,-0.0990,0.3490*
1,1,0.4020,0.0990,0.3490*
1,1,0.4020,0.0990,-0.3490*
%
%ADD35ROUNDEDRECTD35*%
G04:AMPARAMS|DCode=36|XSize=2.5mm|YSize=2mm|CornerRadius=0.2mm|HoleSize=0mm|Usage=FLASHONLY|Rotation=180.000|XOffset=0mm|YOffset=0mm|HoleType=Round|Shape=RoundedRectangle|*
%AMROUNDEDRECTD36*
21,1,2.5000,1.6000,0,0,180.0*
21,1,2.1000,2.0000,0,0,180.0*
1,1,0.4000,-1.0500,0.8000*
1,1,0.4000,1.0500,0.8000*
1,1,0.4000,1.0500,-0.8000*
1,1,0.4000,-1.0500,-0.8000*
%
%ADD36ROUNDEDRECTD36*%
G04:AMPARAMS|DCode=37|XSize=2.3mm|YSize=0.5mm|CornerRadius=0.2mm|HoleSize=0mm|Usage=FLASHONLY|Rotation=180.000|XOffset=0mm|YOffset=0mm|HoleType=Round|Shape=RoundedRectangle|*
%AMROUNDEDRECTD37*
21,1,2.3000,0.1000,0,0,180.0*
21,1,1.9000,0.5000,0,0,180.0*
1,1,0.4000,-0.9500,0.0500*
1,1,0.4000,0.9500,0.0500*
1,1,0.4000,0.9500,-0.0500*
1,1,0.4000,-0.9500,-0.0500*
%
%ADD37ROUNDEDRECTD37*%
G04:AMPARAMS|DCode=38|XSize=1mm|YSize=0.45mm|CornerRadius=0.1125mm|HoleSize=0mm|Usage=FLASHONLY|Rotation=0.000|XOffset=0mm|YOffset=0mm|HoleType=Round|Shape=RoundedRectangle|*
%AMROUNDEDRECTD38*
21,1,1.0000,0.2250,0,0,0.0*
21,1,0.7750,0.4500,0,0,0.0*
1,1,0.2250,0.3875,-0.1125*
1,1,0.2250,-0.3875,-0.1125*
1,1,0.2250,-0.3875,0.1125*
1,1,0.2250,0.3875,0.1125*
%
%ADD38ROUNDEDRECTD38*%
G04:AMPARAMS|DCode=39|XSize=1.35mm|YSize=1.65mm|CornerRadius=0.27mm|HoleSize=0mm|Usage=FLASHONLY|Rotation=90.000|XOffset=0mm|YOffset=0mm|HoleType=Round|Shape=RoundedRectangle|*
%AMROUNDEDRECTD39*
21,1,1.3500,1.1100,0,0,90.0*
21,1,0.8100,1.6500,0,0,90.0*
1,1,0.5400,0.5550,0.4050*
1,1,0.5400,0.5550,-0.4050*
1,1,0.5400,-0.5550,-0.4050*
1,1,0.5400,-0.5550,0.4050*
%
%ADD39ROUNDEDRECTD39*%
G04:AMPARAMS|DCode=40|XSize=0.7mm|YSize=0.25mm|CornerRadius=0.0838mm|HoleSize=0mm|Usage=FLASHONLY|Rotation=0.000|XOffset=0mm|YOffset=0mm|HoleType=Round|Shape=RoundedRectangle|*
%AMROUNDEDRECTD40*
21,1,0.7000,0.0825,0,0,0.0*
21,1,0.5325,0.2500,0,0,0.0*
1,1,0.1675,0.2662,-0.0413*
1,1,0.1675,-0.2662,-0.0413*
1,1,0.1675,-0.2662,0.0413*
1,1,0.1675,0.2662,0.0413*
%
%ADD40ROUNDEDRECTD40*%
G04:AMPARAMS|DCode=41|XSize=3mm|YSize=1.65mm|CornerRadius=0.1073mm|HoleSize=0mm|Usage=FLASHONLY|Rotation=90.000|XOffset=0mm|YOffset=0mm|HoleType=Round|Shape=RoundedRectangle|*
%AMROUNDEDRECTD41*
21,1,3.0000,1.4355,0,0,90.0*
21,1,2.7855,1.6500,0,0,90.0*
1,1,0.2145,0.7178,1.3927*
1,1,0.2145,0.7178,-1.3927*
1,1,0.2145,-0.7178,-1.3927*
1,1,0.2145,-0.7178,1.3927*
%
%ADD41ROUNDEDRECTD41*%
G04:AMPARAMS|DCode=42|XSize=1.2mm|YSize=1.2mm|CornerRadius=0.198mm|HoleSize=0mm|Usage=FLASHONLY|Rotation=0.000|XOffset=0mm|YOffset=0mm|HoleType=Round|Shape=RoundedRectangle|*
%AMROUNDEDRECTD42*
21,1,1.2000,0.8040,0,0,0.0*
21,1,0.8040,1.2000,0,0,0.0*
1,1,0.3960,0.4020,-0.4020*
1,1,0.3960,-0.4020,-0.4020*
1,1,0.3960,-0.4020,0.4020*
1,1,0.3960,0.4020,0.4020*
%
%ADD42ROUNDEDRECTD42*%
G04:AMPARAMS|DCode=43|XSize=1.2mm|YSize=1.2mm|CornerRadius=0.198mm|HoleSize=0mm|Usage=FLASHONLY|Rotation=270.000|XOffset=0mm|YOffset=0mm|HoleType=Round|Shape=RoundedRectangle|*
%AMROUNDEDRECTD43*
21,1,1.2000,0.8040,0,0,270.0*
21,1,0.8040,1.2000,0,0,270.0*
1,1,0.3960,-0.4020,-0.4020*
1,1,0.3960,-0.4020,0.4020*
1,1,0.3960,0.4020,0.4020*
1,1,0.3960,0.4020,-0.4020*
%
%ADD43ROUNDEDRECTD43*%
G04:AMPARAMS|DCode=44|XSize=6.45mm|YSize=6mm|CornerRadius=0.21mm|HoleSize=0mm|Usage=FLASHONLY|Rotation=90.000|XOffset=0mm|YOffset=0mm|HoleType=Round|Shape=RoundedRectangle|*
%AMROUNDEDRECTD44*
21,1,6.4500,5.5800,0,0,90.0*
21,1,6.0300,6.0000,0,0,90.0*
1,1,0.4200,2.7900,3.0150*
1,1,0.4200,2.7900,-3.0150*
1,1,0.4200,-2.7900,-3.0150*
1,1,0.4200,-2.7900,3.0150*
%
%ADD44ROUNDEDRECTD44*%
G04:AMPARAMS|DCode=45|XSize=2.85mm|YSize=1mm|CornerRadius=0.2mm|HoleSize=0mm|Usage=FLASHONLY|Rotation=90.000|XOffset=0mm|YOffset=0mm|HoleType=Round|Shape=RoundedRectangle|*
%AMROUNDEDRECTD45*
21,1,2.8500,0.6000,0,0,90.0*
21,1,2.4500,1.0000,0,0,90.0*
1,1,0.4000,0.3000,1.2250*
1,1,0.4000,0.3000,-1.2250*
1,1,0.4000,-0.3000,-1.2250*
1,1,0.4000,-0.3000,1.2250*
%
%ADD45ROUNDEDRECTD45*%
G04:AMPARAMS|DCode=46|XSize=3.95mm|YSize=1.5mm|CornerRadius=0.2475mm|HoleSize=0mm|Usage=FLASHONLY|Rotation=90.000|XOffset=0mm|YOffset=0mm|HoleType=Round|Shape=RoundedRectangle|*
%AMROUNDEDRECTD46*
21,1,3.9500,1.0050,0,0,90.0*
21,1,3.4550,1.5000,0,0,90.0*
1,1,0.4950,0.5025,1.7275*
1,1,0.4950,0.5025,-1.7275*
1,1,0.4950,-0.5025,-1.7275*
1,1,0.4950,-0.5025,1.7275*
%
%ADD46ROUNDEDRECTD46*%
G04:AMPARAMS|DCode=47|XSize=6.4mm|YSize=10.5mm|CornerRadius=0.128mm|HoleSize=0mm|Usage=FLASHONLY|Rotation=90.000|XOffset=0mm|YOffset=0mm|HoleType=Round|Shape=RoundedRectangle|*
%AMROUNDEDRECTD47*
21,1,6.4000,10.2440,0,0,90.0*
21,1,6.1440,10.5000,0,0,90.0*
1,1,0.2560,5.1220,3.0720*
1,1,0.2560,5.1220,-3.0720*
1,1,0.2560,-5.1220,-3.0720*
1,1,0.2560,-5.1220,3.0720*
%
%ADD47ROUNDEDRECTD47*%
%ADD48C,0.2500*%
%ADD49C,0.3000*%
%ADD50C,0.5000*%
%ADD51C,0.6000*%
%ADD52C,0.2540*%
%ADD53C,1.0000*%
%ADD54C,0.4000*%
%ADD55C,0.4500*%
%ADD56C,0.8000*%
%ADD57C,0.5500*%
%ADD58C,1.6000*%
%ADD59R,1.6000X1.6000*%
%ADD60C,6.0000*%
%ADD61C,3.0000*%
%ADD62C,2.0000*%
%ADD63C,0.5000*%
%ADD64C,1.8500*%
%ADD65C,3.5000*%
%ADD66C,2.3000*%
%ADD67C,2.0000*%
%ADD68C,1.8000*%
%ADD69C,0.0000*%
G04:AMPARAMS|DCode=70|XSize=1.15mm|YSize=1.05mm|CornerRadius=0.273mm|HoleSize=0mm|Usage=FLASHONLY|Rotation=270.000|XOffset=0mm|YOffset=0mm|HoleType=Round|Shape=RoundedRectangle|*
%AMROUNDEDRECTD70*
21,1,1.1500,0.5040,0,0,270.0*
21,1,0.6040,1.0500,0,0,270.0*
1,1,0.5460,-0.2520,-0.3020*
1,1,0.5460,-0.2520,0.3020*
1,1,0.5460,0.2520,0.3020*
1,1,0.5460,0.2520,-0.3020*
%
%ADD70ROUNDEDRECTD70*%
G04:AMPARAMS|DCode=71|XSize=1.05mm|YSize=0.55mm|CornerRadius=0.225mm|HoleSize=0mm|Usage=FLASHONLY|Rotation=90.000|XOffset=0mm|YOffset=0mm|HoleType=Round|Shape=RoundedRectangle|*
%AMROUNDEDRECTD71*
21,1,1.0500,0.1000,0,0,90.0*
21,1,0.6000,0.5500,0,0,90.0*
1,1,0.4500,0.0500,0.3000*
1,1,0.4500,0.0500,-0.3000*
1,1,0.4500,-0.0500,-0.3000*
1,1,0.4500,-0.0500,0.3000*
%
%ADD71ROUNDEDRECTD71*%
%ADD72O,0.7500X1.7000*%
G04:AMPARAMS|DCode=73|XSize=1.15mm|YSize=1.05mm|CornerRadius=0.273mm|HoleSize=0mm|Usage=FLASHONLY|Rotation=0.000|XOffset=0mm|YOffset=0mm|HoleType=Round|Shape=RoundedRectangle|*
%AMROUNDEDRECTD73*
21,1,1.1500,0.5040,0,0,0.0*
21,1,0.6040,1.0500,0,0,0.0*
1,1,0.5460,0.3020,-0.2520*
1,1,0.5460,-0.3020,-0.2520*
1,1,0.5460,-0.3020,0.2520*
1,1,0.5460,0.3020,0.2520*
%
%ADD73ROUNDEDRECTD73*%
G04:AMPARAMS|DCode=74|XSize=1.2mm|YSize=0.8mm|CornerRadius=0.2765mm|HoleSize=0mm|Usage=FLASHONLY|Rotation=0.000|XOffset=0mm|YOffset=0mm|HoleType=Round|Shape=RoundedRectangle|*
%AMROUNDEDRECTD74*
21,1,1.2000,0.2470,0,0,0.0*
21,1,0.6470,0.8000,0,0,0.0*
1,1,0.5530,0.3235,-0.1235*
1,1,0.5530,-0.3235,-0.1235*
1,1,0.5530,-0.3235,0.1235*
1,1,0.5530,0.3235,0.1235*
%
%ADD74ROUNDEDRECTD74*%
G04:AMPARAMS|DCode=75|XSize=1.15mm|YSize=1.1mm|CornerRadius=0.2745mm|HoleSize=0mm|Usage=FLASHONLY|Rotation=180.000|XOffset=0mm|YOffset=0mm|HoleType=Round|Shape=RoundedRectangle|*
%AMROUNDEDRECTD75*
21,1,1.1500,0.5510,0,0,180.0*
21,1,0.6010,1.1000,0,0,180.0*
1,1,0.5490,-0.3005,0.2755*
1,1,0.5490,0.3005,0.2755*
1,1,0.5490,0.3005,-0.2755*
1,1,0.5490,-0.3005,-0.2755*
%
%ADD75ROUNDEDRECTD75*%
%ADD76O,1.0500X0.4500*%
%ADD77O,0.4500X1.0500*%
G04:AMPARAMS|DCode=78|XSize=1.15mm|YSize=1.1mm|CornerRadius=0.2745mm|HoleSize=0mm|Usage=FLASHONLY|Rotation=90.000|XOffset=0mm|YOffset=0mm|HoleType=Round|Shape=RoundedRectangle|*
%AMROUNDEDRECTD78*
21,1,1.1500,0.5510,0,0,90.0*
21,1,0.6010,1.1000,0,0,90.0*
1,1,0.5490,0.2755,0.3005*
1,1,0.5490,0.2755,-0.3005*
1,1,0.5490,-0.2755,-0.3005*
1,1,0.5490,-0.2755,0.3005*
%
%ADD78ROUNDEDRECTD78*%
G04:AMPARAMS|DCode=79|XSize=1.6mm|YSize=1.3mm|CornerRadius=0.2763mm|HoleSize=0mm|Usage=FLASHONLY|Rotation=270.000|XOffset=0mm|YOffset=0mm|HoleType=Round|Shape=RoundedRectangle|*
%AMROUNDEDRECTD79*
21,1,1.6000,0.7475,0,0,270.0*
21,1,1.0475,1.3000,0,0,270.0*
1,1,0.5525,-0.3738,-0.5238*
1,1,0.5525,-0.3738,0.5238*
1,1,0.5525,0.3738,0.5238*
1,1,0.5525,0.3738,-0.5238*
%
%ADD79ROUNDEDRECTD79*%
G04:AMPARAMS|DCode=80|XSize=1.6mm|YSize=1.3mm|CornerRadius=0.2763mm|HoleSize=0mm|Usage=FLASHONLY|Rotation=0.000|XOffset=0mm|YOffset=0mm|HoleType=Round|Shape=RoundedRectangle|*
%AMROUNDEDRECTD80*
21,1,1.6000,0.7475,0,0,0.0*
21,1,1.0475,1.3000,0,0,0.0*
1,1,0.5525,0.5238,-0.3738*
1,1,0.5525,-0.5238,-0.3738*
1,1,0.5525,-0.5238,0.3738*
1,1,0.5525,0.5238,0.3738*
%
%ADD80ROUNDEDRECTD80*%
%ADD81C,0.8000*%
%ADD82O,1.5000X0.6500*%
G04:AMPARAMS|DCode=83|XSize=1.9mm|YSize=1.2mm|CornerRadius=0.2745mm|HoleSize=0mm|Usage=FLASHONLY|Rotation=90.000|XOffset=0mm|YOffset=0mm|HoleType=Round|Shape=RoundedRectangle|*
%AMROUNDEDRECTD83*
21,1,1.9000,0.6510,0,0,90.0*
21,1,1.3510,1.2000,0,0,90.0*
1,1,0.5490,0.3255,0.6755*
1,1,0.5490,0.3255,-0.6755*
1,1,0.5490,-0.3255,-0.6755*
1,1,0.5490,-0.3255,0.6755*
%
%ADD83ROUNDEDRECTD83*%
G04:AMPARAMS|DCode=84|XSize=1.9mm|YSize=1.2mm|CornerRadius=0.2745mm|HoleSize=0mm|Usage=FLASHONLY|Rotation=0.000|XOffset=0mm|YOffset=0mm|HoleType=Round|Shape=RoundedRectangle|*
%AMROUNDEDRECTD84*
21,1,1.9000,0.6510,0,0,0.0*
21,1,1.3510,1.2000,0,0,0.0*
1,1,0.5490,0.6755,-0.3255*
1,1,0.5490,-0.6755,-0.3255*
1,1,0.5490,-0.6755,0.3255*
1,1,0.5490,0.6755,0.3255*
%
%ADD84ROUNDEDRECTD84*%
%ADD85O,1.7000X0.7500*%
%ADD86O,0.6500X1.5000*%
G04:AMPARAMS|DCode=87|XSize=6.65mm|YSize=5.15mm|CornerRadius=0.325mm|HoleSize=0mm|Usage=FLASHONLY|Rotation=90.000|XOffset=0mm|YOffset=0mm|HoleType=Round|Shape=RoundedRectangle|*
%AMROUNDEDRECTD87*
21,1,6.6500,4.5000,0,0,90.0*
21,1,6.0000,5.1500,0,0,90.0*
1,1,0.6500,2.2500,3.0000*
1,1,0.6500,2.2500,-3.0000*
1,1,0.6500,-2.2500,-3.0000*
1,1,0.6500,-2.2500,3.0000*
%
%ADD87ROUNDEDRECTD87*%
%ADD88C,1.5000*%
%ADD89R,1.5000X1.5000*%
G04:AMPARAMS|DCode=90|XSize=5.05mm|YSize=1.75mm|CornerRadius=0.275mm|HoleSize=0mm|Usage=FLASHONLY|Rotation=180.000|XOffset=0mm|YOffset=0mm|HoleType=Round|Shape=RoundedRectangle|*
%AMROUNDEDRECTD90*
21,1,5.0500,1.2000,0,0,180.0*
21,1,4.5000,1.7500,0,0,180.0*
1,1,0.5500,-2.2500,0.6000*
1,1,0.5500,2.2500,0.6000*
1,1,0.5500,2.2500,-0.6000*
1,1,0.5500,-2.2500,-0.6000*
%
%ADD90ROUNDEDRECTD90*%
%ADD91O,1.6000X0.4000*%
%ADD92O,0.4000X1.6000*%
%ADD93C,2.0000*%
G04:AMPARAMS|DCode=94|XSize=1.25mm|YSize=0.75mm|CornerRadius=0.276mm|HoleSize=0mm|Usage=FLASHONLY|Rotation=270.000|XOffset=0mm|YOffset=0mm|HoleType=Round|Shape=RoundedRectangle|*
%AMROUNDEDRECTD94*
21,1,1.2500,0.1980,0,0,270.0*
21,1,0.6980,0.7500,0,0,270.0*
1,1,0.5520,-0.0990,-0.3490*
1,1,0.5520,-0.0990,0.3490*
1,1,0.5520,0.0990,0.3490*
1,1,0.5520,0.0990,-0.3490*
%
%ADD94ROUNDEDRECTD94*%
G04:AMPARAMS|DCode=95|XSize=2.65mm|YSize=2.15mm|CornerRadius=0.275mm|HoleSize=0mm|Usage=FLASHONLY|Rotation=180.000|XOffset=0mm|YOffset=0mm|HoleType=Round|Shape=RoundedRectangle|*
%AMROUNDEDRECTD95*
21,1,2.6500,1.6000,0,0,180.0*
21,1,2.1000,2.1500,0,0,180.0*
1,1,0.5500,-1.0500,0.8000*
1,1,0.5500,1.0500,0.8000*
1,1,0.5500,1.0500,-0.8000*
1,1,0.5500,-1.0500,-0.8000*
%
%ADD95ROUNDEDRECTD95*%
G04:AMPARAMS|DCode=96|XSize=2.45mm|YSize=0.65mm|CornerRadius=0.275mm|HoleSize=0mm|Usage=FLASHONLY|Rotation=180.000|XOffset=0mm|YOffset=0mm|HoleType=Round|Shape=RoundedRectangle|*
%AMROUNDEDRECTD96*
21,1,2.4500,0.1000,0,0,180.0*
21,1,1.9000,0.6500,0,0,180.0*
1,1,0.5500,-0.9500,0.0500*
1,1,0.5500,0.9500,0.0500*
1,1,0.5500,0.9500,-0.0500*
1,1,0.5500,-0.9500,-0.0500*
%
%ADD96ROUNDEDRECTD96*%
G04:AMPARAMS|DCode=97|XSize=1.1mm|YSize=0.55mm|CornerRadius=0.1625mm|HoleSize=0mm|Usage=FLASHONLY|Rotation=0.000|XOffset=0mm|YOffset=0mm|HoleType=Round|Shape=RoundedRectangle|*
%AMROUNDEDRECTD97*
21,1,1.1000,0.2250,0,0,0.0*
21,1,0.7750,0.5500,0,0,0.0*
1,1,0.3250,0.3875,-0.1125*
1,1,0.3250,-0.3875,-0.1125*
1,1,0.3250,-0.3875,0.1125*
1,1,0.3250,0.3875,0.1125*
%
%ADD97ROUNDEDRECTD97*%
G04:AMPARAMS|DCode=98|XSize=1.5mm|YSize=1.8mm|CornerRadius=0.345mm|HoleSize=0mm|Usage=FLASHONLY|Rotation=90.000|XOffset=0mm|YOffset=0mm|HoleType=Round|Shape=RoundedRectangle|*
%AMROUNDEDRECTD98*
21,1,1.5000,1.1100,0,0,90.0*
21,1,0.8100,1.8000,0,0,90.0*
1,1,0.6900,0.5550,0.4050*
1,1,0.6900,0.5550,-0.4050*
1,1,0.6900,-0.5550,-0.4050*
1,1,0.6900,-0.5550,0.4050*
%
%ADD98ROUNDEDRECTD98*%
G04:AMPARAMS|DCode=99|XSize=0.8mm|YSize=0.35mm|CornerRadius=0.1338mm|HoleSize=0mm|Usage=FLASHONLY|Rotation=0.000|XOffset=0mm|YOffset=0mm|HoleType=Round|Shape=RoundedRectangle|*
%AMROUNDEDRECTD99*
21,1,0.8000,0.0825,0,0,0.0*
21,1,0.5325,0.3500,0,0,0.0*
1,1,0.2675,0.2662,-0.0413*
1,1,0.2675,-0.2662,-0.0413*
1,1,0.2675,-0.2662,0.0413*
1,1,0.2675,0.2662,0.0413*
%
%ADD99ROUNDEDRECTD99*%
G04:AMPARAMS|DCode=100|XSize=3.15mm|YSize=1.8mm|CornerRadius=0.1823mm|HoleSize=0mm|Usage=FLASHONLY|Rotation=90.000|XOffset=0mm|YOffset=0mm|HoleType=Round|Shape=RoundedRectangle|*
%AMROUNDEDRECTD100*
21,1,3.1500,1.4355,0,0,90.0*
21,1,2.7855,1.8000,0,0,90.0*
1,1,0.3645,0.7178,1.3927*
1,1,0.3645,0.7178,-1.3927*
1,1,0.3645,-0.7178,-1.3927*
1,1,0.3645,-0.7178,1.3927*
%
%ADD100ROUNDEDRECTD100*%
G04:AMPARAMS|DCode=101|XSize=1.35mm|YSize=1.35mm|CornerRadius=0.273mm|HoleSize=0mm|Usage=FLASHONLY|Rotation=0.000|XOffset=0mm|YOffset=0mm|HoleType=Round|Shape=RoundedRectangle|*
%AMROUNDEDRECTD101*
21,1,1.3500,0.8040,0,0,0.0*
21,1,0.8040,1.3500,0,0,0.0*
1,1,0.5460,0.4020,-0.4020*
1,1,0.5460,-0.4020,-0.4020*
1,1,0.5460,-0.4020,0.4020*
1,1,0.5460,0.4020,0.4020*
%
%ADD101ROUNDEDRECTD101*%
G04:AMPARAMS|DCode=102|XSize=1.35mm|YSize=1.35mm|CornerRadius=0.273mm|HoleSize=0mm|Usage=FLASHONLY|Rotation=270.000|XOffset=0mm|YOffset=0mm|HoleType=Round|Shape=RoundedRectangle|*
%AMROUNDEDRECTD102*
21,1,1.3500,0.8040,0,0,270.0*
21,1,0.8040,1.3500,0,0,270.0*
1,1,0.5460,-0.4020,-0.4020*
1,1,0.5460,-0.4020,0.4020*
1,1,0.5460,0.4020,0.4020*
1,1,0.5460,0.4020,-0.4020*
%
%ADD102ROUNDEDRECTD102*%
G04:AMPARAMS|DCode=103|XSize=6.6mm|YSize=6.15mm|CornerRadius=0.285mm|HoleSize=0mm|Usage=FLASHONLY|Rotation=90.000|XOffset=0mm|YOffset=0mm|HoleType=Round|Shape=RoundedRectangle|*
%AMROUNDEDRECTD103*
21,1,6.6000,5.5800,0,0,90.0*
21,1,6.0300,6.1500,0,0,90.0*
1,1,0.5700,2.7900,3.0150*
1,1,0.5700,2.7900,-3.0150*
1,1,0.5700,-2.7900,-3.0150*
1,1,0.5700,-2.7900,3.0150*
%
%ADD103ROUNDEDRECTD103*%
G04:AMPARAMS|DCode=104|XSize=3mm|YSize=1.15mm|CornerRadius=0.275mm|HoleSize=0mm|Usage=FLASHONLY|Rotation=90.000|XOffset=0mm|YOffset=0mm|HoleType=Round|Shape=RoundedRectangle|*
%AMROUNDEDRECTD104*
21,1,3.0000,0.6000,0,0,90.0*
21,1,2.4500,1.1500,0,0,90.0*
1,1,0.5500,0.3000,1.2250*
1,1,0.5500,0.3000,-1.2250*
1,1,0.5500,-0.3000,-1.2250*
1,1,0.5500,-0.3000,1.2250*
%
%ADD104ROUNDEDRECTD104*%
G04:AMPARAMS|DCode=105|XSize=4.1mm|YSize=1.65mm|CornerRadius=0.3225mm|HoleSize=0mm|Usage=FLASHONLY|Rotation=90.000|XOffset=0mm|YOffset=0mm|HoleType=Round|Shape=RoundedRectangle|*
%AMROUNDEDRECTD105*
21,1,4.1000,1.0050,0,0,90.0*
21,1,3.4550,1.6500,0,0,90.0*
1,1,0.6450,0.5025,1.7275*
1,1,0.6450,0.5025,-1.7275*
1,1,0.6450,-0.5025,-1.7275*
1,1,0.6450,-0.5025,1.7275*
%
%ADD105ROUNDEDRECTD105*%
G04:AMPARAMS|DCode=106|XSize=6.55mm|YSize=10.65mm|CornerRadius=0.203mm|HoleSize=0mm|Usage=FLASHONLY|Rotation=90.000|XOffset=0mm|YOffset=0mm|HoleType=Round|Shape=RoundedRectangle|*
%AMROUNDEDRECTD106*
21,1,6.5500,10.2440,0,0,90.0*
21,1,6.1440,10.6500,0,0,90.0*
1,1,0.4060,5.1220,3.0720*
1,1,0.4060,5.1220,-3.0720*
1,1,0.4060,-5.1220,-3.0720*
1,1,0.4060,-5.1220,3.0720*
%
%ADD106ROUNDEDRECTD106*%
%ADD107C,1.7500*%
%ADD108R,1.7500X1.7500*%
%ADD109C,6.2000*%
%ADD110C,3.2000*%
%ADD111C,2.2000*%
%ADD112C,1.0500*%
%ADD113C,3.7000*%
%ADD114C,3.1500*%
%ADD115C,2.4500*%
G36*
X-60000Y-340000D02*
X-140000D01*
Y-260000D01*
X-60000D01*
Y-340000D01*
D02*
G37*
G36*
X-260000D02*
X-340000D01*
Y-260000D01*
X-260000D01*
Y-340000D01*
D02*
G37*
G36*
X340000D02*
X260000D01*
Y-260000D01*
X340000D01*
Y-340000D01*
D02*
G37*
G36*
X140000D02*
X60000D01*
Y-260000D01*
X140000D01*
Y-340000D01*
D02*
G37*
G36*
X450000Y-450000D02*
X370000D01*
Y-245000D01*
X-370000D01*
Y-450000D01*
X-450000D01*
Y-245000D01*
Y-155000D01*
Y-45000D01*
Y45000D01*
Y155000D01*
Y245000D01*
Y450000D01*
X-370000D01*
Y245000D01*
X370000D01*
Y450000D01*
X450000D01*
Y-450000D01*
D02*
G37*
G36*
X140000Y260000D02*
X60000D01*
Y340000D01*
X140000D01*
Y260000D01*
D02*
G37*
G36*
X340000D02*
X260000D01*
Y340000D01*
X340000D01*
Y260000D01*
D02*
G37*
G36*
X-260000D02*
X-340000D01*
Y340000D01*
X-260000D01*
Y260000D01*
D02*
G37*
G36*
X-60000D02*
X-140000D01*
Y340000D01*
X-60000D01*
Y260000D01*
D02*
G37*
%LPC*%
G36*
X370000Y-45000D02*
X-370000D01*
Y-155000D01*
X370000D01*
Y-45000D01*
D02*
G37*
G36*
Y155000D02*
X-370000D01*
Y45000D01*
X370000D01*
Y155000D01*
D02*
G37*
%LPD*%
G36*
X-60000Y60000D02*
X-140000D01*
Y140000D01*
X-60000D01*
Y60000D01*
D02*
G37*
G36*
X-260000D02*
X-340000D01*
Y140000D01*
X-260000D01*
Y60000D01*
D02*
G37*
G36*
X340000D02*
X260000D01*
Y140000D01*
X340000D01*
Y60000D01*
D02*
G37*
G36*
X140000D02*
X60000D01*
Y140000D01*
X140000D01*
Y60000D01*
D02*
G37*
G36*
X-60000Y-140000D02*
X-140000D01*
Y-60000D01*
X-60000D01*
Y-140000D01*
D02*
G37*
G36*
X140000D02*
X60000D01*
Y-60000D01*
X140000D01*
Y-140000D01*
D02*
G37*
G36*
X340000D02*
X260000D01*
Y-60000D01*
X340000D01*
Y-140000D01*
D02*
G37*
G36*
X-260000D02*
X-340000D01*
Y-60000D01*
X-260000D01*
Y-140000D01*
D02*
G37*
D62*
X135000Y835000D02*
D03*
Y810000D02*
D03*
Y785000D02*
D03*
Y760000D02*
D03*
D81*
X318655Y-281250D02*
D03*
X318801Y-288853D02*
D03*
Y-296345D02*
D03*
X318853Y-303802D02*
D03*
X318801Y-311345D02*
D03*
X318853Y-318853D02*
D03*
X311345Y-318801D02*
D03*
X311294Y-311294D02*
D03*
X311345Y-303750D02*
D03*
X311294Y-296294D02*
D03*
Y-288802D02*
D03*
X311147Y-281199D02*
D03*
X304051Y-318801D02*
D03*
X304000Y-311294D02*
D03*
X304051Y-303750D02*
D03*
X304000Y-296294D02*
D03*
Y-288802D02*
D03*
X303853Y-281199D02*
D03*
X296345Y-318801D02*
D03*
X296294Y-311294D02*
D03*
X296345Y-303750D02*
D03*
X296294Y-296294D02*
D03*
Y-288802D02*
D03*
X296147Y-281199D02*
D03*
X288853Y-318801D02*
D03*
X288801Y-311294D02*
D03*
X288853Y-303750D02*
D03*
X288801Y-296294D02*
D03*
Y-288802D02*
D03*
X288655Y-281199D02*
D03*
X281345Y-318801D02*
D03*
X281294Y-311294D02*
D03*
X281345Y-303750D02*
D03*
X281294Y-296294D02*
D03*
Y-288802D02*
D03*
X281147Y-281199D02*
D03*
X318655Y-81250D02*
D03*
X318801Y-88853D02*
D03*
Y-96345D02*
D03*
X318853Y-103801D02*
D03*
X318801Y-111345D02*
D03*
X318853Y-118853D02*
D03*
X311345Y-118801D02*
D03*
X311294Y-111294D02*
D03*
X311345Y-103750D02*
D03*
X311294Y-96294D02*
D03*
Y-88801D02*
D03*
X311147Y-81199D02*
D03*
X304051Y-118801D02*
D03*
X304000Y-111294D02*
D03*
X304051Y-103750D02*
D03*
X304000Y-96294D02*
D03*
Y-88801D02*
D03*
X303853Y-81199D02*
D03*
X296345Y-118801D02*
D03*
X296294Y-111294D02*
D03*
X296345Y-103750D02*
D03*
X296294Y-96294D02*
D03*
Y-88801D02*
D03*
X296147Y-81199D02*
D03*
X288853Y-118801D02*
D03*
X288801Y-111294D02*
D03*
X288853Y-103750D02*
D03*
X288801Y-96294D02*
D03*
Y-88801D02*
D03*
X288655Y-81199D02*
D03*
X281345Y-118801D02*
D03*
X281294Y-111294D02*
D03*
X281345Y-103750D02*
D03*
X281294Y-96294D02*
D03*
Y-88801D02*
D03*
X281147Y-81199D02*
D03*
X318655Y118750D02*
D03*
X318801Y111147D02*
D03*
Y103655D02*
D03*
X318853Y96199D02*
D03*
X318801Y88655D02*
D03*
X318853Y81147D02*
D03*
X311345Y81199D02*
D03*
X311294Y88706D02*
D03*
X311345Y96250D02*
D03*
X311294Y103706D02*
D03*
Y111199D02*
D03*
X311147Y118801D02*
D03*
X304051Y81199D02*
D03*
X304000Y88706D02*
D03*
X304051Y96250D02*
D03*
X304000Y103706D02*
D03*
Y111199D02*
D03*
X303853Y118801D02*
D03*
X296345Y81199D02*
D03*
X296294Y88706D02*
D03*
X296345Y96250D02*
D03*
X296294Y103706D02*
D03*
Y111199D02*
D03*
X296147Y118801D02*
D03*
X288853Y81199D02*
D03*
X288801Y88706D02*
D03*
X288853Y96250D02*
D03*
X288801Y103706D02*
D03*
Y111199D02*
D03*
X288655Y118801D02*
D03*
X281345Y81199D02*
D03*
X281294Y88706D02*
D03*
X281345Y96250D02*
D03*
X281294Y103706D02*
D03*
Y111199D02*
D03*
X281147Y118801D02*
D03*
X318655Y318750D02*
D03*
X318801Y311147D02*
D03*
Y303655D02*
D03*
X318853Y296199D02*
D03*
X318801Y288655D02*
D03*
X318853Y281147D02*
D03*
X311345Y281199D02*
D03*
X311294Y288706D02*
D03*
X311345Y296250D02*
D03*
X311294Y303706D02*
D03*
Y311199D02*
D03*
X311147Y318801D02*
D03*
X304051Y281199D02*
D03*
X304000Y288706D02*
D03*
X304051Y296250D02*
D03*
X304000Y303706D02*
D03*
Y311199D02*
D03*
X303853Y318801D02*
D03*
X296345Y281199D02*
D03*
X296294Y288706D02*
D03*
X296345Y296250D02*
D03*
X296294Y303706D02*
D03*
Y311199D02*
D03*
X296147Y318801D02*
D03*
X288853Y281199D02*
D03*
X288801Y288706D02*
D03*
X288853Y296250D02*
D03*
X288801Y303706D02*
D03*
Y311199D02*
D03*
X288655Y318801D02*
D03*
X281345Y281199D02*
D03*
X281294Y288706D02*
D03*
X281345Y296250D02*
D03*
X281294Y303706D02*
D03*
Y311199D02*
D03*
X281147Y318801D02*
D03*
X81345Y281250D02*
D03*
X81199Y288853D02*
D03*
Y296345D02*
D03*
X81147Y303801D02*
D03*
X81199Y311345D02*
D03*
X81147Y318853D02*
D03*
X88655Y318801D02*
D03*
X88706Y311294D02*
D03*
X88655Y303750D02*
D03*
X88706Y296294D02*
D03*
Y288801D02*
D03*
X88853Y281199D02*
D03*
X95949Y318801D02*
D03*
X96000Y311294D02*
D03*
X95949Y303750D02*
D03*
X96000Y296294D02*
D03*
Y288801D02*
D03*
X96147Y281199D02*
D03*
X103655Y318801D02*
D03*
X103706Y311294D02*
D03*
X103655Y303750D02*
D03*
X103706Y296294D02*
D03*
Y288801D02*
D03*
X103853Y281199D02*
D03*
X111147Y318801D02*
D03*
X111199Y311294D02*
D03*
X111147Y303750D02*
D03*
X111199Y296294D02*
D03*
Y288801D02*
D03*
X111345Y281199D02*
D03*
X118655Y318801D02*
D03*
X118706Y311294D02*
D03*
X118655Y303750D02*
D03*
X118706Y296294D02*
D03*
Y288801D02*
D03*
X118853Y281199D02*
D03*
X81345Y81250D02*
D03*
X81199Y88853D02*
D03*
Y96345D02*
D03*
X81147Y103801D02*
D03*
X81199Y111345D02*
D03*
X81147Y118853D02*
D03*
X88655Y118801D02*
D03*
X88706Y111294D02*
D03*
X88655Y103750D02*
D03*
X88706Y96294D02*
D03*
Y88801D02*
D03*
X88853Y81199D02*
D03*
X95949Y118801D02*
D03*
X96000Y111294D02*
D03*
X95949Y103750D02*
D03*
X96000Y96294D02*
D03*
Y88801D02*
D03*
X96147Y81199D02*
D03*
X103655Y118801D02*
D03*
X103706Y111294D02*
D03*
X103655Y103750D02*
D03*
X103706Y96294D02*
D03*
Y88801D02*
D03*
X103853Y81199D02*
D03*
X111147Y118801D02*
D03*
X111199Y111294D02*
D03*
X111147Y103750D02*
D03*
X111199Y96294D02*
D03*
Y88801D02*
D03*
X111345Y81199D02*
D03*
X118655Y118801D02*
D03*
X118706Y111294D02*
D03*
X118655Y103750D02*
D03*
X118706Y96294D02*
D03*
Y88801D02*
D03*
X118853Y81199D02*
D03*
X81345Y-118750D02*
D03*
X81199Y-111147D02*
D03*
Y-103655D02*
D03*
X81147Y-96199D02*
D03*
X81199Y-88655D02*
D03*
X81147Y-81147D02*
D03*
X88655Y-81199D02*
D03*
X88706Y-88706D02*
D03*
X88655Y-96250D02*
D03*
X88706Y-103706D02*
D03*
Y-111199D02*
D03*
X88853Y-118801D02*
D03*
X95949Y-81199D02*
D03*
X96000Y-88706D02*
D03*
X95949Y-96250D02*
D03*
X96000Y-103706D02*
D03*
Y-111199D02*
D03*
X96147Y-118801D02*
D03*
X103655Y-81199D02*
D03*
X103706Y-88706D02*
D03*
X103655Y-96250D02*
D03*
X103706Y-103706D02*
D03*
Y-111199D02*
D03*
X103853Y-118801D02*
D03*
X111147Y-81199D02*
D03*
X111199Y-88706D02*
D03*
X111147Y-96250D02*
D03*
X111199Y-103706D02*
D03*
Y-111199D02*
D03*
X111345Y-118801D02*
D03*
X118655Y-81199D02*
D03*
X118706Y-88706D02*
D03*
X118655Y-96250D02*
D03*
X118706Y-103706D02*
D03*
Y-111199D02*
D03*
X118853Y-118801D02*
D03*
X81345Y-318750D02*
D03*
X81199Y-311147D02*
D03*
Y-303655D02*
D03*
X81147Y-296199D02*
D03*
X81199Y-288655D02*
D03*
X81147Y-281147D02*
D03*
X88655Y-281199D02*
D03*
X88706Y-288706D02*
D03*
X88655Y-296250D02*
D03*
X88706Y-303706D02*
D03*
Y-311199D02*
D03*
X88853Y-318801D02*
D03*
X95949Y-281199D02*
D03*
X96000Y-288706D02*
D03*
X95949Y-296250D02*
D03*
X96000Y-303706D02*
D03*
Y-311199D02*
D03*
X96147Y-318801D02*
D03*
X103655Y-281199D02*
D03*
X103706Y-288706D02*
D03*
X103655Y-296250D02*
D03*
X103706Y-303706D02*
D03*
Y-311199D02*
D03*
X103853Y-318801D02*
D03*
X111147Y-281199D02*
D03*
X111199Y-288706D02*
D03*
X111147Y-296250D02*
D03*
X111199Y-303706D02*
D03*
Y-311199D02*
D03*
X111345Y-318801D02*
D03*
X118655Y-281199D02*
D03*
X118706Y-288706D02*
D03*
X118655Y-296250D02*
D03*
X118706Y-303706D02*
D03*
Y-311199D02*
D03*
X118853Y-318801D02*
D03*
X-81345Y-281250D02*
D03*
X-81199Y-288853D02*
D03*
Y-296345D02*
D03*
X-81147Y-303802D02*
D03*
X-81199Y-311345D02*
D03*
X-81147Y-318853D02*
D03*
X-88655Y-318801D02*
D03*
X-88706Y-311294D02*
D03*
X-88655Y-303750D02*
D03*
X-88706Y-296294D02*
D03*
Y-288802D02*
D03*
X-88853Y-281199D02*
D03*
X-95949Y-318801D02*
D03*
X-96000Y-311294D02*
D03*
X-95949Y-303750D02*
D03*
X-96000Y-296294D02*
D03*
Y-288802D02*
D03*
X-96147Y-281199D02*
D03*
X-103655Y-318801D02*
D03*
X-103706Y-311294D02*
D03*
X-103655Y-303750D02*
D03*
X-103706Y-296294D02*
D03*
Y-288802D02*
D03*
X-103853Y-281199D02*
D03*
X-111147Y-318801D02*
D03*
X-111199Y-311294D02*
D03*
X-111147Y-303750D02*
D03*
X-111199Y-296294D02*
D03*
Y-288802D02*
D03*
X-111345Y-281199D02*
D03*
X-118655Y-318801D02*
D03*
X-118706Y-311294D02*
D03*
X-118655Y-303750D02*
D03*
X-118706Y-296294D02*
D03*
Y-288802D02*
D03*
X-118853Y-281199D02*
D03*
X-81345Y-81250D02*
D03*
X-81199Y-88853D02*
D03*
Y-96345D02*
D03*
X-81147Y-103801D02*
D03*
X-81199Y-111345D02*
D03*
X-81147Y-118853D02*
D03*
X-88655Y-118801D02*
D03*
X-88706Y-111294D02*
D03*
X-88655Y-103750D02*
D03*
X-88706Y-96294D02*
D03*
Y-88801D02*
D03*
X-88853Y-81199D02*
D03*
X-95949Y-118801D02*
D03*
X-96000Y-111294D02*
D03*
X-95949Y-103750D02*
D03*
X-96000Y-96294D02*
D03*
Y-88801D02*
D03*
X-96147Y-81199D02*
D03*
X-103655Y-118801D02*
D03*
X-103706Y-111294D02*
D03*
X-103655Y-103750D02*
D03*
X-103706Y-96294D02*
D03*
Y-88801D02*
D03*
X-103853Y-81199D02*
D03*
X-111147Y-118801D02*
D03*
X-111199Y-111294D02*
D03*
X-111147Y-103750D02*
D03*
X-111199Y-96294D02*
D03*
Y-88801D02*
D03*
X-111345Y-81199D02*
D03*
X-118655Y-118801D02*
D03*
X-118706Y-111294D02*
D03*
X-118655Y-103750D02*
D03*
X-118706Y-96294D02*
D03*
Y-88801D02*
D03*
X-118853Y-81199D02*
D03*
X-81345Y118750D02*
D03*
X-81199Y111147D02*
D03*
Y103655D02*
D03*
X-81147Y96199D02*
D03*
X-81199Y88655D02*
D03*
X-81147Y81147D02*
D03*
X-88655Y81199D02*
D03*
X-88706Y88706D02*
D03*
X-88655Y96250D02*
D03*
X-88706Y103706D02*
D03*
Y111199D02*
D03*
X-88853Y118801D02*
D03*
X-95949Y81199D02*
D03*
X-96000Y88706D02*
D03*
X-95949Y96250D02*
D03*
X-96000Y103706D02*
D03*
Y111199D02*
D03*
X-96147Y118801D02*
D03*
X-103655Y81199D02*
D03*
X-103706Y88706D02*
D03*
X-103655Y96250D02*
D03*
X-103706Y103706D02*
D03*
Y111199D02*
D03*
X-103853Y118801D02*
D03*
X-111147Y81199D02*
D03*
X-111199Y88706D02*
D03*
X-111147Y96250D02*
D03*
X-111199Y103706D02*
D03*
Y111199D02*
D03*
X-111345Y118801D02*
D03*
X-118655Y81199D02*
D03*
X-118706Y88706D02*
D03*
X-118655Y96250D02*
D03*
X-118706Y103706D02*
D03*
Y111199D02*
D03*
X-118853Y118801D02*
D03*
X-81345Y318750D02*
D03*
X-81199Y311147D02*
D03*
Y303655D02*
D03*
X-81147Y296199D02*
D03*
X-81199Y288655D02*
D03*
X-81147Y281147D02*
D03*
X-88655Y281199D02*
D03*
X-88706Y288706D02*
D03*
X-88655Y296250D02*
D03*
X-88706Y303706D02*
D03*
Y311199D02*
D03*
X-88853Y318801D02*
D03*
X-95949Y281199D02*
D03*
X-96000Y288706D02*
D03*
X-95949Y296250D02*
D03*
X-96000Y303706D02*
D03*
Y311199D02*
D03*
X-96147Y318801D02*
D03*
X-103655Y281199D02*
D03*
X-103706Y288706D02*
D03*
X-103655Y296250D02*
D03*
X-103706Y303706D02*
D03*
Y311199D02*
D03*
X-103853Y318801D02*
D03*
X-111147Y281199D02*
D03*
X-111199Y288706D02*
D03*
X-111147Y296250D02*
D03*
X-111199Y303706D02*
D03*
Y311199D02*
D03*
X-111345Y318801D02*
D03*
X-118655Y281199D02*
D03*
X-118706Y288706D02*
D03*
X-118655Y296250D02*
D03*
X-118706Y303706D02*
D03*
Y311199D02*
D03*
X-118853Y318801D02*
D03*
X-318655Y281250D02*
D03*
X-318801Y288853D02*
D03*
Y296345D02*
D03*
X-318853Y303801D02*
D03*
X-318801Y311345D02*
D03*
X-318853Y318853D02*
D03*
X-311345Y318801D02*
D03*
X-311294Y311294D02*
D03*
X-311345Y303750D02*
D03*
X-311294Y296294D02*
D03*
Y288801D02*
D03*
X-311147Y281199D02*
D03*
X-304051Y318801D02*
D03*
X-304000Y311294D02*
D03*
X-304051Y303750D02*
D03*
X-304000Y296294D02*
D03*
Y288801D02*
D03*
X-303853Y281199D02*
D03*
X-296345Y318801D02*
D03*
X-296294Y311294D02*
D03*
X-296345Y303750D02*
D03*
X-296294Y296294D02*
D03*
Y288801D02*
D03*
X-296147Y281199D02*
D03*
X-288853Y318801D02*
D03*
X-288801Y311294D02*
D03*
X-288853Y303750D02*
D03*
X-288801Y296294D02*
D03*
Y288801D02*
D03*
X-288655Y281199D02*
D03*
X-281345Y318801D02*
D03*
X-281294Y311294D02*
D03*
X-281345Y303750D02*
D03*
X-281294Y296294D02*
D03*
Y288801D02*
D03*
X-281147Y281199D02*
D03*
X-318655Y81250D02*
D03*
X-318801Y88853D02*
D03*
Y96345D02*
D03*
X-318853Y103801D02*
D03*
X-318801Y111345D02*
D03*
X-318853Y118853D02*
D03*
X-311345Y118801D02*
D03*
X-311294Y111294D02*
D03*
X-311345Y103750D02*
D03*
X-311294Y96294D02*
D03*
Y88801D02*
D03*
X-311147Y81199D02*
D03*
X-304051Y118801D02*
D03*
X-304000Y111294D02*
D03*
X-304051Y103750D02*
D03*
X-304000Y96294D02*
D03*
Y88801D02*
D03*
X-303853Y81199D02*
D03*
X-296345Y118801D02*
D03*
X-296294Y111294D02*
D03*
X-296345Y103750D02*
D03*
X-296294Y96294D02*
D03*
Y88801D02*
D03*
X-296147Y81199D02*
D03*
X-288853Y118801D02*
D03*
X-288801Y111294D02*
D03*
X-288853Y103750D02*
D03*
X-288801Y96294D02*
D03*
Y88801D02*
D03*
X-288655Y81199D02*
D03*
X-281345Y118801D02*
D03*
X-281294Y111294D02*
D03*
X-281345Y103750D02*
D03*
X-281294Y96294D02*
D03*
Y88801D02*
D03*
X-281147Y81199D02*
D03*
X-318655Y-118750D02*
D03*
X-318801Y-111147D02*
D03*
Y-103655D02*
D03*
X-318853Y-96199D02*
D03*
X-318801Y-88655D02*
D03*
X-318853Y-81147D02*
D03*
X-311345Y-81199D02*
D03*
X-311294Y-88706D02*
D03*
X-311345Y-96250D02*
D03*
X-311294Y-103706D02*
D03*
Y-111199D02*
D03*
X-311147Y-118801D02*
D03*
X-304051Y-81199D02*
D03*
X-304000Y-88706D02*
D03*
X-304051Y-96250D02*
D03*
X-304000Y-103706D02*
D03*
Y-111199D02*
D03*
X-303853Y-118801D02*
D03*
X-296345Y-81199D02*
D03*
X-296294Y-88706D02*
D03*
X-296345Y-96250D02*
D03*
X-296294Y-103706D02*
D03*
Y-111199D02*
D03*
X-296147Y-118801D02*
D03*
X-288853Y-81199D02*
D03*
X-288801Y-88706D02*
D03*
X-288853Y-96250D02*
D03*
X-288801Y-103706D02*
D03*
Y-111199D02*
D03*
X-288655Y-118801D02*
D03*
X-281345Y-81199D02*
D03*
X-281294Y-88706D02*
D03*
X-281345Y-96250D02*
D03*
X-281294Y-103706D02*
D03*
Y-111199D02*
D03*
X-281147Y-118801D02*
D03*
X-318655Y-318750D02*
D03*
X-318801Y-311147D02*
D03*
Y-303655D02*
D03*
X-318853Y-296199D02*
D03*
X-318801Y-288655D02*
D03*
X-318853Y-281147D02*
D03*
X-311345Y-281199D02*
D03*
X-311294Y-288706D02*
D03*
X-311345Y-296250D02*
D03*
X-311294Y-303706D02*
D03*
Y-311199D02*
D03*
X-311147Y-318801D02*
D03*
X-304051Y-281199D02*
D03*
X-304000Y-288706D02*
D03*
X-304051Y-296250D02*
D03*
X-304000Y-303706D02*
D03*
Y-311199D02*
D03*
X-303853Y-318801D02*
D03*
X-296345Y-281199D02*
D03*
X-296294Y-288706D02*
D03*
X-296345Y-296250D02*
D03*
X-296294Y-303706D02*
D03*
Y-311199D02*
D03*
X-296147Y-318801D02*
D03*
X-288853Y-281199D02*
D03*
X-288801Y-288706D02*
D03*
X-288853Y-296250D02*
D03*
X-288801Y-303706D02*
D03*
Y-311199D02*
D03*
X-288655Y-318801D02*
D03*
X-281345Y-281199D02*
D03*
X-281294Y-288706D02*
D03*
X-281345Y-296250D02*
D03*
X-281294Y-303706D02*
D03*
Y-311199D02*
D03*
X-281147Y-318801D02*
D03*
D107*
X-0Y-75000D02*
D03*
X200000Y325000D02*
D03*
X-0Y125000D02*
D03*
X-200000Y-275000D02*
D03*
Y125000D02*
D03*
X200000D02*
D03*
X-0Y325000D02*
D03*
X-200000D02*
D03*
Y-75000D02*
D03*
X200000D02*
D03*
Y-275000D02*
D03*
X-0D02*
D03*
D108*
Y-125000D02*
D03*
X200000Y275000D02*
D03*
X-0Y75000D02*
D03*
X-200000Y-325000D02*
D03*
Y75000D02*
D03*
X200000D02*
D03*
X-0Y275000D02*
D03*
X-200000D02*
D03*
Y-125000D02*
D03*
X200000D02*
D03*
Y-325000D02*
D03*
X-0D02*
D03*
D109*
X-110000Y830000D02*
D03*
X-200000Y200000D02*
D03*
Y-200000D02*
D03*
X200000Y200000D02*
D03*
Y-200000D02*
D03*
X-412500Y412500D02*
D03*
X412500D02*
D03*
X-412500Y-412500D02*
D03*
X412500D02*
D03*
X-412500Y825000D02*
D03*
X412500D02*
D03*
X-215400Y831600D02*
D03*
X-317000D02*
D03*
D110*
X-339951Y780749D02*
D03*
X-290000Y780000D02*
D03*
X-240000D02*
D03*
D111*
X170000Y835000D02*
D03*
X100000D02*
D03*
D112*
X400000Y653000D02*
D03*
Y609000D02*
D03*
D113*
X-367800Y755400D02*
D03*
X-164600D02*
D03*
D114*
X-190000Y730000D02*
D03*
X-240800D02*
D03*
X-291600D02*
D03*
D115*
X-342400D02*
D03*
M02*
