%FSLAX44Y44*%
%MOMM*%
G71*
G01*
G75*
G04 Layer_Physical_Order=4*
G04 Layer_Color=21504*
G04:AMPARAMS|DCode=10|XSize=1mm|YSize=0.9mm|CornerRadius=0.198mm|HoleSize=0mm|Usage=FLASHONLY|Rotation=270.000|XOffset=0mm|YOffset=0mm|HoleType=Round|Shape=RoundedRectangle|*
%AMROUNDEDRECTD10*
21,1,1.0000,0.5040,0,0,270.0*
21,1,0.6040,0.9000,0,0,270.0*
1,1,0.3960,-0.2520,-0.3020*
1,1,0.3960,-0.2520,0.3020*
1,1,0.3960,0.2520,0.3020*
1,1,0.3960,0.2520,-0.3020*
%
%ADD10ROUNDEDRECTD10*%
G04:AMPARAMS|DCode=11|XSize=0.9mm|YSize=0.4mm|CornerRadius=0.15mm|HoleSize=0mm|Usage=FLASHONLY|Rotation=90.000|XOffset=0mm|YOffset=0mm|HoleType=Round|Shape=RoundedRectangle|*
%AMROUNDEDRECTD11*
21,1,0.9000,0.1000,0,0,90.0*
21,1,0.6000,0.4000,0,0,90.0*
1,1,0.3000,0.0500,0.3000*
1,1,0.3000,0.0500,-0.3000*
1,1,0.3000,-0.0500,-0.3000*
1,1,0.3000,-0.0500,0.3000*
%
%ADD11ROUNDEDRECTD11*%
%ADD12O,0.6000X1.5500*%
G04:AMPARAMS|DCode=13|XSize=1mm|YSize=0.9mm|CornerRadius=0.198mm|HoleSize=0mm|Usage=FLASHONLY|Rotation=0.000|XOffset=0mm|YOffset=0mm|HoleType=Round|Shape=RoundedRectangle|*
%AMROUNDEDRECTD13*
21,1,1.0000,0.5040,0,0,0.0*
21,1,0.6040,0.9000,0,0,0.0*
1,1,0.3960,0.3020,-0.2520*
1,1,0.3960,-0.3020,-0.2520*
1,1,0.3960,-0.3020,0.2520*
1,1,0.3960,0.3020,0.2520*
%
%ADD13ROUNDEDRECTD13*%
G04:AMPARAMS|DCode=14|XSize=1.05mm|YSize=0.65mm|CornerRadius=0.2015mm|HoleSize=0mm|Usage=FLASHONLY|Rotation=0.000|XOffset=0mm|YOffset=0mm|HoleType=Round|Shape=RoundedRectangle|*
%AMROUNDEDRECTD14*
21,1,1.0500,0.2470,0,0,0.0*
21,1,0.6470,0.6500,0,0,0.0*
1,1,0.4030,0.3235,-0.1235*
1,1,0.4030,-0.3235,-0.1235*
1,1,0.4030,-0.3235,0.1235*
1,1,0.4030,0.3235,0.1235*
%
%ADD14ROUNDEDRECTD14*%
G04:AMPARAMS|DCode=15|XSize=1mm|YSize=0.95mm|CornerRadius=0.1995mm|HoleSize=0mm|Usage=FLASHONLY|Rotation=180.000|XOffset=0mm|YOffset=0mm|HoleType=Round|Shape=RoundedRectangle|*
%AMROUNDEDRECTD15*
21,1,1.0000,0.5510,0,0,180.0*
21,1,0.6010,0.9500,0,0,180.0*
1,1,0.3990,-0.3005,0.2755*
1,1,0.3990,0.3005,0.2755*
1,1,0.3990,0.3005,-0.2755*
1,1,0.3990,-0.3005,-0.2755*
%
%ADD15ROUNDEDRECTD15*%
%ADD16C,0.4000*%
%ADD17O,0.8500X0.2500*%
%ADD18O,0.2500X0.8500*%
G04:AMPARAMS|DCode=19|XSize=1mm|YSize=0.95mm|CornerRadius=0.1995mm|HoleSize=0mm|Usage=FLASHONLY|Rotation=90.000|XOffset=0mm|YOffset=0mm|HoleType=Round|Shape=RoundedRectangle|*
%AMROUNDEDRECTD19*
21,1,1.0000,0.5510,0,0,90.0*
21,1,0.6010,0.9500,0,0,90.0*
1,1,0.3990,0.2755,0.3005*
1,1,0.3990,0.2755,-0.3005*
1,1,0.3990,-0.2755,-0.3005*
1,1,0.3990,-0.2755,0.3005*
%
%ADD19ROUNDEDRECTD19*%
G04:AMPARAMS|DCode=20|XSize=1.45mm|YSize=1.15mm|CornerRadius=0.2013mm|HoleSize=0mm|Usage=FLASHONLY|Rotation=270.000|XOffset=0mm|YOffset=0mm|HoleType=Round|Shape=RoundedRectangle|*
%AMROUNDEDRECTD20*
21,1,1.4500,0.7475,0,0,270.0*
21,1,1.0475,1.1500,0,0,270.0*
1,1,0.4025,-0.3738,-0.5238*
1,1,0.4025,-0.3738,0.5238*
1,1,0.4025,0.3738,0.5238*
1,1,0.4025,0.3738,-0.5238*
%
%ADD20ROUNDEDRECTD20*%
G04:AMPARAMS|DCode=21|XSize=1.45mm|YSize=1.15mm|CornerRadius=0.2013mm|HoleSize=0mm|Usage=FLASHONLY|Rotation=0.000|XOffset=0mm|YOffset=0mm|HoleType=Round|Shape=RoundedRectangle|*
%AMROUNDEDRECTD21*
21,1,1.4500,0.7475,0,0,0.0*
21,1,1.0475,1.1500,0,0,0.0*
1,1,0.4025,0.5238,-0.3738*
1,1,0.4025,-0.5238,-0.3738*
1,1,0.4025,-0.5238,0.3738*
1,1,0.4025,0.5238,0.3738*
%
%ADD21ROUNDEDRECTD21*%
%ADD22C,0.6000*%
%ADD23O,1.3500X0.5000*%
G04:AMPARAMS|DCode=24|XSize=1.75mm|YSize=1.05mm|CornerRadius=0.1995mm|HoleSize=0mm|Usage=FLASHONLY|Rotation=90.000|XOffset=0mm|YOffset=0mm|HoleType=Round|Shape=RoundedRectangle|*
%AMROUNDEDRECTD24*
21,1,1.7500,0.6510,0,0,90.0*
21,1,1.3510,1.0500,0,0,90.0*
1,1,0.3990,0.3255,0.6755*
1,1,0.3990,0.3255,-0.6755*
1,1,0.3990,-0.3255,-0.6755*
1,1,0.3990,-0.3255,0.6755*
%
%ADD24ROUNDEDRECTD24*%
G04:AMPARAMS|DCode=25|XSize=1.75mm|YSize=1.05mm|CornerRadius=0.1995mm|HoleSize=0mm|Usage=FLASHONLY|Rotation=0.000|XOffset=0mm|YOffset=0mm|HoleType=Round|Shape=RoundedRectangle|*
%AMROUNDEDRECTD25*
21,1,1.7500,0.6510,0,0,0.0*
21,1,1.3510,1.0500,0,0,0.0*
1,1,0.3990,0.6755,-0.3255*
1,1,0.3990,-0.6755,-0.3255*
1,1,0.3990,-0.6755,0.3255*
1,1,0.3990,0.6755,0.3255*
%
%ADD25ROUNDEDRECTD25*%
%ADD26O,1.5500X0.6000*%
%ADD27O,0.5000X1.3500*%
G04:AMPARAMS|DCode=28|XSize=6.5mm|YSize=5mm|CornerRadius=0.25mm|HoleSize=0mm|Usage=FLASHONLY|Rotation=90.000|XOffset=0mm|YOffset=0mm|HoleType=Round|Shape=RoundedRectangle|*
%AMROUNDEDRECTD28*
21,1,6.5000,4.5000,0,0,90.0*
21,1,6.0000,5.0000,0,0,90.0*
1,1,0.5000,2.2500,3.0000*
1,1,0.5000,2.2500,-3.0000*
1,1,0.5000,-2.2500,-3.0000*
1,1,0.5000,-2.2500,3.0000*
%
%ADD28ROUNDEDRECTD28*%
%ADD29C,1.3000*%
%ADD30R,1.3000X1.3000*%
G04:AMPARAMS|DCode=31|XSize=4.9mm|YSize=1.6mm|CornerRadius=0.2mm|HoleSize=0mm|Usage=FLASHONLY|Rotation=180.000|XOffset=0mm|YOffset=0mm|HoleType=Round|Shape=RoundedRectangle|*
%AMROUNDEDRECTD31*
21,1,4.9000,1.2000,0,0,180.0*
21,1,4.5000,1.6000,0,0,180.0*
1,1,0.4000,-2.2500,0.6000*
1,1,0.4000,2.2500,0.6000*
1,1,0.4000,2.2500,-0.6000*
1,1,0.4000,-2.2500,-0.6000*
%
%ADD31ROUNDEDRECTD31*%
%ADD32O,1.5000X0.3000*%
%ADD33O,0.3000X1.5000*%
%ADD34C,1.0000*%
G04:AMPARAMS|DCode=35|XSize=1.1mm|YSize=0.6mm|CornerRadius=0.201mm|HoleSize=0mm|Usage=FLASHONLY|Rotation=270.000|XOffset=0mm|YOffset=0mm|HoleType=Round|Shape=RoundedRectangle|*
%AMROUNDEDRECTD35*
21,1,1.1000,0.1980,0,0,270.0*
21,1,0.6980,0.6000,0,0,270.0*
1,1,0.4020,-0.0990,-0.3490*
1,1,0.4020,-0.0990,0.3490*
1,1,0.4020,0.0990,0.3490*
1,1,0.4020,0.0990,-0.3490*
%
%ADD35ROUNDEDRECTD35*%
G04:AMPARAMS|DCode=36|XSize=2.5mm|YSize=2mm|CornerRadius=0.2mm|HoleSize=0mm|Usage=FLASHONLY|Rotation=180.000|XOffset=0mm|YOffset=0mm|HoleType=Round|Shape=RoundedRectangle|*
%AMROUNDEDRECTD36*
21,1,2.5000,1.6000,0,0,180.0*
21,1,2.1000,2.0000,0,0,180.0*
1,1,0.4000,-1.0500,0.8000*
1,1,0.4000,1.0500,0.8000*
1,1,0.4000,1.0500,-0.8000*
1,1,0.4000,-1.0500,-0.8000*
%
%ADD36ROUNDEDRECTD36*%
G04:AMPARAMS|DCode=37|XSize=2.3mm|YSize=0.5mm|CornerRadius=0.2mm|HoleSize=0mm|Usage=FLASHONLY|Rotation=180.000|XOffset=0mm|YOffset=0mm|HoleType=Round|Shape=RoundedRectangle|*
%AMROUNDEDRECTD37*
21,1,2.3000,0.1000,0,0,180.0*
21,1,1.9000,0.5000,0,0,180.0*
1,1,0.4000,-0.9500,0.0500*
1,1,0.4000,0.9500,0.0500*
1,1,0.4000,0.9500,-0.0500*
1,1,0.4000,-0.9500,-0.0500*
%
%ADD37ROUNDEDRECTD37*%
G04:AMPARAMS|DCode=38|XSize=1mm|YSize=0.45mm|CornerRadius=0.1125mm|HoleSize=0mm|Usage=FLASHONLY|Rotation=0.000|XOffset=0mm|YOffset=0mm|HoleType=Round|Shape=RoundedRectangle|*
%AMROUNDEDRECTD38*
21,1,1.0000,0.2250,0,0,0.0*
21,1,0.7750,0.4500,0,0,0.0*
1,1,0.2250,0.3875,-0.1125*
1,1,0.2250,-0.3875,-0.1125*
1,1,0.2250,-0.3875,0.1125*
1,1,0.2250,0.3875,0.1125*
%
%ADD38ROUNDEDRECTD38*%
G04:AMPARAMS|DCode=39|XSize=1.35mm|YSize=1.65mm|CornerRadius=0.27mm|HoleSize=0mm|Usage=FLASHONLY|Rotation=90.000|XOffset=0mm|YOffset=0mm|HoleType=Round|Shape=RoundedRectangle|*
%AMROUNDEDRECTD39*
21,1,1.3500,1.1100,0,0,90.0*
21,1,0.8100,1.6500,0,0,90.0*
1,1,0.5400,0.5550,0.4050*
1,1,0.5400,0.5550,-0.4050*
1,1,0.5400,-0.5550,-0.4050*
1,1,0.5400,-0.5550,0.4050*
%
%ADD39ROUNDEDRECTD39*%
G04:AMPARAMS|DCode=40|XSize=0.7mm|YSize=0.25mm|CornerRadius=0.0838mm|HoleSize=0mm|Usage=FLASHONLY|Rotation=0.000|XOffset=0mm|YOffset=0mm|HoleType=Round|Shape=RoundedRectangle|*
%AMROUNDEDRECTD40*
21,1,0.7000,0.0825,0,0,0.0*
21,1,0.5325,0.2500,0,0,0.0*
1,1,0.1675,0.2662,-0.0413*
1,1,0.1675,-0.2662,-0.0413*
1,1,0.1675,-0.2662,0.0413*
1,1,0.1675,0.2662,0.0413*
%
%ADD40ROUNDEDRECTD40*%
G04:AMPARAMS|DCode=41|XSize=3mm|YSize=1.65mm|CornerRadius=0.1073mm|HoleSize=0mm|Usage=FLASHONLY|Rotation=90.000|XOffset=0mm|YOffset=0mm|HoleType=Round|Shape=RoundedRectangle|*
%AMROUNDEDRECTD41*
21,1,3.0000,1.4355,0,0,90.0*
21,1,2.7855,1.6500,0,0,90.0*
1,1,0.2145,0.7178,1.3927*
1,1,0.2145,0.7178,-1.3927*
1,1,0.2145,-0.7178,-1.3927*
1,1,0.2145,-0.7178,1.3927*
%
%ADD41ROUNDEDRECTD41*%
G04:AMPARAMS|DCode=42|XSize=1.2mm|YSize=1.2mm|CornerRadius=0.198mm|HoleSize=0mm|Usage=FLASHONLY|Rotation=0.000|XOffset=0mm|YOffset=0mm|HoleType=Round|Shape=RoundedRectangle|*
%AMROUNDEDRECTD42*
21,1,1.2000,0.8040,0,0,0.0*
21,1,0.8040,1.2000,0,0,0.0*
1,1,0.3960,0.4020,-0.4020*
1,1,0.3960,-0.4020,-0.4020*
1,1,0.3960,-0.4020,0.4020*
1,1,0.3960,0.4020,0.4020*
%
%ADD42ROUNDEDRECTD42*%
G04:AMPARAMS|DCode=43|XSize=1.2mm|YSize=1.2mm|CornerRadius=0.198mm|HoleSize=0mm|Usage=FLASHONLY|Rotation=270.000|XOffset=0mm|YOffset=0mm|HoleType=Round|Shape=RoundedRectangle|*
%AMROUNDEDRECTD43*
21,1,1.2000,0.8040,0,0,270.0*
21,1,0.8040,1.2000,0,0,270.0*
1,1,0.3960,-0.4020,-0.4020*
1,1,0.3960,-0.4020,0.4020*
1,1,0.3960,0.4020,0.4020*
1,1,0.3960,0.4020,-0.4020*
%
%ADD43ROUNDEDRECTD43*%
G04:AMPARAMS|DCode=44|XSize=6.45mm|YSize=6mm|CornerRadius=0.21mm|HoleSize=0mm|Usage=FLASHONLY|Rotation=90.000|XOffset=0mm|YOffset=0mm|HoleType=Round|Shape=RoundedRectangle|*
%AMROUNDEDRECTD44*
21,1,6.4500,5.5800,0,0,90.0*
21,1,6.0300,6.0000,0,0,90.0*
1,1,0.4200,2.7900,3.0150*
1,1,0.4200,2.7900,-3.0150*
1,1,0.4200,-2.7900,-3.0150*
1,1,0.4200,-2.7900,3.0150*
%
%ADD44ROUNDEDRECTD44*%
G04:AMPARAMS|DCode=45|XSize=2.85mm|YSize=1mm|CornerRadius=0.2mm|HoleSize=0mm|Usage=FLASHONLY|Rotation=90.000|XOffset=0mm|YOffset=0mm|HoleType=Round|Shape=RoundedRectangle|*
%AMROUNDEDRECTD45*
21,1,2.8500,0.6000,0,0,90.0*
21,1,2.4500,1.0000,0,0,90.0*
1,1,0.4000,0.3000,1.2250*
1,1,0.4000,0.3000,-1.2250*
1,1,0.4000,-0.3000,-1.2250*
1,1,0.4000,-0.3000,1.2250*
%
%ADD45ROUNDEDRECTD45*%
G04:AMPARAMS|DCode=46|XSize=3.95mm|YSize=1.5mm|CornerRadius=0.2475mm|HoleSize=0mm|Usage=FLASHONLY|Rotation=90.000|XOffset=0mm|YOffset=0mm|HoleType=Round|Shape=RoundedRectangle|*
%AMROUNDEDRECTD46*
21,1,3.9500,1.0050,0,0,90.0*
21,1,3.4550,1.5000,0,0,90.0*
1,1,0.4950,0.5025,1.7275*
1,1,0.4950,0.5025,-1.7275*
1,1,0.4950,-0.5025,-1.7275*
1,1,0.4950,-0.5025,1.7275*
%
%ADD46ROUNDEDRECTD46*%
G04:AMPARAMS|DCode=47|XSize=6.4mm|YSize=10.5mm|CornerRadius=0.128mm|HoleSize=0mm|Usage=FLASHONLY|Rotation=90.000|XOffset=0mm|YOffset=0mm|HoleType=Round|Shape=RoundedRectangle|*
%AMROUNDEDRECTD47*
21,1,6.4000,10.2440,0,0,90.0*
21,1,6.1440,10.5000,0,0,90.0*
1,1,0.2560,5.1220,3.0720*
1,1,0.2560,5.1220,-3.0720*
1,1,0.2560,-5.1220,-3.0720*
1,1,0.2560,-5.1220,3.0720*
%
%ADD47ROUNDEDRECTD47*%
%ADD48C,0.2500*%
%ADD49C,0.3000*%
%ADD50C,0.5000*%
%ADD51C,0.6000*%
%ADD52C,0.2540*%
%ADD53C,1.0000*%
%ADD54C,0.4000*%
%ADD55C,0.4500*%
%ADD56C,0.8000*%
%ADD57C,0.5500*%
%ADD58C,1.6000*%
%ADD59R,1.6000X1.6000*%
%ADD60C,6.0000*%
%ADD61C,3.0000*%
%ADD62C,2.0000*%
%ADD63C,0.5000*%
%ADD64C,1.8500*%
%ADD65C,3.5000*%
%ADD66C,2.3000*%
%ADD67C,2.0000*%
%ADD68C,1.8000*%
G36*
X-322762Y758268D02*
X-338170Y742860D01*
X-338876Y743152D01*
X-342400Y743616D01*
X-345924Y743152D01*
X-349208Y741792D01*
X-350848Y740534D01*
X-351685Y741489D01*
X-333733Y759441D01*
X-323249D01*
X-322762Y758268D01*
D02*
G37*
G36*
X448628Y445000D02*
X448628Y445000D01*
X448628D01*
Y-35000D01*
Y-448628D01*
X-448628D01*
Y447500D01*
X-448628Y447500D01*
X-448628Y447500D01*
Y447500D01*
Y448764D01*
X-447646Y449570D01*
X-447000Y449441D01*
X-389981D01*
X-389841Y449348D01*
X-387500Y448882D01*
X-385159Y449348D01*
X-385020Y449441D01*
X-377500D01*
X-376329Y449674D01*
X-375337Y450337D01*
X-374674Y451329D01*
X-374441Y452500D01*
Y516941D01*
X-372481D01*
X-372341Y516848D01*
X-370000Y516382D01*
X-367659Y516848D01*
X-367520Y516941D01*
X-362481D01*
X-362341Y516848D01*
X-360000Y516382D01*
X-357659Y516848D01*
X-357520Y516941D01*
X-352481D01*
X-352341Y516848D01*
X-350000Y516382D01*
X-347659Y516848D01*
X-347520Y516941D01*
X-342481D01*
X-342341Y516848D01*
X-340000Y516382D01*
X-337659Y516848D01*
X-337520Y516941D01*
X-334159D01*
X-333415Y517089D01*
X-332989Y517174D01*
X-332791Y517306D01*
X-331996Y517837D01*
X-331599Y518432D01*
X-331333Y518829D01*
X-330847Y520003D01*
X-330755Y520468D01*
X-330615Y521173D01*
X-330763Y521917D01*
X-330847Y522344D01*
X-331177Y522837D01*
X-331511Y523336D01*
X-347837Y539663D01*
X-348829Y540326D01*
X-350000Y540559D01*
X-350000Y540559D01*
X-388994D01*
X-389348Y542341D01*
X-389999Y543316D01*
X-390674Y544326D01*
X-390733Y544365D01*
Y545635D01*
X-390674Y545674D01*
X-389999Y546684D01*
X-389348Y547659D01*
X-388882Y550000D01*
X-389348Y552341D01*
X-389999Y553316D01*
X-390674Y554326D01*
X-391928Y555163D01*
X-391919Y566648D01*
X-391978Y566945D01*
X-391978Y567247D01*
X-392093Y567524D01*
X-392151Y567819D01*
X-392319Y568070D01*
X-392435Y568350D01*
X-392771Y568852D01*
X-392999Y570000D01*
X-392771Y571148D01*
X-392430Y571658D01*
X-392315Y571935D01*
X-392148Y572185D01*
X-392089Y572481D01*
X-391973Y572761D01*
X-391973Y573061D01*
X-391914Y573355D01*
X-391910Y579134D01*
X-391968Y579430D01*
Y579733D01*
X-392083Y580010D01*
X-392142Y580304D01*
X-392309Y580556D01*
X-392425Y580835D01*
X-392771Y581352D01*
X-392999Y582500D01*
X-392771Y583647D01*
X-392420Y584172D01*
X-392305Y584449D01*
X-392138Y584699D01*
X-392079Y584995D01*
X-391963Y585275D01*
X-391963Y585575D01*
X-391905Y585869D01*
X-391892Y603029D01*
X-391932Y603234D01*
X-391609Y603298D01*
X-389624Y604624D01*
X-388298Y606609D01*
X-387832Y608950D01*
X-388298Y611291D01*
X-389624Y613276D01*
X-391609Y614602D01*
X-391720Y614624D01*
X-391883Y614868D01*
X-391853Y653821D01*
X-391897Y654041D01*
X-391609Y654098D01*
X-389624Y655424D01*
X-388298Y657409D01*
X-387832Y659750D01*
X-388127Y661229D01*
X-387421Y662285D01*
X-387110Y662347D01*
X-385701Y663289D01*
X-384292Y662347D01*
X-381951Y661882D01*
X-379610Y662347D01*
X-378450Y663122D01*
X-377292Y662348D01*
X-374951Y661882D01*
X-372610Y662348D01*
X-370625Y663674D01*
X-369299Y665659D01*
X-368833Y668000D01*
X-369299Y670341D01*
X-370625Y672326D01*
X-371522Y672925D01*
X-371036Y674098D01*
X-369950Y673882D01*
X-367609Y674348D01*
X-365624Y675674D01*
X-364298Y677659D01*
X-363833Y680000D01*
X-364298Y682341D01*
X-365624Y684326D01*
X-367318Y685458D01*
X-367263Y685421D01*
X-367511Y686667D01*
X-366848Y687659D01*
X-366382Y690000D01*
X-366848Y692341D01*
X-367511Y693333D01*
X-367263Y694579D01*
X-367318Y694542D01*
X-365624Y695674D01*
X-364298Y697659D01*
X-363833Y700000D01*
X-364298Y702341D01*
X-365624Y704326D01*
X-367609Y705652D01*
X-369950Y706117D01*
X-372291Y705652D01*
X-374276Y704326D01*
X-375602Y702341D01*
X-376068Y700000D01*
X-375602Y697659D01*
X-374939Y696667D01*
X-375187Y695421D01*
X-375131Y695458D01*
X-376826Y694326D01*
X-378152Y692341D01*
X-378618Y690000D01*
X-378152Y687659D01*
X-377707Y686994D01*
X-378194Y685820D01*
X-379041Y685652D01*
X-380200Y684877D01*
X-381359Y685652D01*
X-383700Y686117D01*
X-386041Y685652D01*
X-388026Y684326D01*
X-389352Y682341D01*
X-389818Y680000D01*
X-389352Y677659D01*
X-388026Y675674D01*
X-386809Y674861D01*
X-387295Y673688D01*
X-389451Y674117D01*
X-390856Y673837D01*
X-391837Y674643D01*
X-391825Y691599D01*
X-389859Y691941D01*
X-382500D01*
X-381329Y692174D01*
X-380337Y692837D01*
X-379674Y693829D01*
X-379441Y695000D01*
Y713733D01*
X-353889Y739285D01*
X-352934Y738448D01*
X-354192Y736808D01*
X-355552Y733524D01*
X-356017Y730000D01*
X-355552Y726476D01*
X-354192Y723192D01*
X-352028Y720372D01*
X-349208Y718208D01*
X-345924Y716848D01*
X-342400Y716384D01*
X-338876Y716848D01*
X-335592Y718208D01*
X-332772Y720372D01*
X-330608Y723192D01*
X-329248Y726476D01*
X-328783Y730000D01*
X-329248Y733524D01*
X-329950Y735220D01*
X-315777Y749392D01*
X-215000D01*
X-212854Y749819D01*
X-211035Y751035D01*
X-211035Y751035D01*
X-211035Y751035D01*
X-177677Y784392D01*
X-142407D01*
X-142341Y784348D01*
X-140000Y783882D01*
X-137659Y784348D01*
X-135674Y785674D01*
X-134348Y787659D01*
X-133883Y790000D01*
X-134348Y792341D01*
X-135674Y794326D01*
X-137659Y795652D01*
X-140000Y796117D01*
X-142341Y795652D01*
X-142407Y795608D01*
X-180000D01*
X-182146Y795181D01*
X-183965Y793965D01*
X-217323Y760608D01*
X-233407D01*
X-233893Y761781D01*
X-220337Y775337D01*
X-219674Y776329D01*
X-219441Y777500D01*
X-219441Y777500D01*
Y797500D01*
X-219674Y798671D01*
X-220337Y799663D01*
X-221329Y800326D01*
X-222500Y800559D01*
X-346132D01*
X-346132Y800559D01*
X-347303Y800326D01*
X-348295Y799663D01*
X-348295Y799663D01*
X-369899Y778059D01*
X-375000D01*
X-375000Y778059D01*
X-376171Y777826D01*
X-377163Y777163D01*
X-377163Y777163D01*
X-386267Y768059D01*
X-448628D01*
Y861628D01*
X448628D01*
Y445000D01*
D02*
G37*
G36*
X-222500Y777500D02*
X-237500Y762500D01*
X-335000D01*
X-382500Y715000D01*
Y695000D01*
X-394123D01*
X-394133Y695007D01*
X-394609Y695325D01*
X-394610Y695326D01*
X-394610Y695326D01*
X-395174Y695438D01*
X-395780Y695559D01*
X-395780Y695559D01*
X-395781Y695559D01*
X-447000D01*
X-447646Y695430D01*
X-448628Y696236D01*
Y765000D01*
X-385000D01*
X-375000Y775000D01*
X-368632D01*
X-346132Y797500D01*
X-222500D01*
Y777500D01*
D02*
G37*
G36*
X-394883Y691602D02*
X-394903Y665678D01*
X-396291Y665402D01*
X-398276Y664076D01*
X-399602Y662091D01*
X-400068Y659750D01*
X-399602Y657409D01*
X-398276Y655424D01*
X-396291Y654098D01*
X-394912Y653824D01*
X-394941Y614870D01*
X-396291Y614602D01*
X-398276Y613276D01*
X-399602Y611291D01*
X-400068Y608950D01*
X-399602Y606609D01*
X-398276Y604624D01*
X-396291Y603298D01*
X-394950Y603031D01*
X-394963Y585872D01*
X-395652Y584841D01*
X-396118Y582500D01*
X-395652Y580159D01*
X-394968Y579136D01*
X-394973Y573357D01*
X-395652Y572341D01*
X-396118Y570000D01*
X-395652Y567659D01*
X-394978Y566650D01*
X-395000Y537500D01*
X-350000D01*
X-333673Y521173D01*
X-334159Y520000D01*
X-377500D01*
Y452500D01*
X-447000D01*
Y692500D01*
X-395781D01*
X-394883Y691602D01*
D02*
G37*
%LPC*%
G36*
X40000Y-78882D02*
X37659Y-79348D01*
X35674Y-80674D01*
X34348Y-82659D01*
X33882Y-85000D01*
X34348Y-87341D01*
X35674Y-89326D01*
X37659Y-90652D01*
X40000Y-91117D01*
X42341Y-90652D01*
X44326Y-89326D01*
X45652Y-87341D01*
X46118Y-85000D01*
X45652Y-82659D01*
X44326Y-80674D01*
X42341Y-79348D01*
X40000Y-78882D01*
D02*
G37*
G36*
X360000Y91117D02*
X357659Y90652D01*
X355674Y89326D01*
X354348Y87341D01*
X353882Y85000D01*
X354348Y82659D01*
X355674Y80674D01*
X357659Y79348D01*
X360000Y78882D01*
X362341Y79348D01*
X364326Y80674D01*
X365652Y82659D01*
X366118Y85000D01*
X365652Y87341D01*
X364326Y89326D01*
X362341Y90652D01*
X360000Y91117D01*
D02*
G37*
G36*
X-252499Y106119D02*
X-254840Y105654D01*
X-256824Y104328D01*
X-258151Y102343D01*
X-258616Y100002D01*
X-258151Y97661D01*
X-256824Y95676D01*
X-254840Y94350D01*
X-252499Y93884D01*
X-250807Y94221D01*
X-250101Y93165D01*
X-250652Y92341D01*
X-251118Y90000D01*
X-250652Y87659D01*
X-249326Y85674D01*
X-247341Y84348D01*
X-245000Y83882D01*
X-242659Y84348D01*
X-240674Y85674D01*
X-239348Y87659D01*
X-238883Y90000D01*
X-239348Y92341D01*
X-240674Y94326D01*
X-242659Y95652D01*
X-245000Y96117D01*
X-246692Y95781D01*
X-247397Y96837D01*
X-246847Y97661D01*
X-246381Y100002D01*
X-246847Y102343D01*
X-248173Y104328D01*
X-250158Y105654D01*
X-252499Y106119D01*
D02*
G37*
G36*
X-0Y116117D02*
X-2341Y115652D01*
X-4326Y114326D01*
X-5652Y112341D01*
X-6118Y110000D01*
X-5652Y107659D01*
X-4326Y105674D01*
X-4267Y105635D01*
Y104365D01*
X-4326Y104326D01*
X-5652Y102341D01*
X-6118Y100000D01*
X-5652Y97659D01*
X-4326Y95674D01*
X-4267Y95635D01*
Y94365D01*
X-4326Y94326D01*
X-5652Y92341D01*
X-6118Y90000D01*
X-5652Y87659D01*
X-4624Y86120D01*
X-5222Y85000D01*
X-10000D01*
Y65000D01*
X-5222D01*
X-4624Y63880D01*
X-5652Y62341D01*
X-6118Y60000D01*
X-5652Y57659D01*
X-4326Y55674D01*
X-2341Y54348D01*
X-0Y53882D01*
X2341Y54348D01*
X4326Y55674D01*
X5652Y57659D01*
X6118Y60000D01*
X5652Y62341D01*
X4624Y63880D01*
X5222Y65000D01*
X10000D01*
Y85000D01*
X5222D01*
X4624Y86120D01*
X5652Y87659D01*
X6118Y90000D01*
X5652Y92341D01*
X4326Y94326D01*
X4267Y94365D01*
Y95635D01*
X4326Y95674D01*
X5652Y97659D01*
X6118Y100000D01*
X5652Y102341D01*
X4326Y104326D01*
X4267Y104365D01*
Y105635D01*
X4326Y105674D01*
X5652Y107659D01*
X6118Y110000D01*
X5652Y112341D01*
X4326Y114326D01*
X2341Y115652D01*
X-0Y116117D01*
D02*
G37*
G36*
X200000D02*
X197659Y115652D01*
X195674Y114326D01*
X194348Y112341D01*
X193882Y110000D01*
X194348Y107659D01*
X195289Y106250D01*
X194348Y104841D01*
X193882Y102500D01*
X194348Y100159D01*
X195289Y98750D01*
X194348Y97341D01*
X193882Y95000D01*
X194348Y92659D01*
X195289Y91250D01*
X194348Y89841D01*
X193882Y87500D01*
X194184Y85982D01*
X193379Y85000D01*
X190000D01*
Y65000D01*
X194778D01*
X195376Y63880D01*
X194348Y62341D01*
X193882Y60000D01*
X194348Y57659D01*
X195674Y55674D01*
X197659Y54348D01*
X200000Y53882D01*
X202341Y54348D01*
X204326Y55674D01*
X205652Y57659D01*
X206117Y60000D01*
X205652Y62341D01*
X204624Y63880D01*
X205222Y65000D01*
X210000D01*
Y85000D01*
X206621D01*
X205816Y85982D01*
X206117Y87500D01*
X205652Y89841D01*
X204710Y91250D01*
X205652Y92659D01*
X206117Y95000D01*
X205652Y97341D01*
X204710Y98750D01*
X205652Y100159D01*
X206117Y102500D01*
X205652Y104841D01*
X204710Y106250D01*
X205652Y107659D01*
X206117Y110000D01*
X205652Y112341D01*
X204326Y114326D01*
X202341Y115652D01*
X200000Y116117D01*
D02*
G37*
G36*
X-40000Y91117D02*
X-42341Y90652D01*
X-44326Y89326D01*
X-45652Y87341D01*
X-46118Y85000D01*
X-45652Y82659D01*
X-44326Y80674D01*
X-42341Y79348D01*
X-40000Y78882D01*
X-37659Y79348D01*
X-35674Y80674D01*
X-34348Y82659D01*
X-33883Y85000D01*
X-34348Y87341D01*
X-35674Y89326D01*
X-37659Y90652D01*
X-40000Y91117D01*
D02*
G37*
G36*
X147500Y106118D02*
X145159Y105653D01*
X143174Y104326D01*
X141848Y102342D01*
X141382Y100001D01*
X141848Y97660D01*
X143174Y95675D01*
X145159Y94349D01*
X147500Y93883D01*
X149192Y94220D01*
X149898Y93164D01*
X149348Y92341D01*
X148883Y90000D01*
X149348Y87659D01*
X150674Y85674D01*
X152659Y84348D01*
X155000Y83882D01*
X157341Y84348D01*
X159326Y85674D01*
X160652Y87659D01*
X161117Y90000D01*
X160652Y92341D01*
X159326Y94326D01*
X157341Y95652D01*
X155000Y96117D01*
X153308Y95781D01*
X152602Y96837D01*
X153152Y97660D01*
X153617Y100001D01*
X153152Y102342D01*
X151826Y104326D01*
X149841Y105653D01*
X147500Y106118D01*
D02*
G37*
G36*
X40000Y121117D02*
X37659Y120652D01*
X35674Y119326D01*
X34348Y117341D01*
X33882Y115000D01*
X34348Y112659D01*
X35674Y110674D01*
X37659Y109348D01*
X40000Y108883D01*
X42341Y109348D01*
X44326Y110674D01*
X45652Y112659D01*
X46118Y115000D01*
X45652Y117341D01*
X44326Y119326D01*
X42341Y120652D01*
X40000Y121117D01*
D02*
G37*
G36*
X-200000Y146117D02*
X-202341Y145652D01*
X-204326Y144326D01*
X-205652Y142341D01*
X-206118Y140000D01*
X-205652Y137659D01*
X-204326Y135674D01*
X-202341Y134348D01*
X-200000Y133882D01*
X-197659Y134348D01*
X-195674Y135674D01*
X-194348Y137659D01*
X-193883Y140000D01*
X-194348Y142341D01*
X-195674Y144326D01*
X-197659Y145652D01*
X-200000Y146117D01*
D02*
G37*
G36*
X200000Y151117D02*
X197659Y150652D01*
X195674Y149326D01*
X194348Y147341D01*
X193882Y145000D01*
X194348Y142659D01*
X195674Y140674D01*
X197659Y139348D01*
X200000Y138883D01*
X202341Y139348D01*
X204326Y140674D01*
X205652Y142659D01*
X206117Y145000D01*
X205652Y147341D01*
X204326Y149326D01*
X202341Y150652D01*
X200000Y151117D01*
D02*
G37*
G36*
X-155000Y116117D02*
X-157341Y115652D01*
X-159326Y114326D01*
X-160652Y112341D01*
X-161118Y110000D01*
X-160652Y107659D01*
X-159326Y105674D01*
X-157341Y104348D01*
X-155000Y103882D01*
X-153308Y104219D01*
X-152603Y103163D01*
X-153153Y102339D01*
X-153619Y99998D01*
X-153153Y97657D01*
X-151827Y95672D01*
X-149842Y94346D01*
X-147501Y93880D01*
X-145160Y94346D01*
X-143176Y95672D01*
X-141849Y97657D01*
X-141384Y99998D01*
X-141849Y102339D01*
X-143176Y104324D01*
X-145160Y105650D01*
X-147501Y106116D01*
X-149193Y105779D01*
X-149899Y106835D01*
X-149348Y107659D01*
X-148883Y110000D01*
X-149348Y112341D01*
X-150674Y114326D01*
X-152659Y115652D01*
X-155000Y116117D01*
D02*
G37*
G36*
X245000D02*
X242659Y115652D01*
X240674Y114326D01*
X239348Y112341D01*
X238882Y110000D01*
X239348Y107659D01*
X240674Y105674D01*
X242659Y104348D01*
X245000Y103882D01*
X246692Y104219D01*
X247397Y103163D01*
X246847Y102339D01*
X246381Y99998D01*
X246847Y97657D01*
X248173Y95672D01*
X250158Y94346D01*
X252499Y93880D01*
X254840Y94346D01*
X256824Y95672D01*
X258151Y97657D01*
X258616Y99998D01*
X258151Y102339D01*
X256824Y104324D01*
X254840Y105650D01*
X252499Y106116D01*
X250807Y105779D01*
X250101Y106835D01*
X250652Y107659D01*
X251117Y110000D01*
X250652Y112341D01*
X249326Y114326D01*
X247341Y115652D01*
X245000Y116117D01*
D02*
G37*
G36*
X-360000Y121117D02*
X-362341Y120652D01*
X-364326Y119326D01*
X-365652Y117341D01*
X-366118Y115000D01*
X-365652Y112659D01*
X-364326Y110674D01*
X-362341Y109348D01*
X-360000Y108883D01*
X-357659Y109348D01*
X-355674Y110674D01*
X-354348Y112659D01*
X-353882Y115000D01*
X-354348Y117341D01*
X-355674Y119326D01*
X-357659Y120652D01*
X-360000Y121117D01*
D02*
G37*
G36*
X-200000Y116117D02*
X-202341Y115652D01*
X-204326Y114326D01*
X-205652Y112341D01*
X-206118Y110000D01*
X-205652Y107659D01*
X-204326Y105674D01*
X-204267Y105635D01*
Y104365D01*
X-204326Y104326D01*
X-205652Y102341D01*
X-206118Y100000D01*
X-205652Y97659D01*
X-204326Y95674D01*
X-204267Y95635D01*
Y94365D01*
X-204326Y94326D01*
X-205652Y92341D01*
X-206118Y90000D01*
X-205652Y87659D01*
X-204624Y86120D01*
X-205222Y85000D01*
X-210000D01*
Y65000D01*
X-205222D01*
X-204624Y63880D01*
X-205652Y62341D01*
X-206118Y60000D01*
X-205652Y57659D01*
X-204326Y55674D01*
X-202341Y54348D01*
X-200000Y53882D01*
X-197659Y54348D01*
X-195674Y55674D01*
X-194348Y57659D01*
X-193883Y60000D01*
X-194348Y62341D01*
X-195376Y63880D01*
X-194778Y65000D01*
X-190000D01*
Y85000D01*
X-194778D01*
X-195376Y86120D01*
X-194348Y87659D01*
X-193883Y90000D01*
X-194348Y92341D01*
X-195674Y94326D01*
X-195733Y94365D01*
Y95635D01*
X-195674Y95674D01*
X-194348Y97659D01*
X-193883Y100000D01*
X-194348Y102341D01*
X-195674Y104326D01*
X-195733Y104365D01*
Y105635D01*
X-195674Y105674D01*
X-194348Y107659D01*
X-193883Y110000D01*
X-194348Y112341D01*
X-195674Y114326D01*
X-197659Y115652D01*
X-200000Y116117D01*
D02*
G37*
G36*
X290000Y-46382D02*
X287659Y-46848D01*
X285674Y-48174D01*
X284348Y-50159D01*
X283882Y-52500D01*
X284348Y-54841D01*
X285674Y-56826D01*
X287659Y-58152D01*
X290000Y-58618D01*
X292341Y-58152D01*
X294326Y-56826D01*
X295652Y-54841D01*
X296117Y-52500D01*
X295652Y-50159D01*
X294326Y-48174D01*
X292341Y-46848D01*
X290000Y-46382D01*
D02*
G37*
G36*
X140000Y-46382D02*
X137659Y-46848D01*
X135674Y-48174D01*
X134348Y-50159D01*
X133882Y-52500D01*
X134348Y-54841D01*
X135674Y-56826D01*
X137659Y-58152D01*
X140000Y-58618D01*
X142341Y-58152D01*
X144326Y-56826D01*
X145652Y-54841D01*
X146117Y-52500D01*
X145652Y-50159D01*
X144326Y-48174D01*
X142341Y-46848D01*
X140000Y-46382D01*
D02*
G37*
G36*
X-140000Y58618D02*
X-142341Y58152D01*
X-144326Y56826D01*
X-145652Y54841D01*
X-146118Y52500D01*
X-145652Y50159D01*
X-144326Y48174D01*
X-142341Y46848D01*
X-140000Y46382D01*
X-137659Y46848D01*
X-135674Y48174D01*
X-134348Y50159D01*
X-133883Y52500D01*
X-134348Y54841D01*
X-135674Y56826D01*
X-137659Y58152D01*
X-140000Y58618D01*
D02*
G37*
G36*
X-337500Y-46382D02*
X-339841Y-46848D01*
X-341826Y-48174D01*
X-343152Y-50159D01*
X-343618Y-52500D01*
X-343152Y-54841D01*
X-341826Y-56826D01*
X-339841Y-58152D01*
X-337500Y-58618D01*
X-335159Y-58152D01*
X-333174Y-56826D01*
X-331848Y-54841D01*
X-331382Y-52500D01*
X-331848Y-50159D01*
X-333174Y-48174D01*
X-335159Y-46848D01*
X-337500Y-46382D01*
D02*
G37*
G36*
X-260000D02*
X-262341Y-46848D01*
X-264326Y-48174D01*
X-265652Y-50159D01*
X-266118Y-52500D01*
X-265652Y-54841D01*
X-264326Y-56826D01*
X-262341Y-58152D01*
X-260000Y-58618D01*
X-257659Y-58152D01*
X-255674Y-56826D01*
X-254348Y-54841D01*
X-253883Y-52500D01*
X-254348Y-50159D01*
X-255674Y-48174D01*
X-257659Y-46848D01*
X-260000Y-46382D01*
D02*
G37*
G36*
X62500D02*
X60159Y-46848D01*
X58174Y-48174D01*
X56848Y-50159D01*
X56382Y-52500D01*
X56848Y-54841D01*
X58174Y-56826D01*
X60159Y-58152D01*
X62500Y-58618D01*
X64841Y-58152D01*
X66826Y-56826D01*
X68152Y-54841D01*
X68618Y-52500D01*
X68152Y-50159D01*
X66826Y-48174D01*
X64841Y-46848D01*
X62500Y-46382D01*
D02*
G37*
G36*
X-62500Y58618D02*
X-64841Y58152D01*
X-66826Y56826D01*
X-68152Y54841D01*
X-68618Y52500D01*
X-68152Y50159D01*
X-66826Y48174D01*
X-64841Y46848D01*
X-62500Y46382D01*
X-60159Y46848D01*
X-58174Y48174D01*
X-56848Y50159D01*
X-56382Y52500D01*
X-56848Y54841D01*
X-58174Y56826D01*
X-60159Y58152D01*
X-62500Y58618D01*
D02*
G37*
G36*
X-110000Y-46382D02*
X-112341Y-46848D01*
X-114326Y-48174D01*
X-115652Y-50159D01*
X-116118Y-52500D01*
X-115652Y-54841D01*
X-114326Y-56826D01*
X-112341Y-58152D01*
X-110000Y-58618D01*
X-107659Y-58152D01*
X-105674Y-56826D01*
X-104348Y-54841D01*
X-103883Y-52500D01*
X-104348Y-50159D01*
X-105674Y-48174D01*
X-107659Y-46848D01*
X-110000Y-46382D01*
D02*
G37*
G36*
X-200000Y-53882D02*
X-202341Y-54348D01*
X-204326Y-55674D01*
X-205652Y-57659D01*
X-206118Y-60000D01*
X-205652Y-62341D01*
X-204326Y-64326D01*
X-202341Y-65652D01*
X-200000Y-66118D01*
X-197659Y-65652D01*
X-195674Y-64326D01*
X-194348Y-62341D01*
X-193883Y-60000D01*
X-194348Y-57659D01*
X-195674Y-55674D01*
X-197659Y-54348D01*
X-200000Y-53882D01*
D02*
G37*
G36*
X110000Y58618D02*
X107659Y58152D01*
X105674Y56826D01*
X104348Y54841D01*
X103882Y52500D01*
X104348Y50159D01*
X105674Y48174D01*
X107659Y46848D01*
X110000Y46382D01*
X112341Y46848D01*
X114326Y48174D01*
X115652Y50159D01*
X116117Y52500D01*
X115652Y54841D01*
X114326Y56826D01*
X112341Y58152D01*
X110000Y58618D01*
D02*
G37*
G36*
X260000Y58618D02*
X257659Y58152D01*
X255674Y56826D01*
X254348Y54841D01*
X253882Y52500D01*
X254348Y50159D01*
X255674Y48174D01*
X257659Y46848D01*
X260000Y46382D01*
X262341Y46848D01*
X264326Y48174D01*
X265652Y50159D01*
X266117Y52500D01*
X265652Y54841D01*
X264326Y56826D01*
X262341Y58152D01*
X260000Y58618D01*
D02*
G37*
G36*
X337500D02*
X335159Y58152D01*
X333174Y56826D01*
X331848Y54841D01*
X331382Y52500D01*
X331848Y50159D01*
X333174Y48174D01*
X335159Y46848D01*
X337500Y46382D01*
X339841Y46848D01*
X341826Y48174D01*
X343152Y50159D01*
X343618Y52500D01*
X343152Y54841D01*
X341826Y56826D01*
X339841Y58152D01*
X337500Y58618D01*
D02*
G37*
G36*
X-290000Y58618D02*
X-292341Y58152D01*
X-294326Y56826D01*
X-295652Y54841D01*
X-296118Y52500D01*
X-295652Y50159D01*
X-294326Y48174D01*
X-292341Y46848D01*
X-290000Y46382D01*
X-287659Y46848D01*
X-285674Y48174D01*
X-284348Y50159D01*
X-283883Y52500D01*
X-284348Y54841D01*
X-285674Y56826D01*
X-287659Y58152D01*
X-290000Y58618D01*
D02*
G37*
G36*
X-110000Y153617D02*
X-112341Y153152D01*
X-114326Y151826D01*
X-115652Y149841D01*
X-116118Y147500D01*
X-115652Y145159D01*
X-114326Y143174D01*
X-112341Y141848D01*
X-110000Y141382D01*
X-107659Y141848D01*
X-105674Y143174D01*
X-104348Y145159D01*
X-103883Y147500D01*
X-104348Y149841D01*
X-105674Y151826D01*
X-107659Y153152D01*
X-110000Y153617D01*
D02*
G37*
G36*
X245000Y316117D02*
X242659Y315652D01*
X240674Y314326D01*
X239348Y312341D01*
X238882Y310000D01*
X239348Y307659D01*
X240674Y305674D01*
X242659Y304348D01*
X245000Y303883D01*
X246692Y304219D01*
X247397Y303163D01*
X246847Y302339D01*
X246381Y299998D01*
X246847Y297657D01*
X248173Y295672D01*
X250158Y294346D01*
X252499Y293880D01*
X254840Y294346D01*
X256824Y295672D01*
X258151Y297657D01*
X258616Y299998D01*
X258151Y302339D01*
X256824Y304324D01*
X254840Y305650D01*
X252499Y306115D01*
X250807Y305779D01*
X250101Y306835D01*
X250652Y307659D01*
X251117Y310000D01*
X250652Y312341D01*
X249326Y314326D01*
X247341Y315652D01*
X245000Y316117D01*
D02*
G37*
G36*
X162500Y303617D02*
X160159Y303152D01*
X158174Y301826D01*
X156848Y299841D01*
X156382Y297500D01*
X156503Y296895D01*
X155605Y295997D01*
X155000Y296117D01*
X152659Y295652D01*
X150674Y294326D01*
X149348Y292341D01*
X148883Y290000D01*
X149348Y287659D01*
X150674Y285674D01*
X152659Y284348D01*
X155000Y283882D01*
X157341Y284348D01*
X159326Y285674D01*
X160652Y287659D01*
X161117Y290000D01*
X160997Y290605D01*
X161895Y291503D01*
X162500Y291382D01*
X164841Y291848D01*
X166826Y293174D01*
X168152Y295159D01*
X168617Y297500D01*
X168152Y299841D01*
X166826Y301826D01*
X164841Y303152D01*
X162500Y303617D01*
D02*
G37*
G36*
X200000Y311117D02*
X197659Y310652D01*
X195674Y309326D01*
X194348Y307341D01*
X193882Y305000D01*
X194348Y302659D01*
X195674Y300674D01*
X197659Y299348D01*
X200000Y298882D01*
X202341Y299348D01*
X204326Y300674D01*
X205652Y302659D01*
X206117Y305000D01*
X205652Y307341D01*
X204326Y309326D01*
X202341Y310652D01*
X200000Y311117D01*
D02*
G37*
G36*
X-155000Y316117D02*
X-157341Y315652D01*
X-159326Y314326D01*
X-160652Y312341D01*
X-161118Y310000D01*
X-160652Y307659D01*
X-159326Y305674D01*
X-157341Y304348D01*
X-155000Y303883D01*
X-153308Y304219D01*
X-152603Y303163D01*
X-153153Y302339D01*
X-153619Y299998D01*
X-153153Y297657D01*
X-151827Y295672D01*
X-149842Y294346D01*
X-147501Y293880D01*
X-145160Y294346D01*
X-143176Y295672D01*
X-141849Y297657D01*
X-141384Y299998D01*
X-141849Y302339D01*
X-143176Y304324D01*
X-145160Y305650D01*
X-147501Y306115D01*
X-149193Y305779D01*
X-149899Y306835D01*
X-149348Y307659D01*
X-148883Y310000D01*
X-149348Y312341D01*
X-150674Y314326D01*
X-152659Y315652D01*
X-155000Y316117D01*
D02*
G37*
G36*
X-40000Y291117D02*
X-42341Y290652D01*
X-44326Y289326D01*
X-45652Y287341D01*
X-46118Y285000D01*
X-45652Y282659D01*
X-44326Y280674D01*
X-42341Y279348D01*
X-40000Y278882D01*
X-37659Y279348D01*
X-35674Y280674D01*
X-34348Y282659D01*
X-33883Y285000D01*
X-34348Y287341D01*
X-35674Y289326D01*
X-37659Y290652D01*
X-40000Y291117D01*
D02*
G37*
G36*
X360000D02*
X357659Y290652D01*
X355674Y289326D01*
X354348Y287341D01*
X353882Y285000D01*
X354348Y282659D01*
X355674Y280674D01*
X357659Y279348D01*
X360000Y278882D01*
X362341Y279348D01*
X364326Y280674D01*
X365652Y282659D01*
X366118Y285000D01*
X365652Y287341D01*
X364326Y289326D01*
X362341Y290652D01*
X360000Y291117D01*
D02*
G37*
G36*
X-252499Y306119D02*
X-254840Y305654D01*
X-256824Y304328D01*
X-258151Y302343D01*
X-258616Y300002D01*
X-258151Y297661D01*
X-256824Y295676D01*
X-254840Y294350D01*
X-252499Y293885D01*
X-250807Y294221D01*
X-250101Y293165D01*
X-250652Y292341D01*
X-251118Y290000D01*
X-250652Y287659D01*
X-249326Y285674D01*
X-247341Y284348D01*
X-245000Y283882D01*
X-242659Y284348D01*
X-240674Y285674D01*
X-239348Y287659D01*
X-238883Y290000D01*
X-239348Y292341D01*
X-240674Y294326D01*
X-242659Y295652D01*
X-245000Y296117D01*
X-246692Y295781D01*
X-247397Y296837D01*
X-246847Y297661D01*
X-246381Y300002D01*
X-246847Y302343D01*
X-248173Y304328D01*
X-250158Y305654D01*
X-252499Y306119D01*
D02*
G37*
G36*
X200000Y351118D02*
X197659Y350652D01*
X195674Y349326D01*
X194348Y347341D01*
X193882Y345000D01*
X194348Y342659D01*
X195674Y340674D01*
X197659Y339348D01*
X200000Y338882D01*
X202341Y339348D01*
X204326Y340674D01*
X205652Y342659D01*
X206117Y345000D01*
X205652Y347341D01*
X204326Y349326D01*
X202341Y350652D01*
X200000Y351118D01*
D02*
G37*
G36*
X-337500Y353618D02*
X-339841Y353152D01*
X-341826Y351826D01*
X-343152Y349841D01*
X-343618Y347500D01*
X-343152Y345159D01*
X-341826Y343174D01*
X-339841Y341848D01*
X-337500Y341382D01*
X-335159Y341848D01*
X-333174Y343174D01*
X-331848Y345159D01*
X-331382Y347500D01*
X-331848Y349841D01*
X-333174Y351826D01*
X-335159Y353152D01*
X-337500Y353618D01*
D02*
G37*
G36*
X-120000Y371118D02*
X-122341Y370652D01*
X-124326Y369326D01*
X-125652Y367341D01*
X-126118Y365000D01*
X-125652Y362659D01*
X-124326Y360674D01*
X-122341Y359348D01*
X-120787Y359039D01*
X-120301Y357866D01*
X-120652Y357341D01*
X-121118Y355000D01*
X-120652Y352659D01*
X-119326Y350674D01*
X-117341Y349348D01*
X-116691Y349219D01*
X-115986Y348163D01*
X-116118Y347500D01*
X-115652Y345159D01*
X-114326Y343174D01*
X-112341Y341848D01*
X-110000Y341382D01*
X-107659Y341848D01*
X-105674Y343174D01*
X-104348Y345159D01*
X-103883Y347500D01*
X-104348Y349841D01*
X-105674Y351826D01*
X-107659Y353152D01*
X-108309Y353281D01*
X-109014Y354337D01*
X-108883Y355000D01*
X-109348Y357341D01*
X-110674Y359326D01*
X-112659Y360652D01*
X-114213Y360961D01*
X-114699Y362134D01*
X-114348Y362659D01*
X-113883Y365000D01*
X-114348Y367341D01*
X-115674Y369326D01*
X-117659Y370652D01*
X-120000Y371118D01*
D02*
G37*
G36*
X-0Y351118D02*
X-2341Y350652D01*
X-4326Y349326D01*
X-5652Y347341D01*
X-6118Y345000D01*
X-5652Y342659D01*
X-4326Y340674D01*
X-2341Y339348D01*
X-0Y338882D01*
X2341Y339348D01*
X4326Y340674D01*
X5652Y342659D01*
X6118Y345000D01*
X5652Y347341D01*
X4326Y349326D01*
X2341Y350652D01*
X-0Y351118D01*
D02*
G37*
G36*
X-360000Y321118D02*
X-362341Y320652D01*
X-364326Y319326D01*
X-365652Y317341D01*
X-366118Y315000D01*
X-365652Y312659D01*
X-364326Y310674D01*
X-362341Y309348D01*
X-360000Y308883D01*
X-357659Y309348D01*
X-355674Y310674D01*
X-354348Y312659D01*
X-353882Y315000D01*
X-354348Y317341D01*
X-355674Y319326D01*
X-357659Y320652D01*
X-360000Y321118D01*
D02*
G37*
G36*
X40000D02*
X37659Y320652D01*
X35674Y319326D01*
X34348Y317341D01*
X33882Y315000D01*
X34348Y312659D01*
X35674Y310674D01*
X37659Y309348D01*
X40000Y308883D01*
X42341Y309348D01*
X44326Y310674D01*
X45652Y312659D01*
X46118Y315000D01*
X45652Y317341D01*
X44326Y319326D01*
X42341Y320652D01*
X40000Y321118D01*
D02*
G37*
G36*
X-200000Y346118D02*
X-202341Y345652D01*
X-204326Y344326D01*
X-205652Y342341D01*
X-206118Y340000D01*
X-205652Y337659D01*
X-204326Y335674D01*
X-202341Y334348D01*
X-200000Y333882D01*
X-197659Y334348D01*
X-195674Y335674D01*
X-194348Y337659D01*
X-193883Y340000D01*
X-194348Y342341D01*
X-195674Y344326D01*
X-197659Y345652D01*
X-200000Y346118D01*
D02*
G37*
G36*
X140000Y153617D02*
X137659Y153152D01*
X135674Y151826D01*
X134348Y149841D01*
X133882Y147500D01*
X134348Y145159D01*
X135674Y143174D01*
X137659Y141848D01*
X140000Y141382D01*
X142341Y141848D01*
X144326Y143174D01*
X145652Y145159D01*
X146117Y147500D01*
X145652Y149841D01*
X144326Y151826D01*
X142341Y153152D01*
X140000Y153617D01*
D02*
G37*
G36*
X-200000Y311117D02*
X-202341Y310652D01*
X-204326Y309326D01*
X-205652Y307341D01*
X-206118Y305000D01*
X-205652Y302659D01*
X-204711Y301250D01*
X-205652Y299841D01*
X-206118Y297500D01*
X-205652Y295159D01*
X-204711Y293750D01*
X-205652Y292341D01*
X-206118Y290000D01*
X-205652Y287659D01*
X-204624Y286120D01*
X-205222Y285000D01*
X-210000D01*
Y265000D01*
X-205222D01*
X-204624Y263880D01*
X-205652Y262341D01*
X-206118Y260000D01*
X-205652Y257659D01*
X-204711Y256250D01*
X-205652Y254841D01*
X-206118Y252500D01*
X-205652Y250159D01*
X-204326Y248174D01*
X-202341Y246848D01*
X-200000Y246382D01*
X-197659Y246848D01*
X-195674Y248174D01*
X-194348Y250159D01*
X-193883Y252500D01*
X-194348Y254841D01*
X-195290Y256250D01*
X-194348Y257659D01*
X-193883Y260000D01*
X-194348Y262341D01*
X-195376Y263880D01*
X-194778Y265000D01*
X-190000D01*
Y285000D01*
X-194778D01*
X-195376Y286120D01*
X-194348Y287659D01*
X-193883Y290000D01*
X-194348Y292341D01*
X-195290Y293750D01*
X-194348Y295159D01*
X-193883Y297500D01*
X-194348Y299841D01*
X-195290Y301250D01*
X-194348Y302659D01*
X-193883Y305000D01*
X-194348Y307341D01*
X-195674Y309326D01*
X-197659Y310652D01*
X-200000Y311117D01*
D02*
G37*
G36*
X-140000Y258617D02*
X-142341Y258152D01*
X-144326Y256826D01*
X-145652Y254841D01*
X-146118Y252500D01*
X-145652Y250159D01*
X-144326Y248174D01*
X-142341Y246848D01*
X-140000Y246382D01*
X-137659Y246848D01*
X-135674Y248174D01*
X-134348Y250159D01*
X-133883Y252500D01*
X-134348Y254841D01*
X-135674Y256826D01*
X-137659Y258152D01*
X-140000Y258617D01*
D02*
G37*
G36*
X62500Y153617D02*
X60159Y153152D01*
X58174Y151826D01*
X56848Y149841D01*
X56382Y147500D01*
X56848Y145159D01*
X58174Y143174D01*
X60159Y141848D01*
X62500Y141382D01*
X64841Y141848D01*
X66826Y143174D01*
X68152Y145159D01*
X68618Y147500D01*
X68152Y149841D01*
X66826Y151826D01*
X64841Y153152D01*
X62500Y153617D01*
D02*
G37*
G36*
X290000Y153617D02*
X287659Y153152D01*
X285674Y151826D01*
X284348Y149841D01*
X283882Y147500D01*
X284348Y145159D01*
X285674Y143174D01*
X287659Y141848D01*
X290000Y141382D01*
X292341Y141848D01*
X294326Y143174D01*
X295652Y145159D01*
X296117Y147500D01*
X295652Y149841D01*
X294326Y151826D01*
X292341Y153152D01*
X290000Y153617D01*
D02*
G37*
G36*
X-337500Y153617D02*
X-339841Y153152D01*
X-341826Y151826D01*
X-343152Y149841D01*
X-343618Y147500D01*
X-343152Y145159D01*
X-341826Y143174D01*
X-339841Y141848D01*
X-337500Y141382D01*
X-335159Y141848D01*
X-333174Y143174D01*
X-331848Y145159D01*
X-331382Y147500D01*
X-331848Y149841D01*
X-333174Y151826D01*
X-335159Y153152D01*
X-337500Y153617D01*
D02*
G37*
G36*
X-260000D02*
X-262341Y153152D01*
X-264326Y151826D01*
X-265652Y149841D01*
X-266118Y147500D01*
X-265652Y145159D01*
X-264326Y143174D01*
X-262341Y141848D01*
X-260000Y141382D01*
X-257659Y141848D01*
X-255674Y143174D01*
X-254348Y145159D01*
X-253883Y147500D01*
X-254348Y149841D01*
X-255674Y151826D01*
X-257659Y153152D01*
X-260000Y153617D01*
D02*
G37*
G36*
X-290000Y258617D02*
X-292341Y258152D01*
X-294326Y256826D01*
X-295652Y254841D01*
X-296118Y252500D01*
X-295652Y250159D01*
X-294326Y248174D01*
X-292341Y246848D01*
X-290000Y246383D01*
X-287659Y246848D01*
X-285674Y248174D01*
X-284348Y250159D01*
X-283883Y252500D01*
X-284348Y254841D01*
X-285674Y256826D01*
X-287659Y258152D01*
X-290000Y258617D01*
D02*
G37*
G36*
X110000D02*
X107659Y258152D01*
X105674Y256826D01*
X104348Y254841D01*
X103882Y252500D01*
X104348Y250159D01*
X105674Y248174D01*
X107659Y246848D01*
X110000Y246383D01*
X112341Y246848D01*
X114326Y248174D01*
X115652Y250159D01*
X116117Y252500D01*
X115652Y254841D01*
X114326Y256826D01*
X112341Y258152D01*
X110000Y258617D01*
D02*
G37*
G36*
X210000Y285000D02*
X190000D01*
Y265000D01*
X193242D01*
X193434Y264366D01*
X193388Y264059D01*
X193057Y263507D01*
X192500Y263617D01*
X190159Y263152D01*
X188174Y261826D01*
X186848Y259841D01*
X186382Y257500D01*
X186848Y255159D01*
X188174Y253174D01*
X190159Y251848D01*
X192500Y251382D01*
X194841Y251848D01*
X194841Y251848D01*
X194841Y251848D01*
X194897Y251837D01*
X195674Y250674D01*
X197659Y249348D01*
X200000Y248882D01*
X202341Y249348D01*
X204326Y250674D01*
X205652Y252659D01*
X206117Y255000D01*
X205652Y257341D01*
X204710Y258750D01*
X205652Y260159D01*
X206117Y262500D01*
X205816Y264018D01*
X206621Y265000D01*
X210000D01*
Y285000D01*
D02*
G37*
G36*
X337500Y258617D02*
X335159Y258152D01*
X333174Y256826D01*
X331848Y254841D01*
X331382Y252500D01*
X331848Y250159D01*
X333174Y248174D01*
X335159Y246848D01*
X337500Y246382D01*
X339841Y246848D01*
X341826Y248174D01*
X343152Y250159D01*
X343618Y252500D01*
X343152Y254841D01*
X341826Y256826D01*
X339841Y258152D01*
X337500Y258617D01*
D02*
G37*
G36*
X-62500D02*
X-64841Y258152D01*
X-66826Y256826D01*
X-68152Y254841D01*
X-68618Y252500D01*
X-68152Y250159D01*
X-66826Y248174D01*
X-64841Y246848D01*
X-62500Y246382D01*
X-60159Y246848D01*
X-58174Y248174D01*
X-56848Y250159D01*
X-56382Y252500D01*
X-56848Y254841D01*
X-58174Y256826D01*
X-60159Y258152D01*
X-62500Y258617D01*
D02*
G37*
G36*
X-0Y316117D02*
X-2341Y315652D01*
X-4326Y314326D01*
X-5652Y312341D01*
X-6118Y310000D01*
X-5652Y307659D01*
X-4326Y305674D01*
X-4267Y305635D01*
Y304365D01*
X-4326Y304326D01*
X-5652Y302341D01*
X-6118Y300000D01*
X-5652Y297659D01*
X-4326Y295674D01*
X-4267Y295635D01*
Y294365D01*
X-4326Y294326D01*
X-5652Y292341D01*
X-6118Y290000D01*
X-5652Y287659D01*
X-4624Y286120D01*
X-5222Y285000D01*
X-10000D01*
Y265000D01*
X-5222D01*
X-4624Y263880D01*
X-5652Y262341D01*
X-6118Y260000D01*
X-5652Y257659D01*
X-4710Y256250D01*
X-5652Y254841D01*
X-6118Y252500D01*
X-5652Y250159D01*
X-4326Y248174D01*
X-2341Y246848D01*
X-0Y246382D01*
X2341Y246848D01*
X4326Y248174D01*
X5652Y250159D01*
X6118Y252500D01*
X5652Y254841D01*
X4710Y256250D01*
X5652Y257659D01*
X6118Y260000D01*
X5652Y262341D01*
X4624Y263880D01*
X5222Y265000D01*
X10000D01*
Y285000D01*
X5222D01*
X4624Y286120D01*
X5652Y287659D01*
X6118Y290000D01*
X5652Y292341D01*
X4326Y294326D01*
X4267Y294365D01*
Y295635D01*
X4326Y295674D01*
X5652Y297659D01*
X6118Y300000D01*
X5652Y302341D01*
X4326Y304326D01*
X4267Y304365D01*
Y305635D01*
X4326Y305674D01*
X5652Y307659D01*
X6118Y310000D01*
X5652Y312341D01*
X4326Y314326D01*
X2341Y315652D01*
X-0Y316117D01*
D02*
G37*
G36*
X260000Y258617D02*
X257659Y258152D01*
X255674Y256826D01*
X254348Y254841D01*
X253882Y252500D01*
X254348Y250159D01*
X255674Y248174D01*
X257659Y246848D01*
X260000Y246382D01*
X262341Y246848D01*
X264326Y248174D01*
X265652Y250159D01*
X266117Y252500D01*
X265652Y254841D01*
X264326Y256826D01*
X262341Y258152D01*
X260000Y258617D01*
D02*
G37*
G36*
Y-341382D02*
X257659Y-341848D01*
X255674Y-343174D01*
X254348Y-345159D01*
X253882Y-347500D01*
X254348Y-349841D01*
X255674Y-351826D01*
X257659Y-353152D01*
X260000Y-353618D01*
X262341Y-353152D01*
X264326Y-351826D01*
X265652Y-349841D01*
X266117Y-347500D01*
X265652Y-345159D01*
X264326Y-343174D01*
X262341Y-341848D01*
X260000Y-341382D01*
D02*
G37*
G36*
X337500D02*
X335159Y-341848D01*
X333174Y-343174D01*
X331848Y-345159D01*
X331382Y-347500D01*
X331848Y-349841D01*
X333174Y-351826D01*
X335159Y-353152D01*
X337500Y-353618D01*
X339841Y-353152D01*
X341826Y-351826D01*
X343152Y-349841D01*
X343618Y-347500D01*
X343152Y-345159D01*
X341826Y-343174D01*
X339841Y-341848D01*
X337500Y-341382D01*
D02*
G37*
G36*
X-200000Y-308883D02*
X-202341Y-309348D01*
X-204326Y-310674D01*
X-205652Y-312659D01*
X-206118Y-315000D01*
X-206118Y-315000D01*
X-206118D01*
X-206118Y-315000D01*
X-210000D01*
Y-335000D01*
X-190000D01*
Y-315000D01*
X-193882D01*
X-193883Y-315000D01*
X-194348Y-312659D01*
X-195674Y-310674D01*
X-197659Y-309348D01*
X-200000Y-308883D01*
D02*
G37*
G36*
X110000Y-341382D02*
X107659Y-341848D01*
X105674Y-343174D01*
X104348Y-345159D01*
X103882Y-347500D01*
X104348Y-349841D01*
X105674Y-351826D01*
X107659Y-353152D01*
X110000Y-353618D01*
X112341Y-353152D01*
X114326Y-351826D01*
X115652Y-349841D01*
X116117Y-347500D01*
X115652Y-345159D01*
X114326Y-343174D01*
X112341Y-341848D01*
X110000Y-341382D01*
D02*
G37*
G36*
X-290000D02*
X-292341Y-341848D01*
X-294326Y-343174D01*
X-295652Y-345159D01*
X-296118Y-347500D01*
X-295652Y-349841D01*
X-294326Y-351826D01*
X-292341Y-353152D01*
X-290000Y-353618D01*
X-287659Y-353152D01*
X-285674Y-351826D01*
X-284348Y-349841D01*
X-283883Y-347500D01*
X-284348Y-345159D01*
X-285674Y-343174D01*
X-287659Y-341848D01*
X-290000Y-341382D01*
D02*
G37*
G36*
X-140000D02*
X-142341Y-341848D01*
X-144326Y-343174D01*
X-145652Y-345159D01*
X-146118Y-347500D01*
X-145652Y-349841D01*
X-144326Y-351826D01*
X-142341Y-353152D01*
X-140000Y-353618D01*
X-137659Y-353152D01*
X-135674Y-351826D01*
X-134348Y-349841D01*
X-133883Y-347500D01*
X-134348Y-345159D01*
X-135674Y-343174D01*
X-137659Y-341848D01*
X-140000Y-341382D01*
D02*
G37*
G36*
X-62500D02*
X-64841Y-341848D01*
X-66826Y-343174D01*
X-68152Y-345159D01*
X-68618Y-347500D01*
X-68152Y-349841D01*
X-66826Y-351826D01*
X-64841Y-353152D01*
X-62500Y-353618D01*
X-60159Y-353152D01*
X-58174Y-351826D01*
X-56848Y-349841D01*
X-56382Y-347500D01*
X-56848Y-345159D01*
X-58174Y-343174D01*
X-60159Y-341848D01*
X-62500Y-341382D01*
D02*
G37*
G36*
X147501Y-293881D02*
X145160Y-294346D01*
X143175Y-295672D01*
X141849Y-297657D01*
X141384Y-299998D01*
X141849Y-302339D01*
X143175Y-304324D01*
X145160Y-305650D01*
X147501Y-306116D01*
X149193Y-305779D01*
X149899Y-306835D01*
X149348Y-307659D01*
X148883Y-310000D01*
X149348Y-312341D01*
X150674Y-314326D01*
X152659Y-315652D01*
X155000Y-316118D01*
X157341Y-315652D01*
X159326Y-314326D01*
X160652Y-312341D01*
X161117Y-310000D01*
X160652Y-307659D01*
X159326Y-305674D01*
X157341Y-304348D01*
X155000Y-303883D01*
X153308Y-304219D01*
X152603Y-303163D01*
X153153Y-302339D01*
X153619Y-299998D01*
X153153Y-297657D01*
X151827Y-295672D01*
X149842Y-294346D01*
X147501Y-293881D01*
D02*
G37*
G36*
X-155000Y-283883D02*
X-157341Y-284348D01*
X-159326Y-285674D01*
X-160652Y-287659D01*
X-161118Y-290000D01*
X-160652Y-292341D01*
X-159326Y-294326D01*
X-157341Y-295652D01*
X-155000Y-296118D01*
X-153308Y-295781D01*
X-152603Y-296837D01*
X-153153Y-297661D01*
X-153619Y-300002D01*
X-153153Y-302343D01*
X-151827Y-304328D01*
X-149842Y-305654D01*
X-147501Y-306120D01*
X-145160Y-305654D01*
X-143176Y-304328D01*
X-141849Y-302343D01*
X-141384Y-300002D01*
X-141849Y-297661D01*
X-143176Y-295676D01*
X-145160Y-294350D01*
X-147501Y-293885D01*
X-149193Y-294221D01*
X-149899Y-293165D01*
X-149348Y-292341D01*
X-148883Y-290000D01*
X-149348Y-287659D01*
X-150674Y-285674D01*
X-152659Y-284348D01*
X-155000Y-283883D01*
D02*
G37*
G36*
X245000D02*
X242659Y-284348D01*
X240674Y-285674D01*
X239348Y-287659D01*
X238882Y-290000D01*
X239348Y-292341D01*
X240674Y-294326D01*
X242659Y-295652D01*
X245000Y-296118D01*
X246692Y-295781D01*
X247397Y-296837D01*
X246847Y-297661D01*
X246381Y-300002D01*
X246847Y-302343D01*
X248173Y-304328D01*
X250158Y-305654D01*
X252499Y-306120D01*
X254840Y-305654D01*
X256824Y-304328D01*
X258151Y-302343D01*
X258616Y-300002D01*
X258151Y-297661D01*
X256824Y-295676D01*
X254840Y-294350D01*
X252499Y-293885D01*
X250807Y-294221D01*
X250101Y-293165D01*
X250652Y-292341D01*
X251117Y-290000D01*
X250652Y-287659D01*
X249326Y-285674D01*
X247341Y-284348D01*
X245000Y-283883D01*
D02*
G37*
G36*
X-252499Y-293881D02*
X-254840Y-294346D01*
X-256824Y-295672D01*
X-258151Y-297657D01*
X-258616Y-299998D01*
X-258151Y-302339D01*
X-256824Y-304324D01*
X-254840Y-305650D01*
X-252499Y-306116D01*
X-250807Y-305779D01*
X-250101Y-306835D01*
X-250652Y-307659D01*
X-251118Y-310000D01*
X-250652Y-312341D01*
X-249326Y-314326D01*
X-247341Y-315652D01*
X-245000Y-316118D01*
X-242659Y-315652D01*
X-240674Y-314326D01*
X-239348Y-312341D01*
X-238883Y-310000D01*
X-239348Y-307659D01*
X-240674Y-305674D01*
X-242659Y-304348D01*
X-245000Y-303883D01*
X-246692Y-304219D01*
X-247397Y-303163D01*
X-246847Y-302339D01*
X-246381Y-299998D01*
X-246847Y-297657D01*
X-248173Y-295672D01*
X-250158Y-294346D01*
X-252499Y-293881D01*
D02*
G37*
G36*
X200000Y-283883D02*
X197659Y-284348D01*
X195674Y-285674D01*
X194348Y-287659D01*
X193882Y-290000D01*
X194348Y-292341D01*
X195674Y-294326D01*
X195733Y-294365D01*
Y-295635D01*
X195674Y-295674D01*
X194348Y-297659D01*
X193882Y-300000D01*
X194348Y-302341D01*
X195289Y-303750D01*
X194348Y-305159D01*
X193882Y-307500D01*
X194348Y-309841D01*
X195289Y-311250D01*
X194348Y-312659D01*
X193882Y-315000D01*
X193882Y-315000D01*
X193882D01*
X193882Y-315000D01*
X190000D01*
Y-335000D01*
X210000D01*
Y-315000D01*
X206118D01*
X206117Y-315000D01*
X205652Y-312659D01*
X204710Y-311250D01*
X205652Y-309841D01*
X206117Y-307500D01*
X205652Y-305159D01*
X204710Y-303750D01*
X205652Y-302341D01*
X206117Y-300000D01*
X205652Y-297659D01*
X204326Y-295674D01*
X204267Y-295635D01*
Y-294365D01*
X204326Y-294326D01*
X205652Y-292341D01*
X206117Y-290000D01*
X205652Y-287659D01*
X204326Y-285674D01*
X202341Y-284348D01*
X200000Y-283883D01*
D02*
G37*
G36*
X-40000Y-308883D02*
X-42341Y-309348D01*
X-44326Y-310674D01*
X-45652Y-312659D01*
X-46118Y-315000D01*
X-45652Y-317341D01*
X-44326Y-319326D01*
X-42341Y-320652D01*
X-40000Y-321118D01*
X-37659Y-320652D01*
X-35674Y-319326D01*
X-34348Y-317341D01*
X-33883Y-315000D01*
X-34348Y-312659D01*
X-35674Y-310674D01*
X-37659Y-309348D01*
X-40000Y-308883D01*
D02*
G37*
G36*
X360000D02*
X357659Y-309348D01*
X355674Y-310674D01*
X354348Y-312659D01*
X353882Y-315000D01*
X354348Y-317341D01*
X355674Y-319326D01*
X357659Y-320652D01*
X360000Y-321118D01*
X362341Y-320652D01*
X364326Y-319326D01*
X365652Y-317341D01*
X366118Y-315000D01*
X365652Y-312659D01*
X364326Y-310674D01*
X362341Y-309348D01*
X360000Y-308883D01*
D02*
G37*
G36*
X-72500Y-401382D02*
X-74841Y-401848D01*
X-76826Y-403174D01*
X-78152Y-405159D01*
X-78618Y-407500D01*
X-78152Y-409841D01*
X-76826Y-411826D01*
X-74841Y-413152D01*
X-72500Y-413618D01*
X-70159Y-413152D01*
X-68174Y-411826D01*
X-66848Y-409841D01*
X-66382Y-407500D01*
X-66848Y-405159D01*
X-68174Y-403174D01*
X-70159Y-401848D01*
X-72500Y-401382D01*
D02*
G37*
G36*
X87500D02*
X85159Y-401848D01*
X83174Y-403174D01*
X81848Y-405159D01*
X81382Y-407500D01*
X81848Y-409841D01*
X83174Y-411826D01*
X85159Y-413152D01*
X87500Y-413618D01*
X89841Y-413152D01*
X91826Y-411826D01*
X93152Y-409841D01*
X93617Y-407500D01*
X93152Y-405159D01*
X91826Y-403174D01*
X89841Y-401848D01*
X87500Y-401382D01*
D02*
G37*
G36*
X270000D02*
X267659Y-401848D01*
X265674Y-403174D01*
X264348Y-405159D01*
X263882Y-407500D01*
X264348Y-409841D01*
X265674Y-411826D01*
X267659Y-413152D01*
X270000Y-413618D01*
X272341Y-413152D01*
X274326Y-411826D01*
X275652Y-409841D01*
X276117Y-407500D01*
X275652Y-405159D01*
X274326Y-403174D01*
X272341Y-401848D01*
X270000Y-401382D01*
D02*
G37*
G36*
X-137500D02*
X-139841Y-401848D01*
X-141826Y-403174D01*
X-143152Y-405159D01*
X-143618Y-407500D01*
X-143152Y-409841D01*
X-141826Y-411826D01*
X-139841Y-413152D01*
X-137500Y-413618D01*
X-135159Y-413152D01*
X-133174Y-411826D01*
X-131848Y-409841D01*
X-131383Y-407500D01*
X-131848Y-405159D01*
X-133174Y-403174D01*
X-135159Y-401848D01*
X-137500Y-401382D01*
D02*
G37*
G36*
X-265000Y-413882D02*
X-267341Y-414348D01*
X-269326Y-415674D01*
X-270652Y-417659D01*
X-271118Y-420000D01*
X-270652Y-422341D01*
X-269326Y-424326D01*
X-267341Y-425652D01*
X-265000Y-426118D01*
X-262659Y-425652D01*
X-260674Y-424326D01*
X-259348Y-422341D01*
X-258883Y-420000D01*
X-259348Y-417659D01*
X-260674Y-415674D01*
X-262659Y-414348D01*
X-265000Y-413882D01*
D02*
G37*
G36*
X132500D02*
X130159Y-414348D01*
X128174Y-415674D01*
X126848Y-417659D01*
X126382Y-420000D01*
X126848Y-422341D01*
X128174Y-424326D01*
X130159Y-425652D01*
X132500Y-426118D01*
X134841Y-425652D01*
X136826Y-424326D01*
X138152Y-422341D01*
X138617Y-420000D01*
X138152Y-417659D01*
X136826Y-415674D01*
X134841Y-414348D01*
X132500Y-413882D01*
D02*
G37*
G36*
X-312500Y-401382D02*
X-314841Y-401848D01*
X-316826Y-403174D01*
X-318152Y-405159D01*
X-318617Y-407500D01*
X-318152Y-409841D01*
X-316826Y-411826D01*
X-314841Y-413152D01*
X-312500Y-413618D01*
X-310159Y-413152D01*
X-308174Y-411826D01*
X-306848Y-409841D01*
X-306383Y-407500D01*
X-306848Y-405159D01*
X-308174Y-403174D01*
X-310159Y-401848D01*
X-312500Y-401382D01*
D02*
G37*
G36*
X260000Y-369883D02*
X257659Y-370348D01*
X255674Y-371674D01*
X254348Y-373659D01*
X253882Y-376000D01*
X254348Y-378341D01*
X255674Y-380326D01*
X257659Y-381652D01*
X260000Y-382118D01*
X262341Y-381652D01*
X264326Y-380326D01*
X265652Y-378341D01*
X266117Y-376000D01*
X265652Y-373659D01*
X264326Y-371674D01*
X262341Y-370348D01*
X260000Y-369883D01*
D02*
G37*
G36*
X-0Y-368882D02*
X-2341Y-369348D01*
X-4326Y-370674D01*
X-5652Y-372659D01*
X-6118Y-375000D01*
X-5652Y-377341D01*
X-4326Y-379326D01*
X-2341Y-380652D01*
X-0Y-381118D01*
X2341Y-380652D01*
X4326Y-379326D01*
X5652Y-377341D01*
X6118Y-375000D01*
X5652Y-372659D01*
X4326Y-370674D01*
X2341Y-369348D01*
X-0Y-368882D01*
D02*
G37*
G36*
Y-283883D02*
X-2341Y-284348D01*
X-4326Y-285674D01*
X-5652Y-287659D01*
X-6118Y-290000D01*
X-5652Y-292341D01*
X-4326Y-294326D01*
X-4267Y-294365D01*
Y-295635D01*
X-4326Y-295674D01*
X-5652Y-297659D01*
X-6118Y-300000D01*
X-5652Y-302341D01*
X-4326Y-304326D01*
X-4267Y-304365D01*
Y-305635D01*
X-4326Y-305674D01*
X-5652Y-307659D01*
X-6118Y-310000D01*
X-5652Y-312341D01*
X-4624Y-313880D01*
X-5222Y-315000D01*
X-10000D01*
Y-335000D01*
X-6621D01*
X-5816Y-335982D01*
X-6118Y-337500D01*
X-5652Y-339841D01*
X-4326Y-341826D01*
X-4267Y-341865D01*
Y-343135D01*
X-4326Y-343174D01*
X-5652Y-345159D01*
X-6118Y-347500D01*
X-5652Y-349841D01*
X-4326Y-351826D01*
X-2396Y-353115D01*
Y-354385D01*
X-4326Y-355674D01*
X-5652Y-357659D01*
X-6118Y-360000D01*
X-5652Y-362341D01*
X-4326Y-364326D01*
X-2341Y-365652D01*
X-0Y-366118D01*
X2341Y-365652D01*
X4326Y-364326D01*
X5652Y-362341D01*
X6118Y-360000D01*
X5652Y-357659D01*
X4326Y-355674D01*
X2396Y-354385D01*
Y-353115D01*
X4326Y-351826D01*
X5652Y-349841D01*
X6118Y-347500D01*
X5652Y-345159D01*
X4326Y-343174D01*
X4267Y-343135D01*
Y-341865D01*
X4326Y-341826D01*
X5652Y-339841D01*
X6118Y-337500D01*
X5816Y-335982D01*
X6621Y-335000D01*
X10000D01*
Y-315000D01*
X5222D01*
X4624Y-313880D01*
X5652Y-312341D01*
X6118Y-310000D01*
X5652Y-307659D01*
X4326Y-305674D01*
X4267Y-305635D01*
Y-304365D01*
X4326Y-304326D01*
X5652Y-302341D01*
X6118Y-300000D01*
X5652Y-297659D01*
X4326Y-295674D01*
X4267Y-295635D01*
Y-294365D01*
X4326Y-294326D01*
X5652Y-292341D01*
X6118Y-290000D01*
X5652Y-287659D01*
X4326Y-285674D01*
X2341Y-284348D01*
X-0Y-283883D01*
D02*
G37*
G36*
X200000Y-343882D02*
X197659Y-344348D01*
X195674Y-345674D01*
X194348Y-347659D01*
X193882Y-350000D01*
X194348Y-352341D01*
X195674Y-354326D01*
X195733Y-354365D01*
Y-355635D01*
X195674Y-355674D01*
X194348Y-357659D01*
X193882Y-360000D01*
X194348Y-362341D01*
X195674Y-364326D01*
X197604Y-365615D01*
Y-366885D01*
X195674Y-368174D01*
X194348Y-370159D01*
X193882Y-372500D01*
X194348Y-374841D01*
X195289Y-376250D01*
X194348Y-377659D01*
X193882Y-380000D01*
X194348Y-382341D01*
X195674Y-384326D01*
X197659Y-385652D01*
X200000Y-386118D01*
X202341Y-385652D01*
X204326Y-384326D01*
X205652Y-382341D01*
X206117Y-380000D01*
X205652Y-377659D01*
X204710Y-376250D01*
X205652Y-374841D01*
X206117Y-372500D01*
X205652Y-370159D01*
X204326Y-368174D01*
X202396Y-366885D01*
Y-365615D01*
X204326Y-364326D01*
X205652Y-362341D01*
X206117Y-360000D01*
X205652Y-357659D01*
X204326Y-355674D01*
X204267Y-355635D01*
Y-354365D01*
X204326Y-354326D01*
X205652Y-352341D01*
X206117Y-350000D01*
X205652Y-347659D01*
X204326Y-345674D01*
X202341Y-344348D01*
X200000Y-343882D01*
D02*
G37*
G36*
X327500Y-401382D02*
X325159Y-401848D01*
X323174Y-403174D01*
X321848Y-405159D01*
X321382Y-407500D01*
X321848Y-409841D01*
X323174Y-411826D01*
X325159Y-413152D01*
X327500Y-413618D01*
X329841Y-413152D01*
X331826Y-411826D01*
X333152Y-409841D01*
X333618Y-407500D01*
X333152Y-405159D01*
X331826Y-403174D01*
X329841Y-401848D01*
X327500Y-401382D01*
D02*
G37*
G36*
X-137500Y-378882D02*
X-139841Y-379348D01*
X-141826Y-380674D01*
X-143152Y-382659D01*
X-143618Y-385000D01*
X-143152Y-387341D01*
X-141826Y-389326D01*
X-139841Y-390652D01*
X-137500Y-391118D01*
X-135159Y-390652D01*
X-133174Y-389326D01*
X-131848Y-387341D01*
X-131383Y-385000D01*
X-131848Y-382659D01*
X-133174Y-380674D01*
X-135159Y-379348D01*
X-137500Y-378882D01*
D02*
G37*
G36*
X-200000Y-341382D02*
X-202341Y-341848D01*
X-204326Y-343174D01*
X-205652Y-345159D01*
X-206118Y-347500D01*
X-205652Y-349841D01*
X-204326Y-351826D01*
X-202396Y-353115D01*
Y-354385D01*
X-204326Y-355674D01*
X-205652Y-357659D01*
X-206118Y-360000D01*
X-205652Y-362341D01*
X-204326Y-364326D01*
X-202396Y-365615D01*
Y-366885D01*
X-204326Y-368174D01*
X-205652Y-370159D01*
X-206118Y-372500D01*
X-205652Y-374841D01*
X-204326Y-376826D01*
X-204267Y-376865D01*
Y-378135D01*
X-204326Y-378174D01*
X-205652Y-380159D01*
X-206118Y-382500D01*
X-205652Y-384841D01*
X-204326Y-386826D01*
X-202341Y-388152D01*
X-200000Y-388618D01*
X-197659Y-388152D01*
X-195674Y-386826D01*
X-194348Y-384841D01*
X-193883Y-382500D01*
X-194348Y-380159D01*
X-195674Y-378174D01*
X-195733Y-378135D01*
Y-376865D01*
X-195674Y-376826D01*
X-194348Y-374841D01*
X-193883Y-372500D01*
X-194348Y-370159D01*
X-195674Y-368174D01*
X-197604Y-366885D01*
Y-365615D01*
X-195674Y-364326D01*
X-194348Y-362341D01*
X-193883Y-360000D01*
X-194348Y-357659D01*
X-195674Y-355674D01*
X-197604Y-354385D01*
Y-353115D01*
X-195674Y-351826D01*
X-194348Y-349841D01*
X-193883Y-347500D01*
X-194348Y-345159D01*
X-195674Y-343174D01*
X-197659Y-341848D01*
X-200000Y-341382D01*
D02*
G37*
G36*
Y-283883D02*
X-202341Y-284348D01*
X-204326Y-285674D01*
X-205652Y-287659D01*
X-206118Y-290000D01*
X-205652Y-292341D01*
X-204326Y-294326D01*
X-204267Y-294365D01*
Y-295635D01*
X-204326Y-295674D01*
X-205652Y-297659D01*
X-206118Y-300000D01*
X-205652Y-302341D01*
X-204326Y-304326D01*
X-202341Y-305652D01*
X-200000Y-306118D01*
X-197659Y-305652D01*
X-195674Y-304326D01*
X-194348Y-302341D01*
X-193883Y-300000D01*
X-194348Y-297659D01*
X-195674Y-295674D01*
X-195733Y-295635D01*
Y-294365D01*
X-195674Y-294326D01*
X-194348Y-292341D01*
X-193883Y-290000D01*
X-194348Y-287659D01*
X-195674Y-285674D01*
X-197659Y-284348D01*
X-200000Y-283883D01*
D02*
G37*
G36*
Y-83883D02*
X-202341Y-84348D01*
X-204326Y-85674D01*
X-205652Y-87659D01*
X-206118Y-90000D01*
X-205652Y-92341D01*
X-204326Y-94326D01*
X-202396Y-95615D01*
Y-96885D01*
X-204326Y-98174D01*
X-205652Y-100159D01*
X-206118Y-102500D01*
X-205652Y-104841D01*
X-204326Y-106826D01*
X-204267Y-106865D01*
Y-108135D01*
X-204326Y-108174D01*
X-205652Y-110159D01*
X-206118Y-112500D01*
X-205816Y-114018D01*
X-206621Y-115000D01*
X-210000D01*
Y-135000D01*
X-205222D01*
X-204624Y-136120D01*
X-205652Y-137659D01*
X-206118Y-140000D01*
X-205652Y-142341D01*
X-204326Y-144326D01*
X-202341Y-145652D01*
X-200000Y-146118D01*
X-197659Y-145652D01*
X-195674Y-144326D01*
X-194348Y-142341D01*
X-193883Y-140000D01*
X-194348Y-137659D01*
X-195376Y-136120D01*
X-194778Y-135000D01*
X-190000D01*
Y-115000D01*
X-193379D01*
X-194184Y-114018D01*
X-193883Y-112500D01*
X-194348Y-110159D01*
X-195674Y-108174D01*
X-195733Y-108135D01*
Y-106865D01*
X-195674Y-106826D01*
X-194348Y-104841D01*
X-193883Y-102500D01*
X-194348Y-100159D01*
X-195674Y-98174D01*
X-197604Y-96885D01*
Y-95615D01*
X-195674Y-94326D01*
X-194348Y-92341D01*
X-193883Y-90000D01*
X-194348Y-87659D01*
X-195674Y-85674D01*
X-197659Y-84348D01*
X-200000Y-83883D01*
D02*
G37*
G36*
X200000Y-88883D02*
X197659Y-89348D01*
X195674Y-90674D01*
X194348Y-92659D01*
X193882Y-95000D01*
X194348Y-97341D01*
X195289Y-98750D01*
X194348Y-100159D01*
X193882Y-102500D01*
X194348Y-104841D01*
X195289Y-106250D01*
X194348Y-107659D01*
X193882Y-110000D01*
X194348Y-112341D01*
X195376Y-113880D01*
X194778Y-115000D01*
X190000D01*
Y-135000D01*
X194778D01*
X195376Y-136120D01*
X194348Y-137659D01*
X193882Y-140000D01*
X194348Y-142341D01*
X195674Y-144326D01*
X197659Y-145652D01*
X200000Y-146118D01*
X202341Y-145652D01*
X204326Y-144326D01*
X205652Y-142341D01*
X206117Y-140000D01*
X205652Y-137659D01*
X204624Y-136120D01*
X205222Y-135000D01*
X210000D01*
Y-115000D01*
X205222D01*
X204624Y-113880D01*
X205652Y-112341D01*
X206117Y-110000D01*
X205652Y-107659D01*
X204710Y-106250D01*
X205652Y-104841D01*
X206117Y-102500D01*
X205652Y-100159D01*
X204710Y-98750D01*
X205652Y-97341D01*
X206117Y-95000D01*
X205652Y-92659D01*
X204326Y-90674D01*
X202341Y-89348D01*
X200000Y-88883D01*
D02*
G37*
G36*
X-0D02*
X-2341Y-89348D01*
X-4326Y-90674D01*
X-5652Y-92659D01*
X-6118Y-95000D01*
X-5652Y-97341D01*
X-4710Y-98750D01*
X-5652Y-100159D01*
X-6118Y-102500D01*
X-5652Y-104841D01*
X-4710Y-106250D01*
X-5652Y-107659D01*
X-6118Y-110000D01*
X-5652Y-112341D01*
X-4624Y-113880D01*
X-5222Y-115000D01*
X-10000D01*
Y-135000D01*
X10000D01*
Y-115000D01*
X5222D01*
X4624Y-113880D01*
X5652Y-112341D01*
X6118Y-110000D01*
X5652Y-107659D01*
X4710Y-106250D01*
X5652Y-104841D01*
X6118Y-102500D01*
X5652Y-100159D01*
X4710Y-98750D01*
X5652Y-97341D01*
X6118Y-95000D01*
X5652Y-92659D01*
X4326Y-90674D01*
X2341Y-89348D01*
X-0Y-88883D01*
D02*
G37*
G36*
Y-138883D02*
X-2341Y-139348D01*
X-4326Y-140674D01*
X-5652Y-142659D01*
X-6118Y-145000D01*
X-5652Y-147341D01*
X-4326Y-149326D01*
X-2341Y-150652D01*
X-0Y-151118D01*
X2341Y-150652D01*
X4326Y-149326D01*
X5652Y-147341D01*
X6118Y-145000D01*
X5652Y-142659D01*
X4326Y-140674D01*
X2341Y-139348D01*
X-0Y-138883D01*
D02*
G37*
G36*
X110000Y-141383D02*
X107659Y-141848D01*
X105674Y-143174D01*
X104348Y-145159D01*
X103882Y-147500D01*
X104348Y-149841D01*
X105674Y-151826D01*
X107659Y-153152D01*
X110000Y-153617D01*
X112341Y-153152D01*
X114326Y-151826D01*
X115652Y-149841D01*
X116117Y-147500D01*
X115652Y-145159D01*
X114326Y-143174D01*
X112341Y-141848D01*
X110000Y-141383D01*
D02*
G37*
G36*
X260000D02*
X257659Y-141848D01*
X255674Y-143174D01*
X254348Y-145159D01*
X253882Y-147500D01*
X254348Y-149841D01*
X255674Y-151826D01*
X257659Y-153152D01*
X260000Y-153617D01*
X262341Y-153152D01*
X264326Y-151826D01*
X265652Y-149841D01*
X266117Y-147500D01*
X265652Y-145159D01*
X264326Y-143174D01*
X262341Y-141848D01*
X260000Y-141383D01*
D02*
G37*
G36*
X337500D02*
X335159Y-141848D01*
X333174Y-143174D01*
X331848Y-145159D01*
X331382Y-147500D01*
X331848Y-149841D01*
X333174Y-151826D01*
X335159Y-153152D01*
X337500Y-153617D01*
X339841Y-153152D01*
X341826Y-151826D01*
X343152Y-149841D01*
X343618Y-147500D01*
X343152Y-145159D01*
X341826Y-143174D01*
X339841Y-141848D01*
X337500Y-141383D01*
D02*
G37*
G36*
X-155000Y-83883D02*
X-157341Y-84348D01*
X-159326Y-85674D01*
X-160652Y-87659D01*
X-161118Y-90000D01*
X-160652Y-92341D01*
X-159326Y-94326D01*
X-157341Y-95652D01*
X-155000Y-96118D01*
X-153308Y-95781D01*
X-152603Y-96837D01*
X-153153Y-97661D01*
X-153619Y-100002D01*
X-153153Y-102343D01*
X-151827Y-104328D01*
X-149842Y-105654D01*
X-147501Y-106120D01*
X-145160Y-105654D01*
X-143176Y-104328D01*
X-141849Y-102343D01*
X-141384Y-100002D01*
X-141849Y-97661D01*
X-143176Y-95676D01*
X-145160Y-94350D01*
X-147501Y-93884D01*
X-149193Y-94221D01*
X-149899Y-93165D01*
X-149348Y-92341D01*
X-148883Y-90000D01*
X-149348Y-87659D01*
X-150674Y-85674D01*
X-152659Y-84348D01*
X-155000Y-83883D01*
D02*
G37*
G36*
X245000D02*
X242659Y-84348D01*
X240674Y-85674D01*
X239348Y-87659D01*
X238882Y-90000D01*
X239348Y-92341D01*
X240674Y-94326D01*
X242659Y-95652D01*
X245000Y-96118D01*
X246692Y-95781D01*
X247397Y-96837D01*
X246847Y-97661D01*
X246381Y-100002D01*
X246847Y-102343D01*
X248173Y-104328D01*
X250158Y-105654D01*
X252499Y-106120D01*
X254840Y-105654D01*
X256824Y-104328D01*
X258151Y-102343D01*
X258616Y-100002D01*
X258151Y-97661D01*
X256824Y-95676D01*
X254840Y-94350D01*
X252499Y-93884D01*
X250807Y-94221D01*
X250101Y-93165D01*
X250652Y-92341D01*
X251117Y-90000D01*
X250652Y-87659D01*
X249326Y-85674D01*
X247341Y-84348D01*
X245000Y-83883D01*
D02*
G37*
G36*
X-360000Y-78882D02*
X-362341Y-79348D01*
X-364326Y-80674D01*
X-365652Y-82659D01*
X-366118Y-85000D01*
X-365652Y-87341D01*
X-364326Y-89326D01*
X-362341Y-90652D01*
X-360000Y-91117D01*
X-357659Y-90652D01*
X-355674Y-89326D01*
X-354348Y-87341D01*
X-353882Y-85000D01*
X-354348Y-82659D01*
X-355674Y-80674D01*
X-357659Y-79348D01*
X-360000Y-78882D01*
D02*
G37*
G36*
X147501Y-93881D02*
X145160Y-94346D01*
X143175Y-95672D01*
X141849Y-97657D01*
X141384Y-99998D01*
X141849Y-102339D01*
X143175Y-104324D01*
X145160Y-105650D01*
X147501Y-106116D01*
X149193Y-105779D01*
X149899Y-106835D01*
X149348Y-107659D01*
X148883Y-110000D01*
X149348Y-112341D01*
X150674Y-114326D01*
X152659Y-115652D01*
X155000Y-116118D01*
X157341Y-115652D01*
X159326Y-114326D01*
X160652Y-112341D01*
X161117Y-110000D01*
X160652Y-107659D01*
X159326Y-105674D01*
X157341Y-104348D01*
X155000Y-103883D01*
X153308Y-104219D01*
X152603Y-103163D01*
X153153Y-102339D01*
X153619Y-99998D01*
X153153Y-97657D01*
X151827Y-95672D01*
X149842Y-94346D01*
X147501Y-93881D01*
D02*
G37*
G36*
X-40000Y-108883D02*
X-42341Y-109348D01*
X-44326Y-110674D01*
X-45652Y-112659D01*
X-46118Y-115000D01*
X-45652Y-117341D01*
X-44326Y-119326D01*
X-42341Y-120652D01*
X-40000Y-121118D01*
X-37659Y-120652D01*
X-35674Y-119326D01*
X-34348Y-117341D01*
X-33883Y-115000D01*
X-34348Y-112659D01*
X-35674Y-110674D01*
X-37659Y-109348D01*
X-40000Y-108883D01*
D02*
G37*
G36*
X360000D02*
X357659Y-109348D01*
X355674Y-110674D01*
X354348Y-112659D01*
X353882Y-115000D01*
X354348Y-117341D01*
X355674Y-119326D01*
X357659Y-120652D01*
X360000Y-121118D01*
X362341Y-120652D01*
X364326Y-119326D01*
X365652Y-117341D01*
X366118Y-115000D01*
X365652Y-112659D01*
X364326Y-110674D01*
X362341Y-109348D01*
X360000Y-108883D01*
D02*
G37*
G36*
X-252499Y-93881D02*
X-254840Y-94346D01*
X-256824Y-95672D01*
X-258151Y-97657D01*
X-258616Y-99998D01*
X-258151Y-102339D01*
X-256824Y-104324D01*
X-254840Y-105650D01*
X-252499Y-106116D01*
X-250807Y-105779D01*
X-250101Y-106835D01*
X-250652Y-107659D01*
X-251118Y-110000D01*
X-250652Y-112341D01*
X-249326Y-114326D01*
X-247341Y-115652D01*
X-245000Y-116118D01*
X-242659Y-115652D01*
X-240674Y-114326D01*
X-239348Y-112341D01*
X-238883Y-110000D01*
X-239348Y-107659D01*
X-240674Y-105674D01*
X-242659Y-104348D01*
X-245000Y-103883D01*
X-246692Y-104219D01*
X-247397Y-103163D01*
X-246847Y-102339D01*
X-246381Y-99998D01*
X-246847Y-97657D01*
X-248173Y-95672D01*
X-250158Y-94346D01*
X-252499Y-93881D01*
D02*
G37*
G36*
X200000Y-253883D02*
X197659Y-254348D01*
X195674Y-255674D01*
X194348Y-257659D01*
X193882Y-260000D01*
X194348Y-262341D01*
X195674Y-264326D01*
X197659Y-265652D01*
X200000Y-266118D01*
X202341Y-265652D01*
X204326Y-264326D01*
X205652Y-262341D01*
X206117Y-260000D01*
X205652Y-257659D01*
X204326Y-255674D01*
X202341Y-254348D01*
X200000Y-253883D01*
D02*
G37*
G36*
X-110000Y-246383D02*
X-112341Y-246848D01*
X-114326Y-248174D01*
X-115652Y-250159D01*
X-116118Y-252500D01*
X-115652Y-254841D01*
X-114326Y-256826D01*
X-112341Y-258152D01*
X-110000Y-258618D01*
X-107659Y-258152D01*
X-105674Y-256826D01*
X-104348Y-254841D01*
X-103883Y-252500D01*
X-104348Y-250159D01*
X-105674Y-248174D01*
X-107659Y-246848D01*
X-110000Y-246383D01*
D02*
G37*
G36*
X290000D02*
X287659Y-246848D01*
X285674Y-248174D01*
X284348Y-250159D01*
X283882Y-252500D01*
X284348Y-254841D01*
X285674Y-256826D01*
X287659Y-258152D01*
X290000Y-258618D01*
X292341Y-258152D01*
X294326Y-256826D01*
X295652Y-254841D01*
X296117Y-252500D01*
X295652Y-250159D01*
X294326Y-248174D01*
X292341Y-246848D01*
X290000Y-246383D01*
D02*
G37*
G36*
X-0Y-253883D02*
X-2341Y-254348D01*
X-4326Y-255674D01*
X-5652Y-257659D01*
X-6118Y-260000D01*
X-5652Y-262341D01*
X-4326Y-264326D01*
X-2341Y-265652D01*
X-0Y-266118D01*
X2341Y-265652D01*
X4326Y-264326D01*
X5652Y-262341D01*
X6118Y-260000D01*
X5652Y-257659D01*
X4326Y-255674D01*
X2341Y-254348D01*
X-0Y-253883D01*
D02*
G37*
G36*
X-360000Y-278883D02*
X-362341Y-279348D01*
X-364326Y-280674D01*
X-365652Y-282659D01*
X-366118Y-285000D01*
X-365652Y-287341D01*
X-364326Y-289326D01*
X-362341Y-290652D01*
X-360000Y-291118D01*
X-357659Y-290652D01*
X-355674Y-289326D01*
X-354348Y-287341D01*
X-353882Y-285000D01*
X-354348Y-282659D01*
X-355674Y-280674D01*
X-357659Y-279348D01*
X-360000Y-278883D01*
D02*
G37*
G36*
X40000D02*
X37659Y-279348D01*
X35674Y-280674D01*
X34348Y-282659D01*
X33882Y-285000D01*
X34348Y-287341D01*
X35674Y-289326D01*
X37659Y-290652D01*
X40000Y-291118D01*
X42341Y-290652D01*
X44326Y-289326D01*
X45652Y-287341D01*
X46118Y-285000D01*
X45652Y-282659D01*
X44326Y-280674D01*
X42341Y-279348D01*
X40000Y-278883D01*
D02*
G37*
G36*
X-200000Y-253883D02*
X-202341Y-254348D01*
X-204326Y-255674D01*
X-205652Y-257659D01*
X-206118Y-260000D01*
X-205652Y-262341D01*
X-204326Y-264326D01*
X-202341Y-265652D01*
X-200000Y-266118D01*
X-197659Y-265652D01*
X-195674Y-264326D01*
X-194348Y-262341D01*
X-193883Y-260000D01*
X-194348Y-257659D01*
X-195674Y-255674D01*
X-197659Y-254348D01*
X-200000Y-253883D01*
D02*
G37*
G36*
X-290000Y-141383D02*
X-292341Y-141848D01*
X-294326Y-143174D01*
X-295652Y-145159D01*
X-296118Y-147500D01*
X-295652Y-149841D01*
X-294326Y-151826D01*
X-292341Y-153152D01*
X-290000Y-153617D01*
X-287659Y-153152D01*
X-285674Y-151826D01*
X-284348Y-149841D01*
X-283883Y-147500D01*
X-284348Y-145159D01*
X-285674Y-143174D01*
X-287659Y-141848D01*
X-290000Y-141383D01*
D02*
G37*
G36*
X-140000D02*
X-142341Y-141848D01*
X-144326Y-143174D01*
X-145652Y-145159D01*
X-146118Y-147500D01*
X-145652Y-149841D01*
X-144326Y-151826D01*
X-142341Y-153152D01*
X-140000Y-153617D01*
X-137659Y-153152D01*
X-135674Y-151826D01*
X-134348Y-149841D01*
X-133883Y-147500D01*
X-134348Y-145159D01*
X-135674Y-143174D01*
X-137659Y-141848D01*
X-140000Y-141383D01*
D02*
G37*
G36*
X-62500D02*
X-64841Y-141848D01*
X-66826Y-143174D01*
X-68152Y-145159D01*
X-68618Y-147500D01*
X-68152Y-149841D01*
X-66826Y-151826D01*
X-64841Y-153152D01*
X-62500Y-153617D01*
X-60159Y-153152D01*
X-58174Y-151826D01*
X-56848Y-149841D01*
X-56382Y-147500D01*
X-56848Y-145159D01*
X-58174Y-143174D01*
X-60159Y-141848D01*
X-62500Y-141383D01*
D02*
G37*
G36*
X140000Y-246383D02*
X137659Y-246848D01*
X135674Y-248174D01*
X134348Y-250159D01*
X133882Y-252500D01*
X134348Y-254841D01*
X135674Y-256826D01*
X137659Y-258152D01*
X140000Y-258618D01*
X142341Y-258152D01*
X144326Y-256826D01*
X145652Y-254841D01*
X146117Y-252500D01*
X145652Y-250159D01*
X144326Y-248174D01*
X142341Y-246848D01*
X140000Y-246383D01*
D02*
G37*
G36*
X-337500D02*
X-339841Y-246848D01*
X-341826Y-248174D01*
X-343152Y-250159D01*
X-343618Y-252500D01*
X-343152Y-254841D01*
X-341826Y-256826D01*
X-339841Y-258152D01*
X-337500Y-258618D01*
X-335159Y-258152D01*
X-333174Y-256826D01*
X-331848Y-254841D01*
X-331382Y-252500D01*
X-331848Y-250159D01*
X-333174Y-248174D01*
X-335159Y-246848D01*
X-337500Y-246383D01*
D02*
G37*
G36*
X-260000D02*
X-262341Y-246848D01*
X-264326Y-248174D01*
X-265652Y-250159D01*
X-266118Y-252500D01*
X-265652Y-254841D01*
X-264326Y-256826D01*
X-262341Y-258152D01*
X-260000Y-258618D01*
X-257659Y-258152D01*
X-255674Y-256826D01*
X-254348Y-254841D01*
X-253883Y-252500D01*
X-254348Y-250159D01*
X-255674Y-248174D01*
X-257659Y-246848D01*
X-260000Y-246383D01*
D02*
G37*
G36*
X62500D02*
X60159Y-246848D01*
X58174Y-248174D01*
X56848Y-250159D01*
X56382Y-252500D01*
X56848Y-254841D01*
X58174Y-256826D01*
X60159Y-258152D01*
X62500Y-258618D01*
X64841Y-258152D01*
X66826Y-256826D01*
X68152Y-254841D01*
X68618Y-252500D01*
X68152Y-250159D01*
X66826Y-248174D01*
X64841Y-246848D01*
X62500Y-246383D01*
D02*
G37*
G36*
X-262500Y601118D02*
X-264841Y600652D01*
X-266826Y599326D01*
X-268152Y597341D01*
X-268618Y595000D01*
X-268152Y592659D01*
X-266826Y590674D01*
X-264841Y589348D01*
X-262500Y588882D01*
X-260159Y589348D01*
X-258174Y590674D01*
X-256848Y592659D01*
X-256383Y595000D01*
X-256848Y597341D01*
X-258174Y599326D01*
X-260159Y600652D01*
X-262500Y601118D01*
D02*
G37*
G36*
X-242500D02*
X-244841Y600652D01*
X-246826Y599326D01*
X-248152Y597341D01*
X-248618Y595000D01*
X-248152Y592659D01*
X-246826Y590674D01*
X-244841Y589348D01*
X-242500Y588882D01*
X-240159Y589348D01*
X-238174Y590674D01*
X-236848Y592659D01*
X-236383Y595000D01*
X-236848Y597341D01*
X-238174Y599326D01*
X-240159Y600652D01*
X-242500Y601118D01*
D02*
G37*
G36*
X-222500D02*
X-224841Y600652D01*
X-226826Y599326D01*
X-228152Y597341D01*
X-228618Y595000D01*
X-228152Y592659D01*
X-227603Y591837D01*
X-228308Y590781D01*
X-230000Y591118D01*
X-232341Y590652D01*
X-234326Y589326D01*
X-235652Y587341D01*
X-236118Y585000D01*
X-235652Y582659D01*
X-234326Y580674D01*
X-232341Y579348D01*
X-230000Y578882D01*
X-227659Y579348D01*
X-225674Y580674D01*
X-224348Y582659D01*
X-223883Y585000D01*
X-224348Y587341D01*
X-224897Y588163D01*
X-224192Y589219D01*
X-222500Y588882D01*
X-220159Y589348D01*
X-218174Y590674D01*
X-216848Y592659D01*
X-216383Y595000D01*
X-216848Y597341D01*
X-218174Y599326D01*
X-220159Y600652D01*
X-222500Y601118D01*
D02*
G37*
G36*
X-282500D02*
X-284841Y600652D01*
X-286826Y599326D01*
X-288152Y597341D01*
X-288618Y595000D01*
X-288152Y592659D01*
X-286826Y590674D01*
X-284841Y589348D01*
X-282500Y588882D01*
X-280159Y589348D01*
X-278174Y590674D01*
X-276848Y592659D01*
X-276383Y595000D01*
X-276848Y597341D01*
X-278174Y599326D01*
X-280159Y600652D01*
X-282500Y601118D01*
D02*
G37*
G36*
X-342500D02*
X-344841Y600652D01*
X-346826Y599326D01*
X-348152Y597341D01*
X-348618Y595000D01*
X-348152Y592659D01*
X-346826Y590674D01*
X-344841Y589348D01*
X-342500Y588882D01*
X-340159Y589348D01*
X-338174Y590674D01*
X-336848Y592659D01*
X-336382Y595000D01*
X-336848Y597341D01*
X-338174Y599326D01*
X-340159Y600652D01*
X-342500Y601118D01*
D02*
G37*
G36*
X-322500D02*
X-324841Y600652D01*
X-326826Y599326D01*
X-328152Y597341D01*
X-328618Y595000D01*
X-328152Y592659D01*
X-326826Y590674D01*
X-324841Y589348D01*
X-322500Y588882D01*
X-320159Y589348D01*
X-318174Y590674D01*
X-316848Y592659D01*
X-316383Y595000D01*
X-316848Y597341D01*
X-318174Y599326D01*
X-320159Y600652D01*
X-322500Y601118D01*
D02*
G37*
G36*
X-302500D02*
X-304841Y600652D01*
X-306826Y599326D01*
X-308152Y597341D01*
X-308618Y595000D01*
X-308152Y592659D01*
X-306826Y590674D01*
X-304841Y589348D01*
X-302500Y588882D01*
X-300159Y589348D01*
X-298174Y590674D01*
X-296848Y592659D01*
X-296383Y595000D01*
X-296848Y597341D01*
X-298174Y599326D01*
X-300159Y600652D01*
X-302500Y601118D01*
D02*
G37*
G36*
X-37500Y618618D02*
X-39841Y618152D01*
X-41826Y616826D01*
X-43152Y614841D01*
X-43618Y612500D01*
X-43152Y610159D01*
X-41826Y608174D01*
X-39841Y606848D01*
X-37500Y606382D01*
X-35159Y606848D01*
X-33174Y608174D01*
X-31848Y610159D01*
X-31383Y612500D01*
X-31848Y614841D01*
X-33174Y616826D01*
X-35159Y618152D01*
X-37500Y618618D01*
D02*
G37*
G36*
X72500Y653617D02*
X70159Y653152D01*
X68174Y651826D01*
X66848Y649841D01*
X66382Y647500D01*
X66848Y645159D01*
X68174Y643174D01*
X70159Y641848D01*
X72500Y641382D01*
X74841Y641848D01*
X76826Y643174D01*
X78152Y645159D01*
X78618Y647500D01*
X78152Y649841D01*
X76826Y651826D01*
X74841Y653152D01*
X72500Y653617D01*
D02*
G37*
G36*
X269727Y685845D02*
X267386Y685379D01*
X265401Y684053D01*
X264075Y682068D01*
X263610Y679727D01*
X264075Y677386D01*
X265401Y675401D01*
X265426Y675385D01*
X265674Y674139D01*
X264422Y672267D01*
X263957Y669926D01*
X264422Y667585D01*
X265749Y665600D01*
Y664375D01*
X265674Y664326D01*
X264348Y662341D01*
X263882Y660000D01*
X264189Y658456D01*
X262659Y658152D01*
X260674Y656826D01*
X259348Y654841D01*
X258882Y652500D01*
X259348Y650159D01*
X260674Y648174D01*
X262659Y646848D01*
X265000Y646382D01*
X267341Y646848D01*
X269326Y648174D01*
X270652Y650159D01*
X271117Y652500D01*
X270811Y654044D01*
X272341Y654348D01*
X274326Y655674D01*
X275652Y657659D01*
X276117Y660000D01*
X275652Y662341D01*
X274326Y664326D01*
Y665550D01*
X274400Y665600D01*
X275726Y667585D01*
X276192Y669926D01*
X275726Y672267D01*
X274400Y674251D01*
X274375Y674268D01*
X274128Y675514D01*
X275379Y677386D01*
X275845Y679727D01*
X275379Y682068D01*
X274053Y684053D01*
X272068Y685379D01*
X269727Y685845D01*
D02*
G37*
G36*
X400000Y615556D02*
X398303Y615333D01*
X396722Y614678D01*
X395364Y613636D01*
X394322Y612278D01*
X393667Y610697D01*
X393444Y609000D01*
X393667Y607303D01*
X394322Y605722D01*
X395364Y604364D01*
X396722Y603322D01*
X398303Y602667D01*
X400000Y602444D01*
X401697Y602667D01*
X403278Y603322D01*
X404636Y604364D01*
X405678Y605722D01*
X406333Y607303D01*
X406556Y609000D01*
X406333Y610697D01*
X405678Y612278D01*
X404636Y613636D01*
X403278Y614678D01*
X401697Y615333D01*
X400000Y615556D01*
D02*
G37*
G36*
X5000Y616118D02*
X2659Y615652D01*
X674Y614326D01*
X-652Y612341D01*
X-1118Y610000D01*
X-994Y609381D01*
X-1826Y608826D01*
X-3152Y606841D01*
X-3618Y604500D01*
X-3152Y602159D01*
X-1826Y600174D01*
X159Y598848D01*
X2500Y598382D01*
X4841Y598848D01*
X6826Y600174D01*
X8152Y602159D01*
X8618Y604500D01*
X8582Y604678D01*
X8494Y605119D01*
X9326Y605674D01*
X10652Y607659D01*
X11118Y610000D01*
X10652Y612341D01*
X9326Y614326D01*
X7341Y615652D01*
X5000Y616118D01*
D02*
G37*
G36*
X-17500Y611118D02*
X-19841Y610652D01*
X-21826Y609326D01*
X-23152Y607341D01*
X-23618Y605000D01*
X-23152Y602659D01*
X-21826Y600674D01*
X-19841Y599348D01*
X-17500Y598882D01*
X-15159Y599348D01*
X-13174Y600674D01*
X-11848Y602659D01*
X-11382Y605000D01*
X-11848Y607341D01*
X-13174Y609326D01*
X-15159Y610652D01*
X-17500Y611118D01*
D02*
G37*
G36*
X320000D02*
X317659Y610652D01*
X315674Y609326D01*
X314348Y607341D01*
X313882Y605000D01*
X314348Y602659D01*
X315674Y600674D01*
X317659Y599348D01*
X320000Y598882D01*
X322341Y599348D01*
X324326Y600674D01*
X325652Y602659D01*
X326118Y605000D01*
X325652Y607341D01*
X324326Y609326D01*
X322341Y610652D01*
X320000Y611118D01*
D02*
G37*
G36*
X275000Y556118D02*
X272659Y555652D01*
X270674Y554326D01*
X269348Y552341D01*
X268883Y550000D01*
X269348Y547659D01*
X270674Y545674D01*
X272659Y544348D01*
X275000Y543882D01*
X277341Y544348D01*
X279326Y545674D01*
X280652Y547659D01*
X281117Y550000D01*
X280652Y552341D01*
X279326Y554326D01*
X277341Y555652D01*
X275000Y556118D01*
D02*
G37*
G36*
X182500Y566118D02*
X180159Y565652D01*
X178174Y564326D01*
X176848Y562341D01*
X176382Y560000D01*
X176848Y557659D01*
X178174Y555674D01*
X180159Y554348D01*
X182500Y553882D01*
X184841Y554348D01*
X186826Y555674D01*
X188152Y557659D01*
X188617Y560000D01*
X188152Y562341D01*
X186826Y564326D01*
X184841Y565652D01*
X182500Y566118D01*
D02*
G37*
G36*
X372500Y571118D02*
X370159Y570652D01*
X368174Y569326D01*
X366848Y567341D01*
X366382Y565000D01*
X366848Y562659D01*
X368174Y560674D01*
X370159Y559348D01*
X372500Y558882D01*
X374841Y559348D01*
X376826Y560674D01*
X378152Y562659D01*
X378618Y565000D01*
X378152Y567341D01*
X376826Y569326D01*
X374841Y570652D01*
X372500Y571118D01*
D02*
G37*
G36*
X5000Y556118D02*
X2659Y555652D01*
X674Y554326D01*
X-652Y552341D01*
X-1118Y550000D01*
X-652Y547659D01*
X674Y545674D01*
X2659Y544348D01*
X5000Y543882D01*
X7341Y544348D01*
X9326Y545674D01*
X10652Y547659D01*
X11118Y550000D01*
X10652Y552341D01*
X9326Y554326D01*
X7341Y555652D01*
X5000Y556118D01*
D02*
G37*
G36*
X160000Y546118D02*
X157659Y545652D01*
X155674Y544326D01*
X154348Y542341D01*
X153882Y540000D01*
X154348Y537659D01*
X155674Y535674D01*
X157659Y534348D01*
X160000Y533882D01*
X162341Y534348D01*
X164326Y535674D01*
X165652Y537659D01*
X166117Y540000D01*
X165652Y542341D01*
X164326Y544326D01*
X162341Y545652D01*
X160000Y546118D01*
D02*
G37*
G36*
X332500Y551118D02*
X330159Y550652D01*
X328174Y549326D01*
X326848Y547341D01*
X326382Y545000D01*
X326848Y542659D01*
X328174Y540674D01*
X330159Y539348D01*
X332500Y538882D01*
X334841Y539348D01*
X336826Y540674D01*
X338152Y542659D01*
X338618Y545000D01*
X338152Y547341D01*
X336826Y549326D01*
X334841Y550652D01*
X332500Y551118D01*
D02*
G37*
G36*
X-190000Y556118D02*
X-192341Y555652D01*
X-194326Y554326D01*
X-195652Y552341D01*
X-196118Y550000D01*
X-195652Y547659D01*
X-194326Y545674D01*
X-192341Y544348D01*
X-190000Y543882D01*
X-187659Y544348D01*
X-185674Y545674D01*
X-184348Y547659D01*
X-183883Y550000D01*
X-184348Y552341D01*
X-185674Y554326D01*
X-187659Y555652D01*
X-190000Y556118D01*
D02*
G37*
G36*
X5000Y596118D02*
X2659Y595652D01*
X674Y594326D01*
X-652Y592341D01*
X-1118Y590000D01*
X-652Y587659D01*
X674Y585674D01*
X2659Y584348D01*
X5000Y583882D01*
X7341Y584348D01*
X9326Y585674D01*
X10652Y587659D01*
X11118Y590000D01*
X10652Y592341D01*
X9326Y594326D01*
X7341Y595652D01*
X5000Y596118D01*
D02*
G37*
G36*
X-52500Y598618D02*
X-54841Y598152D01*
X-56826Y596826D01*
X-58152Y594841D01*
X-58618Y592500D01*
X-58152Y590159D01*
X-56826Y588174D01*
X-54841Y586848D01*
X-52500Y586382D01*
X-50159Y586848D01*
X-48174Y588174D01*
X-46848Y590159D01*
X-46382Y592500D01*
X-46848Y594841D01*
X-48174Y596826D01*
X-50159Y598152D01*
X-52500Y598618D01*
D02*
G37*
G36*
X-37500D02*
X-39841Y598152D01*
X-41826Y596826D01*
X-43152Y594841D01*
X-43618Y592500D01*
X-43152Y590159D01*
X-41826Y588174D01*
X-39841Y586848D01*
X-37500Y586382D01*
X-35159Y586848D01*
X-33174Y588174D01*
X-31848Y590159D01*
X-31383Y592500D01*
X-31848Y594841D01*
X-33174Y596826D01*
X-35159Y598152D01*
X-37500Y598618D01*
D02*
G37*
G36*
X-190000Y596118D02*
X-192341Y595652D01*
X-194326Y594326D01*
X-195652Y592341D01*
X-196118Y590000D01*
X-195652Y587659D01*
X-194326Y585674D01*
X-192341Y584348D01*
X-190000Y583882D01*
X-187659Y584348D01*
X-185674Y585674D01*
X-184348Y587659D01*
X-183883Y590000D01*
X-184348Y592341D01*
X-185674Y594326D01*
X-187659Y595652D01*
X-190000Y596118D01*
D02*
G37*
G36*
Y576118D02*
X-192341Y575652D01*
X-194326Y574326D01*
X-195652Y572341D01*
X-196118Y570000D01*
X-195652Y567659D01*
X-194326Y565674D01*
X-192341Y564348D01*
X-190000Y563882D01*
X-187659Y564348D01*
X-185674Y565674D01*
X-184348Y567659D01*
X-183883Y570000D01*
X-184348Y572341D01*
X-185674Y574326D01*
X-187659Y575652D01*
X-190000Y576118D01*
D02*
G37*
G36*
X-277500Y578618D02*
X-279841Y578152D01*
X-281826Y576826D01*
X-283152Y574841D01*
X-283618Y572500D01*
X-283152Y570159D01*
X-281826Y568174D01*
X-279841Y566848D01*
X-277500Y566382D01*
X-275159Y566848D01*
X-273174Y568174D01*
X-271848Y570159D01*
X-271383Y572500D01*
X-271848Y574841D01*
X-273174Y576826D01*
X-275159Y578152D01*
X-277500Y578618D01*
D02*
G37*
G36*
X77500Y601118D02*
X75159Y600652D01*
X73174Y599326D01*
X71848Y597341D01*
X71382Y595000D01*
X71848Y592659D01*
X73174Y590674D01*
X74355Y589885D01*
Y588615D01*
X73174Y587826D01*
X71848Y585841D01*
X71382Y583500D01*
X71848Y581159D01*
X73174Y579174D01*
X75159Y577848D01*
X77500Y577382D01*
X79841Y577848D01*
X81826Y579174D01*
X83152Y581159D01*
X83617Y583500D01*
X83152Y585841D01*
X81826Y587826D01*
X80645Y588615D01*
Y589885D01*
X81826Y590674D01*
X83152Y592659D01*
X83617Y595000D01*
X83152Y597341D01*
X81826Y599326D01*
X79841Y600652D01*
X77500Y601118D01*
D02*
G37*
G36*
X135000Y796347D02*
X132063Y795960D01*
X129326Y794827D01*
X126976Y793024D01*
X125173Y790674D01*
X124040Y787937D01*
X123653Y785000D01*
X124040Y782063D01*
X125173Y779326D01*
X126976Y776976D01*
X129326Y775173D01*
X132063Y774040D01*
X135000Y773653D01*
X137937Y774040D01*
X140674Y775173D01*
X143024Y776976D01*
X144827Y779326D01*
X145960Y782063D01*
X146347Y785000D01*
X145960Y787937D01*
X144827Y790674D01*
X143024Y793024D01*
X140674Y794827D01*
X137937Y795960D01*
X135000Y796347D01*
D02*
G37*
G36*
X90000Y788617D02*
X87659Y788152D01*
X85674Y786826D01*
X84348Y784841D01*
X83882Y782500D01*
X84348Y780159D01*
X85674Y778174D01*
X87659Y776848D01*
X90000Y776382D01*
X92341Y776848D01*
X94326Y778174D01*
X95652Y780159D01*
X96117Y782500D01*
X95652Y784841D01*
X94326Y786826D01*
X92341Y788152D01*
X90000Y788617D01*
D02*
G37*
G36*
X382500D02*
X380159Y788152D01*
X378174Y786826D01*
X376848Y784841D01*
X376382Y782500D01*
X376848Y780159D01*
X378174Y778174D01*
X380159Y776848D01*
X382500Y776382D01*
X384841Y776848D01*
X386826Y778174D01*
X388152Y780159D01*
X388618Y782500D01*
X388152Y784841D01*
X386826Y786826D01*
X384841Y788152D01*
X382500Y788617D01*
D02*
G37*
G36*
X215000Y776117D02*
X212659Y775652D01*
X210674Y774326D01*
X209385Y772396D01*
X208115D01*
X206826Y774326D01*
X204841Y775652D01*
X202500Y776117D01*
X200159Y775652D01*
X198174Y774326D01*
X196848Y772341D01*
X196382Y770000D01*
X196848Y767659D01*
X198174Y765674D01*
X200159Y764348D01*
X202500Y763882D01*
X204841Y764348D01*
X206826Y765674D01*
X208115Y767604D01*
X209385D01*
X210674Y765674D01*
X212659Y764348D01*
X215000Y763882D01*
X217341Y764348D01*
X219326Y765674D01*
X220652Y767659D01*
X221117Y770000D01*
X220652Y772341D01*
X219326Y774326D01*
X217341Y775652D01*
X215000Y776117D01*
D02*
G37*
G36*
X232500Y753617D02*
X230159Y753152D01*
X228174Y751826D01*
X226848Y749841D01*
X226383Y747500D01*
X226848Y745159D01*
X228174Y743174D01*
X230159Y741848D01*
X232500Y741383D01*
X234841Y741848D01*
X236826Y743174D01*
X238152Y745159D01*
X238617Y747500D01*
X238152Y749841D01*
X236826Y751826D01*
X234841Y753152D01*
X232500Y753617D01*
D02*
G37*
G36*
X-164600Y774994D02*
X-168423Y774618D01*
X-172099Y773503D01*
X-175486Y771692D01*
X-178455Y769255D01*
X-180892Y766286D01*
X-182703Y762898D01*
X-183818Y759223D01*
X-184194Y755400D01*
X-183946Y752880D01*
X-189767Y747059D01*
X-190000Y747082D01*
X-193333Y746754D01*
X-196537Y745782D01*
X-199490Y744203D01*
X-202079Y742079D01*
X-204203Y739490D01*
X-205782Y736537D01*
X-206754Y733333D01*
X-207082Y730000D01*
X-207059Y729766D01*
X-207163Y729663D01*
X-207826Y728671D01*
X-208059Y727500D01*
X-208059Y727500D01*
Y695608D01*
X-210093D01*
X-210159Y695652D01*
X-212500Y696117D01*
X-214841Y695652D01*
X-216826Y694326D01*
X-218152Y692341D01*
X-218618Y690000D01*
X-218152Y687659D01*
X-216826Y685674D01*
X-214841Y684348D01*
X-212500Y683882D01*
X-210159Y684348D01*
X-210093Y684392D01*
X-208059D01*
Y680001D01*
Y675608D01*
X-212593D01*
X-212659Y675652D01*
X-215000Y676117D01*
X-217341Y675652D01*
X-219326Y674326D01*
X-220652Y672341D01*
X-221118Y670000D01*
X-220652Y667659D01*
X-219326Y665674D01*
X-217341Y664348D01*
X-215000Y663882D01*
X-212659Y664348D01*
X-212593Y664392D01*
X-208059D01*
Y645559D01*
X-212328D01*
X-213174Y646826D01*
X-215159Y648152D01*
X-217500Y648617D01*
X-219841Y648152D01*
X-221826Y646826D01*
X-222699Y645519D01*
X-223671Y645326D01*
X-224663Y644663D01*
X-225326Y643671D01*
X-225559Y642500D01*
Y625000D01*
X-225326Y623829D01*
X-224663Y622837D01*
X-223671Y622174D01*
X-222500Y621941D01*
X-203767D01*
X-199663Y617837D01*
X-198671Y617174D01*
X-197500Y616941D01*
X-197500Y616941D01*
X-182500D01*
X-181329Y617174D01*
X-180337Y617837D01*
X-179674Y618829D01*
X-179441Y620000D01*
Y621683D01*
X-179500Y621979D01*
Y622280D01*
X-179615Y622558D01*
X-179674Y622854D01*
X-179841Y623104D01*
X-179957Y623383D01*
X-180271Y623852D01*
X-180499Y625000D01*
X-180271Y626148D01*
X-179957Y626617D01*
X-179841Y626896D01*
X-179674Y627146D01*
X-179615Y627442D01*
X-179500Y627720D01*
Y628021D01*
X-179441Y628317D01*
Y638882D01*
X-175000D01*
X-172659Y639348D01*
X-170674Y640674D01*
X-169348Y642659D01*
X-168883Y645000D01*
X-169348Y647341D01*
X-170674Y649326D01*
X-172659Y650652D01*
X-175000Y651117D01*
X-179441D01*
Y660768D01*
X-178459Y661573D01*
X-177500Y661382D01*
X-175159Y661848D01*
X-173174Y663174D01*
X-171848Y665159D01*
X-171383Y667500D01*
X-171848Y669841D01*
X-173174Y671826D01*
X-175159Y673152D01*
X-177500Y673617D01*
X-178459Y673427D01*
X-179441Y674232D01*
Y680001D01*
Y683268D01*
X-178459Y684073D01*
X-177500Y683882D01*
X-175159Y684348D01*
X-173174Y685674D01*
X-171848Y687659D01*
X-171383Y690000D01*
X-171848Y692341D01*
X-173174Y694326D01*
X-175159Y695652D01*
X-177500Y696117D01*
X-178459Y695927D01*
X-179441Y696732D01*
Y706941D01*
X-174121D01*
X-173972Y706971D01*
X-173821Y706956D01*
X-173391Y707086D01*
X-172951Y707174D01*
X-172825Y707258D01*
X-172679Y707302D01*
X-172332Y707587D01*
X-171958Y707837D01*
X-171874Y707963D01*
X-171757Y708059D01*
X-170951Y709041D01*
X-170880Y709175D01*
X-170772Y709282D01*
X-170600Y709698D01*
X-170389Y710094D01*
X-170374Y710245D01*
X-170316Y710385D01*
Y710834D01*
X-170271Y711282D01*
X-170316Y711427D01*
Y711578D01*
X-170499Y712500D01*
X-170271Y713648D01*
X-169620Y714621D01*
X-168648Y715271D01*
X-167500Y715499D01*
X-166352Y715271D01*
X-165380Y714621D01*
X-164729Y713648D01*
X-164501Y712500D01*
X-164685Y711578D01*
Y711427D01*
X-164729Y711282D01*
X-164684Y710834D01*
Y710385D01*
X-164626Y710245D01*
X-164611Y710094D01*
X-164400Y709698D01*
X-164228Y709282D01*
X-164120Y709175D01*
X-164049Y709041D01*
X-163243Y708059D01*
X-163126Y707963D01*
X-163042Y707837D01*
X-162668Y707587D01*
X-162321Y707302D01*
X-162176Y707258D01*
X-162049Y707174D01*
X-161609Y707086D01*
X-161179Y706956D01*
X-161028Y706971D01*
X-160879Y706941D01*
X-148059D01*
Y695559D01*
X-157001D01*
X-157581Y695443D01*
X-158166Y695328D01*
X-158168Y695327D01*
X-158171Y695326D01*
X-158666Y694995D01*
X-159159Y694667D01*
X-159161Y694665D01*
X-159164Y694663D01*
X-159494Y694168D01*
X-159824Y693676D01*
X-159825Y693673D01*
X-159827Y693671D01*
X-159942Y693092D01*
X-160060Y692506D01*
X-160212Y615320D01*
X-160153Y615022D01*
X-160153Y614717D01*
X-160039Y614442D01*
X-160016Y614326D01*
X-159982Y614149D01*
X-159813Y613896D01*
X-159697Y613615D01*
X-159486Y613404D01*
X-159320Y613155D01*
X-159068Y612986D01*
X-158853Y612771D01*
X-157879Y612121D01*
X-157229Y611148D01*
X-157001Y610000D01*
X-157229Y608852D01*
X-157879Y607879D01*
X-158874Y607215D01*
X-159085Y607004D01*
X-159333Y606839D01*
X-159503Y606586D01*
D01*
X-159718Y606371D01*
X-159832Y606096D01*
D01*
X-159998Y605848D01*
X-160058Y605550D01*
X-160174Y605269D01*
Y604970D01*
X-160233Y604678D01*
X-160252Y595346D01*
X-160193Y595048D01*
X-160193Y594744D01*
X-160079Y594468D01*
X-160021Y594175D01*
X-159853Y593922D01*
X-159736Y593641D01*
X-159525Y593430D01*
X-159360Y593182D01*
X-159107Y593012D01*
X-158892Y592797D01*
X-157879Y592121D01*
X-157229Y591148D01*
X-157001Y590000D01*
X-157229Y588852D01*
X-157879Y587879D01*
X-158913Y587189D01*
X-159124Y586978D01*
X-159373Y586813D01*
X-159542Y586560D01*
X-159757Y586345D01*
X-159871Y586069D01*
X-160038Y585822D01*
X-160098Y585523D01*
X-160214Y585242D01*
Y584944D01*
X-160273Y584651D01*
X-160291Y575373D01*
X-160232Y575074D01*
Y574770D01*
X-160118Y574494D01*
X-160061Y574202D01*
X-159892Y573949D01*
X-159776Y573667D01*
X-159565Y573457D01*
X-159399Y573208D01*
X-159147Y573039D01*
X-158932Y572823D01*
X-157879Y572121D01*
X-157229Y571148D01*
X-157001Y570000D01*
X-157229Y568852D01*
X-157879Y567879D01*
X-158953Y567162D01*
X-159164Y566951D01*
X-159412Y566786D01*
X-159582Y566533D01*
X-159797Y566318D01*
X-159911Y566043D01*
X-160077Y565795D01*
X-160137Y565497D01*
X-160254Y565216D01*
Y564917D01*
X-160312Y564625D01*
X-160331Y555399D01*
X-160272Y555101D01*
Y554796D01*
X-160158Y554521D01*
X-160100Y554228D01*
X-159931Y553975D01*
X-159815Y553694D01*
X-159604Y553483D01*
X-159439Y553235D01*
X-159186Y553065D01*
X-158971Y552850D01*
X-157879Y552121D01*
X-157229Y551148D01*
X-157001Y550000D01*
X-157229Y548852D01*
X-157879Y547879D01*
X-158993Y547136D01*
X-159203Y546925D01*
D01*
X-159203Y546925D01*
X-159452Y546760D01*
X-159621Y546507D01*
X-159837Y546292D01*
X-159951Y546016D01*
X-160117Y545769D01*
X-160177Y545470D01*
X-160293Y545189D01*
Y544891D01*
X-160352Y544599D01*
X-160537Y450751D01*
D01*
X-160557Y440905D01*
X-160557Y440903D01*
X-160557Y440902D01*
X-160443Y440328D01*
X-160326Y439734D01*
X-160326Y439733D01*
X-160325Y439731D01*
X-160000Y439243D01*
X-159665Y438740D01*
X-159664Y438740D01*
X-159663Y438738D01*
X-158766Y437839D01*
X-158765Y437838D01*
X-158764Y437837D01*
X-158258Y437499D01*
X-157774Y437175D01*
X-157773Y437175D01*
X-157772Y437174D01*
X-157184Y437057D01*
X-156604Y436941D01*
X-156603Y436941D01*
X-156601Y436941D01*
X-142480D01*
X-142341Y436848D01*
X-140000Y436382D01*
X-137659Y436848D01*
X-137520Y436941D01*
X-132480D01*
X-132341Y436848D01*
X-130000Y436382D01*
X-127659Y436848D01*
X-127520Y436941D01*
X-122480D01*
X-122341Y436848D01*
X-120000Y436382D01*
X-117659Y436848D01*
X-117520Y436941D01*
X-105000D01*
X-104706Y437000D01*
X-104406Y436999D01*
X-104127Y437115D01*
X-103829Y437174D01*
X-103580Y437341D01*
X-103303Y437455D01*
X-88303Y447455D01*
X-88089Y447669D01*
X-87837Y447837D01*
X-87671Y448086D01*
X-87458Y448298D01*
X-87342Y448578D01*
X-87174Y448829D01*
X-87116Y449123D01*
X-87001Y449400D01*
X-87000Y449703D01*
X-86941Y450000D01*
Y450750D01*
Y540000D01*
X-87022Y540404D01*
X-87052Y540815D01*
X-87137Y540985D01*
X-87174Y541171D01*
X-87403Y541513D01*
X-87588Y541881D01*
X-87732Y542005D01*
X-87837Y542163D01*
X-88180Y542392D01*
X-88492Y542661D01*
X-100000Y549182D01*
X-101940Y550282D01*
X-101895Y605920D01*
X-101939Y606142D01*
X-101659Y606198D01*
X-99674Y607524D01*
X-98348Y609509D01*
X-97882Y611850D01*
X-98348Y614191D01*
X-99674Y616176D01*
X-101659Y617502D01*
X-101708Y617512D01*
X-101885Y617777D01*
X-101862Y646563D01*
X-101908Y646798D01*
X-101659Y646848D01*
X-99674Y648174D01*
X-98348Y650159D01*
X-97882Y652500D01*
X-98348Y654841D01*
X-99674Y656826D01*
X-101659Y658152D01*
X-101665Y658153D01*
X-101852Y658434D01*
X-101850Y660723D01*
X-100868Y661529D01*
X-98876Y661132D01*
X-96534Y661598D01*
X-95438Y662331D01*
X-94341Y661598D01*
X-92000Y661132D01*
X-89659Y661598D01*
X-88500Y662372D01*
X-87342Y661598D01*
X-85001Y661132D01*
X-82660Y661598D01*
X-80675Y662924D01*
X-79349Y664909D01*
X-78883Y667250D01*
X-79349Y669591D01*
X-80675Y671576D01*
X-81572Y672175D01*
X-81086Y673348D01*
X-80000Y673132D01*
X-77659Y673598D01*
X-75674Y674924D01*
X-74348Y676909D01*
X-73882Y679250D01*
X-74348Y681591D01*
X-75674Y683576D01*
X-77659Y684902D01*
X-77222Y687100D01*
X-76848Y687659D01*
X-76382Y690000D01*
X-76848Y692341D01*
X-77790Y693750D01*
X-76848Y695159D01*
X-76382Y697500D01*
X-76848Y699841D01*
X-78174Y701826D01*
X-80159Y703152D01*
X-82500Y703617D01*
X-84841Y703152D01*
X-86826Y701826D01*
X-88152Y699841D01*
X-88618Y697500D01*
X-88152Y695159D01*
X-87211Y693750D01*
X-88152Y692341D01*
X-88618Y690000D01*
X-88152Y687659D01*
X-87271Y686341D01*
X-87757Y685167D01*
X-89091Y684902D01*
X-90250Y684128D01*
X-91409Y684902D01*
X-93750Y685368D01*
X-96091Y684902D01*
X-98076Y683576D01*
X-99402Y681591D01*
X-99868Y679250D01*
X-99402Y676909D01*
X-98076Y674924D01*
X-97126Y674289D01*
X-97612Y673116D01*
X-98876Y673367D01*
X-100858Y672973D01*
X-101840Y673779D01*
X-101825Y691599D01*
X-100183Y691941D01*
X-95000D01*
X-93829Y692174D01*
X-92837Y692837D01*
X-92174Y693829D01*
X-91941Y695000D01*
Y723477D01*
X-90664Y724441D01*
X-52480D01*
X-52341Y724348D01*
X-50000Y723882D01*
X-47659Y724348D01*
X-47520Y724441D01*
X-32480D01*
X-32341Y724348D01*
X-30000Y723882D01*
X-27659Y724348D01*
X-27520Y724441D01*
X7520D01*
X7659Y724348D01*
X10000Y723882D01*
X12341Y724348D01*
X12480Y724441D01*
X26683D01*
X26979Y724500D01*
X27280D01*
X27558Y724615D01*
X27854Y724674D01*
X28104Y724841D01*
X28383Y724957D01*
X28852Y725271D01*
X30000Y725499D01*
X31148Y725271D01*
X31617Y724957D01*
X31896Y724841D01*
X32146Y724674D01*
X32442Y724615D01*
X32720Y724500D01*
X33021D01*
X33317Y724441D01*
X46683D01*
X46979Y724500D01*
X47280D01*
X47558Y724615D01*
X47854Y724674D01*
X48104Y724841D01*
X48383Y724957D01*
X48852Y725271D01*
X50000Y725499D01*
X51148Y725271D01*
X51617Y724957D01*
X51896Y724841D01*
X52146Y724674D01*
X52442Y724615D01*
X52720Y724500D01*
X53021D01*
X53317Y724441D01*
X66683D01*
X66979Y724500D01*
X67280D01*
X67558Y724615D01*
X67854Y724674D01*
X68104Y724841D01*
X68383Y724957D01*
X68852Y725271D01*
X70000Y725499D01*
X71148Y725271D01*
X71617Y724957D01*
X71896Y724841D01*
X72146Y724674D01*
X72442Y724615D01*
X72720Y724500D01*
X73021D01*
X73317Y724441D01*
X84181D01*
X84194Y724432D01*
X84348Y723659D01*
X85674Y721674D01*
X87659Y720348D01*
X90000Y719882D01*
X92341Y720348D01*
X94326Y721674D01*
X95652Y723659D01*
X96117Y726000D01*
X95652Y728341D01*
X94326Y730326D01*
X92341Y731652D01*
X90000Y732117D01*
X89040Y731927D01*
X88059Y732732D01*
Y742500D01*
X88059Y742500D01*
X87826Y743671D01*
X87163Y744663D01*
X87163Y744663D01*
X64663Y767163D01*
X63671Y767826D01*
X62500Y768059D01*
X62500Y768059D01*
X-149763D01*
X-150745Y769255D01*
X-153714Y771692D01*
X-157102Y773503D01*
X-160777Y774618D01*
X-164600Y774994D01*
D02*
G37*
G36*
X135000Y771347D02*
X132063Y770960D01*
X129326Y769827D01*
X126976Y768024D01*
X125173Y765674D01*
X124040Y762937D01*
X123653Y760000D01*
X124040Y757063D01*
X125173Y754326D01*
X125887Y753396D01*
X125440Y752208D01*
X125159Y752152D01*
X123174Y750826D01*
X121848Y748841D01*
X121382Y746500D01*
X121848Y744159D01*
X123174Y742174D01*
X125159Y740848D01*
X127500Y740382D01*
X129841Y740848D01*
X131826Y742174D01*
X133152Y744159D01*
X133617Y746500D01*
X133353Y747829D01*
X134221Y748755D01*
X135000Y748653D01*
X137937Y749040D01*
X140674Y750173D01*
X143024Y751976D01*
X144827Y754326D01*
X145960Y757063D01*
X146347Y760000D01*
X145960Y762937D01*
X144827Y765674D01*
X143024Y768024D01*
X140674Y769827D01*
X137937Y770960D01*
X135000Y771347D01*
D02*
G37*
G36*
X247500Y821117D02*
X245159Y820652D01*
X243174Y819326D01*
X241848Y817341D01*
X241382Y815000D01*
X241848Y812659D01*
X243174Y810674D01*
X245159Y809348D01*
X247500Y808883D01*
X249841Y809348D01*
X251826Y810674D01*
X253152Y812659D01*
X253617Y815000D01*
X253152Y817341D01*
X251826Y819326D01*
X249841Y820652D01*
X247500Y821117D01*
D02*
G37*
G36*
X100000Y847104D02*
X96867Y846691D01*
X93948Y845482D01*
X91441Y843559D01*
X89518Y841052D01*
X88309Y838133D01*
X87896Y835000D01*
X88309Y831867D01*
X89518Y828948D01*
X91441Y826441D01*
X93948Y824518D01*
X96867Y823309D01*
X100000Y822896D01*
X103133Y823309D01*
X106052Y824518D01*
X108559Y826441D01*
X110482Y828948D01*
X111691Y831867D01*
X112104Y835000D01*
X111691Y838133D01*
X110482Y841052D01*
X108559Y843559D01*
X106052Y845482D01*
X103133Y846691D01*
X100000Y847104D01*
D02*
G37*
G36*
X170000D02*
X166867Y846691D01*
X163948Y845482D01*
X161441Y843559D01*
X159518Y841052D01*
X158309Y838133D01*
X157896Y835000D01*
X158309Y831867D01*
X159518Y828948D01*
X161441Y826441D01*
X163948Y824518D01*
X166867Y823309D01*
X170000Y822896D01*
X173133Y823309D01*
X176052Y824518D01*
X178559Y826441D01*
X180482Y828948D01*
X181691Y831867D01*
X182104Y835000D01*
X181691Y838133D01*
X180482Y841052D01*
X178559Y843559D01*
X176052Y845482D01*
X173133Y846691D01*
X170000Y847104D01*
D02*
G37*
G36*
X232500Y821117D02*
X230159Y820652D01*
X228174Y819326D01*
X226848Y817341D01*
X226383Y815000D01*
X226848Y812659D01*
X228174Y810674D01*
X230159Y809348D01*
X232500Y808883D01*
X234841Y809348D01*
X236826Y810674D01*
X238152Y812659D01*
X238617Y815000D01*
X238152Y817341D01*
X236826Y819326D01*
X234841Y820652D01*
X232500Y821117D01*
D02*
G37*
G36*
X-107500Y796117D02*
X-109841Y795652D01*
X-111826Y794326D01*
X-113152Y792341D01*
X-113618Y790000D01*
X-113152Y787659D01*
X-111826Y785674D01*
X-109841Y784348D01*
X-107500Y783882D01*
X-105159Y784348D01*
X-103174Y785674D01*
X-101848Y787659D01*
X-101383Y790000D01*
X-101848Y792341D01*
X-103174Y794326D01*
X-105159Y795652D01*
X-107500Y796117D01*
D02*
G37*
G36*
X225000Y801117D02*
X222659Y800652D01*
X220674Y799326D01*
X219348Y797341D01*
X218883Y795000D01*
X219348Y792659D01*
X220674Y790674D01*
X222659Y789348D01*
X225000Y788883D01*
X227341Y789348D01*
X229326Y790674D01*
X230652Y792659D01*
X231117Y795000D01*
X230652Y797341D01*
X229326Y799326D01*
X227341Y800652D01*
X225000Y801117D01*
D02*
G37*
G36*
X135000Y821347D02*
X132063Y820960D01*
X129326Y819827D01*
X126976Y818024D01*
X125173Y815674D01*
X124040Y812937D01*
X123653Y810000D01*
X124040Y807063D01*
X125173Y804326D01*
X126976Y801976D01*
X129326Y800173D01*
X132063Y799040D01*
X135000Y798653D01*
X137937Y799040D01*
X140674Y800173D01*
X143024Y801976D01*
X144827Y804326D01*
X145960Y807063D01*
X146347Y810000D01*
X145960Y812937D01*
X144827Y815674D01*
X143024Y818024D01*
X140674Y819827D01*
X137937Y820960D01*
X135000Y821347D01*
D02*
G37*
G36*
X250000Y698617D02*
X247659Y698152D01*
X245674Y696826D01*
X244348Y694841D01*
X243882Y692500D01*
X244348Y690159D01*
X245674Y688174D01*
X247659Y686848D01*
X250000Y686382D01*
X252341Y686848D01*
X253356Y687527D01*
X254602Y687279D01*
X255674Y685674D01*
X257659Y684348D01*
X260000Y683882D01*
X262341Y684348D01*
X264326Y685674D01*
X265652Y687659D01*
X266117Y690000D01*
X265652Y692341D01*
X264326Y694326D01*
X262341Y695652D01*
X260000Y696117D01*
X257659Y695652D01*
X256644Y694973D01*
X255398Y695221D01*
X254326Y696826D01*
X252341Y698152D01*
X250000Y698617D01*
D02*
G37*
G36*
X-265750Y696367D02*
X-268091Y695902D01*
X-270076Y694576D01*
X-271402Y692591D01*
X-271868Y690250D01*
X-271402Y687909D01*
X-270076Y685924D01*
X-268091Y684598D01*
X-265750Y684132D01*
X-263409Y684598D01*
X-261424Y685924D01*
X-260098Y687909D01*
X-259632Y690250D01*
X-260098Y692591D01*
X-261424Y694576D01*
X-263409Y695902D01*
X-265750Y696367D01*
D02*
G37*
G36*
X277000Y697016D02*
X274659Y696550D01*
X272674Y695224D01*
X271348Y693239D01*
X270882Y690898D01*
X271348Y688557D01*
X272674Y686572D01*
X274659Y685246D01*
X277000Y684781D01*
X279341Y685246D01*
X281326Y686572D01*
X282652Y688557D01*
X283118Y690898D01*
X282652Y693239D01*
X281326Y695224D01*
X279341Y696550D01*
X277000Y697016D01*
D02*
G37*
G36*
X307500Y686118D02*
X305159Y685652D01*
X303174Y684326D01*
X301848Y682341D01*
X301383Y680000D01*
X301848Y677659D01*
X303174Y675674D01*
X305159Y674348D01*
X307500Y673883D01*
X309841Y674348D01*
X311826Y675674D01*
X313152Y677659D01*
X313617Y680000D01*
X313152Y682341D01*
X311826Y684326D01*
X309841Y685652D01*
X307500Y686118D01*
D02*
G37*
G36*
X400000Y659556D02*
X398303Y659333D01*
X396722Y658678D01*
X395364Y657636D01*
X394322Y656278D01*
X393667Y654697D01*
X393444Y653000D01*
X393667Y651303D01*
X394322Y649722D01*
X395364Y648364D01*
X396722Y647322D01*
X398303Y646667D01*
X400000Y646444D01*
X401697Y646667D01*
X403278Y647322D01*
X404636Y648364D01*
X405678Y649722D01*
X406333Y651303D01*
X406556Y653000D01*
X406333Y654697D01*
X405678Y656278D01*
X404636Y657636D01*
X403278Y658678D01*
X401697Y659333D01*
X400000Y659556D01*
D02*
G37*
G36*
X7500Y666117D02*
X5159Y665652D01*
X3174Y664326D01*
X1848Y662341D01*
X1382Y660000D01*
X1848Y657659D01*
X3174Y655674D01*
X5159Y654348D01*
X7500Y653882D01*
X9841Y654348D01*
X11826Y655674D01*
X13152Y657659D01*
X13618Y660000D01*
X13152Y662341D01*
X11826Y664326D01*
X9841Y665652D01*
X7500Y666117D01*
D02*
G37*
G36*
X-280249Y667868D02*
X-282590Y667403D01*
X-284575Y666077D01*
X-285901Y664092D01*
X-286367Y661751D01*
X-285901Y659410D01*
X-284575Y657425D01*
X-282590Y656099D01*
X-280249Y655633D01*
X-277908Y656099D01*
X-275924Y657425D01*
X-274597Y659410D01*
X-274132Y661751D01*
X-274597Y664092D01*
X-275924Y666077D01*
X-277908Y667403D01*
X-280249Y667868D01*
D02*
G37*
G36*
X137500Y713617D02*
X135159Y713152D01*
X133174Y711826D01*
X131848Y709841D01*
X131382Y707500D01*
X131848Y705159D01*
X133174Y703174D01*
X135159Y701848D01*
X137500Y701382D01*
X139841Y701848D01*
X141826Y703174D01*
X143152Y705159D01*
X143617Y707500D01*
X143152Y709841D01*
X141826Y711826D01*
X139841Y713152D01*
X137500Y713617D01*
D02*
G37*
G36*
X287500Y728617D02*
X285159Y728152D01*
X283174Y726826D01*
X281848Y724841D01*
X281383Y722500D01*
X281848Y720159D01*
X283174Y718174D01*
X285159Y716848D01*
X287500Y716383D01*
X289841Y716848D01*
X291826Y718174D01*
X293152Y720159D01*
X293617Y722500D01*
X293152Y724841D01*
X291826Y726826D01*
X289841Y728152D01*
X287500Y728617D01*
D02*
G37*
G36*
X252500D02*
X250159Y728152D01*
X248174Y726826D01*
X248135Y726767D01*
X246865D01*
X246826Y726826D01*
X244841Y728152D01*
X242500Y728617D01*
X240159Y728152D01*
X238174Y726826D01*
X236848Y724841D01*
X236383Y722500D01*
X236848Y720159D01*
X238174Y718174D01*
X240159Y716848D01*
X242500Y716383D01*
X244841Y716848D01*
X246826Y718174D01*
X246865Y718233D01*
X248135D01*
X248174Y718174D01*
X250159Y716848D01*
X252500Y716383D01*
X254841Y716848D01*
X256826Y718174D01*
X258152Y720159D01*
X258617Y722500D01*
X258152Y724841D01*
X256826Y726826D01*
X254841Y728152D01*
X252500Y728617D01*
D02*
G37*
G36*
X-262500Y713482D02*
X-264841Y713016D01*
X-266826Y711690D01*
X-268152Y709705D01*
X-268618Y707364D01*
X-268152Y705023D01*
X-266826Y703038D01*
X-264841Y701712D01*
X-262500Y701246D01*
X-260159Y701712D01*
X-258174Y703038D01*
X-256848Y705023D01*
X-256383Y707364D01*
X-256848Y709705D01*
X-258174Y711690D01*
X-260159Y713016D01*
X-262500Y713482D01*
D02*
G37*
G36*
X127500Y698617D02*
X125159Y698152D01*
X123174Y696826D01*
X121848Y694841D01*
X121382Y692500D01*
X121848Y690159D01*
X123174Y688174D01*
X125159Y686848D01*
X127500Y686382D01*
X129841Y686848D01*
X131826Y688174D01*
X133152Y690159D01*
X133617Y692500D01*
X133152Y694841D01*
X131826Y696826D01*
X129841Y698152D01*
X127500Y698617D01*
D02*
G37*
G36*
X232500Y696117D02*
X230159Y695652D01*
X228174Y694326D01*
X226848Y692341D01*
X226382Y690000D01*
X226503Y689395D01*
X225605Y688497D01*
X225000Y688617D01*
X222659Y688152D01*
X220674Y686826D01*
X219348Y684841D01*
X218882Y682500D01*
X219348Y680159D01*
X220674Y678174D01*
X222659Y676848D01*
X225000Y676382D01*
X227341Y676848D01*
X229326Y678174D01*
X230652Y680159D01*
X231117Y682500D01*
X230997Y683105D01*
X231895Y684003D01*
X232500Y683882D01*
X234841Y684348D01*
X236826Y685674D01*
X238152Y687659D01*
X238617Y690000D01*
X238152Y692341D01*
X236826Y694326D01*
X234841Y695652D01*
X232500Y696117D01*
D02*
G37*
G36*
X49557Y704981D02*
X47215Y704515D01*
X45231Y703189D01*
X43905Y701204D01*
X43439Y698863D01*
X43905Y696522D01*
X45231Y694537D01*
X47215Y693211D01*
X49557Y692746D01*
X51898Y693211D01*
X53882Y694537D01*
X55209Y696522D01*
X55674Y698863D01*
X55209Y701204D01*
X53882Y703189D01*
X51898Y704515D01*
X49557Y704981D01*
D02*
G37*
G36*
X-200000Y405117D02*
X-202341Y404652D01*
X-204326Y403326D01*
X-205652Y401341D01*
X-206117Y399000D01*
X-205652Y396659D01*
X-204326Y394674D01*
X-202341Y393348D01*
X-200000Y392882D01*
X-197659Y393348D01*
X-195674Y394674D01*
X-194348Y396659D01*
X-193883Y399000D01*
X-194348Y401341D01*
X-195674Y403326D01*
X-197659Y404652D01*
X-200000Y405117D01*
D02*
G37*
G36*
X-112500Y406118D02*
X-114841Y405652D01*
X-116826Y404326D01*
X-118152Y402341D01*
X-118618Y400000D01*
X-118152Y397659D01*
X-116826Y395674D01*
X-114841Y394348D01*
X-112500Y393882D01*
X-110159Y394348D01*
X-108174Y395674D01*
X-106848Y397659D01*
X-106383Y400000D01*
X-106848Y402341D01*
X-108174Y404326D01*
X-110159Y405652D01*
X-112500Y406118D01*
D02*
G37*
G36*
X200000Y411118D02*
X197659Y410652D01*
X195674Y409326D01*
X194348Y407341D01*
X193882Y405000D01*
X194348Y402659D01*
X195674Y400674D01*
X197659Y399348D01*
X200000Y398882D01*
X202341Y399348D01*
X204326Y400674D01*
X205652Y402659D01*
X206117Y405000D01*
X205652Y407341D01*
X204326Y409326D01*
X202341Y410652D01*
X200000Y411118D01*
D02*
G37*
G36*
X-220000Y405117D02*
X-222341Y404652D01*
X-224326Y403326D01*
X-225652Y401341D01*
X-226118Y399000D01*
X-225652Y396659D01*
X-224326Y394674D01*
X-222341Y393348D01*
X-220000Y392882D01*
X-217659Y393348D01*
X-215674Y394674D01*
X-214348Y396659D01*
X-213883Y399000D01*
X-214348Y401341D01*
X-215674Y403326D01*
X-217659Y404652D01*
X-220000Y405117D01*
D02*
G37*
G36*
X-55000Y388618D02*
X-57341Y388152D01*
X-59326Y386826D01*
X-60652Y384841D01*
X-61118Y382500D01*
X-60997Y381895D01*
X-61895Y380997D01*
X-62500Y381118D01*
X-64841Y380652D01*
X-66826Y379326D01*
X-68152Y377341D01*
X-68618Y375000D01*
X-68152Y372659D01*
X-66826Y370674D01*
X-64841Y369348D01*
X-62500Y368882D01*
X-60159Y369348D01*
X-58174Y370674D01*
X-56848Y372659D01*
X-56382Y375000D01*
X-56503Y375605D01*
X-55605Y376503D01*
X-55000Y376382D01*
X-52659Y376848D01*
X-50674Y378174D01*
X-49348Y380159D01*
X-48882Y382500D01*
X-49348Y384841D01*
X-50674Y386826D01*
X-52659Y388152D01*
X-55000Y388618D01*
D02*
G37*
G36*
X-122500Y396118D02*
X-124841Y395652D01*
X-126826Y394326D01*
X-128152Y392341D01*
X-128618Y390000D01*
X-128152Y387659D01*
X-126826Y385674D01*
X-124841Y384348D01*
X-122500Y383882D01*
X-120159Y384348D01*
X-118174Y385674D01*
X-116848Y387659D01*
X-116383Y390000D01*
X-116848Y392341D01*
X-118174Y394326D01*
X-120159Y395652D01*
X-122500Y396118D01*
D02*
G37*
G36*
X200000D02*
X197659Y395652D01*
X195674Y394326D01*
X194348Y392341D01*
X193882Y390000D01*
X194348Y387659D01*
X195674Y385674D01*
X197659Y384348D01*
X200000Y383882D01*
X202341Y384348D01*
X204326Y385674D01*
X205652Y387659D01*
X206117Y390000D01*
X205652Y392341D01*
X204326Y394326D01*
X202341Y395652D01*
X200000Y396118D01*
D02*
G37*
G36*
X-325000Y423618D02*
X-327341Y423152D01*
X-329326Y421826D01*
X-330652Y419841D01*
X-331118Y417500D01*
X-330652Y415159D01*
X-329326Y413174D01*
X-327341Y411848D01*
X-325000Y411382D01*
X-322659Y411848D01*
X-320674Y413174D01*
X-319348Y415159D01*
X-318883Y417500D01*
X-319348Y419841D01*
X-320674Y421826D01*
X-322659Y423152D01*
X-325000Y423618D01*
D02*
G37*
G36*
X-305000D02*
X-307341Y423152D01*
X-309326Y421826D01*
X-310652Y419841D01*
X-311118Y417500D01*
X-310652Y415159D01*
X-309326Y413174D01*
X-307341Y411848D01*
X-305000Y411382D01*
X-302659Y411848D01*
X-300674Y413174D01*
X-299348Y415159D01*
X-298883Y417500D01*
X-299348Y419841D01*
X-300674Y421826D01*
X-302659Y423152D01*
X-305000Y423618D01*
D02*
G37*
G36*
X-285000D02*
X-287341Y423152D01*
X-289326Y421826D01*
X-290652Y419841D01*
X-291118Y417500D01*
X-290652Y415159D01*
X-289326Y413174D01*
X-287341Y411848D01*
X-285000Y411382D01*
X-282659Y411848D01*
X-280674Y413174D01*
X-279348Y415159D01*
X-278883Y417500D01*
X-279348Y419841D01*
X-280674Y421826D01*
X-282659Y423152D01*
X-285000Y423618D01*
D02*
G37*
G36*
X-345000D02*
X-347341Y423152D01*
X-349326Y421826D01*
X-350652Y419841D01*
X-351118Y417500D01*
X-350652Y415159D01*
X-349326Y413174D01*
X-347341Y411848D01*
X-345000Y411382D01*
X-342659Y411848D01*
X-340674Y413174D01*
X-339348Y415159D01*
X-338882Y417500D01*
X-339348Y419841D01*
X-340674Y421826D01*
X-342659Y423152D01*
X-345000Y423618D01*
D02*
G37*
G36*
X-0Y416118D02*
X-2341Y415652D01*
X-4326Y414326D01*
X-5652Y412341D01*
X-6118Y410000D01*
X-5652Y407659D01*
X-4326Y405674D01*
X-2341Y404348D01*
X-0Y403882D01*
X2341Y404348D01*
X4326Y405674D01*
X5652Y407659D01*
X6118Y410000D01*
X5652Y412341D01*
X4326Y414326D01*
X2341Y415652D01*
X-0Y416118D01*
D02*
G37*
G36*
X75000Y423618D02*
X72659Y423152D01*
X70674Y421826D01*
X69348Y419841D01*
X68882Y417500D01*
X69348Y415159D01*
X70674Y413174D01*
X72659Y411848D01*
X75000Y411382D01*
X77341Y411848D01*
X77866Y412199D01*
X79039Y411713D01*
X79348Y410159D01*
X80674Y408174D01*
X82659Y406848D01*
X85000Y406382D01*
X87341Y406848D01*
X89326Y408174D01*
X90652Y410159D01*
X91117Y412500D01*
X90652Y414841D01*
X89326Y416826D01*
X87341Y418152D01*
X85000Y418618D01*
X82659Y418152D01*
X82134Y417801D01*
X80961Y418287D01*
X80652Y419841D01*
X79326Y421826D01*
X77341Y423152D01*
X75000Y423618D01*
D02*
G37*
G36*
X187500Y428618D02*
X185159Y428152D01*
X183174Y426826D01*
X181848Y424841D01*
X181382Y422500D01*
X181514Y421837D01*
X180809Y420781D01*
X180159Y420652D01*
X178174Y419326D01*
X176848Y417341D01*
X176383Y415000D01*
X176848Y412659D01*
X178174Y410674D01*
X180159Y409348D01*
X182500Y408882D01*
X184841Y409348D01*
X186826Y410674D01*
X188152Y412659D01*
X188617Y415000D01*
X188486Y415663D01*
X189191Y416719D01*
X189841Y416848D01*
X191826Y418174D01*
X193152Y420159D01*
X193617Y422500D01*
X193152Y424841D01*
X191826Y426826D01*
X189841Y428152D01*
X187500Y428618D01*
D02*
G37*
G36*
X-200000Y361118D02*
X-202341Y360652D01*
X-204326Y359326D01*
X-205652Y357341D01*
X-206118Y355000D01*
X-205652Y352659D01*
X-204326Y350674D01*
X-202341Y349348D01*
X-200000Y348882D01*
X-197659Y349348D01*
X-195674Y350674D01*
X-194348Y352659D01*
X-193883Y355000D01*
X-194348Y357341D01*
X-195674Y359326D01*
X-197659Y360652D01*
X-200000Y361118D01*
D02*
G37*
G36*
X-0Y366118D02*
X-2341Y365652D01*
X-4326Y364326D01*
X-5652Y362341D01*
X-6118Y360000D01*
X-5652Y357659D01*
X-4326Y355674D01*
X-2341Y354348D01*
X-0Y353882D01*
X2341Y354348D01*
X4326Y355674D01*
X5652Y357659D01*
X6118Y360000D01*
X5652Y362341D01*
X4326Y364326D01*
X2341Y365652D01*
X-0Y366118D01*
D02*
G37*
G36*
X200000D02*
X197659Y365652D01*
X195674Y364326D01*
X194348Y362341D01*
X193882Y360000D01*
X194348Y357659D01*
X195674Y355674D01*
X197659Y354348D01*
X200000Y353882D01*
X202341Y354348D01*
X204326Y355674D01*
X205652Y357659D01*
X206117Y360000D01*
X205652Y362341D01*
X204326Y364326D01*
X202341Y365652D01*
X200000Y366118D01*
D02*
G37*
G36*
X-260000Y353618D02*
X-262341Y353152D01*
X-264326Y351826D01*
X-265652Y349841D01*
X-266117Y347500D01*
X-265652Y345159D01*
X-264326Y343174D01*
X-262341Y341848D01*
X-260000Y341382D01*
X-257659Y341848D01*
X-255674Y343174D01*
X-254348Y345159D01*
X-253882Y347500D01*
X-254348Y349841D01*
X-255674Y351826D01*
X-257659Y353152D01*
X-260000Y353618D01*
D02*
G37*
G36*
X62500Y353618D02*
X60159Y353152D01*
X58174Y351826D01*
X56848Y349841D01*
X56382Y347500D01*
X56848Y345159D01*
X58174Y343174D01*
X60159Y341848D01*
X62500Y341382D01*
X64841Y341848D01*
X66826Y343174D01*
X68152Y345159D01*
X68618Y347500D01*
X68152Y349841D01*
X66826Y351826D01*
X64841Y353152D01*
X62500Y353618D01*
D02*
G37*
G36*
X140000D02*
X137659Y353152D01*
X135674Y351826D01*
X134348Y349841D01*
X133882Y347500D01*
X134348Y345159D01*
X135674Y343174D01*
X137659Y341848D01*
X140000Y341382D01*
X142341Y341848D01*
X144326Y343174D01*
X145652Y345159D01*
X146117Y347500D01*
X145652Y349841D01*
X144326Y351826D01*
X142341Y353152D01*
X140000Y353618D01*
D02*
G37*
G36*
X290000D02*
X287659Y353152D01*
X285674Y351826D01*
X284348Y349841D01*
X283882Y347500D01*
X284348Y345159D01*
X285674Y343174D01*
X287659Y341848D01*
X290000Y341382D01*
X292341Y341848D01*
X294326Y343174D01*
X295652Y345159D01*
X296117Y347500D01*
X295652Y349841D01*
X294326Y351826D01*
X292341Y353152D01*
X290000Y353618D01*
D02*
G37*
G36*
X35000Y396118D02*
X32659Y395652D01*
X30674Y394326D01*
X29348Y392341D01*
X28882Y390000D01*
X29014Y389337D01*
X28309Y388281D01*
X27659Y388152D01*
X25674Y386826D01*
X24348Y384841D01*
X23882Y382500D01*
X24348Y380159D01*
X25674Y378174D01*
X27659Y376848D01*
X28309Y376719D01*
X29014Y375663D01*
X28882Y375000D01*
X29348Y372659D01*
X30674Y370674D01*
X32659Y369348D01*
X35000Y368882D01*
X37341Y369348D01*
X39326Y370674D01*
X40652Y372659D01*
X41118Y375000D01*
X40652Y377341D01*
X39326Y379326D01*
X37341Y380652D01*
X36691Y380781D01*
X35986Y381837D01*
X36117Y382500D01*
X35986Y383163D01*
X36691Y384219D01*
X37341Y384348D01*
X39326Y385674D01*
X40652Y387659D01*
X41118Y390000D01*
X40652Y392341D01*
X39326Y394326D01*
X37341Y395652D01*
X35000Y396118D01*
D02*
G37*
G36*
X200000Y381118D02*
X197659Y380652D01*
X195674Y379326D01*
X194348Y377341D01*
X193882Y375000D01*
X194348Y372659D01*
X195674Y370674D01*
X197659Y369348D01*
X200000Y368882D01*
X202341Y369348D01*
X204326Y370674D01*
X205652Y372659D01*
X206117Y375000D01*
X205652Y377341D01*
X204326Y379326D01*
X202341Y380652D01*
X200000Y381118D01*
D02*
G37*
G36*
X300000Y373618D02*
X297659Y373152D01*
X295674Y371826D01*
X295635Y371767D01*
X294365D01*
X294326Y371826D01*
X292341Y373152D01*
X290000Y373618D01*
X287659Y373152D01*
X285674Y371826D01*
X284348Y369841D01*
X283882Y367500D01*
X284348Y365159D01*
X285674Y363174D01*
X287659Y361848D01*
X290000Y361382D01*
X292341Y361848D01*
X294326Y363174D01*
X294365Y363233D01*
X295635D01*
X295674Y363174D01*
X297659Y361848D01*
X300000Y361382D01*
X302341Y361848D01*
X304326Y363174D01*
X305652Y365159D01*
X306117Y367500D01*
X305652Y369841D01*
X304326Y371826D01*
X302341Y373152D01*
X300000Y373618D01*
D02*
G37*
G36*
X-152500Y381118D02*
X-154841Y380652D01*
X-156826Y379326D01*
X-158152Y377341D01*
X-158618Y375000D01*
X-158152Y372659D01*
X-156826Y370674D01*
X-154841Y369348D01*
X-152500Y368882D01*
X-150159Y369348D01*
X-148174Y370674D01*
X-146848Y372659D01*
X-146383Y375000D01*
X-146848Y377341D01*
X-148174Y379326D01*
X-150159Y380652D01*
X-152500Y381118D01*
D02*
G37*
G36*
X332500Y356118D02*
X330159Y355652D01*
X328174Y354326D01*
X328135Y354267D01*
X326865D01*
X326826Y354326D01*
X324841Y355652D01*
X322500Y356118D01*
X320159Y355652D01*
X318174Y354326D01*
X316848Y352341D01*
X316382Y350000D01*
X316848Y347659D01*
X318174Y345674D01*
X320159Y344348D01*
X322500Y343882D01*
X324841Y344348D01*
X326826Y345674D01*
X326865Y345733D01*
X328135D01*
X328174Y345674D01*
X330159Y344348D01*
X332500Y343882D01*
X334841Y344348D01*
X336826Y345674D01*
X338152Y347659D01*
X338618Y350000D01*
X338152Y352341D01*
X336826Y354326D01*
X334841Y355652D01*
X332500Y356118D01*
D02*
G37*
G36*
X97500Y373618D02*
X95159Y373152D01*
X93174Y371826D01*
X91848Y369841D01*
X91382Y367500D01*
X91848Y365159D01*
X93174Y363174D01*
X95159Y361848D01*
X97500Y361382D01*
X99841Y361848D01*
X101826Y363174D01*
X103152Y365159D01*
X103617Y367500D01*
X103152Y369841D01*
X101826Y371826D01*
X99841Y373152D01*
X97500Y373618D01*
D02*
G37*
G36*
X-200000Y376118D02*
X-202341Y375652D01*
X-204326Y374326D01*
X-205652Y372341D01*
X-206118Y370000D01*
X-205652Y367659D01*
X-204326Y365674D01*
X-202341Y364348D01*
X-200000Y363882D01*
X-197659Y364348D01*
X-195674Y365674D01*
X-194348Y367659D01*
X-193883Y370000D01*
X-194348Y372341D01*
X-195674Y374326D01*
X-197659Y375652D01*
X-200000Y376118D01*
D02*
G37*
G36*
X388000Y473117D02*
X385659Y472652D01*
X383674Y471326D01*
X382348Y469341D01*
X381882Y467000D01*
X382348Y464659D01*
X383674Y462674D01*
X385659Y461348D01*
X388000Y460882D01*
X390341Y461348D01*
X392326Y462674D01*
X393652Y464659D01*
X394118Y467000D01*
X393652Y469341D01*
X392326Y471326D01*
X390341Y472652D01*
X388000Y473117D01*
D02*
G37*
G36*
X-190000Y483618D02*
X-192341Y483152D01*
X-194326Y481826D01*
X-195652Y479841D01*
X-196118Y477500D01*
X-195652Y475159D01*
X-194326Y473174D01*
X-192341Y471848D01*
X-190000Y471382D01*
X-187659Y471848D01*
X-185674Y473174D01*
X-184348Y475159D01*
X-183883Y477500D01*
X-184348Y479841D01*
X-185674Y481826D01*
X-187659Y483152D01*
X-190000Y483618D01*
D02*
G37*
G36*
X242500Y506118D02*
X240159Y505652D01*
X238174Y504326D01*
X236848Y502341D01*
X236383Y500000D01*
X236848Y497659D01*
X238174Y495674D01*
X240159Y494348D01*
X241689Y494044D01*
X241382Y492500D01*
X241848Y490159D01*
X243174Y488174D01*
X245159Y486848D01*
X246689Y486544D01*
X246382Y485000D01*
X246848Y482659D01*
X248174Y480674D01*
X250159Y479348D01*
X250809Y479219D01*
X251514Y478163D01*
X251382Y477500D01*
X251848Y475159D01*
X253174Y473174D01*
X255159Y471848D01*
X257500Y471382D01*
X259841Y471848D01*
X261826Y473174D01*
X263152Y475159D01*
X263617Y477500D01*
X263152Y479841D01*
X261826Y481826D01*
X259841Y483152D01*
X259191Y483281D01*
X258486Y484337D01*
X258617Y485000D01*
X258152Y487341D01*
X256826Y489326D01*
X254841Y490652D01*
X253311Y490956D01*
X253617Y492500D01*
X253152Y494841D01*
X251826Y496826D01*
X249841Y498152D01*
X248311Y498456D01*
X248617Y500000D01*
X248152Y502341D01*
X246826Y504326D01*
X244841Y505652D01*
X242500Y506118D01*
D02*
G37*
G36*
X330000Y456618D02*
X327659Y456152D01*
X325674Y454826D01*
X324348Y452841D01*
X323882Y450500D01*
X324348Y448159D01*
X325674Y446174D01*
X327659Y444848D01*
X330000Y444383D01*
X332341Y444848D01*
X334326Y446174D01*
X335652Y448159D01*
X336118Y450500D01*
X335652Y452841D01*
X334326Y454826D01*
X332341Y456152D01*
X330000Y456618D01*
D02*
G37*
G36*
X-190000Y536118D02*
X-192341Y535652D01*
X-194326Y534326D01*
X-195652Y532341D01*
X-196118Y530000D01*
X-195652Y527659D01*
X-194326Y525674D01*
X-194267Y525635D01*
Y524365D01*
X-194326Y524326D01*
X-195652Y522341D01*
X-196118Y520000D01*
X-195652Y517659D01*
X-194326Y515674D01*
X-192341Y514348D01*
X-190000Y513882D01*
X-187659Y514348D01*
X-185674Y515674D01*
X-184348Y517659D01*
X-183883Y520000D01*
X-184348Y522341D01*
X-185674Y524326D01*
X-185733Y524365D01*
Y525635D01*
X-185674Y525674D01*
X-184348Y527659D01*
X-183883Y530000D01*
X-184348Y532341D01*
X-185674Y534326D01*
X-187659Y535652D01*
X-190000Y536118D01*
D02*
G37*
G36*
Y463618D02*
X-192341Y463152D01*
X-194326Y461826D01*
X-195652Y459841D01*
X-196118Y457500D01*
X-195652Y455159D01*
X-194326Y453174D01*
X-192341Y451848D01*
X-190000Y451382D01*
X-187659Y451848D01*
X-185674Y453174D01*
X-184348Y455159D01*
X-183883Y457500D01*
X-184348Y459841D01*
X-185674Y461826D01*
X-187659Y463152D01*
X-190000Y463618D01*
D02*
G37*
G36*
X189998Y508615D02*
X187657Y508149D01*
X185672Y506823D01*
X184346Y504839D01*
X183881Y502498D01*
X184346Y500157D01*
X185672Y498172D01*
X187657Y496846D01*
X189998Y496380D01*
X192339Y496846D01*
X193859Y497861D01*
X194348Y497659D01*
X195674Y495674D01*
X197659Y494348D01*
X200000Y493882D01*
X200605Y494003D01*
X201503Y493105D01*
X201382Y492500D01*
X201848Y490159D01*
X203174Y488174D01*
X205159Y486848D01*
X207500Y486382D01*
X209841Y486848D01*
X211826Y488174D01*
X213152Y490159D01*
X213617Y492500D01*
X213152Y494841D01*
X211826Y496826D01*
X209841Y498152D01*
X207500Y498618D01*
X206895Y498497D01*
X205997Y499395D01*
X206117Y500000D01*
X205652Y502341D01*
X204326Y504326D01*
X202341Y505652D01*
X200000Y506118D01*
X197659Y505652D01*
X196139Y504636D01*
X195650Y504839D01*
X194324Y506823D01*
X192339Y508149D01*
X189998Y508615D01*
D02*
G37*
G36*
X-190000Y503618D02*
X-192341Y503152D01*
X-194326Y501826D01*
X-195652Y499841D01*
X-196118Y497500D01*
X-195652Y495159D01*
X-194326Y493174D01*
X-192341Y491848D01*
X-190000Y491382D01*
X-187659Y491848D01*
X-185674Y493174D01*
X-184348Y495159D01*
X-183883Y497500D01*
X-184348Y499841D01*
X-185674Y501826D01*
X-187659Y503152D01*
X-190000Y503618D01*
D02*
G37*
G36*
X220500Y518618D02*
X218159Y518152D01*
X216174Y516826D01*
X214848Y514841D01*
X214382Y512500D01*
X214848Y510159D01*
X216174Y508174D01*
X218159Y506848D01*
X220500Y506382D01*
X222841Y506848D01*
X224826Y508174D01*
X226152Y510159D01*
X226618Y512500D01*
X226152Y514841D01*
X224826Y516826D01*
X222841Y518152D01*
X220500Y518618D01*
D02*
G37*
G36*
X154000Y496118D02*
X151659Y495652D01*
X149674Y494326D01*
X149644Y494281D01*
X148348Y492341D01*
X147882Y490000D01*
X148348Y487659D01*
X149201Y486382D01*
X149674Y485674D01*
X151659Y484348D01*
X154000Y483882D01*
X156341Y484348D01*
X156973Y484771D01*
X157872Y483873D01*
X156848Y482341D01*
X156382Y480000D01*
X156848Y477659D01*
X158174Y475674D01*
X160159Y474348D01*
X162500Y473882D01*
X164841Y474348D01*
X166826Y475674D01*
X168152Y477659D01*
X168617Y480000D01*
X168152Y482341D01*
X166826Y484326D01*
X164841Y485652D01*
X162500Y486118D01*
X160159Y485652D01*
X159527Y485229D01*
X158629Y486127D01*
X159652Y487659D01*
X160117Y490000D01*
X159652Y492341D01*
X158326Y494326D01*
X156341Y495652D01*
X154000Y496118D01*
D02*
G37*
G36*
X415000Y488117D02*
X412659Y487652D01*
X410674Y486326D01*
X409348Y484341D01*
X408882Y482000D01*
X409348Y479659D01*
X410674Y477674D01*
X412659Y476348D01*
X415000Y475882D01*
X417341Y476348D01*
X419326Y477674D01*
X420652Y479659D01*
X421118Y482000D01*
X420652Y484341D01*
X419326Y486326D01*
X417341Y487652D01*
X415000Y488117D01*
D02*
G37*
G36*
X87500Y496118D02*
X85159Y495652D01*
X83174Y494326D01*
X81848Y492341D01*
X81382Y490000D01*
X81848Y487659D01*
X83174Y485674D01*
X85159Y484348D01*
X86713Y484039D01*
X87199Y482866D01*
X86848Y482341D01*
X86382Y480000D01*
X86848Y477659D01*
X87199Y477134D01*
X86713Y475961D01*
X85159Y475652D01*
X83174Y474326D01*
X81848Y472341D01*
X81382Y470000D01*
X81848Y467659D01*
X83174Y465674D01*
X85159Y464348D01*
X87500Y463882D01*
X89841Y464348D01*
X91826Y465674D01*
X93152Y467659D01*
X93617Y470000D01*
X93152Y472341D01*
X92801Y472866D01*
X93287Y474039D01*
X94841Y474348D01*
X96826Y475674D01*
X97603Y476837D01*
X97659Y476848D01*
Y476848D01*
X97659Y476848D01*
X100000Y476382D01*
X102341Y476848D01*
X104326Y478174D01*
X105652Y480159D01*
X106117Y482500D01*
X105652Y484841D01*
X104326Y486826D01*
X102341Y488152D01*
X100000Y488618D01*
X97659Y488152D01*
X95674Y486826D01*
X94897Y485663D01*
X94841Y485652D01*
Y485652D01*
X94841Y485652D01*
X93287Y485961D01*
X92801Y487134D01*
X93152Y487659D01*
X93617Y490000D01*
X93152Y492341D01*
X91826Y494326D01*
X89841Y495652D01*
X87500Y496118D01*
D02*
G37*
G36*
X92500Y566118D02*
X90159Y565652D01*
X88174Y564326D01*
X86848Y562341D01*
X86382Y560000D01*
X86848Y557659D01*
X87990Y555951D01*
X87742Y554705D01*
X87174Y554326D01*
X85848Y552341D01*
X85382Y550000D01*
X85848Y547659D01*
X87174Y545674D01*
X87742Y545295D01*
X87990Y544049D01*
X86848Y542341D01*
X86382Y540000D01*
X86848Y537659D01*
X87862Y536142D01*
D01*
X87771Y535923D01*
X87659Y535652D01*
X85674Y534326D01*
X84348Y532341D01*
X83882Y530000D01*
X84348Y527659D01*
X85674Y525674D01*
X87659Y524348D01*
X87862Y523858D01*
X86848Y522341D01*
X86382Y520000D01*
X86848Y517659D01*
X88174Y515674D01*
X90159Y514348D01*
X92500Y513882D01*
X94841Y514348D01*
X96826Y515674D01*
X98152Y517659D01*
X98617Y520000D01*
X98152Y522341D01*
X96826Y524326D01*
X94841Y525652D01*
X94638Y526142D01*
D01*
X95652Y527659D01*
X96117Y530000D01*
X95652Y532341D01*
X94638Y533858D01*
X94841Y534348D01*
X96826Y535674D01*
X98152Y537659D01*
X98617Y540000D01*
X98152Y542341D01*
X96826Y544326D01*
X96258Y544705D01*
X96010Y545951D01*
X97152Y547659D01*
X97618Y550000D01*
X97152Y552341D01*
X96010Y554049D01*
X96258Y555295D01*
X96826Y555674D01*
X98152Y557659D01*
X98617Y560000D01*
X98152Y562341D01*
X96826Y564326D01*
X94841Y565652D01*
X92500Y566118D01*
D02*
G37*
G36*
X-245000Y424118D02*
X-247341Y423652D01*
X-249326Y422326D01*
X-250652Y420341D01*
X-251118Y418000D01*
X-250652Y415659D01*
X-249326Y413674D01*
X-247341Y412348D01*
X-245000Y411882D01*
X-242659Y412348D01*
X-240674Y413674D01*
X-239348Y415659D01*
X-238883Y418000D01*
X-239348Y420341D01*
X-240674Y422326D01*
X-242659Y423652D01*
X-245000Y424118D01*
D02*
G37*
G36*
X45000Y451118D02*
X43152Y450750D01*
X42659Y450652D01*
X40674Y449326D01*
X39348Y447341D01*
X38882Y445000D01*
X39348Y442659D01*
X40674Y440674D01*
X42659Y439348D01*
X42862Y438858D01*
X41848Y437341D01*
X41382Y435000D01*
X41848Y432659D01*
X43174Y430674D01*
X45159Y429348D01*
X46690Y429044D01*
X46382Y427500D01*
X46848Y425159D01*
X48174Y423174D01*
X50159Y421848D01*
X52500Y421382D01*
X54841Y421848D01*
X56826Y423174D01*
X56865Y423233D01*
X58135D01*
X58174Y423174D01*
X60159Y421848D01*
X62500Y421382D01*
X64841Y421848D01*
X66826Y423174D01*
X68152Y425159D01*
X68618Y427500D01*
X68152Y429841D01*
X66826Y431826D01*
X64841Y433152D01*
X62500Y433618D01*
X60159Y433152D01*
X58174Y431826D01*
X58135Y431767D01*
X56865D01*
X56826Y431826D01*
X54841Y433152D01*
X54191Y433281D01*
X53486Y434337D01*
X53618Y435000D01*
X53152Y437341D01*
X51826Y439326D01*
X49841Y440652D01*
X49638Y441142D01*
X50652Y442659D01*
X51118Y445000D01*
X50652Y447341D01*
X49326Y449326D01*
X47341Y450652D01*
X46848Y450750D01*
X45000Y451118D01*
D02*
G37*
G36*
X-190000Y443618D02*
X-192341Y443152D01*
X-194326Y441826D01*
X-195652Y439841D01*
X-196118Y437500D01*
X-195652Y435159D01*
X-194326Y433174D01*
X-192341Y431848D01*
X-190000Y431382D01*
X-187659Y431848D01*
X-185674Y433174D01*
X-184348Y435159D01*
X-183883Y437500D01*
X-184348Y439841D01*
X-185674Y441826D01*
X-187659Y443152D01*
X-190000Y443618D01*
D02*
G37*
G36*
X-265000Y423618D02*
X-267341Y423152D01*
X-269326Y421826D01*
X-270652Y419841D01*
X-271118Y417500D01*
X-270652Y415159D01*
X-269326Y413174D01*
X-267341Y411848D01*
X-265000Y411382D01*
X-262659Y411848D01*
X-260674Y413174D01*
X-259348Y415159D01*
X-258883Y417500D01*
X-259348Y419841D01*
X-260674Y421826D01*
X-262659Y423152D01*
X-265000Y423618D01*
D02*
G37*
G36*
X-225000D02*
X-227341Y423152D01*
X-229326Y421826D01*
X-230652Y419841D01*
X-231118Y417500D01*
X-230652Y415159D01*
X-229326Y413174D01*
X-227341Y411848D01*
X-225000Y411382D01*
X-222659Y411848D01*
X-220674Y413174D01*
X-219348Y415159D01*
X-218883Y417500D01*
X-219348Y419841D01*
X-220674Y421826D01*
X-222659Y423152D01*
X-225000Y423618D01*
D02*
G37*
G36*
X-192500D02*
X-194841Y423152D01*
X-196826Y421826D01*
X-198152Y419841D01*
X-198618Y417500D01*
X-198152Y415159D01*
X-196826Y413174D01*
X-194841Y411848D01*
X-192500Y411382D01*
X-190159Y411848D01*
X-188174Y413174D01*
X-186848Y415159D01*
X-186383Y417500D01*
X-186848Y419841D01*
X-188174Y421826D01*
X-190159Y423152D01*
X-192500Y423618D01*
D02*
G37*
G36*
X-212500Y536118D02*
X-222500D01*
X-224510Y535718D01*
X-298152D01*
X-299322Y535485D01*
X-300315Y534822D01*
X-300978Y533829D01*
X-301211Y532659D01*
Y450751D01*
Y437500D01*
X-300978Y436329D01*
X-300315Y435337D01*
X-299322Y434674D01*
X-298152Y434441D01*
X-217582D01*
X-217581Y434441D01*
X-216411Y434674D01*
X-215418Y435337D01*
X-214520Y436235D01*
X-213857Y437228D01*
X-213624Y438398D01*
X-213624Y438398D01*
X-213625Y505484D01*
X-212727Y506382D01*
X-212500D01*
X-210159Y506848D01*
X-208174Y508174D01*
X-206848Y510159D01*
X-206383Y512500D01*
X-206848Y514841D01*
X-208174Y516826D01*
X-210159Y518152D01*
X-212500Y518618D01*
X-213625D01*
Y522984D01*
X-212727Y523882D01*
X-212500D01*
X-210159Y524348D01*
X-208174Y525674D01*
X-206848Y527659D01*
X-206383Y530000D01*
X-206848Y532341D01*
X-208174Y534326D01*
X-210159Y535652D01*
X-212500Y536118D01*
D02*
G37*
G36*
X74000D02*
X71659Y535652D01*
X69674Y534326D01*
X68348Y532341D01*
X67882Y530000D01*
X68348Y527659D01*
X69674Y525674D01*
X71659Y524348D01*
X74000Y523882D01*
X76341Y524348D01*
X78326Y525674D01*
X79652Y527659D01*
X80118Y530000D01*
X79652Y532341D01*
X78326Y534326D01*
X76341Y535652D01*
X74000Y536118D01*
D02*
G37*
G36*
X160000Y526118D02*
X157659Y525652D01*
X155674Y524326D01*
X154348Y522341D01*
X153882Y520000D01*
X154348Y517659D01*
X155674Y515674D01*
X157659Y514348D01*
X160000Y513882D01*
X162341Y514348D01*
X164326Y515674D01*
X165652Y517659D01*
X166117Y520000D01*
X165652Y522341D01*
X164326Y524326D01*
X162341Y525652D01*
X160000Y526118D01*
D02*
G37*
G36*
X18866Y539309D02*
X-72500D01*
X-73671Y539076D01*
X-74663Y538413D01*
X-75326Y537421D01*
X-75559Y536250D01*
Y479980D01*
X-75652Y479841D01*
X-76118Y477500D01*
X-75652Y475159D01*
X-75559Y475019D01*
Y450750D01*
Y435000D01*
X-75326Y433829D01*
X-74663Y432837D01*
X-73671Y432174D01*
X-72500Y431941D01*
X-24980D01*
X-24841Y431848D01*
X-22500Y431382D01*
X-20159Y431848D01*
X-20020Y431941D01*
X-14980D01*
X-14841Y431848D01*
X-12500Y431382D01*
X-10159Y431848D01*
X-10020Y431941D01*
X2500D01*
X2890Y432019D01*
X3287Y432044D01*
X3470Y432134D01*
X3670Y432174D01*
X4001Y432395D01*
X4358Y432570D01*
X4493Y432724D01*
X4663Y432837D01*
X4884Y433168D01*
X5146Y433466D01*
X5212Y433660D01*
X5326Y433829D01*
X5404Y434219D01*
X5532Y434596D01*
X7471Y449140D01*
X8152Y450159D01*
X8618Y452500D01*
X8199Y454602D01*
D01*
Y454602D01*
X10395Y471069D01*
X10708Y471382D01*
X27163Y487837D01*
X27826Y488829D01*
X28059Y490000D01*
X28059Y490000D01*
Y500019D01*
X28152Y500159D01*
X28617Y502500D01*
X28152Y504841D01*
X28059Y504980D01*
Y523379D01*
X28029Y523527D01*
X28044Y523679D01*
X27913Y524109D01*
X27826Y524549D01*
X27742Y524675D01*
X27698Y524821D01*
X27413Y525168D01*
X27163Y525542D01*
X27037Y525626D01*
X26940Y525743D01*
X25959Y526549D01*
X25825Y526620D01*
X25718Y526728D01*
X25302Y526900D01*
X24906Y527112D01*
X24755Y527126D01*
X24615Y527184D01*
X24166D01*
X23718Y527229D01*
X23573Y527184D01*
X23421D01*
X22500Y527001D01*
X21352Y527229D01*
X20380Y527879D01*
X19729Y528852D01*
X19501Y530000D01*
X19729Y531148D01*
X20380Y532121D01*
X20935Y532491D01*
X21042Y532599D01*
X21176Y532670D01*
X21461Y533018D01*
X21778Y533335D01*
X21837Y533475D01*
X21933Y533593D01*
X22063Y534023D01*
X22235Y534438D01*
Y534590D01*
X22279Y534735D01*
X22235Y535182D01*
X22235Y535631D01*
X22177Y535771D01*
X22162Y535923D01*
X21793Y537138D01*
X21722Y537272D01*
X21692Y537421D01*
X21443Y537794D01*
X21231Y538190D01*
X21114Y538287D01*
X21029Y538413D01*
X20656Y538662D01*
X20308Y538948D01*
X20163Y538992D01*
X20037Y539076D01*
X19596Y539164D01*
X19166Y539294D01*
X19015Y539279D01*
X18866Y539309D01*
D02*
G37*
G36*
X172500Y468618D02*
X170159Y468152D01*
X168174Y466826D01*
X166848Y464841D01*
X166382Y462500D01*
X166848Y460159D01*
X168174Y458174D01*
X170159Y456848D01*
X170362Y456358D01*
X169348Y454841D01*
X168882Y452500D01*
X169348Y450159D01*
X170674Y448174D01*
X172659Y446848D01*
X175000Y446382D01*
X175605Y446503D01*
X176503Y445605D01*
X176382Y445000D01*
X176848Y442659D01*
X178174Y440674D01*
X180159Y439348D01*
X180809Y439219D01*
X181514Y438163D01*
X181382Y437500D01*
X181848Y435159D01*
X183174Y433174D01*
X185159Y431848D01*
X187500Y431382D01*
X189841Y431848D01*
X191826Y433174D01*
X193152Y435159D01*
X193617Y437500D01*
X193152Y439841D01*
X191826Y441826D01*
X189841Y443152D01*
X189191Y443281D01*
X188486Y444337D01*
X188617Y445000D01*
X188152Y447341D01*
X186826Y449326D01*
X184841Y450652D01*
X182500Y451118D01*
X181895Y450997D01*
X180997Y451895D01*
X181117Y452500D01*
X180652Y454841D01*
X179326Y456826D01*
X177341Y458152D01*
X177138Y458642D01*
X178152Y460159D01*
X178617Y462500D01*
X178152Y464841D01*
X176826Y466826D01*
X174841Y468152D01*
X172500Y468618D01*
D02*
G37*
G36*
X280000Y443618D02*
X277659Y443152D01*
X275674Y441826D01*
X274348Y439841D01*
X273883Y437500D01*
X274348Y435159D01*
X275674Y433174D01*
X277659Y431848D01*
X280000Y431382D01*
X282341Y431848D01*
X284326Y433174D01*
X285652Y435159D01*
X286117Y437500D01*
X285652Y439841D01*
X284326Y441826D01*
X282341Y443152D01*
X280000Y443618D01*
D02*
G37*
%LPD*%
G36*
X-216683Y438398D02*
X-217581Y437500D01*
X-298152D01*
Y532659D01*
X-216684D01*
X-216683Y438398D01*
D02*
G37*
G36*
X19235Y535035D02*
X18174Y534326D01*
X16848Y532341D01*
X16382Y530000D01*
X16848Y527659D01*
X18174Y525674D01*
X20159Y524348D01*
X22500Y523882D01*
X24018Y524184D01*
X25000Y523379D01*
Y490000D01*
X7500Y472500D01*
X2500Y435000D01*
X-72500D01*
Y536250D01*
X18866D01*
X19235Y535035D01*
D02*
G37*
G36*
X85000Y742500D02*
Y729317D01*
X84348Y728341D01*
X84181Y727500D01*
X73317D01*
X72341Y728152D01*
X70000Y728617D01*
X67659Y728152D01*
X66683Y727500D01*
X53317D01*
X52341Y728152D01*
X50000Y728617D01*
X47659Y728152D01*
X46683Y727500D01*
X33317D01*
X32341Y728152D01*
X30000Y728617D01*
X27659Y728152D01*
X26683Y727500D01*
X-91689D01*
X-95000Y725000D01*
Y695000D01*
X-104123D01*
X-104610Y695325D01*
X-104611Y695326D01*
X-104611Y695326D01*
X-105170Y695437D01*
X-105780Y695559D01*
X-105781Y695559D01*
X-105782Y695559D01*
X-145000D01*
Y710000D01*
X-160879D01*
X-161684Y710982D01*
X-161383Y712500D01*
X-161848Y714841D01*
X-163174Y716826D01*
X-165159Y718152D01*
X-167500Y718617D01*
X-169841Y718152D01*
X-171826Y716826D01*
X-173152Y714841D01*
X-173618Y712500D01*
X-173316Y710982D01*
X-174121Y710000D01*
X-182500D01*
Y628317D01*
X-183152Y627341D01*
X-183618Y625000D01*
X-183152Y622659D01*
X-182500Y621683D01*
Y620000D01*
X-197500D01*
X-202500Y625000D01*
X-222500D01*
Y642500D01*
X-205000D01*
Y727500D01*
X-167500Y765000D01*
X62500D01*
X85000Y742500D01*
D02*
G37*
G36*
X-104884Y691602D02*
X-104911Y658436D01*
X-106341Y658152D01*
X-108326Y656826D01*
X-109652Y654841D01*
X-110118Y652500D01*
X-109652Y650159D01*
X-108326Y648174D01*
X-106341Y646848D01*
X-104921Y646565D01*
X-104944Y617780D01*
X-106341Y617502D01*
X-108326Y616176D01*
X-109652Y614191D01*
X-110118Y611850D01*
X-109652Y609509D01*
X-108326Y607524D01*
X-106341Y606198D01*
X-104953Y605922D01*
X-105000Y548500D01*
X-90000Y540000D01*
Y450000D01*
X-105000Y440000D01*
X-156601D01*
X-157498Y440899D01*
X-157293Y544593D01*
X-155674Y545674D01*
X-154348Y547659D01*
X-153883Y550000D01*
X-154348Y552341D01*
X-155674Y554326D01*
X-157272Y555393D01*
X-157254Y564619D01*
X-155674Y565674D01*
X-154348Y567659D01*
X-153883Y570000D01*
X-154348Y572341D01*
X-155674Y574326D01*
X-157232Y575367D01*
X-157214Y584645D01*
X-155674Y585674D01*
X-154348Y587659D01*
X-153883Y590000D01*
X-154348Y592341D01*
X-155674Y594326D01*
X-157193Y595340D01*
X-157174Y604672D01*
X-155674Y605674D01*
X-154348Y607659D01*
X-153883Y610000D01*
X-154348Y612341D01*
X-155674Y614326D01*
X-157153Y615314D01*
X-157001Y692500D01*
X-105782D01*
X-104884Y691602D01*
D02*
G37*
D22*
X252500Y722500D02*
D03*
X287500D02*
D03*
X242500D02*
D03*
X232500Y747500D02*
D03*
X225000Y795000D02*
D03*
X232500Y815000D02*
D03*
X247500D02*
D03*
X250000Y770000D02*
D03*
X300000Y657500D02*
D03*
X307500Y680000D02*
D03*
X225000Y765000D02*
D03*
X269727Y679727D02*
D03*
X270000Y660000D02*
D03*
X277000Y690898D02*
D03*
X265000Y652500D02*
D03*
X232500Y690000D02*
D03*
X260000D02*
D03*
X250000Y692500D02*
D03*
X300000Y367500D02*
D03*
X290000Y367500D02*
D03*
X200000Y390000D02*
D03*
Y405000D02*
D03*
X280000Y437500D02*
D03*
X330000Y450500D02*
D03*
X360000Y450000D02*
D03*
X329500Y427500D02*
D03*
X350000Y470000D02*
D03*
X318655Y-281250D02*
D03*
X318801Y-288853D02*
D03*
Y-296345D02*
D03*
X318853Y-303802D02*
D03*
X318801Y-311345D02*
D03*
X318853Y-318853D02*
D03*
X311345Y-318801D02*
D03*
X311294Y-311294D02*
D03*
X311345Y-303750D02*
D03*
X311294Y-296294D02*
D03*
Y-288802D02*
D03*
X311147Y-281199D02*
D03*
X304051Y-318801D02*
D03*
X304000Y-311294D02*
D03*
X304051Y-303750D02*
D03*
X304000Y-296294D02*
D03*
Y-288802D02*
D03*
X303853Y-281199D02*
D03*
X296345Y-318801D02*
D03*
X296294Y-311294D02*
D03*
X296345Y-303750D02*
D03*
X296294Y-296294D02*
D03*
Y-288802D02*
D03*
X296147Y-281199D02*
D03*
X288853Y-318801D02*
D03*
X288801Y-311294D02*
D03*
X288853Y-303750D02*
D03*
X288801Y-296294D02*
D03*
Y-288802D02*
D03*
X288655Y-281199D02*
D03*
X281345Y-318801D02*
D03*
X281294Y-311294D02*
D03*
X281345Y-303750D02*
D03*
X281294Y-296294D02*
D03*
Y-288802D02*
D03*
X281147Y-281199D02*
D03*
X318655Y-81250D02*
D03*
X318801Y-88853D02*
D03*
Y-96345D02*
D03*
X318853Y-103801D02*
D03*
X318801Y-111345D02*
D03*
X318853Y-118853D02*
D03*
X311345Y-118801D02*
D03*
X311294Y-111294D02*
D03*
X311345Y-103750D02*
D03*
X311294Y-96294D02*
D03*
Y-88801D02*
D03*
X311147Y-81199D02*
D03*
X304051Y-118801D02*
D03*
X304000Y-111294D02*
D03*
X304051Y-103750D02*
D03*
X304000Y-96294D02*
D03*
Y-88801D02*
D03*
X303853Y-81199D02*
D03*
X296345Y-118801D02*
D03*
X296294Y-111294D02*
D03*
X296345Y-103750D02*
D03*
X296294Y-96294D02*
D03*
Y-88801D02*
D03*
X296147Y-81199D02*
D03*
X288853Y-118801D02*
D03*
X288801Y-111294D02*
D03*
X288853Y-103750D02*
D03*
X288801Y-96294D02*
D03*
Y-88801D02*
D03*
X288655Y-81199D02*
D03*
X281345Y-118801D02*
D03*
X281294Y-111294D02*
D03*
X281345Y-103750D02*
D03*
X281294Y-96294D02*
D03*
Y-88801D02*
D03*
X281147Y-81199D02*
D03*
X318655Y118750D02*
D03*
X318801Y111147D02*
D03*
Y103655D02*
D03*
X318853Y96199D02*
D03*
X318801Y88655D02*
D03*
X318853Y81147D02*
D03*
X311345Y81199D02*
D03*
X311294Y88706D02*
D03*
X311345Y96250D02*
D03*
X311294Y103706D02*
D03*
Y111199D02*
D03*
X311147Y118801D02*
D03*
X304051Y81199D02*
D03*
X304000Y88706D02*
D03*
X304051Y96250D02*
D03*
X304000Y103706D02*
D03*
Y111199D02*
D03*
X303853Y118801D02*
D03*
X296345Y81199D02*
D03*
X296294Y88706D02*
D03*
X296345Y96250D02*
D03*
X296294Y103706D02*
D03*
Y111199D02*
D03*
X296147Y118801D02*
D03*
X288853Y81199D02*
D03*
X288801Y88706D02*
D03*
X288853Y96250D02*
D03*
X288801Y103706D02*
D03*
Y111199D02*
D03*
X288655Y118801D02*
D03*
X281345Y81199D02*
D03*
X281294Y88706D02*
D03*
X281345Y96250D02*
D03*
X281294Y103706D02*
D03*
Y111199D02*
D03*
X281147Y118801D02*
D03*
X318655Y318750D02*
D03*
X318801Y311147D02*
D03*
Y303655D02*
D03*
X318853Y296199D02*
D03*
X318801Y288655D02*
D03*
X318853Y281147D02*
D03*
X311345Y281199D02*
D03*
X311294Y288706D02*
D03*
X311345Y296250D02*
D03*
X311294Y303706D02*
D03*
Y311199D02*
D03*
X311147Y318801D02*
D03*
X304051Y281199D02*
D03*
X304000Y288706D02*
D03*
X304051Y296250D02*
D03*
X304000Y303706D02*
D03*
Y311199D02*
D03*
X303853Y318801D02*
D03*
X296345Y281199D02*
D03*
X296294Y288706D02*
D03*
X296345Y296250D02*
D03*
X296294Y303706D02*
D03*
Y311199D02*
D03*
X296147Y318801D02*
D03*
X288853Y281199D02*
D03*
X288801Y288706D02*
D03*
X288853Y296250D02*
D03*
X288801Y303706D02*
D03*
Y311199D02*
D03*
X288655Y318801D02*
D03*
X281345Y281199D02*
D03*
X281294Y288706D02*
D03*
X281345Y296250D02*
D03*
X281294Y303706D02*
D03*
Y311199D02*
D03*
X281147Y318801D02*
D03*
X81345Y281250D02*
D03*
X81199Y288853D02*
D03*
Y296345D02*
D03*
X81147Y303801D02*
D03*
X81199Y311345D02*
D03*
X81147Y318853D02*
D03*
X88655Y318801D02*
D03*
X88706Y311294D02*
D03*
X88655Y303750D02*
D03*
X88706Y296294D02*
D03*
Y288801D02*
D03*
X88853Y281199D02*
D03*
X95949Y318801D02*
D03*
X96000Y311294D02*
D03*
X95949Y303750D02*
D03*
X96000Y296294D02*
D03*
Y288801D02*
D03*
X96147Y281199D02*
D03*
X103655Y318801D02*
D03*
X103706Y311294D02*
D03*
X103655Y303750D02*
D03*
X103706Y296294D02*
D03*
Y288801D02*
D03*
X103853Y281199D02*
D03*
X111147Y318801D02*
D03*
X111199Y311294D02*
D03*
X111147Y303750D02*
D03*
X111199Y296294D02*
D03*
Y288801D02*
D03*
X111345Y281199D02*
D03*
X118655Y318801D02*
D03*
X118706Y311294D02*
D03*
X118655Y303750D02*
D03*
X118706Y296294D02*
D03*
Y288801D02*
D03*
X118853Y281199D02*
D03*
X81345Y81250D02*
D03*
X81199Y88853D02*
D03*
Y96345D02*
D03*
X81147Y103801D02*
D03*
X81199Y111345D02*
D03*
X81147Y118853D02*
D03*
X88655Y118801D02*
D03*
X88706Y111294D02*
D03*
X88655Y103750D02*
D03*
X88706Y96294D02*
D03*
Y88801D02*
D03*
X88853Y81199D02*
D03*
X95949Y118801D02*
D03*
X96000Y111294D02*
D03*
X95949Y103750D02*
D03*
X96000Y96294D02*
D03*
Y88801D02*
D03*
X96147Y81199D02*
D03*
X103655Y118801D02*
D03*
X103706Y111294D02*
D03*
X103655Y103750D02*
D03*
X103706Y96294D02*
D03*
Y88801D02*
D03*
X103853Y81199D02*
D03*
X111147Y118801D02*
D03*
X111199Y111294D02*
D03*
X111147Y103750D02*
D03*
X111199Y96294D02*
D03*
Y88801D02*
D03*
X111345Y81199D02*
D03*
X118655Y118801D02*
D03*
X118706Y111294D02*
D03*
X118655Y103750D02*
D03*
X118706Y96294D02*
D03*
Y88801D02*
D03*
X118853Y81199D02*
D03*
X81345Y-118750D02*
D03*
X81199Y-111147D02*
D03*
Y-103655D02*
D03*
X81147Y-96199D02*
D03*
X81199Y-88655D02*
D03*
X81147Y-81147D02*
D03*
X88655Y-81199D02*
D03*
X88706Y-88706D02*
D03*
X88655Y-96250D02*
D03*
X88706Y-103706D02*
D03*
Y-111199D02*
D03*
X88853Y-118801D02*
D03*
X95949Y-81199D02*
D03*
X96000Y-88706D02*
D03*
X95949Y-96250D02*
D03*
X96000Y-103706D02*
D03*
Y-111199D02*
D03*
X96147Y-118801D02*
D03*
X103655Y-81199D02*
D03*
X103706Y-88706D02*
D03*
X103655Y-96250D02*
D03*
X103706Y-103706D02*
D03*
Y-111199D02*
D03*
X103853Y-118801D02*
D03*
X111147Y-81199D02*
D03*
X111199Y-88706D02*
D03*
X111147Y-96250D02*
D03*
X111199Y-103706D02*
D03*
Y-111199D02*
D03*
X111345Y-118801D02*
D03*
X118655Y-81199D02*
D03*
X118706Y-88706D02*
D03*
X118655Y-96250D02*
D03*
X118706Y-103706D02*
D03*
Y-111199D02*
D03*
X118853Y-118801D02*
D03*
X81345Y-318750D02*
D03*
X81199Y-311147D02*
D03*
Y-303655D02*
D03*
X81147Y-296199D02*
D03*
X81199Y-288655D02*
D03*
X81147Y-281147D02*
D03*
X88655Y-281199D02*
D03*
X88706Y-288706D02*
D03*
X88655Y-296250D02*
D03*
X88706Y-303706D02*
D03*
Y-311199D02*
D03*
X88853Y-318801D02*
D03*
X95949Y-281199D02*
D03*
X96000Y-288706D02*
D03*
X95949Y-296250D02*
D03*
X96000Y-303706D02*
D03*
Y-311199D02*
D03*
X96147Y-318801D02*
D03*
X103655Y-281199D02*
D03*
X103706Y-288706D02*
D03*
X103655Y-296250D02*
D03*
X103706Y-303706D02*
D03*
Y-311199D02*
D03*
X103853Y-318801D02*
D03*
X111147Y-281199D02*
D03*
X111199Y-288706D02*
D03*
X111147Y-296250D02*
D03*
X111199Y-303706D02*
D03*
Y-311199D02*
D03*
X111345Y-318801D02*
D03*
X118655Y-281199D02*
D03*
X118706Y-288706D02*
D03*
X118655Y-296250D02*
D03*
X118706Y-303706D02*
D03*
Y-311199D02*
D03*
X118853Y-318801D02*
D03*
X-81345Y-281250D02*
D03*
X-81199Y-288853D02*
D03*
Y-296345D02*
D03*
X-81147Y-303802D02*
D03*
X-81199Y-311345D02*
D03*
X-81147Y-318853D02*
D03*
X-88655Y-318801D02*
D03*
X-88706Y-311294D02*
D03*
X-88655Y-303750D02*
D03*
X-88706Y-296294D02*
D03*
Y-288802D02*
D03*
X-88853Y-281199D02*
D03*
X-95949Y-318801D02*
D03*
X-96000Y-311294D02*
D03*
X-95949Y-303750D02*
D03*
X-96000Y-296294D02*
D03*
Y-288802D02*
D03*
X-96147Y-281199D02*
D03*
X-103655Y-318801D02*
D03*
X-103706Y-311294D02*
D03*
X-103655Y-303750D02*
D03*
X-103706Y-296294D02*
D03*
Y-288802D02*
D03*
X-103853Y-281199D02*
D03*
X-111147Y-318801D02*
D03*
X-111199Y-311294D02*
D03*
X-111147Y-303750D02*
D03*
X-111199Y-296294D02*
D03*
Y-288802D02*
D03*
X-111345Y-281199D02*
D03*
X-118655Y-318801D02*
D03*
X-118706Y-311294D02*
D03*
X-118655Y-303750D02*
D03*
X-118706Y-296294D02*
D03*
Y-288802D02*
D03*
X-118853Y-281199D02*
D03*
X-81345Y-81250D02*
D03*
X-81199Y-88853D02*
D03*
Y-96345D02*
D03*
X-81147Y-103801D02*
D03*
X-81199Y-111345D02*
D03*
X-81147Y-118853D02*
D03*
X-88655Y-118801D02*
D03*
X-88706Y-111294D02*
D03*
X-88655Y-103750D02*
D03*
X-88706Y-96294D02*
D03*
Y-88801D02*
D03*
X-88853Y-81199D02*
D03*
X-95949Y-118801D02*
D03*
X-96000Y-111294D02*
D03*
X-95949Y-103750D02*
D03*
X-96000Y-96294D02*
D03*
Y-88801D02*
D03*
X-96147Y-81199D02*
D03*
X-103655Y-118801D02*
D03*
X-103706Y-111294D02*
D03*
X-103655Y-103750D02*
D03*
X-103706Y-96294D02*
D03*
Y-88801D02*
D03*
X-103853Y-81199D02*
D03*
X-111147Y-118801D02*
D03*
X-111199Y-111294D02*
D03*
X-111147Y-103750D02*
D03*
X-111199Y-96294D02*
D03*
Y-88801D02*
D03*
X-111345Y-81199D02*
D03*
X-118655Y-118801D02*
D03*
X-118706Y-111294D02*
D03*
X-118655Y-103750D02*
D03*
X-118706Y-96294D02*
D03*
Y-88801D02*
D03*
X-118853Y-81199D02*
D03*
X-81345Y118750D02*
D03*
X-81199Y111147D02*
D03*
Y103655D02*
D03*
X-81147Y96199D02*
D03*
X-81199Y88655D02*
D03*
X-81147Y81147D02*
D03*
X-88655Y81199D02*
D03*
X-88706Y88706D02*
D03*
X-88655Y96250D02*
D03*
X-88706Y103706D02*
D03*
Y111199D02*
D03*
X-88853Y118801D02*
D03*
X-95949Y81199D02*
D03*
X-96000Y88706D02*
D03*
X-95949Y96250D02*
D03*
X-96000Y103706D02*
D03*
Y111199D02*
D03*
X-96147Y118801D02*
D03*
X-103655Y81199D02*
D03*
X-103706Y88706D02*
D03*
X-103655Y96250D02*
D03*
X-103706Y103706D02*
D03*
Y111199D02*
D03*
X-103853Y118801D02*
D03*
X-111147Y81199D02*
D03*
X-111199Y88706D02*
D03*
X-111147Y96250D02*
D03*
X-111199Y103706D02*
D03*
Y111199D02*
D03*
X-111345Y118801D02*
D03*
X-118655Y81199D02*
D03*
X-118706Y88706D02*
D03*
X-118655Y96250D02*
D03*
X-118706Y103706D02*
D03*
Y111199D02*
D03*
X-118853Y118801D02*
D03*
X-81345Y318750D02*
D03*
X-81199Y311147D02*
D03*
Y303655D02*
D03*
X-81147Y296199D02*
D03*
X-81199Y288655D02*
D03*
X-81147Y281147D02*
D03*
X-88655Y281199D02*
D03*
X-88706Y288706D02*
D03*
X-88655Y296250D02*
D03*
X-88706Y303706D02*
D03*
Y311199D02*
D03*
X-88853Y318801D02*
D03*
X-95949Y281199D02*
D03*
X-96000Y288706D02*
D03*
X-95949Y296250D02*
D03*
X-96000Y303706D02*
D03*
Y311199D02*
D03*
X-96147Y318801D02*
D03*
X-103655Y281199D02*
D03*
X-103706Y288706D02*
D03*
X-103655Y296250D02*
D03*
X-103706Y303706D02*
D03*
Y311199D02*
D03*
X-103853Y318801D02*
D03*
X-111147Y281199D02*
D03*
X-111199Y288706D02*
D03*
X-111147Y296250D02*
D03*
X-111199Y303706D02*
D03*
Y311199D02*
D03*
X-111345Y318801D02*
D03*
X-118655Y281199D02*
D03*
X-118706Y288706D02*
D03*
X-118655Y296250D02*
D03*
X-118706Y303706D02*
D03*
Y311199D02*
D03*
X-118853Y318801D02*
D03*
X-318655Y281250D02*
D03*
X-318801Y288853D02*
D03*
Y296345D02*
D03*
X-318853Y303801D02*
D03*
X-318801Y311345D02*
D03*
X-318853Y318853D02*
D03*
X-311345Y318801D02*
D03*
X-311294Y311294D02*
D03*
X-311345Y303750D02*
D03*
X-311294Y296294D02*
D03*
Y288801D02*
D03*
X-311147Y281199D02*
D03*
X-304051Y318801D02*
D03*
X-304000Y311294D02*
D03*
X-304051Y303750D02*
D03*
X-304000Y296294D02*
D03*
Y288801D02*
D03*
X-303853Y281199D02*
D03*
X-296345Y318801D02*
D03*
X-296294Y311294D02*
D03*
X-296345Y303750D02*
D03*
X-296294Y296294D02*
D03*
Y288801D02*
D03*
X-296147Y281199D02*
D03*
X-288853Y318801D02*
D03*
X-288801Y311294D02*
D03*
X-288853Y303750D02*
D03*
X-288801Y296294D02*
D03*
Y288801D02*
D03*
X-288655Y281199D02*
D03*
X-281345Y318801D02*
D03*
X-281294Y311294D02*
D03*
X-281345Y303750D02*
D03*
X-281294Y296294D02*
D03*
Y288801D02*
D03*
X-281147Y281199D02*
D03*
X-318655Y81250D02*
D03*
X-318801Y88853D02*
D03*
Y96345D02*
D03*
X-318853Y103801D02*
D03*
X-318801Y111345D02*
D03*
X-318853Y118853D02*
D03*
X-311345Y118801D02*
D03*
X-311294Y111294D02*
D03*
X-311345Y103750D02*
D03*
X-311294Y96294D02*
D03*
Y88801D02*
D03*
X-311147Y81199D02*
D03*
X-304051Y118801D02*
D03*
X-304000Y111294D02*
D03*
X-304051Y103750D02*
D03*
X-304000Y96294D02*
D03*
Y88801D02*
D03*
X-303853Y81199D02*
D03*
X-296345Y118801D02*
D03*
X-296294Y111294D02*
D03*
X-296345Y103750D02*
D03*
X-296294Y96294D02*
D03*
Y88801D02*
D03*
X-296147Y81199D02*
D03*
X-288853Y118801D02*
D03*
X-288801Y111294D02*
D03*
X-288853Y103750D02*
D03*
X-288801Y96294D02*
D03*
Y88801D02*
D03*
X-288655Y81199D02*
D03*
X-281345Y118801D02*
D03*
X-281294Y111294D02*
D03*
X-281345Y103750D02*
D03*
X-281294Y96294D02*
D03*
Y88801D02*
D03*
X-281147Y81199D02*
D03*
X-318655Y-118750D02*
D03*
X-318801Y-111147D02*
D03*
Y-103655D02*
D03*
X-318853Y-96199D02*
D03*
X-318801Y-88655D02*
D03*
X-318853Y-81147D02*
D03*
X-311345Y-81199D02*
D03*
X-311294Y-88706D02*
D03*
X-311345Y-96250D02*
D03*
X-311294Y-103706D02*
D03*
Y-111199D02*
D03*
X-311147Y-118801D02*
D03*
X-304051Y-81199D02*
D03*
X-304000Y-88706D02*
D03*
X-304051Y-96250D02*
D03*
X-304000Y-103706D02*
D03*
Y-111199D02*
D03*
X-303853Y-118801D02*
D03*
X-296345Y-81199D02*
D03*
X-296294Y-88706D02*
D03*
X-296345Y-96250D02*
D03*
X-296294Y-103706D02*
D03*
Y-111199D02*
D03*
X-296147Y-118801D02*
D03*
X-288853Y-81199D02*
D03*
X-288801Y-88706D02*
D03*
X-288853Y-96250D02*
D03*
X-288801Y-103706D02*
D03*
Y-111199D02*
D03*
X-288655Y-118801D02*
D03*
X-281345Y-81199D02*
D03*
X-281294Y-88706D02*
D03*
X-281345Y-96250D02*
D03*
X-281294Y-103706D02*
D03*
Y-111199D02*
D03*
X-281147Y-118801D02*
D03*
X-318655Y-318750D02*
D03*
X-318801Y-311147D02*
D03*
Y-303655D02*
D03*
X-318853Y-296199D02*
D03*
X-318801Y-288655D02*
D03*
X-318853Y-281147D02*
D03*
X-311345Y-281199D02*
D03*
X-311294Y-288706D02*
D03*
X-311345Y-296250D02*
D03*
X-311294Y-303706D02*
D03*
Y-311199D02*
D03*
X-311147Y-318801D02*
D03*
X-304051Y-281199D02*
D03*
X-304000Y-288706D02*
D03*
X-304051Y-296250D02*
D03*
X-304000Y-303706D02*
D03*
Y-311199D02*
D03*
X-303853Y-318801D02*
D03*
X-296345Y-281199D02*
D03*
X-296294Y-288706D02*
D03*
X-296345Y-296250D02*
D03*
X-296294Y-303706D02*
D03*
Y-311199D02*
D03*
X-296147Y-318801D02*
D03*
X-288853Y-281199D02*
D03*
X-288801Y-288706D02*
D03*
X-288853Y-296250D02*
D03*
X-288801Y-303706D02*
D03*
Y-311199D02*
D03*
X-288655Y-318801D02*
D03*
X-281345Y-281199D02*
D03*
X-281294Y-288706D02*
D03*
X-281345Y-296250D02*
D03*
X-281294Y-303706D02*
D03*
Y-311199D02*
D03*
X-281147Y-318801D02*
D03*
X-305000Y417500D02*
D03*
X-152500Y375000D02*
D03*
X-192500Y417500D02*
D03*
X-200000Y399000D02*
D03*
X-220000D02*
D03*
X-225000Y417500D02*
D03*
X-345000D02*
D03*
X-325000D02*
D03*
X-265000D02*
D03*
X-245000Y418000D02*
D03*
X-285000Y417500D02*
D03*
X-414950Y635750D02*
D03*
X280000Y585000D02*
D03*
X100000Y567500D02*
D03*
X112500Y595000D02*
D03*
X115000Y572500D02*
D03*
X87500Y607500D02*
D03*
X215000Y545000D02*
D03*
Y575000D02*
D03*
X397500Y577500D02*
D03*
X442500Y622500D02*
D03*
Y642500D02*
D03*
X415000Y625000D02*
D03*
Y642500D02*
D03*
X175000Y757500D02*
D03*
X147500Y742500D02*
D03*
X150000Y645000D02*
D03*
X185000Y650000D02*
D03*
X209000Y647000D02*
D03*
X408000Y702500D02*
D03*
X345000Y745000D02*
D03*
X375000Y765000D02*
D03*
X367500Y800000D02*
D03*
X297500Y762500D02*
D03*
X325000Y795000D02*
D03*
X260000Y810000D02*
D03*
X47500Y435000D02*
D03*
X90000Y782500D02*
D03*
X-75000Y780000D02*
D03*
X382500Y782500D02*
D03*
X437500Y492500D02*
D03*
X430000Y700000D02*
D03*
X440000Y558000D02*
D03*
X93000Y666000D02*
D03*
X179500Y795000D02*
D03*
X175000Y452500D02*
D03*
X182500Y445000D02*
D03*
X187500Y437500D02*
D03*
X-87500Y395000D02*
D03*
X185000Y768500D02*
D03*
X292500Y770000D02*
D03*
X113000Y667000D02*
D03*
X440000Y542000D02*
D03*
X280000Y377500D02*
D03*
X270074Y669926D02*
D03*
X182500Y415000D02*
D03*
X187500Y422500D02*
D03*
X225000Y682500D02*
D03*
X207500Y575000D02*
D03*
X-40000Y45500D02*
D03*
Y-154000D02*
D03*
X200000Y-360000D02*
D03*
Y-300000D02*
D03*
Y-260000D02*
D03*
Y-110000D02*
D03*
Y110000D02*
D03*
Y145000D02*
D03*
Y262500D02*
D03*
X192500Y257500D02*
D03*
X200000Y360000D02*
D03*
X-0Y410000D02*
D03*
Y360000D02*
D03*
Y300000D02*
D03*
Y310000D02*
D03*
Y252500D02*
D03*
Y290000D02*
D03*
Y110000D02*
D03*
Y90000D02*
D03*
Y60000D02*
D03*
Y-145000D02*
D03*
Y-260000D02*
D03*
Y-300000D02*
D03*
Y-360000D02*
D03*
X-200000D02*
D03*
Y-300000D02*
D03*
Y-382500D02*
D03*
Y-260000D02*
D03*
Y-90000D02*
D03*
Y60000D02*
D03*
Y90000D02*
D03*
Y110000D02*
D03*
Y140000D02*
D03*
Y260000D02*
D03*
Y290000D02*
D03*
Y305000D02*
D03*
Y340000D02*
D03*
Y370000D02*
D03*
X-112500Y400000D02*
D03*
X-40000Y-115000D02*
D03*
X-140000Y252500D02*
D03*
X-155000Y310000D02*
D03*
X-170000Y271500D02*
D03*
X-147501Y299998D02*
D03*
X-180000Y252500D02*
D03*
X180000Y347500D02*
D03*
X229501Y261000D02*
D03*
X87500Y385000D02*
D03*
X275000Y550000D02*
D03*
X172500Y462500D02*
D03*
X45000Y445000D02*
D03*
X300000Y542500D02*
D03*
X351000Y555500D02*
D03*
X300000Y752500D02*
D03*
X130000Y610000D02*
D03*
X37500Y360000D02*
D03*
X-140000Y-347500D02*
D03*
X-40000Y-315000D02*
D03*
X-62500Y-347500D02*
D03*
X-155000Y-290000D02*
D03*
X-110000Y-252500D02*
D03*
X-87500Y-212500D02*
D03*
X-147501Y-300002D02*
D03*
X-170000Y-256500D02*
D03*
X-180000Y-347500D02*
D03*
X-52500Y-222002D02*
D03*
X-122500Y-222500D02*
D03*
X-30000Y-256500D02*
D03*
Y-345000D02*
D03*
X-170000Y-328500D02*
D03*
X-127570Y-385000D02*
D03*
X-87500D02*
D03*
X-62500Y-385000D02*
D03*
X-170000Y-56500D02*
D03*
X-140000Y-147500D02*
D03*
X-62500D02*
D03*
X-155000Y-90000D02*
D03*
X-110000Y-52500D02*
D03*
X-87500Y-12500D02*
D03*
X-147501Y-100002D02*
D03*
X-180000Y-147500D02*
D03*
X-52500Y-22002D02*
D03*
X-122500Y-22500D02*
D03*
X-30000Y-56500D02*
D03*
X-170000Y-128500D02*
D03*
X-118570Y-176000D02*
D03*
X-87500Y-185000D02*
D03*
X-62500Y-185000D02*
D03*
X-118570Y24000D02*
D03*
X-62500Y15000D02*
D03*
X-87500Y15000D02*
D03*
X-62500Y215000D02*
D03*
X-87500Y215000D02*
D03*
X-117500Y224000D02*
D03*
X-170000Y143500D02*
D03*
X-169500Y71500D02*
D03*
X-180500Y52500D02*
D03*
X-30000Y143500D02*
D03*
X-122500Y177500D02*
D03*
X-52500Y177998D02*
D03*
X-147501Y99998D02*
D03*
X-87500Y187500D02*
D03*
X-110000Y147500D02*
D03*
X-155000Y110000D02*
D03*
X-62500Y52500D02*
D03*
X-40000Y85000D02*
D03*
X-140000Y52500D02*
D03*
X-40000Y285000D02*
D03*
X-62500Y252500D02*
D03*
X-110000Y347500D02*
D03*
X-170000Y343500D02*
D03*
X351500Y721000D02*
D03*
X410000Y730000D02*
D03*
X350000Y575000D02*
D03*
X332500Y350000D02*
D03*
X30000Y382500D02*
D03*
X-122500Y390000D02*
D03*
X-120000Y365000D02*
D03*
X-115000Y355000D02*
D03*
X-62500Y375000D02*
D03*
X-36500Y361998D02*
D03*
X-55000Y382500D02*
D03*
X-265000Y-420000D02*
D03*
X-312500Y-407500D02*
D03*
X-72500D02*
D03*
X-137500D02*
D03*
X-122500Y377500D02*
D03*
X-24000Y317500D02*
D03*
X-30000Y255000D02*
D03*
X132500Y-420000D02*
D03*
X87500Y-407500D02*
D03*
X327500D02*
D03*
X270000D02*
D03*
X322500Y350000D02*
D03*
X372500Y565000D02*
D03*
X260000Y252500D02*
D03*
X360000Y285000D02*
D03*
X337500Y252500D02*
D03*
X245000Y310000D02*
D03*
X290000Y347500D02*
D03*
X312500Y387500D02*
D03*
X252499Y299998D02*
D03*
X230000Y343500D02*
D03*
X347500Y377998D02*
D03*
X370000Y343500D02*
D03*
Y255000D02*
D03*
X230000Y271500D02*
D03*
X312500Y215000D02*
D03*
X337500Y215000D02*
D03*
X260000Y52500D02*
D03*
X360000Y85000D02*
D03*
X337500Y52500D02*
D03*
X245000Y110000D02*
D03*
X312500Y187500D02*
D03*
X252499Y99998D02*
D03*
X230000Y143500D02*
D03*
X221000Y52500D02*
D03*
X347500Y177998D02*
D03*
X277500Y177500D02*
D03*
X370000Y143500D02*
D03*
Y55000D02*
D03*
X230000Y71500D02*
D03*
X312500Y15000D02*
D03*
X337500Y15000D02*
D03*
X360000Y-115000D02*
D03*
X337500Y-147500D02*
D03*
X245000Y-90000D02*
D03*
X290000Y-52500D02*
D03*
X312500Y-12500D02*
D03*
X252499Y-100002D02*
D03*
X230000Y-56500D02*
D03*
X220000Y-147500D02*
D03*
X347500Y-22002D02*
D03*
X277500Y-22500D02*
D03*
X370000Y-56500D02*
D03*
Y-145000D02*
D03*
X230000Y-128500D02*
D03*
X312500Y-185000D02*
D03*
X337500Y-185000D02*
D03*
X360000Y-315000D02*
D03*
X337500Y-347500D02*
D03*
X245000Y-290000D02*
D03*
X290000Y-252500D02*
D03*
X312500Y-212500D02*
D03*
X230000Y-256500D02*
D03*
X220000Y-347500D02*
D03*
X347500Y-222002D02*
D03*
X277500Y-222500D02*
D03*
X370000Y-256500D02*
D03*
Y-345000D02*
D03*
X230000Y-328500D02*
D03*
X312500Y-385000D02*
D03*
X337500Y-385000D02*
D03*
X62500Y185000D02*
D03*
X87500Y185000D02*
D03*
X170000Y128500D02*
D03*
X30000Y145000D02*
D03*
Y56500D02*
D03*
X122500Y22500D02*
D03*
X52500Y22002D02*
D03*
X180000Y147500D02*
D03*
X170000Y56500D02*
D03*
X87500Y12500D02*
D03*
X110000Y52500D02*
D03*
X155000Y90000D02*
D03*
X62500Y147500D02*
D03*
X40000Y115000D02*
D03*
X140000Y147500D02*
D03*
X62500Y-15000D02*
D03*
X87500Y-15000D02*
D03*
X170000Y-71500D02*
D03*
X30000Y-55000D02*
D03*
Y-143500D02*
D03*
X122500Y-177500D02*
D03*
X52500Y-177998D02*
D03*
X180000Y-52500D02*
D03*
X170000Y-143500D02*
D03*
X147501Y-99998D02*
D03*
X87500Y-187500D02*
D03*
X110000Y-147500D02*
D03*
X155000Y-110000D02*
D03*
X62500Y-52500D02*
D03*
X40000Y-85000D02*
D03*
X140000Y-52500D02*
D03*
X62500Y-215000D02*
D03*
X87500Y-215000D02*
D03*
X170000Y-271500D02*
D03*
X30000Y-255000D02*
D03*
Y-343500D02*
D03*
X122500Y-377500D02*
D03*
X52500Y-377998D02*
D03*
X180000Y-252500D02*
D03*
X170000Y-343500D02*
D03*
X147501Y-299998D02*
D03*
X87500Y-387500D02*
D03*
X110000Y-347500D02*
D03*
X155000Y-310000D02*
D03*
X62500Y-252500D02*
D03*
X40000Y-285000D02*
D03*
X140000Y-252500D02*
D03*
X170000Y328500D02*
D03*
X30000Y345000D02*
D03*
Y256500D02*
D03*
X122500Y222500D02*
D03*
X52500Y222002D02*
D03*
X170000Y256500D02*
D03*
X87500Y212500D02*
D03*
X110000Y252500D02*
D03*
X155000Y290000D02*
D03*
X62500Y347500D02*
D03*
X40000Y315000D02*
D03*
X140000Y347500D02*
D03*
X-337500Y-215000D02*
D03*
X-312500Y-215000D02*
D03*
X-230000Y-271500D02*
D03*
X-370000Y-255000D02*
D03*
Y-343500D02*
D03*
X-277500Y-377500D02*
D03*
X-347500Y-377998D02*
D03*
X-220000Y-252500D02*
D03*
X-230000Y-343500D02*
D03*
X-252499Y-299998D02*
D03*
X-312500Y-387500D02*
D03*
X-290000Y-347500D02*
D03*
X-245000Y-310000D02*
D03*
X-360000Y-285000D02*
D03*
X-260000Y-252500D02*
D03*
X-345000Y383000D02*
D03*
X-325000Y382500D02*
D03*
X-230000Y328500D02*
D03*
X-370000Y345000D02*
D03*
Y256500D02*
D03*
X-277500Y222500D02*
D03*
X-347500Y222002D02*
D03*
X-220000Y347500D02*
D03*
X-230000Y256500D02*
D03*
X-252499Y300002D02*
D03*
X-312500Y212500D02*
D03*
X-245000Y290000D02*
D03*
X-337500Y347500D02*
D03*
X-360000Y315000D02*
D03*
X-337500Y185000D02*
D03*
X-312500Y185000D02*
D03*
X-230000Y128500D02*
D03*
X-370000Y145000D02*
D03*
Y56500D02*
D03*
X-277500Y22500D02*
D03*
X-347500Y22002D02*
D03*
X-220000Y147500D02*
D03*
X-230000Y56500D02*
D03*
X-252499Y100002D02*
D03*
X-312500Y12500D02*
D03*
X-290000Y52500D02*
D03*
X-245000Y90000D02*
D03*
X-337500Y147500D02*
D03*
X-360000Y115000D02*
D03*
X-260000Y147500D02*
D03*
X-337500Y-15000D02*
D03*
X-312500Y-15000D02*
D03*
X-230000Y-71500D02*
D03*
X-370000Y-55000D02*
D03*
Y-143500D02*
D03*
X-277500Y-177500D02*
D03*
X-347500Y-177998D02*
D03*
X-220000Y-52500D02*
D03*
X-230000Y-143500D02*
D03*
X-252499Y-99998D02*
D03*
X-312500Y-187500D02*
D03*
X-290000Y-147500D02*
D03*
X-245000Y-110000D02*
D03*
X-337500Y-52500D02*
D03*
X-360000Y-85000D02*
D03*
X-260000Y-52500D02*
D03*
X-290000Y252500D02*
D03*
X-281430Y-224000D02*
D03*
Y-24000D02*
D03*
Y176000D02*
D03*
Y376000D02*
D03*
X118570D02*
D03*
Y176000D02*
D03*
Y-24000D02*
D03*
Y-224000D02*
D03*
X162500Y297500D02*
D03*
X281430Y24000D02*
D03*
Y224000D02*
D03*
Y-176000D02*
D03*
Y-376000D02*
D03*
X260000Y-147500D02*
D03*
Y-376000D02*
D03*
X35000Y375000D02*
D03*
X-137500Y-385000D02*
D03*
X35000Y390000D02*
D03*
X252499Y-300002D02*
D03*
X-260000Y347500D02*
D03*
X-337500Y-252500D02*
D03*
X260000Y-347500D02*
D03*
X-200000Y-140000D02*
D03*
Y-112500D02*
D03*
X-0Y-102500D02*
D03*
X350000Y590000D02*
D03*
X92000Y645000D02*
D03*
X55000Y540000D02*
D03*
Y530000D02*
D03*
X92500Y560000D02*
D03*
X112500Y540000D02*
D03*
X-92500Y420000D02*
D03*
X-82500Y420500D02*
D03*
X77500Y595000D02*
D03*
Y583500D02*
D03*
X-393950Y608950D02*
D03*
X-424950Y645750D02*
D03*
X-414950D02*
D03*
X-404950D02*
D03*
X-409950Y650750D02*
D03*
X-419950D02*
D03*
Y640750D02*
D03*
X-409951Y640749D02*
D03*
X-404950Y635750D02*
D03*
X-424950Y655750D02*
D03*
X-414950D02*
D03*
X-404950D02*
D03*
X-432500Y652500D02*
D03*
Y640000D02*
D03*
X-409950Y630750D02*
D03*
X-424950Y625750D02*
D03*
X-404950D02*
D03*
X-409950Y580750D02*
D03*
X-404950Y585750D02*
D03*
X-424950D02*
D03*
X-432500Y595000D02*
D03*
X-409950Y590750D02*
D03*
X-410000Y547500D02*
D03*
X-404950Y595750D02*
D03*
X-409951Y600749D02*
D03*
X-419950Y600750D02*
D03*
X-407500Y515000D02*
D03*
X-405000Y530000D02*
D03*
X-410000Y522500D02*
D03*
X-402500Y480000D02*
D03*
X-429950Y550750D02*
D03*
X-419950D02*
D03*
X-429950Y560750D02*
D03*
X-419950Y580750D02*
D03*
X-404950Y575750D02*
D03*
X-414950D02*
D03*
X-424950D02*
D03*
Y555750D02*
D03*
X-409951Y560749D02*
D03*
X-409950Y570750D02*
D03*
X-404950Y565750D02*
D03*
X-387500Y495000D02*
D03*
Y505000D02*
D03*
X-380000Y522500D02*
D03*
X-392500Y490000D02*
D03*
X-370000Y522500D02*
D03*
X-397500Y505000D02*
D03*
X-350000Y532500D02*
D03*
X-385000Y527500D02*
D03*
X-392500Y470000D02*
D03*
X-387500Y455000D02*
D03*
Y485000D02*
D03*
X-392500Y480000D02*
D03*
X-387500Y465000D02*
D03*
X-392500Y500000D02*
D03*
Y460000D02*
D03*
X-397500Y515000D02*
D03*
X-402500Y500000D02*
D03*
X-370000Y532500D02*
D03*
X-402500Y490000D02*
D03*
X-397500Y495000D02*
D03*
X-360000Y522500D02*
D03*
X-402500Y520000D02*
D03*
X-397500Y485000D02*
D03*
X-402500Y510000D02*
D03*
X-365000Y527500D02*
D03*
X-390000Y532500D02*
D03*
X-345000Y527500D02*
D03*
X-397500Y525000D02*
D03*
X-375000Y527500D02*
D03*
X-397500Y475000D02*
D03*
X-360000Y532500D02*
D03*
X-340000Y522500D02*
D03*
X-350000D02*
D03*
X-390000D02*
D03*
X-397500Y465000D02*
D03*
X-392500Y510000D02*
D03*
X-410000Y537500D02*
D03*
X-407500Y505000D02*
D03*
X-397500Y532500D02*
D03*
X-434950Y555750D02*
D03*
X-412500Y530000D02*
D03*
X-419950Y560750D02*
D03*
X-355000Y527500D02*
D03*
X-380000Y532500D02*
D03*
X-404950Y555750D02*
D03*
X-402500Y537500D02*
D03*
X-414950Y555750D02*
D03*
Y565750D02*
D03*
X-425000Y542500D02*
D03*
X-424950Y565750D02*
D03*
X-440000Y570000D02*
D03*
X-419950Y570750D02*
D03*
X-432500Y570000D02*
D03*
X-440000Y582500D02*
D03*
X-420000Y535000D02*
D03*
X-430000Y537500D02*
D03*
X-417500Y542500D02*
D03*
X-432500Y582500D02*
D03*
X-419950Y590750D02*
D03*
X-414950Y585750D02*
D03*
X-432500Y545000D02*
D03*
X-419701Y525999D02*
D03*
X-439950Y627500D02*
D03*
Y640750D02*
D03*
X-424950Y635750D02*
D03*
X-402500Y547500D02*
D03*
X-419951Y620749D02*
D03*
X-417500Y517500D02*
D03*
X-414950Y625750D02*
D03*
X-415000Y507500D02*
D03*
X-440000Y652500D02*
D03*
Y550000D02*
D03*
X-422500Y682500D02*
D03*
X-434950Y675750D02*
D03*
X-395000Y540000D02*
D03*
X-419951Y660749D02*
D03*
X-430000Y669749D02*
D03*
X-419950Y670750D02*
D03*
X-440000Y595000D02*
D03*
X-395000Y550000D02*
D03*
X-414950Y665750D02*
D03*
X-434950D02*
D03*
X-424950D02*
D03*
X-439950Y670750D02*
D03*
Y680750D02*
D03*
X-409951Y669749D02*
D03*
X-434950Y685750D02*
D03*
X-409950Y660750D02*
D03*
X-404950Y665750D02*
D03*
X-410000Y676250D02*
D03*
X-422500D02*
D03*
X-410000Y682500D02*
D03*
X-190000Y550000D02*
D03*
X-227500Y505000D02*
D03*
X-190000Y497500D02*
D03*
Y520000D02*
D03*
X-160000Y550000D02*
D03*
X-166000Y520000D02*
D03*
X-190000Y530000D02*
D03*
X-160000Y570000D02*
D03*
X-172500Y497500D02*
D03*
X-190000Y477500D02*
D03*
Y457500D02*
D03*
X-427500Y530000D02*
D03*
X-432500Y627500D02*
D03*
X-424950Y615750D02*
D03*
X-419950Y630750D02*
D03*
Y610750D02*
D03*
X-410000Y495000D02*
D03*
X-414950Y615750D02*
D03*
X-409950Y620750D02*
D03*
Y610750D02*
D03*
X-404950Y615750D02*
D03*
Y605750D02*
D03*
X-429950Y610750D02*
D03*
X-439950D02*
D03*
X-424950Y605750D02*
D03*
X-434949Y615751D02*
D03*
X-424950Y595750D02*
D03*
X-414950D02*
D03*
Y605750D02*
D03*
X-215000Y355000D02*
D03*
X-160000Y610000D02*
D03*
Y590000D02*
D03*
X-225000Y672500D02*
D03*
X-192500Y647500D02*
D03*
X-177500Y612500D02*
D03*
Y625000D02*
D03*
X-167500Y665000D02*
D03*
Y712500D02*
D03*
X-177500Y690000D02*
D03*
X-197500Y642500D02*
D03*
X-212500Y690000D02*
D03*
X-50000Y730000D02*
D03*
X-215000Y670000D02*
D03*
X-177500Y667500D02*
D03*
X-65000Y744000D02*
D03*
X-30000Y730000D02*
D03*
X-0Y745000D02*
D03*
X10000Y730000D02*
D03*
X30000Y742500D02*
D03*
X70000Y740000D02*
D03*
X-20000Y745000D02*
D03*
X-0Y705000D02*
D03*
X-30000Y710000D02*
D03*
X-70000D02*
D03*
X-50000D02*
D03*
X-10000D02*
D03*
X10000D02*
D03*
X30000Y722500D02*
D03*
X50000D02*
D03*
X-95000Y780000D02*
D03*
X55000D02*
D03*
X45000Y778000D02*
D03*
X-65000D02*
D03*
X-115000Y780000D02*
D03*
X90000Y687500D02*
D03*
X112500Y712500D02*
D03*
X136500Y737500D02*
D03*
X50000Y740000D02*
D03*
X-172500Y477500D02*
D03*
X209000Y635000D02*
D03*
X257500Y477500D02*
D03*
X252500Y485000D02*
D03*
X242500Y500000D02*
D03*
X247500Y492500D02*
D03*
X207500D02*
D03*
X-387500Y475000D02*
D03*
X-262500Y522500D02*
D03*
X-242500Y447500D02*
D03*
X-227500Y442500D02*
D03*
X-287500Y485000D02*
D03*
Y455000D02*
D03*
Y465000D02*
D03*
Y475000D02*
D03*
Y495000D02*
D03*
X-237500Y527500D02*
D03*
X-292500Y480000D02*
D03*
X-237500Y442500D02*
D03*
X-292500Y490000D02*
D03*
X-227500Y475000D02*
D03*
X-222500Y460000D02*
D03*
Y490000D02*
D03*
X-227500Y495000D02*
D03*
X-247500Y442500D02*
D03*
X-267500D02*
D03*
X-222500Y470000D02*
D03*
Y480000D02*
D03*
X-227500Y465000D02*
D03*
X-262500Y447500D02*
D03*
X-227500Y485000D02*
D03*
X-277500Y442500D02*
D03*
X-227500Y455000D02*
D03*
X-272500Y522500D02*
D03*
X-247500Y527500D02*
D03*
X-282500Y522500D02*
D03*
X-252500Y447500D02*
D03*
X-292500Y470000D02*
D03*
X-257500Y442500D02*
D03*
X-282500Y447500D02*
D03*
X-220000Y442500D02*
D03*
X-257500Y527500D02*
D03*
X-292500Y460000D02*
D03*
X-242500Y522500D02*
D03*
X-252500D02*
D03*
X-232500D02*
D03*
X-287500Y515000D02*
D03*
X-292500Y450000D02*
D03*
Y510000D02*
D03*
X-267500Y527500D02*
D03*
X-272500Y447500D02*
D03*
X-292500Y522500D02*
D03*
X-287500Y527500D02*
D03*
X-222500Y450000D02*
D03*
X-292500Y500000D02*
D03*
X-287500Y505000D02*
D03*
X-232500Y447500D02*
D03*
X-60000Y492500D02*
D03*
X-12500Y527500D02*
D03*
X-17250Y522500D02*
D03*
X-60000Y502500D02*
D03*
X-37500Y522500D02*
D03*
X-47500D02*
D03*
X-2500Y517500D02*
D03*
X-65000Y507500D02*
D03*
X-22500Y527500D02*
D03*
X-60000Y512500D02*
D03*
X-52500Y527500D02*
D03*
X-32500D02*
D03*
X-42500D02*
D03*
X-57500Y522500D02*
D03*
X-27500D02*
D03*
X-2500Y507500D02*
D03*
Y497500D02*
D03*
X-60000Y477500D02*
D03*
X-124999Y605001D02*
D03*
Y595001D02*
D03*
X-134999D02*
D03*
X-144999Y615002D02*
D03*
X-134999Y605001D02*
D03*
X-149999Y610001D02*
D03*
X-139999D02*
D03*
X-114999Y605001D02*
D03*
Y615001D02*
D03*
X-119999Y610001D02*
D03*
Y620001D02*
D03*
X-124999Y615001D02*
D03*
X-144999Y605001D02*
D03*
X-129999Y610001D02*
D03*
Y630001D02*
D03*
X-134999Y615001D02*
D03*
X-144999Y625001D02*
D03*
X-139999Y620001D02*
D03*
X-120000Y682500D02*
D03*
X-132500Y676000D02*
D03*
X-114999Y665001D02*
D03*
X-119999Y660001D02*
D03*
X-149999Y680001D02*
D03*
Y670001D02*
D03*
X-134999Y665001D02*
D03*
X-144999D02*
D03*
X-124999D02*
D03*
X-139999Y660001D02*
D03*
X-144999Y595001D02*
D03*
X-129999Y670001D02*
D03*
X-139999D02*
D03*
X-130000Y660000D02*
D03*
X-144999Y655001D02*
D03*
Y675001D02*
D03*
X-132500Y682500D02*
D03*
X-120050Y676000D02*
D03*
X-149999Y660001D02*
D03*
Y650001D02*
D03*
X-144999Y645001D02*
D03*
X-124999Y625001D02*
D03*
X-139999Y630001D02*
D03*
X-130000Y620000D02*
D03*
X-144999Y635001D02*
D03*
X-134999D02*
D03*
X-149999Y640001D02*
D03*
Y630001D02*
D03*
Y620001D02*
D03*
X-144999Y585001D02*
D03*
X-124999D02*
D03*
X-129999Y590001D02*
D03*
X-139999Y580001D02*
D03*
X-144999Y575001D02*
D03*
X-149999Y600001D02*
D03*
Y590001D02*
D03*
Y580001D02*
D03*
X-139999Y570001D02*
D03*
X-129999D02*
D03*
X-149999D02*
D03*
X-134999Y565001D02*
D03*
X-144999D02*
D03*
X-124999D02*
D03*
Y555001D02*
D03*
X-119999Y550001D02*
D03*
X-114999Y555001D02*
D03*
Y545001D02*
D03*
X-109999Y550001D02*
D03*
X-129999Y560001D02*
D03*
X-144999Y545001D02*
D03*
Y555001D02*
D03*
X-149999Y540001D02*
D03*
Y550001D02*
D03*
Y560001D02*
D03*
X-119999Y520001D02*
D03*
X-124999Y525001D02*
D03*
X-114999D02*
D03*
X-105000Y545000D02*
D03*
X-109999Y520001D02*
D03*
X-119999Y530001D02*
D03*
X-129999D02*
D03*
X-109999D02*
D03*
X-124999Y535001D02*
D03*
X-114999D02*
D03*
X-119999Y540001D02*
D03*
X-109999D02*
D03*
X-144999Y525001D02*
D03*
X-134999D02*
D03*
X-139999Y530001D02*
D03*
X-144999Y535001D02*
D03*
X-134999D02*
D03*
X-149999Y530001D02*
D03*
Y520001D02*
D03*
X-129999D02*
D03*
X-139999D02*
D03*
X-114999Y565001D02*
D03*
X-119999Y570001D02*
D03*
X-120000Y560000D02*
D03*
X-134999Y555001D02*
D03*
Y575001D02*
D03*
X-124999D02*
D03*
X-114999D02*
D03*
X-129999Y580001D02*
D03*
X-139999Y560001D02*
D03*
X-129999Y550001D02*
D03*
X-139999D02*
D03*
X-124999Y545001D02*
D03*
X-134999D02*
D03*
X-129999Y540001D02*
D03*
X-139999D02*
D03*
X-129999Y600001D02*
D03*
X-120000Y600000D02*
D03*
X-114999Y595001D02*
D03*
X-139999Y600001D02*
D03*
X-119999Y590001D02*
D03*
X-139999D02*
D03*
X-134999Y585001D02*
D03*
X-114999D02*
D03*
X-119999Y580001D02*
D03*
X-114999Y625001D02*
D03*
X-134999D02*
D03*
X-119999Y630001D02*
D03*
X-139999Y640001D02*
D03*
Y650001D02*
D03*
X-114999Y655001D02*
D03*
X-124999D02*
D03*
X-134999D02*
D03*
X-114999Y635001D02*
D03*
X-120000Y640000D02*
D03*
X-129999Y640001D02*
D03*
Y650001D02*
D03*
X-119999D02*
D03*
X-114999Y645001D02*
D03*
X-124999D02*
D03*
X-134999D02*
D03*
X-124999Y635001D02*
D03*
X10000Y740000D02*
D03*
X-22500Y752000D02*
D03*
X-46000Y745000D02*
D03*
X-105000D02*
D03*
X-125000D02*
D03*
X-85000D02*
D03*
X-200000Y-60000D02*
D03*
Y-102500D02*
D03*
Y-315000D02*
D03*
Y-290000D02*
D03*
Y-347500D02*
D03*
Y-372500D02*
D03*
X-0Y-375000D02*
D03*
Y-290000D02*
D03*
Y-95000D02*
D03*
Y-110000D02*
D03*
X200000Y-315000D02*
D03*
Y-290000D02*
D03*
Y-350000D02*
D03*
Y-372500D02*
D03*
Y95000D02*
D03*
Y255000D02*
D03*
Y305000D02*
D03*
Y345000D02*
D03*
X-0D02*
D03*
X200000Y375000D02*
D03*
X-0Y260000D02*
D03*
X-200000Y355000D02*
D03*
Y297500D02*
D03*
Y252500D02*
D03*
X-10000Y740000D02*
D03*
X-106000Y667499D02*
D03*
X-120000Y710000D02*
D03*
X-124750Y705000D02*
D03*
Y715000D02*
D03*
Y725000D02*
D03*
X-129750Y720000D02*
D03*
Y710000D02*
D03*
X-119749Y719999D02*
D03*
X-114750Y725000D02*
D03*
Y715000D02*
D03*
Y705000D02*
D03*
X-134750D02*
D03*
Y715000D02*
D03*
Y725000D02*
D03*
X-139750Y720000D02*
D03*
Y710000D02*
D03*
Y700000D02*
D03*
X-129750D02*
D03*
X-119750D02*
D03*
X-109750Y710000D02*
D03*
Y720000D02*
D03*
Y700000D02*
D03*
X-104750Y715000D02*
D03*
Y705000D02*
D03*
Y725000D02*
D03*
X-99750Y720000D02*
D03*
Y710000D02*
D03*
Y700000D02*
D03*
X-120000Y442500D02*
D03*
X-100000Y465000D02*
D03*
Y475000D02*
D03*
X-95000Y480000D02*
D03*
X-100000Y485000D02*
D03*
X-95000Y520000D02*
D03*
X-100000Y495000D02*
D03*
X-130000Y480000D02*
D03*
X-140000Y442500D02*
D03*
X-95000Y470000D02*
D03*
Y490000D02*
D03*
X-105000Y525000D02*
D03*
X-100000Y505000D02*
D03*
Y515000D02*
D03*
Y540000D02*
D03*
X-105000Y535000D02*
D03*
X-95000Y510000D02*
D03*
Y500000D02*
D03*
Y460000D02*
D03*
X-100000Y455000D02*
D03*
Y530000D02*
D03*
X-130000Y442500D02*
D03*
X-60000Y447500D02*
D03*
Y457500D02*
D03*
X2500Y482500D02*
D03*
X-2500Y457500D02*
D03*
Y467500D02*
D03*
Y487500D02*
D03*
X-65000Y525000D02*
D03*
X-60000Y467500D02*
D03*
X2500Y492500D02*
D03*
X-65000Y517500D02*
D03*
X-7750Y522500D02*
D03*
X-27500Y442500D02*
D03*
X-22500Y447500D02*
D03*
X-65000Y462500D02*
D03*
X-42500Y447500D02*
D03*
X22500Y502500D02*
D03*
X-65000Y472500D02*
D03*
Y497500D02*
D03*
X-70000Y477500D02*
D03*
X12500Y502500D02*
D03*
X17500Y507500D02*
D03*
X-47500Y442500D02*
D03*
X12500Y492500D02*
D03*
X17500Y497500D02*
D03*
X-52500Y447500D02*
D03*
X-65000Y452500D02*
D03*
X-32500Y447500D02*
D03*
X-37500Y442500D02*
D03*
X-17500D02*
D03*
X-12500Y447500D02*
D03*
X-7750Y442500D02*
D03*
X2500Y452500D02*
D03*
X-22500Y437500D02*
D03*
X-125000Y447500D02*
D03*
X-115000D02*
D03*
X-145000D02*
D03*
X-135000D02*
D03*
X-77500Y567500D02*
D03*
X-86999Y581301D02*
D03*
X-94999Y568801D02*
D03*
X-86999D02*
D03*
X-75000Y580000D02*
D03*
X-94999Y581301D02*
D03*
X-81050Y595000D02*
D03*
X-85000Y615000D02*
D03*
X-87000Y640000D02*
D03*
X-95000Y627500D02*
D03*
X-87000D02*
D03*
X-65000Y635000D02*
D03*
X-95000Y640000D02*
D03*
X-43000Y658750D02*
D03*
X-53000D02*
D03*
X-42999Y652251D02*
D03*
X-52999D02*
D03*
X-48000Y655500D02*
D03*
X-53000Y665500D02*
D03*
X-43000D02*
D03*
X-48000Y662250D02*
D03*
X-81000Y646400D02*
D03*
Y633700D02*
D03*
X-75000Y625000D02*
D03*
X-75499Y640051D02*
D03*
X-81000Y621000D02*
D03*
Y587650D02*
D03*
Y574950D02*
D03*
X-72500Y572500D02*
D03*
Y592500D02*
D03*
X-81000Y562250D02*
D03*
X-82500Y697500D02*
D03*
Y690000D02*
D03*
X-52999Y672251D02*
D03*
X-48000Y669000D02*
D03*
X-43250Y672500D02*
D03*
X-86750Y679250D02*
D03*
X-80000D02*
D03*
X-93750D02*
D03*
X49557Y698863D02*
D03*
X55000Y680000D02*
D03*
X192500Y672500D02*
D03*
X-145000Y743750D02*
D03*
X-10000Y780000D02*
D03*
X45000Y745000D02*
D03*
X65000D02*
D03*
X-144999Y687501D02*
D03*
X-140000Y790000D02*
D03*
X-410000Y710749D02*
D03*
X-400000Y700749D02*
D03*
X-390000D02*
D03*
X-415000Y705749D02*
D03*
Y715749D02*
D03*
Y725749D02*
D03*
X-420000Y720749D02*
D03*
Y710749D02*
D03*
X-409999Y720749D02*
D03*
X-405000Y725749D02*
D03*
Y715749D02*
D03*
Y705749D02*
D03*
X-425000D02*
D03*
Y715749D02*
D03*
Y725749D02*
D03*
X-430000Y720749D02*
D03*
Y710749D02*
D03*
Y700749D02*
D03*
X-420000D02*
D03*
X-410000D02*
D03*
X-400000Y710749D02*
D03*
Y720749D02*
D03*
X-395000Y715749D02*
D03*
Y705749D02*
D03*
Y725749D02*
D03*
X-390000Y720749D02*
D03*
Y710749D02*
D03*
X-374951Y668000D02*
D03*
X-393950Y659750D02*
D03*
X-382500Y615000D02*
D03*
X-375000Y640000D02*
D03*
Y615000D02*
D03*
X-382451Y627500D02*
D03*
X-371000Y634300D02*
D03*
X-382500Y640000D02*
D03*
X-370000Y565000D02*
D03*
X-332950Y659500D02*
D03*
X-342950D02*
D03*
X-332949Y653001D02*
D03*
X-342949D02*
D03*
X-337950Y656250D02*
D03*
X-342950Y666250D02*
D03*
X-332950D02*
D03*
X-337950Y663000D02*
D03*
X-370950Y647150D02*
D03*
X-370000Y620000D02*
D03*
X-375000Y627500D02*
D03*
X-370000Y610000D02*
D03*
X-369950Y700000D02*
D03*
X-372500Y690000D02*
D03*
X-342949Y673001D02*
D03*
X-337950Y669750D02*
D03*
X-332949Y673001D02*
D03*
X-376700Y680000D02*
D03*
X-369950D02*
D03*
X-383700D02*
D03*
X-262500Y707364D02*
D03*
X-245000Y651751D02*
D03*
X-375000Y582500D02*
D03*
X-370000Y587500D02*
D03*
Y575000D02*
D03*
X-375000Y570000D02*
D03*
X-370000Y595000D02*
D03*
X-382500Y570000D02*
D03*
X-390000Y582500D02*
D03*
X-382500D02*
D03*
X-265750Y690250D02*
D03*
X-280249Y661751D02*
D03*
X407500Y545000D02*
D03*
Y536350D02*
D03*
X415000Y482000D02*
D03*
X388000Y467000D02*
D03*
X351000Y514000D02*
D03*
X207000Y603000D02*
D03*
X185000Y605000D02*
D03*
X200000Y500000D02*
D03*
X52500Y592500D02*
D03*
X125000Y667000D02*
D03*
X160000Y540000D02*
D03*
Y520000D02*
D03*
X127500D02*
D03*
Y540000D02*
D03*
X112500Y520000D02*
D03*
X92500Y540000D02*
D03*
Y520000D02*
D03*
X130000Y500000D02*
D03*
X154000Y490000D02*
D03*
X162500Y480000D02*
D03*
X137500Y482500D02*
D03*
X127500Y480000D02*
D03*
X92500D02*
D03*
X100000Y482500D02*
D03*
X87500Y490000D02*
D03*
X25000Y470000D02*
D03*
X67500D02*
D03*
X55000D02*
D03*
X2500Y472500D02*
D03*
Y502500D02*
D03*
X5000Y610000D02*
D03*
Y530000D02*
D03*
Y550000D02*
D03*
X90000Y530000D02*
D03*
X74000D02*
D03*
X91500Y550000D02*
D03*
X55000Y560000D02*
D03*
X39000Y550000D02*
D03*
X2500Y512500D02*
D03*
X5000Y590000D02*
D03*
X-37500Y592500D02*
D03*
X-75000Y612500D02*
D03*
X-52500Y592500D02*
D03*
X-81050Y607500D02*
D03*
X-72500Y632500D02*
D03*
X-37500Y637500D02*
D03*
X-17500D02*
D03*
X-37500Y612500D02*
D03*
X-17500Y605000D02*
D03*
X2500Y604500D02*
D03*
X40000Y530000D02*
D03*
X52500Y427500D02*
D03*
X62500D02*
D03*
X85000Y412500D02*
D03*
X75000Y417500D02*
D03*
X295000Y602500D02*
D03*
X370000Y655000D02*
D03*
X320000Y605000D02*
D03*
X332500Y545000D02*
D03*
X137500Y707500D02*
D03*
X127500Y746500D02*
D03*
X67500Y855000D02*
D03*
X68000Y835000D02*
D03*
X75000Y815000D02*
D03*
X70000Y803500D02*
D03*
X61000Y780000D02*
D03*
X105000Y777500D02*
D03*
X110000Y692500D02*
D03*
X127500D02*
D03*
X70000Y687500D02*
D03*
X-85000Y802500D02*
D03*
X-197500Y610000D02*
D03*
X-217500Y642500D02*
D03*
X-195000Y562500D02*
D03*
X-212500Y560000D02*
D03*
X-230000Y585000D02*
D03*
X-212500Y530000D02*
D03*
X-222500Y595000D02*
D03*
X-242500Y625000D02*
D03*
X-262500D02*
D03*
X-242500Y595000D02*
D03*
X-190000Y570000D02*
D03*
Y590000D02*
D03*
X-212500Y512500D02*
D03*
X-190000Y437500D02*
D03*
X-172500Y457500D02*
D03*
X-157500Y397500D02*
D03*
X-277500Y572500D02*
D03*
X-257500Y552000D02*
D03*
X-245000Y572500D02*
D03*
X-282500Y595000D02*
D03*
X-342500D02*
D03*
X-322500D02*
D03*
X-302500D02*
D03*
X-262500D02*
D03*
X-282500Y625000D02*
D03*
X-302500D02*
D03*
X-322451D02*
D03*
X-342500D02*
D03*
X87500Y470000D02*
D03*
X37500Y450000D02*
D03*
X72500Y647500D02*
D03*
X7500Y660000D02*
D03*
X22500Y530000D02*
D03*
X-125000Y778000D02*
D03*
X7500Y507500D02*
D03*
X-2500Y447500D02*
D03*
Y477500D02*
D03*
X7500Y497500D02*
D03*
X-0Y440000D02*
D03*
X-12500Y437500D02*
D03*
X2500Y462500D02*
D03*
X-381951Y667999D02*
D03*
X-389451D02*
D03*
X-396951Y668746D02*
D03*
X430500Y656500D02*
D03*
Y642750D02*
D03*
X430250Y629250D02*
D03*
X430750Y614000D02*
D03*
Y602000D02*
D03*
Y717250D02*
D03*
X431000Y742250D02*
D03*
X429750Y786500D02*
D03*
X411000D02*
D03*
X395250Y685500D02*
D03*
X372000Y663000D02*
D03*
X400250Y633750D02*
D03*
X392500Y642750D02*
D03*
X-245000Y672500D02*
D03*
X290000Y147500D02*
D03*
X147500Y100001D02*
D03*
X97500Y367500D02*
D03*
X202500Y770000D02*
D03*
X215000D02*
D03*
X215500Y560000D02*
D03*
X182500D02*
D03*
X356000Y509000D02*
D03*
X407500Y556500D02*
D03*
X412500Y675000D02*
D03*
X392500D02*
D03*
X430000Y568000D02*
D03*
X362500Y600000D02*
D03*
X355000Y675000D02*
D03*
X332500Y738500D02*
D03*
X317500D02*
D03*
X189998Y502498D02*
D03*
X220500Y512500D02*
D03*
X175000Y490000D02*
D03*
X-0Y100000D02*
D03*
X200000Y-102500D02*
D03*
Y-95000D02*
D03*
Y-140000D02*
D03*
X-0Y-337500D02*
D03*
Y-310000D02*
D03*
X200000Y-307500D02*
D03*
Y-380000D02*
D03*
Y60000D02*
D03*
Y87500D02*
D03*
Y102500D02*
D03*
X-0Y-347500D02*
D03*
X-200000Y100000D02*
D03*
X-437451Y754249D02*
D03*
X-417451D02*
D03*
X-397451D02*
D03*
X-437451Y772249D02*
D03*
X-417451D02*
D03*
X-397451D02*
D03*
X-370000Y602500D02*
D03*
X-390000Y570000D02*
D03*
X-98876Y667250D02*
D03*
X-85001D02*
D03*
X-104000Y652500D02*
D03*
X-92000Y667250D02*
D03*
X-57500Y635000D02*
D03*
X39000Y590000D02*
D03*
X37500Y610000D02*
D03*
X46500Y660000D02*
D03*
X47500Y685000D02*
D03*
X-175000Y645000D02*
D03*
X-120001Y668999D02*
D03*
X-387500Y515000D02*
D03*
X-277500Y527500D02*
D03*
X-222500Y500000D02*
D03*
Y510000D02*
D03*
X-227500Y515000D02*
D03*
X-222500Y520000D02*
D03*
X-104000Y611850D02*
D03*
X-285000Y382500D02*
D03*
X-365000D02*
D03*
X-305000D02*
D03*
X-225000Y385000D02*
D03*
X-265000D02*
D03*
X-245000D02*
D03*
X134500Y727500D02*
D03*
X90000Y726000D02*
D03*
X70000Y722500D02*
D03*
X-107500Y790000D02*
D03*
X162500Y710000D02*
D03*
X-202500Y492500D02*
D03*
X-36500Y411500D02*
D03*
X152500Y412500D02*
D03*
X-172500Y437500D02*
D03*
Y417500D02*
D03*
D50*
X-215000Y755000D02*
X-180000Y790000D01*
X-140000D01*
X-212500Y690000D02*
X-177500D01*
X-197500Y667500D02*
X-177500D01*
X-200000Y670000D02*
X-197500Y667500D01*
X-215000Y670000D02*
X-200000D01*
X-342351Y730749D02*
X-318100Y755000D01*
X-215000D01*
D51*
X-130000Y570000D02*
X-129751Y569751D01*
X-419701Y525749D02*
Y525999D01*
X-419950Y570750D02*
X-419701Y570501D01*
X-190000Y645000D02*
X-175000D01*
X-192500Y647500D02*
X-190000Y645000D01*
X-222500Y530000D02*
X-212500D01*
X-225000Y527500D02*
X-222500Y530000D01*
X-227500Y515000D02*
X-225000Y512500D01*
X-212500D01*
D58*
X-0Y-75000D02*
D03*
X200000Y325000D02*
D03*
X-0Y125000D02*
D03*
X-200000Y-275000D02*
D03*
Y125000D02*
D03*
X200000D02*
D03*
X-0Y325000D02*
D03*
X-200000D02*
D03*
Y-75000D02*
D03*
X200000D02*
D03*
Y-275000D02*
D03*
X-0D02*
D03*
D59*
Y-125000D02*
D03*
X200000Y275000D02*
D03*
X-0Y75000D02*
D03*
X-200000Y-325000D02*
D03*
Y75000D02*
D03*
X200000D02*
D03*
X-0Y275000D02*
D03*
X-200000D02*
D03*
Y-125000D02*
D03*
X200000D02*
D03*
Y-325000D02*
D03*
X-0D02*
D03*
D60*
X-110000Y830000D02*
D03*
X-200000Y200000D02*
D03*
Y-200000D02*
D03*
X200000Y200000D02*
D03*
Y-200000D02*
D03*
X-412500Y412500D02*
D03*
X412500D02*
D03*
X-412500Y-412500D02*
D03*
X412500D02*
D03*
X-412500Y825000D02*
D03*
X412500D02*
D03*
X-215400Y831600D02*
D03*
X-317000D02*
D03*
D61*
X-339951Y780749D02*
D03*
X-290000Y780000D02*
D03*
X-240000D02*
D03*
X-190000Y730000D02*
D03*
X-240800D02*
D03*
X-291600D02*
D03*
D62*
X170000Y835000D02*
D03*
X100000D02*
D03*
D63*
X400000Y653000D02*
D03*
Y609000D02*
D03*
D64*
X135000Y835000D02*
D03*
Y810000D02*
D03*
Y785000D02*
D03*
Y760000D02*
D03*
D65*
X-367800Y755400D02*
D03*
X-164600D02*
D03*
D66*
X-342400Y730000D02*
D03*
M02*
