%FSLAX44Y44*%
%MOMM*%
G71*
G01*
G75*
G04 Layer_Color=8421504*
G04:AMPARAMS|DCode=10|XSize=1mm|YSize=0.9mm|CornerRadius=0.198mm|HoleSize=0mm|Usage=FLASHONLY|Rotation=270.000|XOffset=0mm|YOffset=0mm|HoleType=Round|Shape=RoundedRectangle|*
%AMROUNDEDRECTD10*
21,1,1.0000,0.5040,0,0,270.0*
21,1,0.6040,0.9000,0,0,270.0*
1,1,0.3960,-0.2520,-0.3020*
1,1,0.3960,-0.2520,0.3020*
1,1,0.3960,0.2520,0.3020*
1,1,0.3960,0.2520,-0.3020*
%
%ADD10ROUNDEDRECTD10*%
G04:AMPARAMS|DCode=11|XSize=0.9mm|YSize=0.4mm|CornerRadius=0.15mm|HoleSize=0mm|Usage=FLASHONLY|Rotation=90.000|XOffset=0mm|YOffset=0mm|HoleType=Round|Shape=RoundedRectangle|*
%AMROUNDEDRECTD11*
21,1,0.9000,0.1000,0,0,90.0*
21,1,0.6000,0.4000,0,0,90.0*
1,1,0.3000,0.0500,0.3000*
1,1,0.3000,0.0500,-0.3000*
1,1,0.3000,-0.0500,-0.3000*
1,1,0.3000,-0.0500,0.3000*
%
%ADD11ROUNDEDRECTD11*%
%ADD12O,0.6000X1.5500*%
G04:AMPARAMS|DCode=13|XSize=1mm|YSize=0.9mm|CornerRadius=0.198mm|HoleSize=0mm|Usage=FLASHONLY|Rotation=0.000|XOffset=0mm|YOffset=0mm|HoleType=Round|Shape=RoundedRectangle|*
%AMROUNDEDRECTD13*
21,1,1.0000,0.5040,0,0,0.0*
21,1,0.6040,0.9000,0,0,0.0*
1,1,0.3960,0.3020,-0.2520*
1,1,0.3960,-0.3020,-0.2520*
1,1,0.3960,-0.3020,0.2520*
1,1,0.3960,0.3020,0.2520*
%
%ADD13ROUNDEDRECTD13*%
G04:AMPARAMS|DCode=14|XSize=1.05mm|YSize=0.65mm|CornerRadius=0.2015mm|HoleSize=0mm|Usage=FLASHONLY|Rotation=0.000|XOffset=0mm|YOffset=0mm|HoleType=Round|Shape=RoundedRectangle|*
%AMROUNDEDRECTD14*
21,1,1.0500,0.2470,0,0,0.0*
21,1,0.6470,0.6500,0,0,0.0*
1,1,0.4030,0.3235,-0.1235*
1,1,0.4030,-0.3235,-0.1235*
1,1,0.4030,-0.3235,0.1235*
1,1,0.4030,0.3235,0.1235*
%
%ADD14ROUNDEDRECTD14*%
G04:AMPARAMS|DCode=15|XSize=1mm|YSize=0.95mm|CornerRadius=0.1995mm|HoleSize=0mm|Usage=FLASHONLY|Rotation=180.000|XOffset=0mm|YOffset=0mm|HoleType=Round|Shape=RoundedRectangle|*
%AMROUNDEDRECTD15*
21,1,1.0000,0.5510,0,0,180.0*
21,1,0.6010,0.9500,0,0,180.0*
1,1,0.3990,-0.3005,0.2755*
1,1,0.3990,0.3005,0.2755*
1,1,0.3990,0.3005,-0.2755*
1,1,0.3990,-0.3005,-0.2755*
%
%ADD15ROUNDEDRECTD15*%
%ADD16C,0.4000*%
%ADD17O,0.8500X0.2500*%
%ADD18O,0.2500X0.8500*%
G04:AMPARAMS|DCode=19|XSize=1mm|YSize=0.95mm|CornerRadius=0.1995mm|HoleSize=0mm|Usage=FLASHONLY|Rotation=90.000|XOffset=0mm|YOffset=0mm|HoleType=Round|Shape=RoundedRectangle|*
%AMROUNDEDRECTD19*
21,1,1.0000,0.5510,0,0,90.0*
21,1,0.6010,0.9500,0,0,90.0*
1,1,0.3990,0.2755,0.3005*
1,1,0.3990,0.2755,-0.3005*
1,1,0.3990,-0.2755,-0.3005*
1,1,0.3990,-0.2755,0.3005*
%
%ADD19ROUNDEDRECTD19*%
G04:AMPARAMS|DCode=20|XSize=1.45mm|YSize=1.15mm|CornerRadius=0.2013mm|HoleSize=0mm|Usage=FLASHONLY|Rotation=270.000|XOffset=0mm|YOffset=0mm|HoleType=Round|Shape=RoundedRectangle|*
%AMROUNDEDRECTD20*
21,1,1.4500,0.7475,0,0,270.0*
21,1,1.0475,1.1500,0,0,270.0*
1,1,0.4025,-0.3738,-0.5238*
1,1,0.4025,-0.3738,0.5238*
1,1,0.4025,0.3738,0.5238*
1,1,0.4025,0.3738,-0.5238*
%
%ADD20ROUNDEDRECTD20*%
G04:AMPARAMS|DCode=21|XSize=1.45mm|YSize=1.15mm|CornerRadius=0.2013mm|HoleSize=0mm|Usage=FLASHONLY|Rotation=0.000|XOffset=0mm|YOffset=0mm|HoleType=Round|Shape=RoundedRectangle|*
%AMROUNDEDRECTD21*
21,1,1.4500,0.7475,0,0,0.0*
21,1,1.0475,1.1500,0,0,0.0*
1,1,0.4025,0.5238,-0.3738*
1,1,0.4025,-0.5238,-0.3738*
1,1,0.4025,-0.5238,0.3738*
1,1,0.4025,0.5238,0.3738*
%
%ADD21ROUNDEDRECTD21*%
%ADD22C,0.6000*%
%ADD23O,1.3500X0.5000*%
G04:AMPARAMS|DCode=24|XSize=1.75mm|YSize=1.05mm|CornerRadius=0.1995mm|HoleSize=0mm|Usage=FLASHONLY|Rotation=90.000|XOffset=0mm|YOffset=0mm|HoleType=Round|Shape=RoundedRectangle|*
%AMROUNDEDRECTD24*
21,1,1.7500,0.6510,0,0,90.0*
21,1,1.3510,1.0500,0,0,90.0*
1,1,0.3990,0.3255,0.6755*
1,1,0.3990,0.3255,-0.6755*
1,1,0.3990,-0.3255,-0.6755*
1,1,0.3990,-0.3255,0.6755*
%
%ADD24ROUNDEDRECTD24*%
G04:AMPARAMS|DCode=25|XSize=1.75mm|YSize=1.05mm|CornerRadius=0.1995mm|HoleSize=0mm|Usage=FLASHONLY|Rotation=0.000|XOffset=0mm|YOffset=0mm|HoleType=Round|Shape=RoundedRectangle|*
%AMROUNDEDRECTD25*
21,1,1.7500,0.6510,0,0,0.0*
21,1,1.3510,1.0500,0,0,0.0*
1,1,0.3990,0.6755,-0.3255*
1,1,0.3990,-0.6755,-0.3255*
1,1,0.3990,-0.6755,0.3255*
1,1,0.3990,0.6755,0.3255*
%
%ADD25ROUNDEDRECTD25*%
%ADD26O,1.5500X0.6000*%
%ADD27O,0.5000X1.3500*%
G04:AMPARAMS|DCode=28|XSize=6.5mm|YSize=5mm|CornerRadius=0.25mm|HoleSize=0mm|Usage=FLASHONLY|Rotation=90.000|XOffset=0mm|YOffset=0mm|HoleType=Round|Shape=RoundedRectangle|*
%AMROUNDEDRECTD28*
21,1,6.5000,4.5000,0,0,90.0*
21,1,6.0000,5.0000,0,0,90.0*
1,1,0.5000,2.2500,3.0000*
1,1,0.5000,2.2500,-3.0000*
1,1,0.5000,-2.2500,-3.0000*
1,1,0.5000,-2.2500,3.0000*
%
%ADD28ROUNDEDRECTD28*%
%ADD29C,1.3000*%
%ADD30R,1.3000X1.3000*%
G04:AMPARAMS|DCode=31|XSize=4.9mm|YSize=1.6mm|CornerRadius=0.2mm|HoleSize=0mm|Usage=FLASHONLY|Rotation=180.000|XOffset=0mm|YOffset=0mm|HoleType=Round|Shape=RoundedRectangle|*
%AMROUNDEDRECTD31*
21,1,4.9000,1.2000,0,0,180.0*
21,1,4.5000,1.6000,0,0,180.0*
1,1,0.4000,-2.2500,0.6000*
1,1,0.4000,2.2500,0.6000*
1,1,0.4000,2.2500,-0.6000*
1,1,0.4000,-2.2500,-0.6000*
%
%ADD31ROUNDEDRECTD31*%
%ADD32O,1.5000X0.3000*%
%ADD33O,0.3000X1.5000*%
%ADD34C,1.0000*%
G04:AMPARAMS|DCode=35|XSize=1.1mm|YSize=0.6mm|CornerRadius=0.201mm|HoleSize=0mm|Usage=FLASHONLY|Rotation=270.000|XOffset=0mm|YOffset=0mm|HoleType=Round|Shape=RoundedRectangle|*
%AMROUNDEDRECTD35*
21,1,1.1000,0.1980,0,0,270.0*
21,1,0.6980,0.6000,0,0,270.0*
1,1,0.4020,-0.0990,-0.3490*
1,1,0.4020,-0.0990,0.3490*
1,1,0.4020,0.0990,0.3490*
1,1,0.4020,0.0990,-0.3490*
%
%ADD35ROUNDEDRECTD35*%
G04:AMPARAMS|DCode=36|XSize=2.5mm|YSize=2mm|CornerRadius=0.2mm|HoleSize=0mm|Usage=FLASHONLY|Rotation=180.000|XOffset=0mm|YOffset=0mm|HoleType=Round|Shape=RoundedRectangle|*
%AMROUNDEDRECTD36*
21,1,2.5000,1.6000,0,0,180.0*
21,1,2.1000,2.0000,0,0,180.0*
1,1,0.4000,-1.0500,0.8000*
1,1,0.4000,1.0500,0.8000*
1,1,0.4000,1.0500,-0.8000*
1,1,0.4000,-1.0500,-0.8000*
%
%ADD36ROUNDEDRECTD36*%
G04:AMPARAMS|DCode=37|XSize=2.3mm|YSize=0.5mm|CornerRadius=0.2mm|HoleSize=0mm|Usage=FLASHONLY|Rotation=180.000|XOffset=0mm|YOffset=0mm|HoleType=Round|Shape=RoundedRectangle|*
%AMROUNDEDRECTD37*
21,1,2.3000,0.1000,0,0,180.0*
21,1,1.9000,0.5000,0,0,180.0*
1,1,0.4000,-0.9500,0.0500*
1,1,0.4000,0.9500,0.0500*
1,1,0.4000,0.9500,-0.0500*
1,1,0.4000,-0.9500,-0.0500*
%
%ADD37ROUNDEDRECTD37*%
G04:AMPARAMS|DCode=38|XSize=1mm|YSize=0.45mm|CornerRadius=0.1125mm|HoleSize=0mm|Usage=FLASHONLY|Rotation=0.000|XOffset=0mm|YOffset=0mm|HoleType=Round|Shape=RoundedRectangle|*
%AMROUNDEDRECTD38*
21,1,1.0000,0.2250,0,0,0.0*
21,1,0.7750,0.4500,0,0,0.0*
1,1,0.2250,0.3875,-0.1125*
1,1,0.2250,-0.3875,-0.1125*
1,1,0.2250,-0.3875,0.1125*
1,1,0.2250,0.3875,0.1125*
%
%ADD38ROUNDEDRECTD38*%
G04:AMPARAMS|DCode=39|XSize=1.35mm|YSize=1.65mm|CornerRadius=0.27mm|HoleSize=0mm|Usage=FLASHONLY|Rotation=90.000|XOffset=0mm|YOffset=0mm|HoleType=Round|Shape=RoundedRectangle|*
%AMROUNDEDRECTD39*
21,1,1.3500,1.1100,0,0,90.0*
21,1,0.8100,1.6500,0,0,90.0*
1,1,0.5400,0.5550,0.4050*
1,1,0.5400,0.5550,-0.4050*
1,1,0.5400,-0.5550,-0.4050*
1,1,0.5400,-0.5550,0.4050*
%
%ADD39ROUNDEDRECTD39*%
G04:AMPARAMS|DCode=40|XSize=0.7mm|YSize=0.25mm|CornerRadius=0.0838mm|HoleSize=0mm|Usage=FLASHONLY|Rotation=0.000|XOffset=0mm|YOffset=0mm|HoleType=Round|Shape=RoundedRectangle|*
%AMROUNDEDRECTD40*
21,1,0.7000,0.0825,0,0,0.0*
21,1,0.5325,0.2500,0,0,0.0*
1,1,0.1675,0.2662,-0.0413*
1,1,0.1675,-0.2662,-0.0413*
1,1,0.1675,-0.2662,0.0413*
1,1,0.1675,0.2662,0.0413*
%
%ADD40ROUNDEDRECTD40*%
G04:AMPARAMS|DCode=41|XSize=3mm|YSize=1.65mm|CornerRadius=0.1073mm|HoleSize=0mm|Usage=FLASHONLY|Rotation=90.000|XOffset=0mm|YOffset=0mm|HoleType=Round|Shape=RoundedRectangle|*
%AMROUNDEDRECTD41*
21,1,3.0000,1.4355,0,0,90.0*
21,1,2.7855,1.6500,0,0,90.0*
1,1,0.2145,0.7178,1.3927*
1,1,0.2145,0.7178,-1.3927*
1,1,0.2145,-0.7178,-1.3927*
1,1,0.2145,-0.7178,1.3927*
%
%ADD41ROUNDEDRECTD41*%
G04:AMPARAMS|DCode=42|XSize=1.2mm|YSize=1.2mm|CornerRadius=0.198mm|HoleSize=0mm|Usage=FLASHONLY|Rotation=0.000|XOffset=0mm|YOffset=0mm|HoleType=Round|Shape=RoundedRectangle|*
%AMROUNDEDRECTD42*
21,1,1.2000,0.8040,0,0,0.0*
21,1,0.8040,1.2000,0,0,0.0*
1,1,0.3960,0.4020,-0.4020*
1,1,0.3960,-0.4020,-0.4020*
1,1,0.3960,-0.4020,0.4020*
1,1,0.3960,0.4020,0.4020*
%
%ADD42ROUNDEDRECTD42*%
G04:AMPARAMS|DCode=43|XSize=1.2mm|YSize=1.2mm|CornerRadius=0.198mm|HoleSize=0mm|Usage=FLASHONLY|Rotation=270.000|XOffset=0mm|YOffset=0mm|HoleType=Round|Shape=RoundedRectangle|*
%AMROUNDEDRECTD43*
21,1,1.2000,0.8040,0,0,270.0*
21,1,0.8040,1.2000,0,0,270.0*
1,1,0.3960,-0.4020,-0.4020*
1,1,0.3960,-0.4020,0.4020*
1,1,0.3960,0.4020,0.4020*
1,1,0.3960,0.4020,-0.4020*
%
%ADD43ROUNDEDRECTD43*%
G04:AMPARAMS|DCode=44|XSize=6.45mm|YSize=6mm|CornerRadius=0.21mm|HoleSize=0mm|Usage=FLASHONLY|Rotation=90.000|XOffset=0mm|YOffset=0mm|HoleType=Round|Shape=RoundedRectangle|*
%AMROUNDEDRECTD44*
21,1,6.4500,5.5800,0,0,90.0*
21,1,6.0300,6.0000,0,0,90.0*
1,1,0.4200,2.7900,3.0150*
1,1,0.4200,2.7900,-3.0150*
1,1,0.4200,-2.7900,-3.0150*
1,1,0.4200,-2.7900,3.0150*
%
%ADD44ROUNDEDRECTD44*%
G04:AMPARAMS|DCode=45|XSize=2.85mm|YSize=1mm|CornerRadius=0.2mm|HoleSize=0mm|Usage=FLASHONLY|Rotation=90.000|XOffset=0mm|YOffset=0mm|HoleType=Round|Shape=RoundedRectangle|*
%AMROUNDEDRECTD45*
21,1,2.8500,0.6000,0,0,90.0*
21,1,2.4500,1.0000,0,0,90.0*
1,1,0.4000,0.3000,1.2250*
1,1,0.4000,0.3000,-1.2250*
1,1,0.4000,-0.3000,-1.2250*
1,1,0.4000,-0.3000,1.2250*
%
%ADD45ROUNDEDRECTD45*%
G04:AMPARAMS|DCode=46|XSize=3.95mm|YSize=1.5mm|CornerRadius=0.2475mm|HoleSize=0mm|Usage=FLASHONLY|Rotation=90.000|XOffset=0mm|YOffset=0mm|HoleType=Round|Shape=RoundedRectangle|*
%AMROUNDEDRECTD46*
21,1,3.9500,1.0050,0,0,90.0*
21,1,3.4550,1.5000,0,0,90.0*
1,1,0.4950,0.5025,1.7275*
1,1,0.4950,0.5025,-1.7275*
1,1,0.4950,-0.5025,-1.7275*
1,1,0.4950,-0.5025,1.7275*
%
%ADD46ROUNDEDRECTD46*%
G04:AMPARAMS|DCode=47|XSize=6.4mm|YSize=10.5mm|CornerRadius=0.128mm|HoleSize=0mm|Usage=FLASHONLY|Rotation=90.000|XOffset=0mm|YOffset=0mm|HoleType=Round|Shape=RoundedRectangle|*
%AMROUNDEDRECTD47*
21,1,6.4000,10.2440,0,0,90.0*
21,1,6.1440,10.5000,0,0,90.0*
1,1,0.2560,5.1220,3.0720*
1,1,0.2560,5.1220,-3.0720*
1,1,0.2560,-5.1220,-3.0720*
1,1,0.2560,-5.1220,3.0720*
%
%ADD47ROUNDEDRECTD47*%
%ADD48C,0.2500*%
%ADD49C,0.3000*%
%ADD50C,0.5000*%
%ADD51C,0.6000*%
%ADD52C,0.2540*%
%ADD53C,1.0000*%
%ADD54C,0.4000*%
%ADD55C,0.4500*%
%ADD56C,0.8000*%
%ADD57C,0.5500*%
%ADD58C,1.6000*%
%ADD59R,1.6000X1.6000*%
%ADD60C,6.0000*%
%ADD61C,3.0000*%
%ADD62C,2.0000*%
%ADD63C,0.5000*%
%ADD64C,1.8500*%
%ADD65C,3.5000*%
%ADD66C,2.3000*%
%ADD67C,2.0000*%
%ADD68C,1.8000*%
%ADD69C,0.0000*%
G36*
X-90000Y-95000D02*
X-95000D01*
Y-90000D01*
X-90000D01*
Y-95000D01*
D02*
G37*
G36*
X-82500D02*
X-87500D01*
Y-90000D01*
X-82500D01*
Y-95000D01*
D02*
G37*
G36*
X-75000D02*
X-80000D01*
Y-90000D01*
X-75000D01*
Y-95000D01*
D02*
G37*
G36*
X-97500D02*
X-102500D01*
Y-90000D01*
X-97500D01*
Y-95000D01*
D02*
G37*
G36*
X-120000D02*
X-125000D01*
Y-90000D01*
X-120000D01*
Y-95000D01*
D02*
G37*
G36*
X-112500D02*
X-117500D01*
Y-90000D01*
X-112500D01*
Y-95000D01*
D02*
G37*
G36*
X-105000D02*
X-110000D01*
Y-90000D01*
X-105000D01*
Y-95000D01*
D02*
G37*
G36*
X310000D02*
X305000D01*
Y-90000D01*
X310000D01*
Y-95000D01*
D02*
G37*
G36*
X317500D02*
X312500D01*
Y-90000D01*
X317500D01*
Y-95000D01*
D02*
G37*
G36*
X325000D02*
X320000D01*
Y-90000D01*
X325000D01*
Y-95000D01*
D02*
G37*
G36*
X302500D02*
X297500D01*
Y-90000D01*
X302500D01*
Y-95000D01*
D02*
G37*
G36*
X280000D02*
X275000D01*
Y-90000D01*
X280000D01*
Y-95000D01*
D02*
G37*
G36*
X287500D02*
X282500D01*
Y-90000D01*
X287500D01*
Y-95000D01*
D02*
G37*
G36*
X295000D02*
X290000D01*
Y-90000D01*
X295000D01*
Y-95000D01*
D02*
G37*
G36*
X325000Y-102500D02*
X320000D01*
Y-97500D01*
X325000D01*
Y-102500D01*
D02*
G37*
G36*
X102500D02*
X97500D01*
Y-97500D01*
X102500D01*
Y-102500D01*
D02*
G37*
G36*
X110000D02*
X105000D01*
Y-97500D01*
X110000D01*
Y-102500D01*
D02*
G37*
G36*
X117500D02*
X112500D01*
Y-97500D01*
X117500D01*
Y-102500D01*
D02*
G37*
G36*
X95000D02*
X90000D01*
Y-97500D01*
X95000D01*
Y-102500D01*
D02*
G37*
G36*
X-75000D02*
X-80000D01*
Y-97500D01*
X-75000D01*
Y-102500D01*
D02*
G37*
G36*
X80000D02*
X75000D01*
Y-97500D01*
X80000D01*
Y-102500D01*
D02*
G37*
G36*
X87500D02*
X82500D01*
Y-97500D01*
X87500D01*
Y-102500D01*
D02*
G37*
G36*
X302500D02*
X297500D01*
Y-97500D01*
X302500D01*
Y-102500D01*
D02*
G37*
G36*
X310000D02*
X305000D01*
Y-97500D01*
X310000D01*
Y-102500D01*
D02*
G37*
G36*
X317500D02*
X312500D01*
Y-97500D01*
X317500D01*
Y-102500D01*
D02*
G37*
G36*
X295000D02*
X290000D01*
Y-97500D01*
X295000D01*
Y-102500D01*
D02*
G37*
G36*
X125000D02*
X120000D01*
Y-97500D01*
X125000D01*
Y-102500D01*
D02*
G37*
G36*
X280000D02*
X275000D01*
Y-97500D01*
X280000D01*
Y-102500D01*
D02*
G37*
G36*
X287500D02*
X282500D01*
Y-97500D01*
X287500D01*
Y-102500D01*
D02*
G37*
G36*
X-282500Y-87500D02*
X-287500D01*
Y-82500D01*
X-282500D01*
Y-87500D01*
D02*
G37*
G36*
X-275000D02*
X-280000D01*
Y-82500D01*
X-275000D01*
Y-87500D01*
D02*
G37*
G36*
X-120000D02*
X-125000D01*
Y-82500D01*
X-120000D01*
Y-87500D01*
D02*
G37*
G36*
X-290000D02*
X-295000D01*
Y-82500D01*
X-290000D01*
Y-87500D01*
D02*
G37*
G36*
X-312500D02*
X-317500D01*
Y-82500D01*
X-312500D01*
Y-87500D01*
D02*
G37*
G36*
X-305000D02*
X-310000D01*
Y-82500D01*
X-305000D01*
Y-87500D01*
D02*
G37*
G36*
X-297500D02*
X-302500D01*
Y-82500D01*
X-297500D01*
Y-87500D01*
D02*
G37*
G36*
X-82500D02*
X-87500D01*
Y-82500D01*
X-82500D01*
Y-87500D01*
D02*
G37*
G36*
X-75000D02*
X-80000D01*
Y-82500D01*
X-75000D01*
Y-87500D01*
D02*
G37*
G36*
X80000D02*
X75000D01*
Y-82500D01*
X80000D01*
Y-87500D01*
D02*
G37*
G36*
X-90000D02*
X-95000D01*
Y-82500D01*
X-90000D01*
Y-87500D01*
D02*
G37*
G36*
X-112500D02*
X-117500D01*
Y-82500D01*
X-112500D01*
Y-87500D01*
D02*
G37*
G36*
X-105000D02*
X-110000D01*
Y-82500D01*
X-105000D01*
Y-87500D01*
D02*
G37*
G36*
X-97500D02*
X-102500D01*
Y-82500D01*
X-97500D01*
Y-87500D01*
D02*
G37*
G36*
X-320000D02*
X-325000D01*
Y-82500D01*
X-320000D01*
Y-87500D01*
D02*
G37*
G36*
X-290000Y-95000D02*
X-295000D01*
Y-90000D01*
X-290000D01*
Y-95000D01*
D02*
G37*
G36*
X-282500D02*
X-287500D01*
Y-90000D01*
X-282500D01*
Y-95000D01*
D02*
G37*
G36*
X-275000D02*
X-280000D01*
Y-90000D01*
X-275000D01*
Y-95000D01*
D02*
G37*
G36*
X-297500D02*
X-302500D01*
Y-90000D01*
X-297500D01*
Y-95000D01*
D02*
G37*
G36*
X-320000D02*
X-325000D01*
Y-90000D01*
X-320000D01*
Y-95000D01*
D02*
G37*
G36*
X-312500D02*
X-317500D01*
Y-90000D01*
X-312500D01*
Y-95000D01*
D02*
G37*
G36*
X-305000D02*
X-310000D01*
Y-90000D01*
X-305000D01*
Y-95000D01*
D02*
G37*
G36*
X110000D02*
X105000D01*
Y-90000D01*
X110000D01*
Y-95000D01*
D02*
G37*
G36*
X117500D02*
X112500D01*
Y-90000D01*
X117500D01*
Y-95000D01*
D02*
G37*
G36*
X125000D02*
X120000D01*
Y-90000D01*
X125000D01*
Y-95000D01*
D02*
G37*
G36*
X102500D02*
X97500D01*
Y-90000D01*
X102500D01*
Y-95000D01*
D02*
G37*
G36*
X80000D02*
X75000D01*
Y-90000D01*
X80000D01*
Y-95000D01*
D02*
G37*
G36*
X87500D02*
X82500D01*
Y-90000D01*
X87500D01*
Y-95000D01*
D02*
G37*
G36*
X95000D02*
X90000D01*
Y-90000D01*
X95000D01*
Y-95000D01*
D02*
G37*
G36*
X-82500Y-102500D02*
X-87500D01*
Y-97500D01*
X-82500D01*
Y-102500D01*
D02*
G37*
G36*
X-112500Y-110000D02*
X-117500D01*
Y-105000D01*
X-112500D01*
Y-110000D01*
D02*
G37*
G36*
X-105000D02*
X-110000D01*
Y-105000D01*
X-105000D01*
Y-110000D01*
D02*
G37*
G36*
X-97500D02*
X-102500D01*
Y-105000D01*
X-97500D01*
Y-110000D01*
D02*
G37*
G36*
X-120000D02*
X-125000D01*
Y-105000D01*
X-120000D01*
Y-110000D01*
D02*
G37*
G36*
X310000Y-117500D02*
X305000D01*
Y-112500D01*
X310000D01*
Y-117500D01*
D02*
G37*
G36*
X317500D02*
X312500D01*
Y-112500D01*
X317500D01*
Y-117500D01*
D02*
G37*
G36*
X325000D02*
X320000D01*
Y-112500D01*
X325000D01*
Y-117500D01*
D02*
G37*
G36*
X287500Y-110000D02*
X282500D01*
Y-105000D01*
X287500D01*
Y-110000D01*
D02*
G37*
G36*
X295000D02*
X290000D01*
Y-105000D01*
X295000D01*
Y-110000D01*
D02*
G37*
G36*
X302500D02*
X297500D01*
Y-105000D01*
X302500D01*
Y-110000D01*
D02*
G37*
G36*
X280000D02*
X275000D01*
Y-105000D01*
X280000D01*
Y-110000D01*
D02*
G37*
G36*
X-90000D02*
X-95000D01*
Y-105000D01*
X-90000D01*
Y-110000D01*
D02*
G37*
G36*
X-82500D02*
X-87500D01*
Y-105000D01*
X-82500D01*
Y-110000D01*
D02*
G37*
G36*
X-75000D02*
X-80000D01*
Y-105000D01*
X-75000D01*
Y-110000D01*
D02*
G37*
G36*
X302500Y-117500D02*
X297500D01*
Y-112500D01*
X302500D01*
Y-117500D01*
D02*
G37*
G36*
X80000D02*
X75000D01*
Y-112500D01*
X80000D01*
Y-117500D01*
D02*
G37*
G36*
X87500D02*
X82500D01*
Y-112500D01*
X87500D01*
Y-117500D01*
D02*
G37*
G36*
X95000D02*
X90000D01*
Y-112500D01*
X95000D01*
Y-117500D01*
D02*
G37*
G36*
X-75000D02*
X-80000D01*
Y-112500D01*
X-75000D01*
Y-117500D01*
D02*
G37*
G36*
X-97500D02*
X-102500D01*
Y-112500D01*
X-97500D01*
Y-117500D01*
D02*
G37*
G36*
X-90000D02*
X-95000D01*
Y-112500D01*
X-90000D01*
Y-117500D01*
D02*
G37*
G36*
X-82500D02*
X-87500D01*
Y-112500D01*
X-82500D01*
Y-117500D01*
D02*
G37*
G36*
X280000D02*
X275000D01*
Y-112500D01*
X280000D01*
Y-117500D01*
D02*
G37*
G36*
X287500D02*
X282500D01*
Y-112500D01*
X287500D01*
Y-117500D01*
D02*
G37*
G36*
X295000D02*
X290000D01*
Y-112500D01*
X295000D01*
Y-117500D01*
D02*
G37*
G36*
X125000D02*
X120000D01*
Y-112500D01*
X125000D01*
Y-117500D01*
D02*
G37*
G36*
X102500D02*
X97500D01*
Y-112500D01*
X102500D01*
Y-117500D01*
D02*
G37*
G36*
X110000D02*
X105000D01*
Y-112500D01*
X110000D01*
Y-117500D01*
D02*
G37*
G36*
X117500D02*
X112500D01*
Y-112500D01*
X117500D01*
Y-117500D01*
D02*
G37*
G36*
X-305000Y-102500D02*
X-310000D01*
Y-97500D01*
X-305000D01*
Y-102500D01*
D02*
G37*
G36*
X-297500D02*
X-302500D01*
Y-97500D01*
X-297500D01*
Y-102500D01*
D02*
G37*
G36*
X-290000D02*
X-295000D01*
Y-97500D01*
X-290000D01*
Y-102500D01*
D02*
G37*
G36*
X-312500D02*
X-317500D01*
Y-97500D01*
X-312500D01*
Y-102500D01*
D02*
G37*
G36*
X117500Y-110000D02*
X112500D01*
Y-105000D01*
X117500D01*
Y-110000D01*
D02*
G37*
G36*
X125000D02*
X120000D01*
Y-105000D01*
X125000D01*
Y-110000D01*
D02*
G37*
G36*
X-320000Y-102500D02*
X-325000D01*
Y-97500D01*
X-320000D01*
Y-102500D01*
D02*
G37*
G36*
X-105000D02*
X-110000D01*
Y-97500D01*
X-105000D01*
Y-102500D01*
D02*
G37*
G36*
X-97500D02*
X-102500D01*
Y-97500D01*
X-97500D01*
Y-102500D01*
D02*
G37*
G36*
X-90000D02*
X-95000D01*
Y-97500D01*
X-90000D01*
Y-102500D01*
D02*
G37*
G36*
X-112500D02*
X-117500D01*
Y-97500D01*
X-112500D01*
Y-102500D01*
D02*
G37*
G36*
X-282500D02*
X-287500D01*
Y-97500D01*
X-282500D01*
Y-102500D01*
D02*
G37*
G36*
X-275000D02*
X-280000D01*
Y-97500D01*
X-275000D01*
Y-102500D01*
D02*
G37*
G36*
X-120000D02*
X-125000D01*
Y-97500D01*
X-120000D01*
Y-102500D01*
D02*
G37*
G36*
X110000Y-110000D02*
X105000D01*
Y-105000D01*
X110000D01*
Y-110000D01*
D02*
G37*
G36*
X-312500D02*
X-317500D01*
Y-105000D01*
X-312500D01*
Y-110000D01*
D02*
G37*
G36*
X-305000D02*
X-310000D01*
Y-105000D01*
X-305000D01*
Y-110000D01*
D02*
G37*
G36*
X-297500D02*
X-302500D01*
Y-105000D01*
X-297500D01*
Y-110000D01*
D02*
G37*
G36*
X-320000D02*
X-325000D01*
Y-105000D01*
X-320000D01*
Y-110000D01*
D02*
G37*
G36*
X310000Y-110000D02*
X305000D01*
Y-105000D01*
X310000D01*
Y-110000D01*
D02*
G37*
G36*
X317500D02*
X312500D01*
Y-105000D01*
X317500D01*
Y-110000D01*
D02*
G37*
G36*
X325000D02*
X320000D01*
Y-105000D01*
X325000D01*
Y-110000D01*
D02*
G37*
G36*
X87500Y-110000D02*
X82500D01*
Y-105000D01*
X87500D01*
Y-110000D01*
D02*
G37*
G36*
X95000D02*
X90000D01*
Y-105000D01*
X95000D01*
Y-110000D01*
D02*
G37*
G36*
X102500D02*
X97500D01*
Y-105000D01*
X102500D01*
Y-110000D01*
D02*
G37*
G36*
X80000D02*
X75000D01*
Y-105000D01*
X80000D01*
Y-110000D01*
D02*
G37*
G36*
X-290000D02*
X-295000D01*
Y-105000D01*
X-290000D01*
Y-110000D01*
D02*
G37*
G36*
X-282500D02*
X-287500D01*
Y-105000D01*
X-282500D01*
Y-110000D01*
D02*
G37*
G36*
X-275000D02*
X-280000D01*
Y-105000D01*
X-275000D01*
Y-110000D01*
D02*
G37*
G36*
X-105000Y82500D02*
X-110000D01*
Y87500D01*
X-105000D01*
Y82500D01*
D02*
G37*
G36*
X-97500D02*
X-102500D01*
Y87500D01*
X-97500D01*
Y82500D01*
D02*
G37*
G36*
X-90000D02*
X-95000D01*
Y87500D01*
X-90000D01*
Y82500D01*
D02*
G37*
G36*
X-112500D02*
X-117500D01*
Y87500D01*
X-112500D01*
Y82500D01*
D02*
G37*
G36*
X-282500D02*
X-287500D01*
Y87500D01*
X-282500D01*
Y82500D01*
D02*
G37*
G36*
X-275000D02*
X-280000D01*
Y87500D01*
X-275000D01*
Y82500D01*
D02*
G37*
G36*
X-120000D02*
X-125000D01*
Y87500D01*
X-120000D01*
Y82500D01*
D02*
G37*
G36*
X95000D02*
X90000D01*
Y87500D01*
X95000D01*
Y82500D01*
D02*
G37*
G36*
X102500D02*
X97500D01*
Y87500D01*
X102500D01*
Y82500D01*
D02*
G37*
G36*
X110000D02*
X105000D01*
Y87500D01*
X110000D01*
Y82500D01*
D02*
G37*
G36*
X87500D02*
X82500D01*
Y87500D01*
X87500D01*
Y82500D01*
D02*
G37*
G36*
X-82500D02*
X-87500D01*
Y87500D01*
X-82500D01*
Y82500D01*
D02*
G37*
G36*
X-75000D02*
X-80000D01*
Y87500D01*
X-75000D01*
Y82500D01*
D02*
G37*
G36*
X80000D02*
X75000D01*
Y87500D01*
X80000D01*
Y82500D01*
D02*
G37*
G36*
X-290000D02*
X-295000D01*
Y87500D01*
X-290000D01*
Y82500D01*
D02*
G37*
G36*
X287500Y75000D02*
X282500D01*
Y80000D01*
X287500D01*
Y75000D01*
D02*
G37*
G36*
X295000D02*
X290000D01*
Y80000D01*
X295000D01*
Y75000D01*
D02*
G37*
G36*
X302500D02*
X297500D01*
Y80000D01*
X302500D01*
Y75000D01*
D02*
G37*
G36*
X280000D02*
X275000D01*
Y80000D01*
X280000D01*
Y75000D01*
D02*
G37*
G36*
X110000D02*
X105000D01*
Y80000D01*
X110000D01*
Y75000D01*
D02*
G37*
G36*
X117500D02*
X112500D01*
Y80000D01*
X117500D01*
Y75000D01*
D02*
G37*
G36*
X125000D02*
X120000D01*
Y80000D01*
X125000D01*
Y75000D01*
D02*
G37*
G36*
X-312500Y82500D02*
X-317500D01*
Y87500D01*
X-312500D01*
Y82500D01*
D02*
G37*
G36*
X-305000D02*
X-310000D01*
Y87500D01*
X-305000D01*
Y82500D01*
D02*
G37*
G36*
X-297500D02*
X-302500D01*
Y87500D01*
X-297500D01*
Y82500D01*
D02*
G37*
G36*
X-320000D02*
X-325000D01*
Y87500D01*
X-320000D01*
Y82500D01*
D02*
G37*
G36*
X310000Y75000D02*
X305000D01*
Y80000D01*
X310000D01*
Y75000D01*
D02*
G37*
G36*
X317500D02*
X312500D01*
Y80000D01*
X317500D01*
Y75000D01*
D02*
G37*
G36*
X325000D02*
X320000D01*
Y80000D01*
X325000D01*
Y75000D01*
D02*
G37*
G36*
X302500Y90000D02*
X297500D01*
Y95000D01*
X302500D01*
Y90000D01*
D02*
G37*
G36*
X310000D02*
X305000D01*
Y95000D01*
X310000D01*
Y90000D01*
D02*
G37*
G36*
X317500D02*
X312500D01*
Y95000D01*
X317500D01*
Y90000D01*
D02*
G37*
G36*
X295000D02*
X290000D01*
Y95000D01*
X295000D01*
Y90000D01*
D02*
G37*
G36*
X-75000D02*
X-80000D01*
Y95000D01*
X-75000D01*
Y90000D01*
D02*
G37*
G36*
X280000D02*
X275000D01*
Y95000D01*
X280000D01*
Y90000D01*
D02*
G37*
G36*
X287500D02*
X282500D01*
Y95000D01*
X287500D01*
Y90000D01*
D02*
G37*
G36*
X-297500Y90000D02*
X-302500D01*
Y95000D01*
X-297500D01*
Y90000D01*
D02*
G37*
G36*
X-290000D02*
X-295000D01*
Y95000D01*
X-290000D01*
Y90000D01*
D02*
G37*
G36*
X-282500D02*
X-287500D01*
Y95000D01*
X-282500D01*
Y90000D01*
D02*
G37*
G36*
X-305000D02*
X-310000D01*
Y95000D01*
X-305000D01*
Y90000D01*
D02*
G37*
G36*
X325000Y90000D02*
X320000D01*
Y95000D01*
X325000D01*
Y90000D01*
D02*
G37*
G36*
X-320000Y90000D02*
X-325000D01*
Y95000D01*
X-320000D01*
Y90000D01*
D02*
G37*
G36*
X-312500D02*
X-317500D01*
Y95000D01*
X-312500D01*
Y90000D01*
D02*
G37*
G36*
X-82500Y90000D02*
X-87500D01*
Y95000D01*
X-82500D01*
Y90000D01*
D02*
G37*
G36*
X295000Y82500D02*
X290000D01*
Y87500D01*
X295000D01*
Y82500D01*
D02*
G37*
G36*
X302500D02*
X297500D01*
Y87500D01*
X302500D01*
Y82500D01*
D02*
G37*
G36*
X310000D02*
X305000D01*
Y87500D01*
X310000D01*
Y82500D01*
D02*
G37*
G36*
X287500D02*
X282500D01*
Y87500D01*
X287500D01*
Y82500D01*
D02*
G37*
G36*
X117500D02*
X112500D01*
Y87500D01*
X117500D01*
Y82500D01*
D02*
G37*
G36*
X125000D02*
X120000D01*
Y87500D01*
X125000D01*
Y82500D01*
D02*
G37*
G36*
X280000D02*
X275000D01*
Y87500D01*
X280000D01*
Y82500D01*
D02*
G37*
G36*
X-105000Y90000D02*
X-110000D01*
Y95000D01*
X-105000D01*
Y90000D01*
D02*
G37*
G36*
X-97500D02*
X-102500D01*
Y95000D01*
X-97500D01*
Y90000D01*
D02*
G37*
G36*
X-90000D02*
X-95000D01*
Y95000D01*
X-90000D01*
Y90000D01*
D02*
G37*
G36*
X-112500D02*
X-117500D01*
Y95000D01*
X-112500D01*
Y90000D01*
D02*
G37*
G36*
X317500Y82500D02*
X312500D01*
Y87500D01*
X317500D01*
Y82500D01*
D02*
G37*
G36*
X325000D02*
X320000D01*
Y87500D01*
X325000D01*
Y82500D01*
D02*
G37*
G36*
X-120000Y90000D02*
X-125000D01*
Y95000D01*
X-120000D01*
Y90000D01*
D02*
G37*
G36*
X102500Y75000D02*
X97500D01*
Y80000D01*
X102500D01*
Y75000D01*
D02*
G37*
G36*
X-275000Y-80000D02*
X-280000D01*
Y-75000D01*
X-275000D01*
Y-80000D01*
D02*
G37*
G36*
X-120000D02*
X-125000D01*
Y-75000D01*
X-120000D01*
Y-80000D01*
D02*
G37*
G36*
X-112500D02*
X-117500D01*
Y-75000D01*
X-112500D01*
Y-80000D01*
D02*
G37*
G36*
X-282500D02*
X-287500D01*
Y-75000D01*
X-282500D01*
Y-80000D01*
D02*
G37*
G36*
X-305000D02*
X-310000D01*
Y-75000D01*
X-305000D01*
Y-80000D01*
D02*
G37*
G36*
X-297500D02*
X-302500D01*
Y-75000D01*
X-297500D01*
Y-80000D01*
D02*
G37*
G36*
X-290000D02*
X-295000D01*
Y-75000D01*
X-290000D01*
Y-80000D01*
D02*
G37*
G36*
X-75000D02*
X-80000D01*
Y-75000D01*
X-75000D01*
Y-80000D01*
D02*
G37*
G36*
X80000D02*
X75000D01*
Y-75000D01*
X80000D01*
Y-80000D01*
D02*
G37*
G36*
X87500D02*
X82500D01*
Y-75000D01*
X87500D01*
Y-80000D01*
D02*
G37*
G36*
X-82500D02*
X-87500D01*
Y-75000D01*
X-82500D01*
Y-80000D01*
D02*
G37*
G36*
X-105000D02*
X-110000D01*
Y-75000D01*
X-105000D01*
Y-80000D01*
D02*
G37*
G36*
X-97500D02*
X-102500D01*
Y-75000D01*
X-97500D01*
Y-80000D01*
D02*
G37*
G36*
X-90000D02*
X-95000D01*
Y-75000D01*
X-90000D01*
Y-80000D01*
D02*
G37*
G36*
X-312500D02*
X-317500D01*
Y-75000D01*
X-312500D01*
Y-80000D01*
D02*
G37*
G36*
X117500Y-87500D02*
X112500D01*
Y-82500D01*
X117500D01*
Y-87500D01*
D02*
G37*
G36*
X125000D02*
X120000D01*
Y-82500D01*
X125000D01*
Y-87500D01*
D02*
G37*
G36*
X280000D02*
X275000D01*
Y-82500D01*
X280000D01*
Y-87500D01*
D02*
G37*
G36*
X110000D02*
X105000D01*
Y-82500D01*
X110000D01*
Y-87500D01*
D02*
G37*
G36*
X87500D02*
X82500D01*
Y-82500D01*
X87500D01*
Y-87500D01*
D02*
G37*
G36*
X95000D02*
X90000D01*
Y-82500D01*
X95000D01*
Y-87500D01*
D02*
G37*
G36*
X102500D02*
X97500D01*
Y-82500D01*
X102500D01*
Y-87500D01*
D02*
G37*
G36*
X317500D02*
X312500D01*
Y-82500D01*
X317500D01*
Y-87500D01*
D02*
G37*
G36*
X325000D02*
X320000D01*
Y-82500D01*
X325000D01*
Y-87500D01*
D02*
G37*
G36*
X-320000Y-80000D02*
X-325000D01*
Y-75000D01*
X-320000D01*
Y-80000D01*
D02*
G37*
G36*
X310000Y-87500D02*
X305000D01*
Y-82500D01*
X310000D01*
Y-87500D01*
D02*
G37*
G36*
X287500D02*
X282500D01*
Y-82500D01*
X287500D01*
Y-87500D01*
D02*
G37*
G36*
X295000D02*
X290000D01*
Y-82500D01*
X295000D01*
Y-87500D01*
D02*
G37*
G36*
X302500D02*
X297500D01*
Y-82500D01*
X302500D01*
Y-87500D01*
D02*
G37*
G36*
X-120000Y75000D02*
X-125000D01*
Y80000D01*
X-120000D01*
Y75000D01*
D02*
G37*
G36*
X-112500D02*
X-117500D01*
Y80000D01*
X-112500D01*
Y75000D01*
D02*
G37*
G36*
X-105000D02*
X-110000D01*
Y80000D01*
X-105000D01*
Y75000D01*
D02*
G37*
G36*
X-275000D02*
X-280000D01*
Y80000D01*
X-275000D01*
Y75000D01*
D02*
G37*
G36*
X-297500D02*
X-302500D01*
Y80000D01*
X-297500D01*
Y75000D01*
D02*
G37*
G36*
X-290000D02*
X-295000D01*
Y80000D01*
X-290000D01*
Y75000D01*
D02*
G37*
G36*
X-282500D02*
X-287500D01*
Y80000D01*
X-282500D01*
Y75000D01*
D02*
G37*
G36*
X80000D02*
X75000D01*
Y80000D01*
X80000D01*
Y75000D01*
D02*
G37*
G36*
X87500D02*
X82500D01*
Y80000D01*
X87500D01*
Y75000D01*
D02*
G37*
G36*
X95000D02*
X90000D01*
Y80000D01*
X95000D01*
Y75000D01*
D02*
G37*
G36*
X-75000D02*
X-80000D01*
Y80000D01*
X-75000D01*
Y75000D01*
D02*
G37*
G36*
X-97500D02*
X-102500D01*
Y80000D01*
X-97500D01*
Y75000D01*
D02*
G37*
G36*
X-90000D02*
X-95000D01*
Y80000D01*
X-90000D01*
Y75000D01*
D02*
G37*
G36*
X-82500D02*
X-87500D01*
Y80000D01*
X-82500D01*
Y75000D01*
D02*
G37*
G36*
X-305000D02*
X-310000D01*
Y80000D01*
X-305000D01*
Y75000D01*
D02*
G37*
G36*
X125000Y-80000D02*
X120000D01*
Y-75000D01*
X125000D01*
Y-80000D01*
D02*
G37*
G36*
X280000D02*
X275000D01*
Y-75000D01*
X280000D01*
Y-80000D01*
D02*
G37*
G36*
X287500D02*
X282500D01*
Y-75000D01*
X287500D01*
Y-80000D01*
D02*
G37*
G36*
X117500D02*
X112500D01*
Y-75000D01*
X117500D01*
Y-80000D01*
D02*
G37*
G36*
X95000D02*
X90000D01*
Y-75000D01*
X95000D01*
Y-80000D01*
D02*
G37*
G36*
X102500D02*
X97500D01*
Y-75000D01*
X102500D01*
Y-80000D01*
D02*
G37*
G36*
X110000D02*
X105000D01*
Y-75000D01*
X110000D01*
Y-80000D01*
D02*
G37*
G36*
X325000D02*
X320000D01*
Y-75000D01*
X325000D01*
Y-80000D01*
D02*
G37*
G36*
X-320000Y75000D02*
X-325000D01*
Y80000D01*
X-320000D01*
Y75000D01*
D02*
G37*
G36*
X-312500D02*
X-317500D01*
Y80000D01*
X-312500D01*
Y75000D01*
D02*
G37*
G36*
X317500Y-80000D02*
X312500D01*
Y-75000D01*
X317500D01*
Y-80000D01*
D02*
G37*
G36*
X295000D02*
X290000D01*
Y-75000D01*
X295000D01*
Y-80000D01*
D02*
G37*
G36*
X302500D02*
X297500D01*
Y-75000D01*
X302500D01*
Y-80000D01*
D02*
G37*
G36*
X310000D02*
X305000D01*
Y-75000D01*
X310000D01*
Y-80000D01*
D02*
G37*
G36*
X87500Y-310000D02*
X82500D01*
Y-305000D01*
X87500D01*
Y-310000D01*
D02*
G37*
G36*
X95000D02*
X90000D01*
Y-305000D01*
X95000D01*
Y-310000D01*
D02*
G37*
G36*
X102500D02*
X97500D01*
Y-305000D01*
X102500D01*
Y-310000D01*
D02*
G37*
G36*
X80000D02*
X75000D01*
Y-305000D01*
X80000D01*
Y-310000D01*
D02*
G37*
G36*
X-290000D02*
X-295000D01*
Y-305000D01*
X-290000D01*
Y-310000D01*
D02*
G37*
G36*
X-282500D02*
X-287500D01*
Y-305000D01*
X-282500D01*
Y-310000D01*
D02*
G37*
G36*
X-275000D02*
X-280000D01*
Y-305000D01*
X-275000D01*
Y-310000D01*
D02*
G37*
G36*
X-312500Y-302500D02*
X-317500D01*
Y-297500D01*
X-312500D01*
Y-302500D01*
D02*
G37*
G36*
X-305000D02*
X-310000D01*
Y-297500D01*
X-305000D01*
Y-302500D01*
D02*
G37*
G36*
X-297500D02*
X-302500D01*
Y-297500D01*
X-297500D01*
Y-302500D01*
D02*
G37*
G36*
X-320000D02*
X-325000D01*
Y-297500D01*
X-320000D01*
Y-302500D01*
D02*
G37*
G36*
X110000Y-310000D02*
X105000D01*
Y-305000D01*
X110000D01*
Y-310000D01*
D02*
G37*
G36*
X117500D02*
X112500D01*
Y-305000D01*
X117500D01*
Y-310000D01*
D02*
G37*
G36*
X125000D02*
X120000D01*
Y-305000D01*
X125000D01*
Y-310000D01*
D02*
G37*
G36*
X-297500D02*
X-302500D01*
Y-305000D01*
X-297500D01*
Y-310000D01*
D02*
G37*
G36*
X280000Y-310000D02*
X275000D01*
Y-305000D01*
X280000D01*
Y-310000D01*
D02*
G37*
G36*
X287500D02*
X282500D01*
Y-305000D01*
X287500D01*
Y-310000D01*
D02*
G37*
G36*
X295000D02*
X290000D01*
Y-305000D01*
X295000D01*
Y-310000D01*
D02*
G37*
G36*
X-75000D02*
X-80000D01*
Y-305000D01*
X-75000D01*
Y-310000D01*
D02*
G37*
G36*
X-97500D02*
X-102500D01*
Y-305000D01*
X-97500D01*
Y-310000D01*
D02*
G37*
G36*
X-90000D02*
X-95000D01*
Y-305000D01*
X-90000D01*
Y-310000D01*
D02*
G37*
G36*
X-82500D02*
X-87500D01*
Y-305000D01*
X-82500D01*
Y-310000D01*
D02*
G37*
G36*
X-320000Y-310000D02*
X-325000D01*
Y-305000D01*
X-320000D01*
Y-310000D01*
D02*
G37*
G36*
X-312500D02*
X-317500D01*
Y-305000D01*
X-312500D01*
Y-310000D01*
D02*
G37*
G36*
X-305000D02*
X-310000D01*
Y-305000D01*
X-305000D01*
Y-310000D01*
D02*
G37*
G36*
X325000Y-310000D02*
X320000D01*
Y-305000D01*
X325000D01*
Y-310000D01*
D02*
G37*
G36*
X302500D02*
X297500D01*
Y-305000D01*
X302500D01*
Y-310000D01*
D02*
G37*
G36*
X310000D02*
X305000D01*
Y-305000D01*
X310000D01*
Y-310000D01*
D02*
G37*
G36*
X317500D02*
X312500D01*
Y-305000D01*
X317500D01*
Y-310000D01*
D02*
G37*
G36*
X295000Y-302500D02*
X290000D01*
Y-297500D01*
X295000D01*
Y-302500D01*
D02*
G37*
G36*
X302500D02*
X297500D01*
Y-297500D01*
X302500D01*
Y-302500D01*
D02*
G37*
G36*
X310000D02*
X305000D01*
Y-297500D01*
X310000D01*
Y-302500D01*
D02*
G37*
G36*
X287500D02*
X282500D01*
Y-297500D01*
X287500D01*
Y-302500D01*
D02*
G37*
G36*
X117500D02*
X112500D01*
Y-297500D01*
X117500D01*
Y-302500D01*
D02*
G37*
G36*
X125000D02*
X120000D01*
Y-297500D01*
X125000D01*
Y-302500D01*
D02*
G37*
G36*
X280000D02*
X275000D01*
Y-297500D01*
X280000D01*
Y-302500D01*
D02*
G37*
G36*
X-105000Y-295000D02*
X-110000D01*
Y-290000D01*
X-105000D01*
Y-295000D01*
D02*
G37*
G36*
X-97500D02*
X-102500D01*
Y-290000D01*
X-97500D01*
Y-295000D01*
D02*
G37*
G36*
X-90000D02*
X-95000D01*
Y-290000D01*
X-90000D01*
Y-295000D01*
D02*
G37*
G36*
X-112500D02*
X-117500D01*
Y-290000D01*
X-112500D01*
Y-295000D01*
D02*
G37*
G36*
X317500Y-302500D02*
X312500D01*
Y-297500D01*
X317500D01*
Y-302500D01*
D02*
G37*
G36*
X325000D02*
X320000D01*
Y-297500D01*
X325000D01*
Y-302500D01*
D02*
G37*
G36*
X-120000Y-295000D02*
X-125000D01*
Y-290000D01*
X-120000D01*
Y-295000D01*
D02*
G37*
G36*
X110000Y-302500D02*
X105000D01*
Y-297500D01*
X110000D01*
Y-302500D01*
D02*
G37*
G36*
X-112500D02*
X-117500D01*
Y-297500D01*
X-112500D01*
Y-302500D01*
D02*
G37*
G36*
X-105000D02*
X-110000D01*
Y-297500D01*
X-105000D01*
Y-302500D01*
D02*
G37*
G36*
X-97500D02*
X-102500D01*
Y-297500D01*
X-97500D01*
Y-302500D01*
D02*
G37*
G36*
X-120000D02*
X-125000D01*
Y-297500D01*
X-120000D01*
Y-302500D01*
D02*
G37*
G36*
X-290000D02*
X-295000D01*
Y-297500D01*
X-290000D01*
Y-302500D01*
D02*
G37*
G36*
X-282500D02*
X-287500D01*
Y-297500D01*
X-282500D01*
Y-302500D01*
D02*
G37*
G36*
X-275000D02*
X-280000D01*
Y-297500D01*
X-275000D01*
Y-302500D01*
D02*
G37*
G36*
X87500D02*
X82500D01*
Y-297500D01*
X87500D01*
Y-302500D01*
D02*
G37*
G36*
X95000D02*
X90000D01*
Y-297500D01*
X95000D01*
Y-302500D01*
D02*
G37*
G36*
X102500D02*
X97500D01*
Y-297500D01*
X102500D01*
Y-302500D01*
D02*
G37*
G36*
X80000D02*
X75000D01*
Y-297500D01*
X80000D01*
Y-302500D01*
D02*
G37*
G36*
X-90000D02*
X-95000D01*
Y-297500D01*
X-90000D01*
Y-302500D01*
D02*
G37*
G36*
X-82500D02*
X-87500D01*
Y-297500D01*
X-82500D01*
Y-302500D01*
D02*
G37*
G36*
X-75000D02*
X-80000D01*
Y-297500D01*
X-75000D01*
Y-302500D01*
D02*
G37*
G36*
X-105000Y-310000D02*
X-110000D01*
Y-305000D01*
X-105000D01*
Y-310000D01*
D02*
G37*
G36*
X117500Y-325000D02*
X112500D01*
Y-320000D01*
X117500D01*
Y-325000D01*
D02*
G37*
G36*
X125000D02*
X120000D01*
Y-320000D01*
X125000D01*
Y-325000D01*
D02*
G37*
G36*
X280000D02*
X275000D01*
Y-320000D01*
X280000D01*
Y-325000D01*
D02*
G37*
G36*
X110000D02*
X105000D01*
Y-320000D01*
X110000D01*
Y-325000D01*
D02*
G37*
G36*
X87500D02*
X82500D01*
Y-320000D01*
X87500D01*
Y-325000D01*
D02*
G37*
G36*
X95000D02*
X90000D01*
Y-320000D01*
X95000D01*
Y-325000D01*
D02*
G37*
G36*
X102500D02*
X97500D01*
Y-320000D01*
X102500D01*
Y-325000D01*
D02*
G37*
G36*
X317500D02*
X312500D01*
Y-320000D01*
X317500D01*
Y-325000D01*
D02*
G37*
G36*
X325000D02*
X320000D01*
Y-320000D01*
X325000D01*
Y-325000D01*
D02*
G37*
G36*
X-320000Y-317500D02*
X-325000D01*
Y-312500D01*
X-320000D01*
Y-317500D01*
D02*
G37*
G36*
X310000Y-325000D02*
X305000D01*
Y-320000D01*
X310000D01*
Y-325000D01*
D02*
G37*
G36*
X287500D02*
X282500D01*
Y-320000D01*
X287500D01*
Y-325000D01*
D02*
G37*
G36*
X295000D02*
X290000D01*
Y-320000D01*
X295000D01*
Y-325000D01*
D02*
G37*
G36*
X302500D02*
X297500D01*
Y-320000D01*
X302500D01*
Y-325000D01*
D02*
G37*
G36*
X80000D02*
X75000D01*
Y-320000D01*
X80000D01*
Y-325000D01*
D02*
G37*
G36*
X-290000D02*
X-295000D01*
Y-320000D01*
X-290000D01*
Y-325000D01*
D02*
G37*
G36*
X-282500D02*
X-287500D01*
Y-320000D01*
X-282500D01*
Y-325000D01*
D02*
G37*
G36*
X-275000D02*
X-280000D01*
Y-320000D01*
X-275000D01*
Y-325000D01*
D02*
G37*
G36*
X-297500D02*
X-302500D01*
Y-320000D01*
X-297500D01*
Y-325000D01*
D02*
G37*
G36*
X-320000D02*
X-325000D01*
Y-320000D01*
X-320000D01*
Y-325000D01*
D02*
G37*
G36*
X-312500D02*
X-317500D01*
Y-320000D01*
X-312500D01*
Y-325000D01*
D02*
G37*
G36*
X-305000D02*
X-310000D01*
Y-320000D01*
X-305000D01*
Y-325000D01*
D02*
G37*
G36*
X-90000D02*
X-95000D01*
Y-320000D01*
X-90000D01*
Y-325000D01*
D02*
G37*
G36*
X-82500D02*
X-87500D01*
Y-320000D01*
X-82500D01*
Y-325000D01*
D02*
G37*
G36*
X-75000D02*
X-80000D01*
Y-320000D01*
X-75000D01*
Y-325000D01*
D02*
G37*
G36*
X-97500D02*
X-102500D01*
Y-320000D01*
X-97500D01*
Y-325000D01*
D02*
G37*
G36*
X-120000D02*
X-125000D01*
Y-320000D01*
X-120000D01*
Y-325000D01*
D02*
G37*
G36*
X-112500D02*
X-117500D01*
Y-320000D01*
X-112500D01*
Y-325000D01*
D02*
G37*
G36*
X-105000D02*
X-110000D01*
Y-320000D01*
X-105000D01*
Y-325000D01*
D02*
G37*
G36*
X125000Y-317500D02*
X120000D01*
Y-312500D01*
X125000D01*
Y-317500D01*
D02*
G37*
G36*
X280000D02*
X275000D01*
Y-312500D01*
X280000D01*
Y-317500D01*
D02*
G37*
G36*
X287500D02*
X282500D01*
Y-312500D01*
X287500D01*
Y-317500D01*
D02*
G37*
G36*
X117500D02*
X112500D01*
Y-312500D01*
X117500D01*
Y-317500D01*
D02*
G37*
G36*
X95000D02*
X90000D01*
Y-312500D01*
X95000D01*
Y-317500D01*
D02*
G37*
G36*
X102500D02*
X97500D01*
Y-312500D01*
X102500D01*
Y-317500D01*
D02*
G37*
G36*
X110000D02*
X105000D01*
Y-312500D01*
X110000D01*
Y-317500D01*
D02*
G37*
G36*
X325000D02*
X320000D01*
Y-312500D01*
X325000D01*
Y-317500D01*
D02*
G37*
G36*
X-120000Y-310000D02*
X-125000D01*
Y-305000D01*
X-120000D01*
Y-310000D01*
D02*
G37*
G36*
X-112500D02*
X-117500D01*
Y-305000D01*
X-112500D01*
Y-310000D01*
D02*
G37*
G36*
X317500Y-317500D02*
X312500D01*
Y-312500D01*
X317500D01*
Y-317500D01*
D02*
G37*
G36*
X295000D02*
X290000D01*
Y-312500D01*
X295000D01*
Y-317500D01*
D02*
G37*
G36*
X302500D02*
X297500D01*
Y-312500D01*
X302500D01*
Y-317500D01*
D02*
G37*
G36*
X310000D02*
X305000D01*
Y-312500D01*
X310000D01*
Y-317500D01*
D02*
G37*
G36*
X87500D02*
X82500D01*
Y-312500D01*
X87500D01*
Y-317500D01*
D02*
G37*
G36*
X-282500D02*
X-287500D01*
Y-312500D01*
X-282500D01*
Y-317500D01*
D02*
G37*
G36*
X-275000D02*
X-280000D01*
Y-312500D01*
X-275000D01*
Y-317500D01*
D02*
G37*
G36*
X-120000D02*
X-125000D01*
Y-312500D01*
X-120000D01*
Y-317500D01*
D02*
G37*
G36*
X-290000D02*
X-295000D01*
Y-312500D01*
X-290000D01*
Y-317500D01*
D02*
G37*
G36*
X-312500D02*
X-317500D01*
Y-312500D01*
X-312500D01*
Y-317500D01*
D02*
G37*
G36*
X-305000D02*
X-310000D01*
Y-312500D01*
X-305000D01*
Y-317500D01*
D02*
G37*
G36*
X-297500D02*
X-302500D01*
Y-312500D01*
X-297500D01*
Y-317500D01*
D02*
G37*
G36*
X-82500D02*
X-87500D01*
Y-312500D01*
X-82500D01*
Y-317500D01*
D02*
G37*
G36*
X-75000D02*
X-80000D01*
Y-312500D01*
X-75000D01*
Y-317500D01*
D02*
G37*
G36*
X80000D02*
X75000D01*
Y-312500D01*
X80000D01*
Y-317500D01*
D02*
G37*
G36*
X-90000D02*
X-95000D01*
Y-312500D01*
X-90000D01*
Y-317500D01*
D02*
G37*
G36*
X-112500D02*
X-117500D01*
Y-312500D01*
X-112500D01*
Y-317500D01*
D02*
G37*
G36*
X-105000D02*
X-110000D01*
Y-312500D01*
X-105000D01*
Y-317500D01*
D02*
G37*
G36*
X-97500D02*
X-102500D01*
Y-312500D01*
X-97500D01*
Y-317500D01*
D02*
G37*
G36*
X325000Y-280000D02*
X320000D01*
Y-275000D01*
X325000D01*
Y-280000D01*
D02*
G37*
G36*
X-320000Y-125000D02*
X-325000D01*
Y-120000D01*
X-320000D01*
Y-125000D01*
D02*
G37*
G36*
X-312500D02*
X-317500D01*
Y-120000D01*
X-312500D01*
Y-125000D01*
D02*
G37*
G36*
X317500Y-280000D02*
X312500D01*
Y-275000D01*
X317500D01*
Y-280000D01*
D02*
G37*
G36*
X295000D02*
X290000D01*
Y-275000D01*
X295000D01*
Y-280000D01*
D02*
G37*
G36*
X302500D02*
X297500D01*
Y-275000D01*
X302500D01*
Y-280000D01*
D02*
G37*
G36*
X310000D02*
X305000D01*
Y-275000D01*
X310000D01*
Y-280000D01*
D02*
G37*
G36*
X-275000Y-125000D02*
X-280000D01*
Y-120000D01*
X-275000D01*
Y-125000D01*
D02*
G37*
G36*
X-120000D02*
X-125000D01*
Y-120000D01*
X-120000D01*
Y-125000D01*
D02*
G37*
G36*
X-112500D02*
X-117500D01*
Y-120000D01*
X-112500D01*
Y-125000D01*
D02*
G37*
G36*
X-282500D02*
X-287500D01*
Y-120000D01*
X-282500D01*
Y-125000D01*
D02*
G37*
G36*
X-305000D02*
X-310000D01*
Y-120000D01*
X-305000D01*
Y-125000D01*
D02*
G37*
G36*
X-297500D02*
X-302500D01*
Y-120000D01*
X-297500D01*
Y-125000D01*
D02*
G37*
G36*
X-290000D02*
X-295000D01*
Y-120000D01*
X-290000D01*
Y-125000D01*
D02*
G37*
G36*
X287500Y-280000D02*
X282500D01*
Y-275000D01*
X287500D01*
Y-280000D01*
D02*
G37*
G36*
X-82500D02*
X-87500D01*
Y-275000D01*
X-82500D01*
Y-280000D01*
D02*
G37*
G36*
X-75000D02*
X-80000D01*
Y-275000D01*
X-75000D01*
Y-280000D01*
D02*
G37*
G36*
X80000D02*
X75000D01*
Y-275000D01*
X80000D01*
Y-280000D01*
D02*
G37*
G36*
X-90000D02*
X-95000D01*
Y-275000D01*
X-90000D01*
Y-280000D01*
D02*
G37*
G36*
X-112500D02*
X-117500D01*
Y-275000D01*
X-112500D01*
Y-280000D01*
D02*
G37*
G36*
X-105000D02*
X-110000D01*
Y-275000D01*
X-105000D01*
Y-280000D01*
D02*
G37*
G36*
X-97500D02*
X-102500D01*
Y-275000D01*
X-97500D01*
Y-280000D01*
D02*
G37*
G36*
X117500D02*
X112500D01*
Y-275000D01*
X117500D01*
Y-280000D01*
D02*
G37*
G36*
X125000D02*
X120000D01*
Y-275000D01*
X125000D01*
Y-280000D01*
D02*
G37*
G36*
X280000D02*
X275000D01*
Y-275000D01*
X280000D01*
Y-280000D01*
D02*
G37*
G36*
X110000D02*
X105000D01*
Y-275000D01*
X110000D01*
Y-280000D01*
D02*
G37*
G36*
X87500D02*
X82500D01*
Y-275000D01*
X87500D01*
Y-280000D01*
D02*
G37*
G36*
X95000D02*
X90000D01*
Y-275000D01*
X95000D01*
Y-280000D01*
D02*
G37*
G36*
X102500D02*
X97500D01*
Y-275000D01*
X102500D01*
Y-280000D01*
D02*
G37*
G36*
X-320000Y-117500D02*
X-325000D01*
Y-112500D01*
X-320000D01*
Y-117500D01*
D02*
G37*
G36*
X-312500D02*
X-317500D01*
Y-112500D01*
X-312500D01*
Y-117500D01*
D02*
G37*
G36*
X-305000D02*
X-310000D01*
Y-112500D01*
X-305000D01*
Y-117500D01*
D02*
G37*
G36*
X325000Y-125000D02*
X320000D01*
Y-120000D01*
X325000D01*
Y-125000D01*
D02*
G37*
G36*
X302500D02*
X297500D01*
Y-120000D01*
X302500D01*
Y-125000D01*
D02*
G37*
G36*
X310000D02*
X305000D01*
Y-120000D01*
X310000D01*
Y-125000D01*
D02*
G37*
G36*
X317500D02*
X312500D01*
Y-120000D01*
X317500D01*
Y-125000D01*
D02*
G37*
G36*
X-120000Y-117500D02*
X-125000D01*
Y-112500D01*
X-120000D01*
Y-117500D01*
D02*
G37*
G36*
X-112500D02*
X-117500D01*
Y-112500D01*
X-112500D01*
Y-117500D01*
D02*
G37*
G36*
X-105000D02*
X-110000D01*
Y-112500D01*
X-105000D01*
Y-117500D01*
D02*
G37*
G36*
X-275000D02*
X-280000D01*
Y-112500D01*
X-275000D01*
Y-117500D01*
D02*
G37*
G36*
X-297500D02*
X-302500D01*
Y-112500D01*
X-297500D01*
Y-117500D01*
D02*
G37*
G36*
X-290000D02*
X-295000D01*
Y-112500D01*
X-290000D01*
Y-117500D01*
D02*
G37*
G36*
X-282500D02*
X-287500D01*
Y-112500D01*
X-282500D01*
Y-117500D01*
D02*
G37*
G36*
X295000Y-125000D02*
X290000D01*
Y-120000D01*
X295000D01*
Y-125000D01*
D02*
G37*
G36*
X-75000D02*
X-80000D01*
Y-120000D01*
X-75000D01*
Y-125000D01*
D02*
G37*
G36*
X80000D02*
X75000D01*
Y-120000D01*
X80000D01*
Y-125000D01*
D02*
G37*
G36*
X87500D02*
X82500D01*
Y-120000D01*
X87500D01*
Y-125000D01*
D02*
G37*
G36*
X-82500D02*
X-87500D01*
Y-120000D01*
X-82500D01*
Y-125000D01*
D02*
G37*
G36*
X-105000D02*
X-110000D01*
Y-120000D01*
X-105000D01*
Y-125000D01*
D02*
G37*
G36*
X-97500D02*
X-102500D01*
Y-120000D01*
X-97500D01*
Y-125000D01*
D02*
G37*
G36*
X-90000D02*
X-95000D01*
Y-120000D01*
X-90000D01*
Y-125000D01*
D02*
G37*
G36*
X125000D02*
X120000D01*
Y-120000D01*
X125000D01*
Y-125000D01*
D02*
G37*
G36*
X280000D02*
X275000D01*
Y-120000D01*
X280000D01*
Y-125000D01*
D02*
G37*
G36*
X287500D02*
X282500D01*
Y-120000D01*
X287500D01*
Y-125000D01*
D02*
G37*
G36*
X117500D02*
X112500D01*
Y-120000D01*
X117500D01*
Y-125000D01*
D02*
G37*
G36*
X95000D02*
X90000D01*
Y-120000D01*
X95000D01*
Y-125000D01*
D02*
G37*
G36*
X102500D02*
X97500D01*
Y-120000D01*
X102500D01*
Y-125000D01*
D02*
G37*
G36*
X110000D02*
X105000D01*
Y-120000D01*
X110000D01*
Y-125000D01*
D02*
G37*
G36*
X-120000Y-280000D02*
X-125000D01*
Y-275000D01*
X-120000D01*
Y-280000D01*
D02*
G37*
G36*
X102500Y-295000D02*
X97500D01*
Y-290000D01*
X102500D01*
Y-295000D01*
D02*
G37*
G36*
X110000D02*
X105000D01*
Y-290000D01*
X110000D01*
Y-295000D01*
D02*
G37*
G36*
X117500D02*
X112500D01*
Y-290000D01*
X117500D01*
Y-295000D01*
D02*
G37*
G36*
X95000D02*
X90000D01*
Y-290000D01*
X95000D01*
Y-295000D01*
D02*
G37*
G36*
X-275000D02*
X-280000D01*
Y-290000D01*
X-275000D01*
Y-295000D01*
D02*
G37*
G36*
X80000D02*
X75000D01*
Y-290000D01*
X80000D01*
Y-295000D01*
D02*
G37*
G36*
X87500D02*
X82500D01*
Y-290000D01*
X87500D01*
Y-295000D01*
D02*
G37*
G36*
X-297500Y-287500D02*
X-302500D01*
Y-282500D01*
X-297500D01*
Y-287500D01*
D02*
G37*
G36*
X-290000D02*
X-295000D01*
Y-282500D01*
X-290000D01*
Y-287500D01*
D02*
G37*
G36*
X-282500D02*
X-287500D01*
Y-282500D01*
X-282500D01*
Y-287500D01*
D02*
G37*
G36*
X-305000D02*
X-310000D01*
Y-282500D01*
X-305000D01*
Y-287500D01*
D02*
G37*
G36*
X125000Y-295000D02*
X120000D01*
Y-290000D01*
X125000D01*
Y-295000D01*
D02*
G37*
G36*
X-320000Y-287500D02*
X-325000D01*
Y-282500D01*
X-320000D01*
Y-287500D01*
D02*
G37*
G36*
X-312500D02*
X-317500D01*
Y-282500D01*
X-312500D01*
Y-287500D01*
D02*
G37*
G36*
X-282500Y-295000D02*
X-287500D01*
Y-290000D01*
X-282500D01*
Y-295000D01*
D02*
G37*
G36*
X295000Y-295000D02*
X290000D01*
Y-290000D01*
X295000D01*
Y-295000D01*
D02*
G37*
G36*
X302500D02*
X297500D01*
Y-290000D01*
X302500D01*
Y-295000D01*
D02*
G37*
G36*
X310000D02*
X305000D01*
Y-290000D01*
X310000D01*
Y-295000D01*
D02*
G37*
G36*
X287500D02*
X282500D01*
Y-290000D01*
X287500D01*
Y-295000D01*
D02*
G37*
G36*
X-82500D02*
X-87500D01*
Y-290000D01*
X-82500D01*
Y-295000D01*
D02*
G37*
G36*
X-75000D02*
X-80000D01*
Y-290000D01*
X-75000D01*
Y-295000D01*
D02*
G37*
G36*
X280000D02*
X275000D01*
Y-290000D01*
X280000D01*
Y-295000D01*
D02*
G37*
G36*
X-305000Y-295000D02*
X-310000D01*
Y-290000D01*
X-305000D01*
Y-295000D01*
D02*
G37*
G36*
X-297500D02*
X-302500D01*
Y-290000D01*
X-297500D01*
Y-295000D01*
D02*
G37*
G36*
X-290000D02*
X-295000D01*
Y-290000D01*
X-290000D01*
Y-295000D01*
D02*
G37*
G36*
X-312500D02*
X-317500D01*
Y-290000D01*
X-312500D01*
Y-295000D01*
D02*
G37*
G36*
X317500Y-295000D02*
X312500D01*
Y-290000D01*
X317500D01*
Y-295000D01*
D02*
G37*
G36*
X325000D02*
X320000D01*
Y-290000D01*
X325000D01*
Y-295000D01*
D02*
G37*
G36*
X-320000Y-295000D02*
X-325000D01*
Y-290000D01*
X-320000D01*
Y-295000D01*
D02*
G37*
G36*
X310000Y-287500D02*
X305000D01*
Y-282500D01*
X310000D01*
Y-287500D01*
D02*
G37*
G36*
X317500D02*
X312500D01*
Y-282500D01*
X317500D01*
Y-287500D01*
D02*
G37*
G36*
X325000D02*
X320000D01*
Y-282500D01*
X325000D01*
Y-287500D01*
D02*
G37*
G36*
X302500D02*
X297500D01*
Y-282500D01*
X302500D01*
Y-287500D01*
D02*
G37*
G36*
X280000D02*
X275000D01*
Y-282500D01*
X280000D01*
Y-287500D01*
D02*
G37*
G36*
X287500D02*
X282500D01*
Y-282500D01*
X287500D01*
Y-287500D01*
D02*
G37*
G36*
X295000D02*
X290000D01*
Y-282500D01*
X295000D01*
Y-287500D01*
D02*
G37*
G36*
X-290000Y-280000D02*
X-295000D01*
Y-275000D01*
X-290000D01*
Y-280000D01*
D02*
G37*
G36*
X-282500D02*
X-287500D01*
Y-275000D01*
X-282500D01*
Y-280000D01*
D02*
G37*
G36*
X-275000D02*
X-280000D01*
Y-275000D01*
X-275000D01*
Y-280000D01*
D02*
G37*
G36*
X-297500D02*
X-302500D01*
Y-275000D01*
X-297500D01*
Y-280000D01*
D02*
G37*
G36*
X-320000D02*
X-325000D01*
Y-275000D01*
X-320000D01*
Y-280000D01*
D02*
G37*
G36*
X-312500D02*
X-317500D01*
Y-275000D01*
X-312500D01*
Y-280000D01*
D02*
G37*
G36*
X-305000D02*
X-310000D01*
Y-275000D01*
X-305000D01*
Y-280000D01*
D02*
G37*
G36*
X125000Y-287500D02*
X120000D01*
Y-282500D01*
X125000D01*
Y-287500D01*
D02*
G37*
G36*
X-97500D02*
X-102500D01*
Y-282500D01*
X-97500D01*
Y-287500D01*
D02*
G37*
G36*
X-90000D02*
X-95000D01*
Y-282500D01*
X-90000D01*
Y-287500D01*
D02*
G37*
G36*
X-82500D02*
X-87500D01*
Y-282500D01*
X-82500D01*
Y-287500D01*
D02*
G37*
G36*
X-105000D02*
X-110000D01*
Y-282500D01*
X-105000D01*
Y-287500D01*
D02*
G37*
G36*
X-275000D02*
X-280000D01*
Y-282500D01*
X-275000D01*
Y-287500D01*
D02*
G37*
G36*
X-120000D02*
X-125000D01*
Y-282500D01*
X-120000D01*
Y-287500D01*
D02*
G37*
G36*
X-112500D02*
X-117500D01*
Y-282500D01*
X-112500D01*
Y-287500D01*
D02*
G37*
G36*
X102500D02*
X97500D01*
Y-282500D01*
X102500D01*
Y-287500D01*
D02*
G37*
G36*
X110000D02*
X105000D01*
Y-282500D01*
X110000D01*
Y-287500D01*
D02*
G37*
G36*
X117500D02*
X112500D01*
Y-282500D01*
X117500D01*
Y-287500D01*
D02*
G37*
G36*
X95000D02*
X90000D01*
Y-282500D01*
X95000D01*
Y-287500D01*
D02*
G37*
G36*
X-75000D02*
X-80000D01*
Y-282500D01*
X-75000D01*
Y-287500D01*
D02*
G37*
G36*
X80000D02*
X75000D01*
Y-282500D01*
X80000D01*
Y-287500D01*
D02*
G37*
G36*
X87500D02*
X82500D01*
Y-282500D01*
X87500D01*
Y-287500D01*
D02*
G37*
G36*
X-275000Y90000D02*
X-280000D01*
Y95000D01*
X-275000D01*
Y90000D01*
D02*
G37*
G36*
X302500Y320000D02*
X297500D01*
Y325000D01*
X302500D01*
Y320000D01*
D02*
G37*
G36*
X310000D02*
X305000D01*
Y325000D01*
X310000D01*
Y320000D01*
D02*
G37*
G36*
X317500D02*
X312500D01*
Y325000D01*
X317500D01*
Y320000D01*
D02*
G37*
G36*
X295000D02*
X290000D01*
Y325000D01*
X295000D01*
Y320000D01*
D02*
G37*
G36*
X125000D02*
X120000D01*
Y325000D01*
X125000D01*
Y320000D01*
D02*
G37*
G36*
X280000D02*
X275000D01*
Y325000D01*
X280000D01*
Y320000D01*
D02*
G37*
G36*
X287500D02*
X282500D01*
Y325000D01*
X287500D01*
Y320000D01*
D02*
G37*
G36*
X-417500Y557500D02*
X-422500D01*
Y562500D01*
X-417500D01*
Y557500D01*
D02*
G37*
G36*
X-410000D02*
X-415000D01*
Y562500D01*
X-410000D01*
Y557500D01*
D02*
G37*
G36*
X-402500D02*
X-407500D01*
Y562500D01*
X-402500D01*
Y557500D01*
D02*
G37*
G36*
X-112500Y556300D02*
X-117500D01*
Y561300D01*
X-112500D01*
Y556300D01*
D02*
G37*
G36*
X325000Y320000D02*
X320000D01*
Y325000D01*
X325000D01*
Y320000D01*
D02*
G37*
G36*
X-127500Y556300D02*
X-132500D01*
Y561300D01*
X-127500D01*
Y556300D01*
D02*
G37*
G36*
X-120000D02*
X-125000D01*
Y561300D01*
X-120000D01*
Y556300D01*
D02*
G37*
G36*
X117500Y320000D02*
X112500D01*
Y325000D01*
X117500D01*
Y320000D01*
D02*
G37*
G36*
X-105000D02*
X-110000D01*
Y325000D01*
X-105000D01*
Y320000D01*
D02*
G37*
G36*
X-97500D02*
X-102500D01*
Y325000D01*
X-97500D01*
Y320000D01*
D02*
G37*
G36*
X-90000D02*
X-95000D01*
Y325000D01*
X-90000D01*
Y320000D01*
D02*
G37*
G36*
X-112500D02*
X-117500D01*
Y325000D01*
X-112500D01*
Y320000D01*
D02*
G37*
G36*
X-282500D02*
X-287500D01*
Y325000D01*
X-282500D01*
Y320000D01*
D02*
G37*
G36*
X-275000D02*
X-280000D01*
Y325000D01*
X-275000D01*
Y320000D01*
D02*
G37*
G36*
X-120000D02*
X-125000D01*
Y325000D01*
X-120000D01*
Y320000D01*
D02*
G37*
G36*
X95000D02*
X90000D01*
Y325000D01*
X95000D01*
Y320000D01*
D02*
G37*
G36*
X102500D02*
X97500D01*
Y325000D01*
X102500D01*
Y320000D01*
D02*
G37*
G36*
X110000D02*
X105000D01*
Y325000D01*
X110000D01*
Y320000D01*
D02*
G37*
G36*
X87500D02*
X82500D01*
Y325000D01*
X87500D01*
Y320000D01*
D02*
G37*
G36*
X-82500D02*
X-87500D01*
Y325000D01*
X-82500D01*
Y320000D01*
D02*
G37*
G36*
X-75000D02*
X-80000D01*
Y325000D01*
X-75000D01*
Y320000D01*
D02*
G37*
G36*
X80000D02*
X75000D01*
Y325000D01*
X80000D01*
Y320000D01*
D02*
G37*
G36*
X-417500Y580000D02*
X-422500D01*
Y585000D01*
X-417500D01*
Y580000D01*
D02*
G37*
G36*
X-410000D02*
X-415000D01*
Y585000D01*
X-410000D01*
Y580000D01*
D02*
G37*
G36*
X-402500D02*
X-407500D01*
Y585000D01*
X-402500D01*
Y580000D01*
D02*
G37*
G36*
X-425000D02*
X-430000D01*
Y585000D01*
X-425000D01*
Y580000D01*
D02*
G37*
G36*
X-127500Y578800D02*
X-132500D01*
Y583800D01*
X-127500D01*
Y578800D01*
D02*
G37*
G36*
X-120000D02*
X-125000D01*
Y583800D01*
X-120000D01*
Y578800D01*
D02*
G37*
G36*
X-112500D02*
X-117500D01*
Y583800D01*
X-112500D01*
Y578800D01*
D02*
G37*
G36*
X-410000Y587500D02*
X-415000D01*
Y592500D01*
X-410000D01*
Y587500D01*
D02*
G37*
G36*
X-402500D02*
X-407500D01*
Y592500D01*
X-402500D01*
Y587500D01*
D02*
G37*
G36*
X-135000Y591300D02*
X-140000D01*
Y596300D01*
X-135000D01*
Y591300D01*
D02*
G37*
G36*
X-417500Y587500D02*
X-422500D01*
Y592500D01*
X-417500D01*
Y587500D01*
D02*
G37*
G36*
X-127500Y586300D02*
X-132500D01*
Y591300D01*
X-127500D01*
Y586300D01*
D02*
G37*
G36*
X-120000D02*
X-125000D01*
Y591300D01*
X-120000D01*
Y586300D01*
D02*
G37*
G36*
X-112500D02*
X-117500D01*
Y591300D01*
X-112500D01*
Y586300D01*
D02*
G37*
G36*
X-135000Y578800D02*
X-140000D01*
Y583800D01*
X-135000D01*
Y578800D01*
D02*
G37*
G36*
X-410000Y565000D02*
X-415000D01*
Y570000D01*
X-410000D01*
Y565000D01*
D02*
G37*
G36*
X-402500D02*
X-407500D01*
Y570000D01*
X-402500D01*
Y565000D01*
D02*
G37*
G36*
X-135000Y566300D02*
X-140000D01*
Y571300D01*
X-135000D01*
Y566300D01*
D02*
G37*
G36*
X-417500Y565000D02*
X-422500D01*
Y570000D01*
X-417500D01*
Y565000D01*
D02*
G37*
G36*
X-127500Y563800D02*
X-132500D01*
Y568800D01*
X-127500D01*
Y563800D01*
D02*
G37*
G36*
X-120000D02*
X-125000D01*
Y568800D01*
X-120000D01*
Y563800D01*
D02*
G37*
G36*
X-112500D02*
X-117500D01*
Y568800D01*
X-112500D01*
Y563800D01*
D02*
G37*
G36*
X-417500Y572500D02*
X-422500D01*
Y577500D01*
X-417500D01*
Y572500D01*
D02*
G37*
G36*
X-410000D02*
X-415000D01*
Y577500D01*
X-410000D01*
Y572500D01*
D02*
G37*
G36*
X-402500D02*
X-407500D01*
Y577500D01*
X-402500D01*
Y572500D01*
D02*
G37*
G36*
X-112500Y571300D02*
X-117500D01*
Y576300D01*
X-112500D01*
Y571300D01*
D02*
G37*
G36*
X-425000Y567500D02*
X-430000D01*
Y572500D01*
X-425000D01*
Y567500D01*
D02*
G37*
G36*
X-127500Y571300D02*
X-132500D01*
Y576300D01*
X-127500D01*
Y571300D01*
D02*
G37*
G36*
X-120000D02*
X-125000D01*
Y576300D01*
X-120000D01*
Y571300D01*
D02*
G37*
G36*
X87500Y305000D02*
X82500D01*
Y310000D01*
X87500D01*
Y305000D01*
D02*
G37*
G36*
X95000D02*
X90000D01*
Y310000D01*
X95000D01*
Y305000D01*
D02*
G37*
G36*
X102500D02*
X97500D01*
Y310000D01*
X102500D01*
Y305000D01*
D02*
G37*
G36*
X80000D02*
X75000D01*
Y310000D01*
X80000D01*
Y305000D01*
D02*
G37*
G36*
X-290000D02*
X-295000D01*
Y310000D01*
X-290000D01*
Y305000D01*
D02*
G37*
G36*
X-282500D02*
X-287500D01*
Y310000D01*
X-282500D01*
Y305000D01*
D02*
G37*
G36*
X-275000D02*
X-280000D01*
Y310000D01*
X-275000D01*
Y305000D01*
D02*
G37*
G36*
X-312500Y312500D02*
X-317500D01*
Y317500D01*
X-312500D01*
Y312500D01*
D02*
G37*
G36*
X-305000D02*
X-310000D01*
Y317500D01*
X-305000D01*
Y312500D01*
D02*
G37*
G36*
X-297500D02*
X-302500D01*
Y317500D01*
X-297500D01*
Y312500D01*
D02*
G37*
G36*
X-320000D02*
X-325000D01*
Y317500D01*
X-320000D01*
Y312500D01*
D02*
G37*
G36*
X110000Y305000D02*
X105000D01*
Y310000D01*
X110000D01*
Y305000D01*
D02*
G37*
G36*
X117500D02*
X112500D01*
Y310000D01*
X117500D01*
Y305000D01*
D02*
G37*
G36*
X125000D02*
X120000D01*
Y310000D01*
X125000D01*
Y305000D01*
D02*
G37*
G36*
X-297500D02*
X-302500D01*
Y310000D01*
X-297500D01*
Y305000D01*
D02*
G37*
G36*
X280000Y305000D02*
X275000D01*
Y310000D01*
X280000D01*
Y305000D01*
D02*
G37*
G36*
X287500D02*
X282500D01*
Y310000D01*
X287500D01*
Y305000D01*
D02*
G37*
G36*
X295000D02*
X290000D01*
Y310000D01*
X295000D01*
Y305000D01*
D02*
G37*
G36*
X-75000D02*
X-80000D01*
Y310000D01*
X-75000D01*
Y305000D01*
D02*
G37*
G36*
X-97500D02*
X-102500D01*
Y310000D01*
X-97500D01*
Y305000D01*
D02*
G37*
G36*
X-90000D02*
X-95000D01*
Y310000D01*
X-90000D01*
Y305000D01*
D02*
G37*
G36*
X-82500D02*
X-87500D01*
Y310000D01*
X-82500D01*
Y305000D01*
D02*
G37*
G36*
X-320000Y305000D02*
X-325000D01*
Y310000D01*
X-320000D01*
Y305000D01*
D02*
G37*
G36*
X-312500D02*
X-317500D01*
Y310000D01*
X-312500D01*
Y305000D01*
D02*
G37*
G36*
X-305000D02*
X-310000D01*
Y310000D01*
X-305000D01*
Y305000D01*
D02*
G37*
G36*
X325000Y305000D02*
X320000D01*
Y310000D01*
X325000D01*
Y305000D01*
D02*
G37*
G36*
X302500D02*
X297500D01*
Y310000D01*
X302500D01*
Y305000D01*
D02*
G37*
G36*
X310000D02*
X305000D01*
Y310000D01*
X310000D01*
Y305000D01*
D02*
G37*
G36*
X317500D02*
X312500D01*
Y310000D01*
X317500D01*
Y305000D01*
D02*
G37*
G36*
X295000Y312500D02*
X290000D01*
Y317500D01*
X295000D01*
Y312500D01*
D02*
G37*
G36*
X302500D02*
X297500D01*
Y317500D01*
X302500D01*
Y312500D01*
D02*
G37*
G36*
X310000D02*
X305000D01*
Y317500D01*
X310000D01*
Y312500D01*
D02*
G37*
G36*
X287500D02*
X282500D01*
Y317500D01*
X287500D01*
Y312500D01*
D02*
G37*
G36*
X117500D02*
X112500D01*
Y317500D01*
X117500D01*
Y312500D01*
D02*
G37*
G36*
X125000D02*
X120000D01*
Y317500D01*
X125000D01*
Y312500D01*
D02*
G37*
G36*
X280000D02*
X275000D01*
Y317500D01*
X280000D01*
Y312500D01*
D02*
G37*
G36*
X-305000Y320000D02*
X-310000D01*
Y325000D01*
X-305000D01*
Y320000D01*
D02*
G37*
G36*
X-297500D02*
X-302500D01*
Y325000D01*
X-297500D01*
Y320000D01*
D02*
G37*
G36*
X-290000D02*
X-295000D01*
Y325000D01*
X-290000D01*
Y320000D01*
D02*
G37*
G36*
X-312500D02*
X-317500D01*
Y325000D01*
X-312500D01*
Y320000D01*
D02*
G37*
G36*
X317500Y312500D02*
X312500D01*
Y317500D01*
X317500D01*
Y312500D01*
D02*
G37*
G36*
X325000D02*
X320000D01*
Y317500D01*
X325000D01*
Y312500D01*
D02*
G37*
G36*
X-320000Y320000D02*
X-325000D01*
Y325000D01*
X-320000D01*
Y320000D01*
D02*
G37*
G36*
X110000Y312500D02*
X105000D01*
Y317500D01*
X110000D01*
Y312500D01*
D02*
G37*
G36*
X-112500D02*
X-117500D01*
Y317500D01*
X-112500D01*
Y312500D01*
D02*
G37*
G36*
X-105000D02*
X-110000D01*
Y317500D01*
X-105000D01*
Y312500D01*
D02*
G37*
G36*
X-97500D02*
X-102500D01*
Y317500D01*
X-97500D01*
Y312500D01*
D02*
G37*
G36*
X-120000D02*
X-125000D01*
Y317500D01*
X-120000D01*
Y312500D01*
D02*
G37*
G36*
X-290000D02*
X-295000D01*
Y317500D01*
X-290000D01*
Y312500D01*
D02*
G37*
G36*
X-282500D02*
X-287500D01*
Y317500D01*
X-282500D01*
Y312500D01*
D02*
G37*
G36*
X-275000D02*
X-280000D01*
Y317500D01*
X-275000D01*
Y312500D01*
D02*
G37*
G36*
X87500D02*
X82500D01*
Y317500D01*
X87500D01*
Y312500D01*
D02*
G37*
G36*
X95000D02*
X90000D01*
Y317500D01*
X95000D01*
Y312500D01*
D02*
G37*
G36*
X102500D02*
X97500D01*
Y317500D01*
X102500D01*
Y312500D01*
D02*
G37*
G36*
X80000D02*
X75000D01*
Y317500D01*
X80000D01*
Y312500D01*
D02*
G37*
G36*
X-90000D02*
X-95000D01*
Y317500D01*
X-90000D01*
Y312500D01*
D02*
G37*
G36*
X-82500D02*
X-87500D01*
Y317500D01*
X-82500D01*
Y312500D01*
D02*
G37*
G36*
X-75000D02*
X-80000D01*
Y317500D01*
X-75000D01*
Y312500D01*
D02*
G37*
G36*
X-425000Y592500D02*
X-430000D01*
Y597500D01*
X-425000D01*
Y592500D01*
D02*
G37*
G36*
X-125050Y706750D02*
X-130050D01*
Y711750D01*
X-125050D01*
Y706750D01*
D02*
G37*
G36*
X-117550D02*
X-122550D01*
Y711750D01*
X-117550D01*
Y706750D01*
D02*
G37*
G36*
X-102550D02*
X-107550D01*
Y711750D01*
X-102550D01*
Y706750D01*
D02*
G37*
G36*
X-132550D02*
X-137550D01*
Y711750D01*
X-132550D01*
Y706750D01*
D02*
G37*
G36*
X-407500Y700000D02*
X-412500D01*
Y705000D01*
X-407500D01*
Y700000D01*
D02*
G37*
G36*
X-110050Y706750D02*
X-115050D01*
Y711750D01*
X-110050D01*
Y706750D01*
D02*
G37*
G36*
X-140050Y706750D02*
X-145050D01*
Y711750D01*
X-140050D01*
Y706750D01*
D02*
G37*
G36*
X-415000Y707500D02*
X-420000D01*
Y712500D01*
X-415000D01*
Y707500D01*
D02*
G37*
G36*
X-407500D02*
X-412500D01*
Y712500D01*
X-407500D01*
Y707500D01*
D02*
G37*
G36*
X-392500D02*
X-397500D01*
Y712500D01*
X-392500D01*
Y707500D01*
D02*
G37*
G36*
X-422500D02*
X-427500D01*
Y712500D01*
X-422500D01*
Y707500D01*
D02*
G37*
G36*
X-95050Y706750D02*
X-100050D01*
Y711750D01*
X-95050D01*
Y706750D01*
D02*
G37*
G36*
X-400000Y707500D02*
X-405000D01*
Y712500D01*
X-400000D01*
Y707500D01*
D02*
G37*
G36*
X-430000Y707500D02*
X-435000D01*
Y712500D01*
X-430000D01*
Y707500D01*
D02*
G37*
G36*
X-415000Y700000D02*
X-420000D01*
Y705000D01*
X-415000D01*
Y700000D01*
D02*
G37*
G36*
X-95050Y699250D02*
X-100050D01*
Y704250D01*
X-95050D01*
Y699250D01*
D02*
G37*
G36*
X-140050Y699250D02*
X-145050D01*
Y704250D01*
X-140050D01*
Y699250D01*
D02*
G37*
G36*
X-132550D02*
X-137550D01*
Y704250D01*
X-132550D01*
Y699250D01*
D02*
G37*
G36*
X-102550Y699250D02*
X-107550D01*
Y704250D01*
X-102550D01*
Y699250D01*
D02*
G37*
G36*
X-409951Y660749D02*
X-414951D01*
Y665749D01*
X-409951D01*
Y660749D01*
D02*
G37*
G36*
X-402451D02*
X-407451D01*
Y665749D01*
X-402451D01*
Y660749D01*
D02*
G37*
G36*
X-110050Y699250D02*
X-115050D01*
Y704250D01*
X-110050D01*
Y699250D01*
D02*
G37*
G36*
X-385000Y700000D02*
X-390000D01*
Y705000D01*
X-385000D01*
Y700000D01*
D02*
G37*
G36*
X-430000Y700000D02*
X-435000D01*
Y705000D01*
X-430000D01*
Y700000D01*
D02*
G37*
G36*
X-422500D02*
X-427500D01*
Y705000D01*
X-422500D01*
Y700000D01*
D02*
G37*
G36*
X-392500Y700000D02*
X-397500D01*
Y705000D01*
X-392500D01*
Y700000D01*
D02*
G37*
G36*
X-125050Y699250D02*
X-130050D01*
Y704250D01*
X-125050D01*
Y699250D01*
D02*
G37*
G36*
X-117550D02*
X-122550D01*
Y704250D01*
X-117550D01*
Y699250D01*
D02*
G37*
G36*
X-400000Y700000D02*
X-405000D01*
Y705000D01*
X-400000D01*
Y700000D01*
D02*
G37*
G36*
X-420000Y722500D02*
X-425000D01*
Y727500D01*
X-420000D01*
Y722500D01*
D02*
G37*
G36*
X-395000D02*
X-400000D01*
Y727500D01*
X-395000D01*
Y722500D01*
D02*
G37*
G36*
X-43000Y803500D02*
X-61000D01*
Y821500D01*
X-43000D01*
Y803500D01*
D02*
G37*
G36*
X-407500Y722500D02*
X-412500D01*
Y727500D01*
X-407500D01*
Y722500D01*
D02*
G37*
G36*
X-117550Y721750D02*
X-122550D01*
Y726750D01*
X-117550D01*
Y721750D01*
D02*
G37*
G36*
X-130050Y721750D02*
X-135050D01*
Y726750D01*
X-130050D01*
Y721750D01*
D02*
G37*
G36*
X-105050D02*
X-110050D01*
Y726750D01*
X-105050D01*
Y721750D01*
D02*
G37*
G36*
X-43000Y845500D02*
X-61000D01*
Y862000D01*
X-43000D01*
Y845500D01*
D02*
G37*
G36*
X41000D02*
X23000D01*
Y862000D01*
X41000D01*
Y845500D01*
D02*
G37*
G36*
X20000D02*
X15000D01*
Y842500D01*
X20000D01*
Y824500D01*
X2000D01*
Y826500D01*
X-1000D01*
Y824500D01*
X-19000D01*
Y826500D01*
X-22000D01*
Y824500D01*
X-40000D01*
Y842500D01*
X-35000D01*
Y845500D01*
X-40000D01*
Y862000D01*
X-22000D01*
Y851500D01*
X-19000D01*
Y862000D01*
X-1000D01*
Y851500D01*
X2000D01*
Y862000D01*
X20000D01*
Y845500D01*
D02*
G37*
G36*
X41000Y824500D02*
X23000D01*
Y842500D01*
X41000D01*
Y824500D01*
D02*
G37*
G36*
Y803500D02*
X23000D01*
Y821500D01*
X41000D01*
Y803500D01*
D02*
G37*
G36*
X15000Y821500D02*
X20000D01*
Y803500D01*
X15000D01*
Y796500D01*
X-7000D01*
Y803500D01*
X-13000D01*
Y796500D01*
X-35000D01*
Y803500D01*
X-40000D01*
Y821500D01*
X-35000D01*
Y821500D01*
X-13000D01*
Y821500D01*
X-7000D01*
Y821500D01*
X15000D01*
Y821500D01*
D02*
G37*
G36*
X-43000Y824500D02*
X-61000D01*
Y842500D01*
X-43000D01*
Y824500D01*
D02*
G37*
G36*
X-385000Y715000D02*
X-390000D01*
Y720000D01*
X-385000D01*
Y715000D01*
D02*
G37*
G36*
X-117550Y714250D02*
X-122550D01*
Y719250D01*
X-117550D01*
Y714250D01*
D02*
G37*
G36*
X-110050D02*
X-115050D01*
Y719250D01*
X-110050D01*
Y714250D01*
D02*
G37*
G36*
X-102550Y714250D02*
X-107550D01*
Y719250D01*
X-102550D01*
Y714250D01*
D02*
G37*
G36*
X-125050Y714250D02*
X-130050D01*
Y719250D01*
X-125050D01*
Y714250D01*
D02*
G37*
G36*
X-385000Y707500D02*
X-390000D01*
Y712500D01*
X-385000D01*
Y707500D01*
D02*
G37*
G36*
X-140050Y714250D02*
X-145050D01*
Y719250D01*
X-140050D01*
Y714250D01*
D02*
G37*
G36*
X-132550D02*
X-137550D01*
Y719250D01*
X-132550D01*
Y714250D01*
D02*
G37*
G36*
X-407500Y715000D02*
X-412500D01*
Y720000D01*
X-407500D01*
Y715000D01*
D02*
G37*
G36*
X-400000D02*
X-405000D01*
Y720000D01*
X-400000D01*
Y715000D01*
D02*
G37*
G36*
X-392500Y715000D02*
X-397500D01*
Y720000D01*
X-392500D01*
Y715000D01*
D02*
G37*
G36*
X-415000Y715000D02*
X-420000D01*
Y720000D01*
X-415000D01*
Y715000D01*
D02*
G37*
G36*
X-95050Y714250D02*
X-100050D01*
Y719250D01*
X-95050D01*
Y714250D01*
D02*
G37*
G36*
X-430000Y715000D02*
X-435000D01*
Y720000D01*
X-430000D01*
Y715000D01*
D02*
G37*
G36*
X-422500D02*
X-427500D01*
Y720000D01*
X-422500D01*
Y715000D01*
D02*
G37*
G36*
X-120001Y622499D02*
X-125001D01*
Y627499D01*
X-120001D01*
Y622499D01*
D02*
G37*
G36*
X-112501D02*
X-117501D01*
Y627499D01*
X-112501D01*
Y622499D01*
D02*
G37*
G36*
X-417451Y623249D02*
X-422451D01*
Y628249D01*
X-417451D01*
Y623249D01*
D02*
G37*
G36*
X-127501Y622499D02*
X-132501D01*
Y627499D01*
X-127501D01*
Y622499D01*
D02*
G37*
G36*
X-417451Y615749D02*
X-422451D01*
Y620749D01*
X-417451D01*
Y615749D01*
D02*
G37*
G36*
X-409951D02*
X-414951D01*
Y620749D01*
X-409951D01*
Y615749D01*
D02*
G37*
G36*
X-402451D02*
X-407451D01*
Y620749D01*
X-402451D01*
Y615749D01*
D02*
G37*
G36*
X-127501Y629999D02*
X-132501D01*
Y634999D01*
X-127501D01*
Y629999D01*
D02*
G37*
G36*
X-120001D02*
X-125001D01*
Y634999D01*
X-120001D01*
Y629999D01*
D02*
G37*
G36*
X-112501D02*
X-117501D01*
Y634999D01*
X-112501D01*
Y629999D01*
D02*
G37*
G36*
X-424951Y625749D02*
X-429951D01*
Y630749D01*
X-424951D01*
Y625749D01*
D02*
G37*
G36*
X-409951Y623249D02*
X-414951D01*
Y628249D01*
X-409951D01*
Y623249D01*
D02*
G37*
G36*
X-402451D02*
X-407451D01*
Y628249D01*
X-402451D01*
Y623249D01*
D02*
G37*
G36*
X-135001Y624999D02*
X-140001D01*
Y629999D01*
X-135001D01*
Y624999D01*
D02*
G37*
G36*
X-112501Y614999D02*
X-117501D01*
Y619999D01*
X-112501D01*
Y614999D01*
D02*
G37*
G36*
X-410000Y595000D02*
X-415000D01*
Y600000D01*
X-410000D01*
Y595000D01*
D02*
G37*
G36*
X-402500D02*
X-407500D01*
Y600000D01*
X-402500D01*
Y595000D01*
D02*
G37*
G36*
X-127500Y601300D02*
X-132500D01*
Y606300D01*
X-127500D01*
Y601300D01*
D02*
G37*
G36*
X-417500Y595000D02*
X-422500D01*
Y600000D01*
X-417500D01*
Y595000D01*
D02*
G37*
G36*
X-127500Y593800D02*
X-132500D01*
Y598800D01*
X-127500D01*
Y593800D01*
D02*
G37*
G36*
X-120000D02*
X-125000D01*
Y598800D01*
X-120000D01*
Y593800D01*
D02*
G37*
G36*
X-112500D02*
X-117500D01*
Y598800D01*
X-112500D01*
Y593800D01*
D02*
G37*
G36*
X-402500Y602500D02*
X-407500D01*
Y607500D01*
X-402500D01*
Y602500D01*
D02*
G37*
G36*
X-127501Y614999D02*
X-132501D01*
Y619999D01*
X-127501D01*
Y614999D01*
D02*
G37*
G36*
X-120001D02*
X-125001D01*
Y619999D01*
X-120001D01*
Y614999D01*
D02*
G37*
G36*
X-410000Y602500D02*
X-415000D01*
Y607500D01*
X-410000D01*
Y602500D01*
D02*
G37*
G36*
X-120000Y601300D02*
X-125000D01*
Y606300D01*
X-120000D01*
Y601300D01*
D02*
G37*
G36*
X-112500D02*
X-117500D01*
Y606300D01*
X-112500D01*
Y601300D01*
D02*
G37*
G36*
X-417500Y602500D02*
X-422500D01*
Y607500D01*
X-417500D01*
Y602500D01*
D02*
G37*
G36*
X-127501Y652499D02*
X-132501D01*
Y657499D01*
X-127501D01*
Y652499D01*
D02*
G37*
G36*
X-120001D02*
X-125001D01*
Y657499D01*
X-120001D01*
Y652499D01*
D02*
G37*
G36*
X-112501D02*
X-117501D01*
Y657499D01*
X-112501D01*
Y652499D01*
D02*
G37*
G36*
X-424951Y650749D02*
X-429951D01*
Y655749D01*
X-424951D01*
Y650749D01*
D02*
G37*
G36*
X-409951Y645749D02*
X-414951D01*
Y650749D01*
X-409951D01*
Y645749D01*
D02*
G37*
G36*
X-402451D02*
X-407451D01*
Y650749D01*
X-402451D01*
Y645749D01*
D02*
G37*
G36*
X-135001Y649999D02*
X-140001D01*
Y654999D01*
X-135001D01*
Y649999D01*
D02*
G37*
G36*
X-120001Y659999D02*
X-125001D01*
Y664999D01*
X-120001D01*
Y659999D01*
D02*
G37*
G36*
X-112501D02*
X-117501D01*
Y664999D01*
X-112501D01*
Y659999D01*
D02*
G37*
G36*
X-417451Y660749D02*
X-422451D01*
Y665749D01*
X-417451D01*
Y660749D01*
D02*
G37*
G36*
X-127501Y659999D02*
X-132501D01*
Y664999D01*
X-127501D01*
Y659999D01*
D02*
G37*
G36*
X-417451Y653249D02*
X-422451D01*
Y658249D01*
X-417451D01*
Y653249D01*
D02*
G37*
G36*
X-409951D02*
X-414951D01*
Y658249D01*
X-409951D01*
Y653249D01*
D02*
G37*
G36*
X-402451D02*
X-407451D01*
Y658249D01*
X-402451D01*
Y653249D01*
D02*
G37*
G36*
X-417451Y645749D02*
X-422451D01*
Y650749D01*
X-417451D01*
Y645749D01*
D02*
G37*
G36*
X-127501Y637499D02*
X-132501D01*
Y642499D01*
X-127501D01*
Y637499D01*
D02*
G37*
G36*
X-120001D02*
X-125001D01*
Y642499D01*
X-120001D01*
Y637499D01*
D02*
G37*
G36*
X-112501D02*
X-117501D01*
Y642499D01*
X-112501D01*
Y637499D01*
D02*
G37*
G36*
X-135001D02*
X-140001D01*
Y642499D01*
X-135001D01*
Y637499D01*
D02*
G37*
G36*
X-417451Y630749D02*
X-422451D01*
Y635749D01*
X-417451D01*
Y630749D01*
D02*
G37*
G36*
X-409951D02*
X-414951D01*
Y635749D01*
X-409951D01*
Y630749D01*
D02*
G37*
G36*
X-402451D02*
X-407451D01*
Y635749D01*
X-402451D01*
Y630749D01*
D02*
G37*
G36*
X-127501Y644999D02*
X-132501D01*
Y649999D01*
X-127501D01*
Y644999D01*
D02*
G37*
G36*
X-120001D02*
X-125001D01*
Y649999D01*
X-120001D01*
Y644999D01*
D02*
G37*
G36*
X-112501D02*
X-117501D01*
Y649999D01*
X-112501D01*
Y644999D01*
D02*
G37*
G36*
X-402451Y638249D02*
X-407451D01*
Y643249D01*
X-402451D01*
Y638249D01*
D02*
G37*
G36*
X-424951D02*
X-429951D01*
Y643249D01*
X-424951D01*
Y638249D01*
D02*
G37*
G36*
X-417451D02*
X-422451D01*
Y643249D01*
X-417451D01*
Y638249D01*
D02*
G37*
G36*
X-409951D02*
X-414951D01*
Y643249D01*
X-409951D01*
Y638249D01*
D02*
G37*
G36*
X-105000Y305000D02*
X-110000D01*
Y310000D01*
X-105000D01*
Y305000D01*
D02*
G37*
G36*
X80000Y112500D02*
X75000D01*
Y117500D01*
X80000D01*
Y112500D01*
D02*
G37*
G36*
X87500D02*
X82500D01*
Y117500D01*
X87500D01*
Y112500D01*
D02*
G37*
G36*
X95000D02*
X90000D01*
Y117500D01*
X95000D01*
Y112500D01*
D02*
G37*
G36*
X-75000D02*
X-80000D01*
Y117500D01*
X-75000D01*
Y112500D01*
D02*
G37*
G36*
X-97500D02*
X-102500D01*
Y117500D01*
X-97500D01*
Y112500D01*
D02*
G37*
G36*
X-90000D02*
X-95000D01*
Y117500D01*
X-90000D01*
Y112500D01*
D02*
G37*
G36*
X-82500D02*
X-87500D01*
Y117500D01*
X-82500D01*
Y112500D01*
D02*
G37*
G36*
X280000D02*
X275000D01*
Y117500D01*
X280000D01*
Y112500D01*
D02*
G37*
G36*
X287500D02*
X282500D01*
Y117500D01*
X287500D01*
Y112500D01*
D02*
G37*
G36*
X295000D02*
X290000D01*
Y117500D01*
X295000D01*
Y112500D01*
D02*
G37*
G36*
X125000D02*
X120000D01*
Y117500D01*
X125000D01*
Y112500D01*
D02*
G37*
G36*
X102500D02*
X97500D01*
Y117500D01*
X102500D01*
Y112500D01*
D02*
G37*
G36*
X110000D02*
X105000D01*
Y117500D01*
X110000D01*
Y112500D01*
D02*
G37*
G36*
X117500D02*
X112500D01*
Y117500D01*
X117500D01*
Y112500D01*
D02*
G37*
G36*
X-105000D02*
X-110000D01*
Y117500D01*
X-105000D01*
Y112500D01*
D02*
G37*
G36*
X125000Y105000D02*
X120000D01*
Y110000D01*
X125000D01*
Y105000D01*
D02*
G37*
G36*
X-320000Y112500D02*
X-325000D01*
Y117500D01*
X-320000D01*
Y112500D01*
D02*
G37*
G36*
X-312500D02*
X-317500D01*
Y117500D01*
X-312500D01*
Y112500D01*
D02*
G37*
G36*
X117500Y105000D02*
X112500D01*
Y110000D01*
X117500D01*
Y105000D01*
D02*
G37*
G36*
X95000D02*
X90000D01*
Y110000D01*
X95000D01*
Y105000D01*
D02*
G37*
G36*
X102500D02*
X97500D01*
Y110000D01*
X102500D01*
Y105000D01*
D02*
G37*
G36*
X110000D02*
X105000D01*
Y110000D01*
X110000D01*
Y105000D01*
D02*
G37*
G36*
X-275000Y112500D02*
X-280000D01*
Y117500D01*
X-275000D01*
Y112500D01*
D02*
G37*
G36*
X-120000D02*
X-125000D01*
Y117500D01*
X-120000D01*
Y112500D01*
D02*
G37*
G36*
X-112500D02*
X-117500D01*
Y117500D01*
X-112500D01*
Y112500D01*
D02*
G37*
G36*
X-282500D02*
X-287500D01*
Y117500D01*
X-282500D01*
Y112500D01*
D02*
G37*
G36*
X-305000D02*
X-310000D01*
Y117500D01*
X-305000D01*
Y112500D01*
D02*
G37*
G36*
X-297500D02*
X-302500D01*
Y117500D01*
X-297500D01*
Y112500D01*
D02*
G37*
G36*
X-290000D02*
X-295000D01*
Y117500D01*
X-290000D01*
Y112500D01*
D02*
G37*
G36*
X87500Y120000D02*
X82500D01*
Y125000D01*
X87500D01*
Y120000D01*
D02*
G37*
G36*
X95000D02*
X90000D01*
Y125000D01*
X95000D01*
Y120000D01*
D02*
G37*
G36*
X102500D02*
X97500D01*
Y125000D01*
X102500D01*
Y120000D01*
D02*
G37*
G36*
X80000D02*
X75000D01*
Y125000D01*
X80000D01*
Y120000D01*
D02*
G37*
G36*
X-90000D02*
X-95000D01*
Y125000D01*
X-90000D01*
Y120000D01*
D02*
G37*
G36*
X-82500D02*
X-87500D01*
Y125000D01*
X-82500D01*
Y120000D01*
D02*
G37*
G36*
X-75000D02*
X-80000D01*
Y125000D01*
X-75000D01*
Y120000D01*
D02*
G37*
G36*
X287500D02*
X282500D01*
Y125000D01*
X287500D01*
Y120000D01*
D02*
G37*
G36*
X295000D02*
X290000D01*
Y125000D01*
X295000D01*
Y120000D01*
D02*
G37*
G36*
X302500D02*
X297500D01*
Y125000D01*
X302500D01*
Y120000D01*
D02*
G37*
G36*
X280000D02*
X275000D01*
Y125000D01*
X280000D01*
Y120000D01*
D02*
G37*
G36*
X110000D02*
X105000D01*
Y125000D01*
X110000D01*
Y120000D01*
D02*
G37*
G36*
X117500D02*
X112500D01*
Y125000D01*
X117500D01*
Y120000D01*
D02*
G37*
G36*
X125000D02*
X120000D01*
Y125000D01*
X125000D01*
Y120000D01*
D02*
G37*
G36*
X-97500D02*
X-102500D01*
Y125000D01*
X-97500D01*
Y120000D01*
D02*
G37*
G36*
X-320000D02*
X-325000D01*
Y125000D01*
X-320000D01*
Y120000D01*
D02*
G37*
G36*
X-312500D02*
X-317500D01*
Y125000D01*
X-312500D01*
Y120000D01*
D02*
G37*
G36*
X-305000D02*
X-310000D01*
Y125000D01*
X-305000D01*
Y120000D01*
D02*
G37*
G36*
X325000Y112500D02*
X320000D01*
Y117500D01*
X325000D01*
Y112500D01*
D02*
G37*
G36*
X302500D02*
X297500D01*
Y117500D01*
X302500D01*
Y112500D01*
D02*
G37*
G36*
X310000D02*
X305000D01*
Y117500D01*
X310000D01*
Y112500D01*
D02*
G37*
G36*
X317500D02*
X312500D01*
Y117500D01*
X317500D01*
Y112500D01*
D02*
G37*
G36*
X-120000Y120000D02*
X-125000D01*
Y125000D01*
X-120000D01*
Y120000D01*
D02*
G37*
G36*
X-112500D02*
X-117500D01*
Y125000D01*
X-112500D01*
Y120000D01*
D02*
G37*
G36*
X-105000D02*
X-110000D01*
Y125000D01*
X-105000D01*
Y120000D01*
D02*
G37*
G36*
X-275000D02*
X-280000D01*
Y125000D01*
X-275000D01*
Y120000D01*
D02*
G37*
G36*
X-297500D02*
X-302500D01*
Y125000D01*
X-297500D01*
Y120000D01*
D02*
G37*
G36*
X-290000D02*
X-295000D01*
Y125000D01*
X-290000D01*
Y120000D01*
D02*
G37*
G36*
X-282500D02*
X-287500D01*
Y125000D01*
X-282500D01*
Y120000D01*
D02*
G37*
G36*
X-82500Y97500D02*
X-87500D01*
Y102500D01*
X-82500D01*
Y97500D01*
D02*
G37*
G36*
X-75000D02*
X-80000D01*
Y102500D01*
X-75000D01*
Y97500D01*
D02*
G37*
G36*
X80000D02*
X75000D01*
Y102500D01*
X80000D01*
Y97500D01*
D02*
G37*
G36*
X-90000D02*
X-95000D01*
Y102500D01*
X-90000D01*
Y97500D01*
D02*
G37*
G36*
X-112500D02*
X-117500D01*
Y102500D01*
X-112500D01*
Y97500D01*
D02*
G37*
G36*
X-105000D02*
X-110000D01*
Y102500D01*
X-105000D01*
Y97500D01*
D02*
G37*
G36*
X-97500D02*
X-102500D01*
Y102500D01*
X-97500D01*
Y97500D01*
D02*
G37*
G36*
X117500D02*
X112500D01*
Y102500D01*
X117500D01*
Y97500D01*
D02*
G37*
G36*
X125000D02*
X120000D01*
Y102500D01*
X125000D01*
Y97500D01*
D02*
G37*
G36*
X280000D02*
X275000D01*
Y102500D01*
X280000D01*
Y97500D01*
D02*
G37*
G36*
X110000D02*
X105000D01*
Y102500D01*
X110000D01*
Y97500D01*
D02*
G37*
G36*
X87500D02*
X82500D01*
Y102500D01*
X87500D01*
Y97500D01*
D02*
G37*
G36*
X95000D02*
X90000D01*
Y102500D01*
X95000D01*
Y97500D01*
D02*
G37*
G36*
X102500D02*
X97500D01*
Y102500D01*
X102500D01*
Y97500D01*
D02*
G37*
G36*
X-120000D02*
X-125000D01*
Y102500D01*
X-120000D01*
Y97500D01*
D02*
G37*
G36*
X110000Y90000D02*
X105000D01*
Y95000D01*
X110000D01*
Y90000D01*
D02*
G37*
G36*
X117500D02*
X112500D01*
Y95000D01*
X117500D01*
Y90000D01*
D02*
G37*
G36*
X125000D02*
X120000D01*
Y95000D01*
X125000D01*
Y90000D01*
D02*
G37*
G36*
X102500D02*
X97500D01*
Y95000D01*
X102500D01*
Y90000D01*
D02*
G37*
G36*
X80000D02*
X75000D01*
Y95000D01*
X80000D01*
Y90000D01*
D02*
G37*
G36*
X87500D02*
X82500D01*
Y95000D01*
X87500D01*
Y90000D01*
D02*
G37*
G36*
X95000D02*
X90000D01*
Y95000D01*
X95000D01*
Y90000D01*
D02*
G37*
G36*
X-290000Y97500D02*
X-295000D01*
Y102500D01*
X-290000D01*
Y97500D01*
D02*
G37*
G36*
X-282500D02*
X-287500D01*
Y102500D01*
X-282500D01*
Y97500D01*
D02*
G37*
G36*
X-275000D02*
X-280000D01*
Y102500D01*
X-275000D01*
Y97500D01*
D02*
G37*
G36*
X-297500D02*
X-302500D01*
Y102500D01*
X-297500D01*
Y97500D01*
D02*
G37*
G36*
X-320000D02*
X-325000D01*
Y102500D01*
X-320000D01*
Y97500D01*
D02*
G37*
G36*
X-312500D02*
X-317500D01*
Y102500D01*
X-312500D01*
Y97500D01*
D02*
G37*
G36*
X-305000D02*
X-310000D01*
Y102500D01*
X-305000D01*
Y97500D01*
D02*
G37*
G36*
X325000Y105000D02*
X320000D01*
Y110000D01*
X325000D01*
Y105000D01*
D02*
G37*
G36*
X-320000Y105000D02*
X-325000D01*
Y110000D01*
X-320000D01*
Y105000D01*
D02*
G37*
G36*
X-312500D02*
X-317500D01*
Y110000D01*
X-312500D01*
Y105000D01*
D02*
G37*
G36*
X317500Y105000D02*
X312500D01*
Y110000D01*
X317500D01*
Y105000D01*
D02*
G37*
G36*
X295000D02*
X290000D01*
Y110000D01*
X295000D01*
Y105000D01*
D02*
G37*
G36*
X302500D02*
X297500D01*
Y110000D01*
X302500D01*
Y105000D01*
D02*
G37*
G36*
X310000D02*
X305000D01*
Y110000D01*
X310000D01*
Y105000D01*
D02*
G37*
G36*
X-275000Y105000D02*
X-280000D01*
Y110000D01*
X-275000D01*
Y105000D01*
D02*
G37*
G36*
X80000D02*
X75000D01*
Y110000D01*
X80000D01*
Y105000D01*
D02*
G37*
G36*
X87500D02*
X82500D01*
Y110000D01*
X87500D01*
Y105000D01*
D02*
G37*
G36*
X-282500D02*
X-287500D01*
Y110000D01*
X-282500D01*
Y105000D01*
D02*
G37*
G36*
X-305000D02*
X-310000D01*
Y110000D01*
X-305000D01*
Y105000D01*
D02*
G37*
G36*
X-297500D02*
X-302500D01*
Y110000D01*
X-297500D01*
Y105000D01*
D02*
G37*
G36*
X-290000D02*
X-295000D01*
Y110000D01*
X-290000D01*
Y105000D01*
D02*
G37*
G36*
X287500Y105000D02*
X282500D01*
Y110000D01*
X287500D01*
Y105000D01*
D02*
G37*
G36*
X317500Y97500D02*
X312500D01*
Y102500D01*
X317500D01*
Y97500D01*
D02*
G37*
G36*
X325000D02*
X320000D01*
Y102500D01*
X325000D01*
Y97500D01*
D02*
G37*
G36*
X-120000Y105000D02*
X-125000D01*
Y110000D01*
X-120000D01*
Y105000D01*
D02*
G37*
G36*
X310000Y97500D02*
X305000D01*
Y102500D01*
X310000D01*
Y97500D01*
D02*
G37*
G36*
X287500D02*
X282500D01*
Y102500D01*
X287500D01*
Y97500D01*
D02*
G37*
G36*
X295000D02*
X290000D01*
Y102500D01*
X295000D01*
Y97500D01*
D02*
G37*
G36*
X302500D02*
X297500D01*
Y102500D01*
X302500D01*
Y97500D01*
D02*
G37*
G36*
X-82500Y105000D02*
X-87500D01*
Y110000D01*
X-82500D01*
Y105000D01*
D02*
G37*
G36*
X-75000D02*
X-80000D01*
Y110000D01*
X-75000D01*
Y105000D01*
D02*
G37*
G36*
X280000D02*
X275000D01*
Y110000D01*
X280000D01*
Y105000D01*
D02*
G37*
G36*
X-90000D02*
X-95000D01*
Y110000D01*
X-90000D01*
Y105000D01*
D02*
G37*
G36*
X-112500D02*
X-117500D01*
Y110000D01*
X-112500D01*
Y105000D01*
D02*
G37*
G36*
X-105000D02*
X-110000D01*
Y110000D01*
X-105000D01*
Y105000D01*
D02*
G37*
G36*
X-97500D02*
X-102500D01*
Y110000D01*
X-97500D01*
Y105000D01*
D02*
G37*
G36*
X310000Y120000D02*
X305000D01*
Y125000D01*
X310000D01*
Y120000D01*
D02*
G37*
G36*
X-282500Y290000D02*
X-287500D01*
Y295000D01*
X-282500D01*
Y290000D01*
D02*
G37*
G36*
X-275000D02*
X-280000D01*
Y295000D01*
X-275000D01*
Y290000D01*
D02*
G37*
G36*
X80000D02*
X75000D01*
Y295000D01*
X80000D01*
Y290000D01*
D02*
G37*
G36*
X-290000D02*
X-295000D01*
Y295000D01*
X-290000D01*
Y290000D01*
D02*
G37*
G36*
X-312500D02*
X-317500D01*
Y295000D01*
X-312500D01*
Y290000D01*
D02*
G37*
G36*
X-305000D02*
X-310000D01*
Y295000D01*
X-305000D01*
Y290000D01*
D02*
G37*
G36*
X-297500D02*
X-302500D01*
Y295000D01*
X-297500D01*
Y290000D01*
D02*
G37*
G36*
X117500D02*
X112500D01*
Y295000D01*
X117500D01*
Y290000D01*
D02*
G37*
G36*
X125000D02*
X120000D01*
Y295000D01*
X125000D01*
Y290000D01*
D02*
G37*
G36*
X-320000Y297500D02*
X-325000D01*
Y302500D01*
X-320000D01*
Y297500D01*
D02*
G37*
G36*
X110000Y290000D02*
X105000D01*
Y295000D01*
X110000D01*
Y290000D01*
D02*
G37*
G36*
X87500D02*
X82500D01*
Y295000D01*
X87500D01*
Y290000D01*
D02*
G37*
G36*
X95000D02*
X90000D01*
Y295000D01*
X95000D01*
Y290000D01*
D02*
G37*
G36*
X102500D02*
X97500D01*
Y295000D01*
X102500D01*
Y290000D01*
D02*
G37*
G36*
X-320000D02*
X-325000D01*
Y295000D01*
X-320000D01*
Y290000D01*
D02*
G37*
G36*
X-90000Y290000D02*
X-95000D01*
Y295000D01*
X-90000D01*
Y290000D01*
D02*
G37*
G36*
X-82500D02*
X-87500D01*
Y295000D01*
X-82500D01*
Y290000D01*
D02*
G37*
G36*
X-75000D02*
X-80000D01*
Y295000D01*
X-75000D01*
Y290000D01*
D02*
G37*
G36*
X-97500D02*
X-102500D01*
Y295000D01*
X-97500D01*
Y290000D01*
D02*
G37*
G36*
X-120000D02*
X-125000D01*
Y295000D01*
X-120000D01*
Y290000D01*
D02*
G37*
G36*
X-112500D02*
X-117500D01*
Y295000D01*
X-112500D01*
Y290000D01*
D02*
G37*
G36*
X-105000D02*
X-110000D01*
Y295000D01*
X-105000D01*
Y290000D01*
D02*
G37*
G36*
X310000D02*
X305000D01*
Y295000D01*
X310000D01*
Y290000D01*
D02*
G37*
G36*
X317500D02*
X312500D01*
Y295000D01*
X317500D01*
Y290000D01*
D02*
G37*
G36*
X325000D02*
X320000D01*
Y295000D01*
X325000D01*
Y290000D01*
D02*
G37*
G36*
X302500D02*
X297500D01*
Y295000D01*
X302500D01*
Y290000D01*
D02*
G37*
G36*
X280000D02*
X275000D01*
Y295000D01*
X280000D01*
Y290000D01*
D02*
G37*
G36*
X287500D02*
X282500D01*
Y295000D01*
X287500D01*
Y290000D01*
D02*
G37*
G36*
X295000D02*
X290000D01*
Y295000D01*
X295000D01*
Y290000D01*
D02*
G37*
G36*
X125000Y297500D02*
X120000D01*
Y302500D01*
X125000D01*
Y297500D01*
D02*
G37*
G36*
X280000D02*
X275000D01*
Y302500D01*
X280000D01*
Y297500D01*
D02*
G37*
G36*
X287500D02*
X282500D01*
Y302500D01*
X287500D01*
Y297500D01*
D02*
G37*
G36*
X117500D02*
X112500D01*
Y302500D01*
X117500D01*
Y297500D01*
D02*
G37*
G36*
X95000D02*
X90000D01*
Y302500D01*
X95000D01*
Y297500D01*
D02*
G37*
G36*
X102500D02*
X97500D01*
Y302500D01*
X102500D01*
Y297500D01*
D02*
G37*
G36*
X110000D02*
X105000D01*
Y302500D01*
X110000D01*
Y297500D01*
D02*
G37*
G36*
X325000D02*
X320000D01*
Y302500D01*
X325000D01*
Y297500D01*
D02*
G37*
G36*
X-120000Y305000D02*
X-125000D01*
Y310000D01*
X-120000D01*
Y305000D01*
D02*
G37*
G36*
X-112500D02*
X-117500D01*
Y310000D01*
X-112500D01*
Y305000D01*
D02*
G37*
G36*
X317500Y297500D02*
X312500D01*
Y302500D01*
X317500D01*
Y297500D01*
D02*
G37*
G36*
X295000D02*
X290000D01*
Y302500D01*
X295000D01*
Y297500D01*
D02*
G37*
G36*
X302500D02*
X297500D01*
Y302500D01*
X302500D01*
Y297500D01*
D02*
G37*
G36*
X310000D02*
X305000D01*
Y302500D01*
X310000D01*
Y297500D01*
D02*
G37*
G36*
X87500D02*
X82500D01*
Y302500D01*
X87500D01*
Y297500D01*
D02*
G37*
G36*
X-282500D02*
X-287500D01*
Y302500D01*
X-282500D01*
Y297500D01*
D02*
G37*
G36*
X-275000D02*
X-280000D01*
Y302500D01*
X-275000D01*
Y297500D01*
D02*
G37*
G36*
X-120000D02*
X-125000D01*
Y302500D01*
X-120000D01*
Y297500D01*
D02*
G37*
G36*
X-290000D02*
X-295000D01*
Y302500D01*
X-290000D01*
Y297500D01*
D02*
G37*
G36*
X-312500D02*
X-317500D01*
Y302500D01*
X-312500D01*
Y297500D01*
D02*
G37*
G36*
X-305000D02*
X-310000D01*
Y302500D01*
X-305000D01*
Y297500D01*
D02*
G37*
G36*
X-297500D02*
X-302500D01*
Y302500D01*
X-297500D01*
Y297500D01*
D02*
G37*
G36*
X-82500D02*
X-87500D01*
Y302500D01*
X-82500D01*
Y297500D01*
D02*
G37*
G36*
X-75000D02*
X-80000D01*
Y302500D01*
X-75000D01*
Y297500D01*
D02*
G37*
G36*
X80000D02*
X75000D01*
Y302500D01*
X80000D01*
Y297500D01*
D02*
G37*
G36*
X-90000D02*
X-95000D01*
Y302500D01*
X-90000D01*
Y297500D01*
D02*
G37*
G36*
X-112500D02*
X-117500D01*
Y302500D01*
X-112500D01*
Y297500D01*
D02*
G37*
G36*
X-105000D02*
X-110000D01*
Y302500D01*
X-105000D01*
Y297500D01*
D02*
G37*
G36*
X-97500D02*
X-102500D01*
Y302500D01*
X-97500D01*
Y297500D01*
D02*
G37*
G36*
X102500Y275000D02*
X97500D01*
Y280000D01*
X102500D01*
Y275000D01*
D02*
G37*
G36*
X110000D02*
X105000D01*
Y280000D01*
X110000D01*
Y275000D01*
D02*
G37*
G36*
X117500D02*
X112500D01*
Y280000D01*
X117500D01*
Y275000D01*
D02*
G37*
G36*
X95000D02*
X90000D01*
Y280000D01*
X95000D01*
Y275000D01*
D02*
G37*
G36*
X-75000D02*
X-80000D01*
Y280000D01*
X-75000D01*
Y275000D01*
D02*
G37*
G36*
X80000D02*
X75000D01*
Y280000D01*
X80000D01*
Y275000D01*
D02*
G37*
G36*
X87500D02*
X82500D01*
Y280000D01*
X87500D01*
Y275000D01*
D02*
G37*
G36*
X302500D02*
X297500D01*
Y280000D01*
X302500D01*
Y275000D01*
D02*
G37*
G36*
X310000D02*
X305000D01*
Y280000D01*
X310000D01*
Y275000D01*
D02*
G37*
G36*
X317500D02*
X312500D01*
Y280000D01*
X317500D01*
Y275000D01*
D02*
G37*
G36*
X295000D02*
X290000D01*
Y280000D01*
X295000D01*
Y275000D01*
D02*
G37*
G36*
X125000D02*
X120000D01*
Y280000D01*
X125000D01*
Y275000D01*
D02*
G37*
G36*
X280000D02*
X275000D01*
Y280000D01*
X280000D01*
Y275000D01*
D02*
G37*
G36*
X287500D02*
X282500D01*
Y280000D01*
X287500D01*
Y275000D01*
D02*
G37*
G36*
X-82500D02*
X-87500D01*
Y280000D01*
X-82500D01*
Y275000D01*
D02*
G37*
G36*
X-305000D02*
X-310000D01*
Y280000D01*
X-305000D01*
Y275000D01*
D02*
G37*
G36*
X-297500D02*
X-302500D01*
Y280000D01*
X-297500D01*
Y275000D01*
D02*
G37*
G36*
X-290000D02*
X-295000D01*
Y280000D01*
X-290000D01*
Y275000D01*
D02*
G37*
G36*
X-312500D02*
X-317500D01*
Y280000D01*
X-312500D01*
Y275000D01*
D02*
G37*
G36*
X317500Y120000D02*
X312500D01*
Y125000D01*
X317500D01*
Y120000D01*
D02*
G37*
G36*
X325000D02*
X320000D01*
Y125000D01*
X325000D01*
Y120000D01*
D02*
G37*
G36*
X-320000Y275000D02*
X-325000D01*
Y280000D01*
X-320000D01*
Y275000D01*
D02*
G37*
G36*
X-105000D02*
X-110000D01*
Y280000D01*
X-105000D01*
Y275000D01*
D02*
G37*
G36*
X-97500D02*
X-102500D01*
Y280000D01*
X-97500D01*
Y275000D01*
D02*
G37*
G36*
X-90000D02*
X-95000D01*
Y280000D01*
X-90000D01*
Y275000D01*
D02*
G37*
G36*
X-112500D02*
X-117500D01*
Y280000D01*
X-112500D01*
Y275000D01*
D02*
G37*
G36*
X-282500D02*
X-287500D01*
Y280000D01*
X-282500D01*
Y275000D01*
D02*
G37*
G36*
X-275000D02*
X-280000D01*
Y280000D01*
X-275000D01*
Y275000D01*
D02*
G37*
G36*
X-120000D02*
X-125000D01*
Y280000D01*
X-120000D01*
Y275000D01*
D02*
G37*
G36*
X110000Y282500D02*
X105000D01*
Y287500D01*
X110000D01*
Y282500D01*
D02*
G37*
G36*
X117500D02*
X112500D01*
Y287500D01*
X117500D01*
Y282500D01*
D02*
G37*
G36*
X125000D02*
X120000D01*
Y287500D01*
X125000D01*
Y282500D01*
D02*
G37*
G36*
X102500D02*
X97500D01*
Y287500D01*
X102500D01*
Y282500D01*
D02*
G37*
G36*
X80000D02*
X75000D01*
Y287500D01*
X80000D01*
Y282500D01*
D02*
G37*
G36*
X87500D02*
X82500D01*
Y287500D01*
X87500D01*
Y282500D01*
D02*
G37*
G36*
X95000D02*
X90000D01*
Y287500D01*
X95000D01*
Y282500D01*
D02*
G37*
G36*
X310000D02*
X305000D01*
Y287500D01*
X310000D01*
Y282500D01*
D02*
G37*
G36*
X317500D02*
X312500D01*
Y287500D01*
X317500D01*
Y282500D01*
D02*
G37*
G36*
X325000D02*
X320000D01*
Y287500D01*
X325000D01*
Y282500D01*
D02*
G37*
G36*
X302500D02*
X297500D01*
Y287500D01*
X302500D01*
Y282500D01*
D02*
G37*
G36*
X280000D02*
X275000D01*
Y287500D01*
X280000D01*
Y282500D01*
D02*
G37*
G36*
X287500D02*
X282500D01*
Y287500D01*
X287500D01*
Y282500D01*
D02*
G37*
G36*
X295000D02*
X290000D01*
Y287500D01*
X295000D01*
Y282500D01*
D02*
G37*
G36*
X-75000D02*
X-80000D01*
Y287500D01*
X-75000D01*
Y282500D01*
D02*
G37*
G36*
X-297500D02*
X-302500D01*
Y287500D01*
X-297500D01*
Y282500D01*
D02*
G37*
G36*
X-290000D02*
X-295000D01*
Y287500D01*
X-290000D01*
Y282500D01*
D02*
G37*
G36*
X-282500D02*
X-287500D01*
Y287500D01*
X-282500D01*
Y282500D01*
D02*
G37*
G36*
X-305000D02*
X-310000D01*
Y287500D01*
X-305000D01*
Y282500D01*
D02*
G37*
G36*
X325000Y275000D02*
X320000D01*
Y280000D01*
X325000D01*
Y275000D01*
D02*
G37*
G36*
X-320000Y282500D02*
X-325000D01*
Y287500D01*
X-320000D01*
Y282500D01*
D02*
G37*
G36*
X-312500D02*
X-317500D01*
Y287500D01*
X-312500D01*
Y282500D01*
D02*
G37*
G36*
X-97500D02*
X-102500D01*
Y287500D01*
X-97500D01*
Y282500D01*
D02*
G37*
G36*
X-90000D02*
X-95000D01*
Y287500D01*
X-90000D01*
Y282500D01*
D02*
G37*
G36*
X-82500D02*
X-87500D01*
Y287500D01*
X-82500D01*
Y282500D01*
D02*
G37*
G36*
X-105000D02*
X-110000D01*
Y287500D01*
X-105000D01*
Y282500D01*
D02*
G37*
G36*
X-120000D02*
X-125000D01*
Y287500D01*
X-120000D01*
Y282500D01*
D02*
G37*
G36*
X-275000D02*
X-280000D01*
Y287500D01*
X-275000D01*
Y282500D01*
D02*
G37*
G36*
X-112500D02*
X-117500D01*
Y287500D01*
X-112500D01*
Y282500D01*
D02*
G37*
%LPC*%
G36*
X-7000Y845500D02*
X-13000D01*
Y842500D01*
X-7000D01*
Y845500D01*
D02*
G37*
%LPD*%
D10*
X295500Y447500D02*
D03*
X279500D02*
D03*
X288000Y735000D02*
D03*
X272000D02*
D03*
X288000Y750000D02*
D03*
X272000D02*
D03*
X223000Y465000D02*
D03*
X207000D02*
D03*
X62500Y375000D02*
D03*
X46500D02*
D03*
X62500Y390000D02*
D03*
X46500D02*
D03*
X208500Y512500D02*
D03*
X192500D02*
D03*
X305500Y557500D02*
D03*
X289500D02*
D03*
X310500Y525000D02*
D03*
X294500D02*
D03*
X305500Y572500D02*
D03*
X289500D02*
D03*
X265500Y462500D02*
D03*
X249500D02*
D03*
X294500Y465000D02*
D03*
X310500D02*
D03*
X294500Y480000D02*
D03*
X310500D02*
D03*
X294500Y495000D02*
D03*
X310500D02*
D03*
X294500Y510000D02*
D03*
X310500D02*
D03*
X329000Y620000D02*
D03*
X345000D02*
D03*
X329000Y635000D02*
D03*
X345000D02*
D03*
X207000Y480000D02*
D03*
X223000D02*
D03*
X159500Y570000D02*
D03*
X175500D02*
D03*
X92000Y620000D02*
D03*
X108000D02*
D03*
X133000Y685000D02*
D03*
X117000D02*
D03*
X-117000Y790000D02*
D03*
X-133000D02*
D03*
X192500Y537500D02*
D03*
X208500D02*
D03*
X345000Y605000D02*
D03*
X329000D02*
D03*
X350500Y535000D02*
D03*
X334500D02*
D03*
D11*
X309500Y429000D02*
D03*
X316000D02*
D03*
X322500D02*
D03*
Y450000D02*
D03*
X309500D02*
D03*
D12*
X234400Y795500D02*
D03*
X247100D02*
D03*
X259800D02*
D03*
X272500D02*
D03*
X285200D02*
D03*
X297900D02*
D03*
X310600D02*
D03*
Y849500D02*
D03*
X297900D02*
D03*
X285200D02*
D03*
X272500D02*
D03*
X259800D02*
D03*
X247100D02*
D03*
X234400D02*
D03*
X395700Y523000D02*
D03*
X408400D02*
D03*
X421100D02*
D03*
X433800D02*
D03*
Y467000D02*
D03*
X421100D02*
D03*
X408400D02*
D03*
X395700D02*
D03*
D13*
X377500Y478000D02*
D03*
Y462000D02*
D03*
X360000Y-302500D02*
D03*
Y-286500D02*
D03*
Y-102500D02*
D03*
Y-86500D02*
D03*
Y97500D02*
D03*
Y113500D02*
D03*
Y297500D02*
D03*
Y313500D02*
D03*
X40000Y302500D02*
D03*
Y286500D02*
D03*
Y102500D02*
D03*
Y86500D02*
D03*
Y-97500D02*
D03*
Y-113500D02*
D03*
Y-297000D02*
D03*
Y-313000D02*
D03*
X-40000Y-302500D02*
D03*
Y-286500D02*
D03*
Y-100500D02*
D03*
Y-84500D02*
D03*
Y97500D02*
D03*
Y113500D02*
D03*
Y297500D02*
D03*
Y313500D02*
D03*
X-360000Y302500D02*
D03*
Y286500D02*
D03*
Y102500D02*
D03*
Y86500D02*
D03*
Y-97500D02*
D03*
Y-113500D02*
D03*
Y-297500D02*
D03*
Y-313500D02*
D03*
X262500Y550500D02*
D03*
Y534500D02*
D03*
X100000Y675000D02*
D03*
Y691000D02*
D03*
X200000Y755000D02*
D03*
Y739000D02*
D03*
X185000D02*
D03*
Y755000D02*
D03*
X120000Y587000D02*
D03*
Y603000D02*
D03*
X77500Y602000D02*
D03*
Y618000D02*
D03*
X125000Y637000D02*
D03*
Y653000D02*
D03*
X175000Y537000D02*
D03*
Y553000D02*
D03*
X99000Y808000D02*
D03*
Y792000D02*
D03*
X190000Y851000D02*
D03*
Y835000D02*
D03*
D14*
X340000Y444000D02*
D03*
Y425000D02*
D03*
X363000Y434500D02*
D03*
X-297499Y689952D02*
D03*
X-274499Y699452D02*
D03*
Y680452D02*
D03*
X56000Y845000D02*
D03*
X79000Y854500D02*
D03*
Y835500D02*
D03*
X-7500Y689951D02*
D03*
X15500Y699451D02*
D03*
Y680451D02*
D03*
D15*
X360000Y-272500D02*
D03*
Y-256500D02*
D03*
Y-72500D02*
D03*
Y-56500D02*
D03*
Y127500D02*
D03*
Y143500D02*
D03*
Y327500D02*
D03*
Y343500D02*
D03*
Y-329000D02*
D03*
Y-345000D02*
D03*
X360000Y-129500D02*
D03*
Y-145500D02*
D03*
X360000Y71000D02*
D03*
Y55000D02*
D03*
Y271000D02*
D03*
Y255000D02*
D03*
X337500Y-238002D02*
D03*
Y-222002D02*
D03*
Y-38000D02*
D03*
Y-22000D02*
D03*
Y161998D02*
D03*
Y177998D02*
D03*
Y362000D02*
D03*
Y378000D02*
D03*
Y-360000D02*
D03*
Y-376000D02*
D03*
Y-159500D02*
D03*
Y-175500D02*
D03*
Y40500D02*
D03*
Y24500D02*
D03*
Y240500D02*
D03*
Y224500D02*
D03*
X312500Y-360000D02*
D03*
Y-376000D02*
D03*
Y-238500D02*
D03*
Y-222500D02*
D03*
Y-159500D02*
D03*
Y-175500D02*
D03*
Y-38500D02*
D03*
Y-22500D02*
D03*
Y240500D02*
D03*
Y224500D02*
D03*
Y362000D02*
D03*
Y378000D02*
D03*
X272430Y-360000D02*
D03*
Y-376000D02*
D03*
X267500Y-238500D02*
D03*
Y-222500D02*
D03*
X272430Y-160000D02*
D03*
Y-176000D02*
D03*
X267500Y-38500D02*
D03*
Y-22500D02*
D03*
X272430Y40000D02*
D03*
Y24000D02*
D03*
X267500Y161500D02*
D03*
Y177500D02*
D03*
X272430Y240000D02*
D03*
Y224000D02*
D03*
X267500Y362000D02*
D03*
Y378000D02*
D03*
X240000Y-312500D02*
D03*
Y-328500D02*
D03*
X239500Y-272500D02*
D03*
Y-256500D02*
D03*
X240000Y-112500D02*
D03*
Y-128500D02*
D03*
X239500Y-72500D02*
D03*
Y-56500D02*
D03*
X240000Y87500D02*
D03*
Y71500D02*
D03*
Y127500D02*
D03*
Y143500D02*
D03*
Y288000D02*
D03*
Y272000D02*
D03*
X239500Y327500D02*
D03*
Y343500D02*
D03*
X40000Y272500D02*
D03*
Y256500D02*
D03*
Y72500D02*
D03*
Y56500D02*
D03*
Y-127500D02*
D03*
Y-143500D02*
D03*
Y-327500D02*
D03*
Y-343500D02*
D03*
Y329000D02*
D03*
Y345000D02*
D03*
Y129000D02*
D03*
Y145000D02*
D03*
Y-71000D02*
D03*
Y-55000D02*
D03*
Y-271000D02*
D03*
Y-255000D02*
D03*
X62500Y238002D02*
D03*
Y222002D02*
D03*
Y38002D02*
D03*
Y22002D02*
D03*
Y-161998D02*
D03*
Y-177998D02*
D03*
Y-361998D02*
D03*
Y-377998D02*
D03*
Y160000D02*
D03*
Y176000D02*
D03*
Y-40000D02*
D03*
Y-24000D02*
D03*
Y-240000D02*
D03*
Y-224000D02*
D03*
X87500Y360000D02*
D03*
Y376000D02*
D03*
Y238500D02*
D03*
Y222500D02*
D03*
Y160000D02*
D03*
Y176000D02*
D03*
Y38500D02*
D03*
Y22500D02*
D03*
Y-40000D02*
D03*
Y-24000D02*
D03*
Y-161500D02*
D03*
Y-177500D02*
D03*
Y-240000D02*
D03*
Y-224000D02*
D03*
Y-361500D02*
D03*
Y-377500D02*
D03*
X127570Y360000D02*
D03*
Y376000D02*
D03*
X132500Y238500D02*
D03*
Y222500D02*
D03*
X127570Y160000D02*
D03*
Y176000D02*
D03*
X132500Y38500D02*
D03*
Y22500D02*
D03*
X127570Y-40000D02*
D03*
Y-24000D02*
D03*
X132500Y-161500D02*
D03*
Y-177500D02*
D03*
X127570Y-240000D02*
D03*
Y-224000D02*
D03*
X132500Y-361500D02*
D03*
Y-377500D02*
D03*
X160000Y312500D02*
D03*
Y328500D02*
D03*
X160500Y272500D02*
D03*
Y256500D02*
D03*
X160000Y112500D02*
D03*
Y128500D02*
D03*
X160500Y72500D02*
D03*
Y56500D02*
D03*
X160000Y-87500D02*
D03*
Y-71500D02*
D03*
X160500Y-127500D02*
D03*
Y-143500D02*
D03*
X160000Y-287500D02*
D03*
Y-271500D02*
D03*
X160500Y-327500D02*
D03*
Y-343500D02*
D03*
X-40000Y-272500D02*
D03*
Y-256500D02*
D03*
Y-72500D02*
D03*
Y-56500D02*
D03*
Y127500D02*
D03*
Y143500D02*
D03*
Y-329000D02*
D03*
Y-345000D02*
D03*
Y-129000D02*
D03*
Y-145000D02*
D03*
Y71000D02*
D03*
Y55000D02*
D03*
Y271000D02*
D03*
Y255000D02*
D03*
X-62500Y-238002D02*
D03*
Y-222002D02*
D03*
Y-38002D02*
D03*
Y-22002D02*
D03*
Y161998D02*
D03*
Y177998D02*
D03*
X-46500Y345998D02*
D03*
Y361998D02*
D03*
X-62500Y-360000D02*
D03*
Y-376000D02*
D03*
Y-160000D02*
D03*
Y-176000D02*
D03*
Y40000D02*
D03*
Y24000D02*
D03*
Y240000D02*
D03*
Y224000D02*
D03*
X-87500Y-360000D02*
D03*
Y-376000D02*
D03*
Y-238500D02*
D03*
Y-222500D02*
D03*
Y-160000D02*
D03*
Y-176000D02*
D03*
Y-38000D02*
D03*
Y-22000D02*
D03*
Y40000D02*
D03*
Y24000D02*
D03*
Y161500D02*
D03*
Y177500D02*
D03*
Y240000D02*
D03*
Y224000D02*
D03*
Y361500D02*
D03*
Y377500D02*
D03*
X-127570Y-360000D02*
D03*
Y-376000D02*
D03*
X-132500Y-238500D02*
D03*
Y-222500D02*
D03*
X-127570Y-160000D02*
D03*
Y-176000D02*
D03*
X-132500Y-38500D02*
D03*
Y-22500D02*
D03*
X-127570Y40000D02*
D03*
Y24000D02*
D03*
X-132500Y161500D02*
D03*
Y177500D02*
D03*
X-127570Y240000D02*
D03*
Y224000D02*
D03*
X-132500Y361500D02*
D03*
Y377500D02*
D03*
X-160000Y-312500D02*
D03*
Y-328500D02*
D03*
X-160500Y-272500D02*
D03*
Y-256500D02*
D03*
X-160000Y-112500D02*
D03*
Y-128500D02*
D03*
X-160500Y-72500D02*
D03*
Y-56500D02*
D03*
X-160000Y87500D02*
D03*
Y71500D02*
D03*
X-160500Y127500D02*
D03*
Y143500D02*
D03*
X-160000Y287500D02*
D03*
Y271500D02*
D03*
X-160500Y327500D02*
D03*
Y343500D02*
D03*
X-360000Y272500D02*
D03*
Y256500D02*
D03*
Y72500D02*
D03*
Y56500D02*
D03*
X-360000Y-126500D02*
D03*
Y-142500D02*
D03*
X-360000Y-327500D02*
D03*
Y-343500D02*
D03*
X-337500Y238002D02*
D03*
Y222002D02*
D03*
X-360000Y129000D02*
D03*
Y145000D02*
D03*
Y-71000D02*
D03*
Y-55000D02*
D03*
Y-271000D02*
D03*
Y-255000D02*
D03*
Y329000D02*
D03*
Y345000D02*
D03*
X-337500Y38002D02*
D03*
Y22002D02*
D03*
Y-161998D02*
D03*
Y-177998D02*
D03*
Y-361998D02*
D03*
Y-377998D02*
D03*
Y359500D02*
D03*
Y375500D02*
D03*
Y160000D02*
D03*
Y176000D02*
D03*
Y-40000D02*
D03*
Y-24000D02*
D03*
Y-240000D02*
D03*
Y-224000D02*
D03*
X-312500Y359500D02*
D03*
Y375500D02*
D03*
Y238500D02*
D03*
Y222500D02*
D03*
Y159000D02*
D03*
Y175000D02*
D03*
Y38500D02*
D03*
Y22500D02*
D03*
Y-40000D02*
D03*
Y-24000D02*
D03*
Y-161500D02*
D03*
Y-177500D02*
D03*
Y-240000D02*
D03*
Y-224000D02*
D03*
Y-361500D02*
D03*
Y-377500D02*
D03*
X-272500Y359500D02*
D03*
Y375500D02*
D03*
X-267500Y238500D02*
D03*
Y222500D02*
D03*
X-272430Y160000D02*
D03*
Y176000D02*
D03*
X-267500Y38500D02*
D03*
Y22500D02*
D03*
X-272430Y-40000D02*
D03*
Y-24000D02*
D03*
X-267500Y-161500D02*
D03*
Y-177500D02*
D03*
X-272430Y-240000D02*
D03*
Y-224000D02*
D03*
X-267500Y-361500D02*
D03*
Y-377500D02*
D03*
X-240000Y312500D02*
D03*
Y328500D02*
D03*
X-239500Y272500D02*
D03*
Y256500D02*
D03*
X-240000Y112500D02*
D03*
Y128500D02*
D03*
X-239500Y72500D02*
D03*
Y56500D02*
D03*
X-240000Y-87500D02*
D03*
Y-71500D02*
D03*
X-239500Y-127500D02*
D03*
Y-143500D02*
D03*
X-240000Y-287500D02*
D03*
Y-271500D02*
D03*
X-239500Y-327500D02*
D03*
Y-343500D02*
D03*
X225000Y565000D02*
D03*
Y549000D02*
D03*
Y756000D02*
D03*
Y740000D02*
D03*
X60500Y601500D02*
D03*
Y617500D02*
D03*
X307500Y620500D02*
D03*
Y604500D02*
D03*
X350000Y650000D02*
D03*
Y666000D02*
D03*
X312500Y161500D02*
D03*
Y177500D02*
D03*
Y40000D02*
D03*
Y24000D02*
D03*
D17*
X334500Y-272500D02*
D03*
Y-277500D02*
D03*
Y-282500D02*
D03*
Y-287500D02*
D03*
Y-292500D02*
D03*
Y-297500D02*
D03*
Y-302500D02*
D03*
Y-307500D02*
D03*
Y-312500D02*
D03*
Y-317500D02*
D03*
Y-322500D02*
D03*
Y-327500D02*
D03*
X265500D02*
D03*
Y-322500D02*
D03*
Y-317500D02*
D03*
Y-312500D02*
D03*
Y-307500D02*
D03*
Y-302500D02*
D03*
Y-297500D02*
D03*
Y-292500D02*
D03*
Y-287500D02*
D03*
Y-282500D02*
D03*
Y-277500D02*
D03*
Y-272500D02*
D03*
X334500Y-72500D02*
D03*
Y-77500D02*
D03*
Y-82500D02*
D03*
Y-87500D02*
D03*
Y-92500D02*
D03*
Y-97500D02*
D03*
Y-102500D02*
D03*
Y-107500D02*
D03*
Y-112500D02*
D03*
Y-117500D02*
D03*
Y-122500D02*
D03*
Y-127500D02*
D03*
X265500D02*
D03*
Y-122500D02*
D03*
Y-117500D02*
D03*
Y-112500D02*
D03*
Y-107500D02*
D03*
Y-102500D02*
D03*
Y-97500D02*
D03*
Y-92500D02*
D03*
Y-87500D02*
D03*
Y-82500D02*
D03*
Y-77500D02*
D03*
Y-72500D02*
D03*
X334500Y127500D02*
D03*
Y122500D02*
D03*
Y117500D02*
D03*
Y112500D02*
D03*
Y107500D02*
D03*
Y102500D02*
D03*
Y97500D02*
D03*
Y92500D02*
D03*
Y87500D02*
D03*
Y82500D02*
D03*
Y77500D02*
D03*
Y72500D02*
D03*
X265500D02*
D03*
Y77500D02*
D03*
Y82500D02*
D03*
Y87500D02*
D03*
Y92500D02*
D03*
Y97500D02*
D03*
Y102500D02*
D03*
Y107500D02*
D03*
Y112500D02*
D03*
Y117500D02*
D03*
Y122500D02*
D03*
Y127500D02*
D03*
X334500Y327500D02*
D03*
Y322500D02*
D03*
Y317500D02*
D03*
Y312500D02*
D03*
Y307500D02*
D03*
Y302500D02*
D03*
Y297500D02*
D03*
Y292500D02*
D03*
Y287500D02*
D03*
Y282500D02*
D03*
Y277500D02*
D03*
Y272500D02*
D03*
X265500D02*
D03*
Y277500D02*
D03*
Y282500D02*
D03*
Y287500D02*
D03*
Y292500D02*
D03*
Y297500D02*
D03*
Y302500D02*
D03*
Y307500D02*
D03*
Y312500D02*
D03*
Y317500D02*
D03*
Y322500D02*
D03*
Y327500D02*
D03*
X65500Y272500D02*
D03*
Y277500D02*
D03*
Y282500D02*
D03*
Y287500D02*
D03*
Y292500D02*
D03*
Y297500D02*
D03*
Y302500D02*
D03*
Y307500D02*
D03*
Y312500D02*
D03*
Y317500D02*
D03*
Y322500D02*
D03*
Y327500D02*
D03*
X134500D02*
D03*
Y322500D02*
D03*
Y317500D02*
D03*
Y312500D02*
D03*
Y307500D02*
D03*
Y302500D02*
D03*
Y297500D02*
D03*
Y292500D02*
D03*
Y287500D02*
D03*
Y282500D02*
D03*
Y277500D02*
D03*
Y272500D02*
D03*
X65500Y72500D02*
D03*
Y77500D02*
D03*
Y82500D02*
D03*
Y87500D02*
D03*
Y92500D02*
D03*
Y97500D02*
D03*
Y102500D02*
D03*
Y107500D02*
D03*
Y112500D02*
D03*
Y117500D02*
D03*
Y122500D02*
D03*
Y127500D02*
D03*
X134500D02*
D03*
Y122500D02*
D03*
Y117500D02*
D03*
Y112500D02*
D03*
Y107500D02*
D03*
Y102500D02*
D03*
Y97500D02*
D03*
Y92500D02*
D03*
Y87500D02*
D03*
Y82500D02*
D03*
Y77500D02*
D03*
Y72500D02*
D03*
X65500Y-127500D02*
D03*
Y-122500D02*
D03*
Y-117500D02*
D03*
Y-112500D02*
D03*
Y-107500D02*
D03*
Y-102500D02*
D03*
Y-97500D02*
D03*
Y-92500D02*
D03*
Y-87500D02*
D03*
Y-82500D02*
D03*
Y-77500D02*
D03*
Y-72500D02*
D03*
X134500D02*
D03*
Y-77500D02*
D03*
Y-82500D02*
D03*
Y-87500D02*
D03*
Y-92500D02*
D03*
Y-97500D02*
D03*
Y-102500D02*
D03*
Y-107500D02*
D03*
Y-112500D02*
D03*
Y-117500D02*
D03*
Y-122500D02*
D03*
Y-127500D02*
D03*
X65500Y-327500D02*
D03*
Y-322500D02*
D03*
Y-317500D02*
D03*
Y-312500D02*
D03*
Y-307500D02*
D03*
Y-302500D02*
D03*
Y-297500D02*
D03*
Y-292500D02*
D03*
Y-287500D02*
D03*
Y-282500D02*
D03*
Y-277500D02*
D03*
Y-272500D02*
D03*
X134500D02*
D03*
Y-277500D02*
D03*
Y-282500D02*
D03*
Y-287500D02*
D03*
Y-292500D02*
D03*
Y-297500D02*
D03*
Y-302500D02*
D03*
Y-307500D02*
D03*
Y-312500D02*
D03*
Y-317500D02*
D03*
Y-322500D02*
D03*
Y-327500D02*
D03*
X-65500Y-272500D02*
D03*
Y-277500D02*
D03*
Y-282500D02*
D03*
Y-287500D02*
D03*
Y-292500D02*
D03*
Y-297500D02*
D03*
Y-302500D02*
D03*
Y-307500D02*
D03*
Y-312500D02*
D03*
Y-317500D02*
D03*
Y-322500D02*
D03*
Y-327500D02*
D03*
X-134500D02*
D03*
Y-322500D02*
D03*
Y-317500D02*
D03*
Y-312500D02*
D03*
Y-307500D02*
D03*
Y-302500D02*
D03*
Y-297500D02*
D03*
Y-292500D02*
D03*
Y-287500D02*
D03*
Y-282500D02*
D03*
Y-277500D02*
D03*
Y-272500D02*
D03*
X-65500Y-72500D02*
D03*
Y-77500D02*
D03*
Y-82500D02*
D03*
Y-87500D02*
D03*
Y-92500D02*
D03*
Y-97500D02*
D03*
Y-102500D02*
D03*
Y-107500D02*
D03*
Y-112500D02*
D03*
Y-117500D02*
D03*
Y-122500D02*
D03*
Y-127500D02*
D03*
X-134500D02*
D03*
Y-122500D02*
D03*
Y-117500D02*
D03*
Y-112500D02*
D03*
Y-107500D02*
D03*
Y-102500D02*
D03*
Y-97500D02*
D03*
Y-92500D02*
D03*
Y-87500D02*
D03*
Y-82500D02*
D03*
Y-77500D02*
D03*
Y-72500D02*
D03*
X-65500Y127500D02*
D03*
Y122500D02*
D03*
Y117500D02*
D03*
Y112500D02*
D03*
Y107500D02*
D03*
Y102500D02*
D03*
Y97500D02*
D03*
Y92500D02*
D03*
Y87500D02*
D03*
Y82500D02*
D03*
Y77500D02*
D03*
Y72500D02*
D03*
X-134500D02*
D03*
Y77500D02*
D03*
Y82500D02*
D03*
Y87500D02*
D03*
Y92500D02*
D03*
Y97500D02*
D03*
Y102500D02*
D03*
Y107500D02*
D03*
Y112500D02*
D03*
Y117500D02*
D03*
Y122500D02*
D03*
Y127500D02*
D03*
X-65500Y327500D02*
D03*
Y322500D02*
D03*
Y317500D02*
D03*
Y312500D02*
D03*
Y307500D02*
D03*
Y302500D02*
D03*
Y297500D02*
D03*
Y292500D02*
D03*
Y287500D02*
D03*
Y282500D02*
D03*
Y277500D02*
D03*
Y272500D02*
D03*
X-134500D02*
D03*
Y277500D02*
D03*
Y282500D02*
D03*
Y287500D02*
D03*
Y292500D02*
D03*
Y297500D02*
D03*
Y302500D02*
D03*
Y307500D02*
D03*
Y312500D02*
D03*
Y317500D02*
D03*
Y322500D02*
D03*
Y327500D02*
D03*
X-334500Y272500D02*
D03*
Y277500D02*
D03*
Y282500D02*
D03*
Y287500D02*
D03*
Y292500D02*
D03*
Y297500D02*
D03*
Y302500D02*
D03*
Y307500D02*
D03*
Y312500D02*
D03*
Y317500D02*
D03*
Y322500D02*
D03*
Y327500D02*
D03*
X-265500D02*
D03*
Y322500D02*
D03*
Y317500D02*
D03*
Y312500D02*
D03*
Y307500D02*
D03*
Y302500D02*
D03*
Y297500D02*
D03*
Y292500D02*
D03*
Y287500D02*
D03*
Y282500D02*
D03*
Y277500D02*
D03*
Y272500D02*
D03*
X-334500Y72500D02*
D03*
Y77500D02*
D03*
Y82500D02*
D03*
Y87500D02*
D03*
Y92500D02*
D03*
Y97500D02*
D03*
Y102500D02*
D03*
Y107500D02*
D03*
Y112500D02*
D03*
Y117500D02*
D03*
Y122500D02*
D03*
Y127500D02*
D03*
X-265500D02*
D03*
Y122500D02*
D03*
Y117500D02*
D03*
Y112500D02*
D03*
Y107500D02*
D03*
Y102500D02*
D03*
Y97500D02*
D03*
Y92500D02*
D03*
Y87500D02*
D03*
Y82500D02*
D03*
Y77500D02*
D03*
Y72500D02*
D03*
X-334500Y-127500D02*
D03*
Y-122500D02*
D03*
Y-117500D02*
D03*
Y-112500D02*
D03*
Y-107500D02*
D03*
Y-102500D02*
D03*
Y-97500D02*
D03*
Y-92500D02*
D03*
Y-87500D02*
D03*
Y-82500D02*
D03*
Y-77500D02*
D03*
Y-72500D02*
D03*
X-265500D02*
D03*
Y-77500D02*
D03*
Y-82500D02*
D03*
Y-87500D02*
D03*
Y-92500D02*
D03*
Y-97500D02*
D03*
Y-102500D02*
D03*
Y-107500D02*
D03*
Y-112500D02*
D03*
Y-117500D02*
D03*
Y-122500D02*
D03*
Y-127500D02*
D03*
X-334500Y-327500D02*
D03*
Y-322500D02*
D03*
Y-317500D02*
D03*
Y-312500D02*
D03*
Y-307500D02*
D03*
Y-302500D02*
D03*
Y-297500D02*
D03*
Y-292500D02*
D03*
Y-287500D02*
D03*
Y-282500D02*
D03*
Y-277500D02*
D03*
Y-272500D02*
D03*
X-265500D02*
D03*
Y-277500D02*
D03*
Y-282500D02*
D03*
Y-287500D02*
D03*
Y-292500D02*
D03*
Y-297500D02*
D03*
Y-302500D02*
D03*
Y-307500D02*
D03*
Y-312500D02*
D03*
Y-317500D02*
D03*
Y-322500D02*
D03*
Y-327500D02*
D03*
D18*
X327500Y-334500D02*
D03*
X322500D02*
D03*
X317500D02*
D03*
X312500D02*
D03*
X307500D02*
D03*
X302500D02*
D03*
X297500D02*
D03*
X292500D02*
D03*
X287500D02*
D03*
X282500D02*
D03*
X277500D02*
D03*
X272500D02*
D03*
Y-265500D02*
D03*
X277500D02*
D03*
X282500D02*
D03*
X287500D02*
D03*
X292500D02*
D03*
X297500D02*
D03*
X302500D02*
D03*
X307500D02*
D03*
X312500D02*
D03*
X317500D02*
D03*
X322500D02*
D03*
X327500D02*
D03*
Y-134500D02*
D03*
X322500D02*
D03*
X317500D02*
D03*
X312500D02*
D03*
X307500D02*
D03*
X302500D02*
D03*
X297500D02*
D03*
X292500D02*
D03*
X287500D02*
D03*
X282500D02*
D03*
X277500D02*
D03*
X272500D02*
D03*
Y-65500D02*
D03*
X277500D02*
D03*
X282500D02*
D03*
X287500D02*
D03*
X292500D02*
D03*
X297500D02*
D03*
X302500D02*
D03*
X307500D02*
D03*
X312500D02*
D03*
X317500D02*
D03*
X322500D02*
D03*
X327500D02*
D03*
Y65500D02*
D03*
X322500D02*
D03*
X317500D02*
D03*
X312500D02*
D03*
X307500D02*
D03*
X302500D02*
D03*
X297500D02*
D03*
X292500D02*
D03*
X287500D02*
D03*
X282500D02*
D03*
X277500D02*
D03*
X272500D02*
D03*
Y134500D02*
D03*
X277500D02*
D03*
X282500D02*
D03*
X287500D02*
D03*
X292500D02*
D03*
X297500D02*
D03*
X302500D02*
D03*
X307500D02*
D03*
X312500D02*
D03*
X317500D02*
D03*
X322500D02*
D03*
X327500D02*
D03*
Y265500D02*
D03*
X322500D02*
D03*
X317500D02*
D03*
X312500D02*
D03*
X307500D02*
D03*
X302500D02*
D03*
X297500D02*
D03*
X292500D02*
D03*
X287500D02*
D03*
X282500D02*
D03*
X277500D02*
D03*
X272500D02*
D03*
Y334500D02*
D03*
X277500D02*
D03*
X282500D02*
D03*
X287500D02*
D03*
X292500D02*
D03*
X297500D02*
D03*
X302500D02*
D03*
X307500D02*
D03*
X312500D02*
D03*
X317500D02*
D03*
X322500D02*
D03*
X327500D02*
D03*
X72500D02*
D03*
X77500D02*
D03*
X82500D02*
D03*
X87500D02*
D03*
X92500D02*
D03*
X97500D02*
D03*
X102500D02*
D03*
X107500D02*
D03*
X112500D02*
D03*
X117500D02*
D03*
X122500D02*
D03*
X127500D02*
D03*
Y265500D02*
D03*
X122500D02*
D03*
X117500D02*
D03*
X112500D02*
D03*
X107500D02*
D03*
X102500D02*
D03*
X97500D02*
D03*
X92500D02*
D03*
X87500D02*
D03*
X82500D02*
D03*
X77500D02*
D03*
X72500D02*
D03*
Y134500D02*
D03*
X77500D02*
D03*
X82500D02*
D03*
X87500D02*
D03*
X92500D02*
D03*
X97500D02*
D03*
X102500D02*
D03*
X107500D02*
D03*
X112500D02*
D03*
X117500D02*
D03*
X122500D02*
D03*
X127500D02*
D03*
Y65500D02*
D03*
X122500D02*
D03*
X117500D02*
D03*
X112500D02*
D03*
X107500D02*
D03*
X102500D02*
D03*
X97500D02*
D03*
X92500D02*
D03*
X87500D02*
D03*
X82500D02*
D03*
X77500D02*
D03*
X72500D02*
D03*
Y-65500D02*
D03*
X77500D02*
D03*
X82500D02*
D03*
X87500D02*
D03*
X92500D02*
D03*
X97500D02*
D03*
X102500D02*
D03*
X107500D02*
D03*
X112500D02*
D03*
X117500D02*
D03*
X122500D02*
D03*
X127500D02*
D03*
Y-134500D02*
D03*
X122500D02*
D03*
X117500D02*
D03*
X112500D02*
D03*
X107500D02*
D03*
X102500D02*
D03*
X97500D02*
D03*
X92500D02*
D03*
X87500D02*
D03*
X82500D02*
D03*
X77500D02*
D03*
X72500D02*
D03*
Y-265500D02*
D03*
X77500D02*
D03*
X82500D02*
D03*
X87500D02*
D03*
X92500D02*
D03*
X97500D02*
D03*
X102500D02*
D03*
X107500D02*
D03*
X112500D02*
D03*
X117500D02*
D03*
X122500D02*
D03*
X127500D02*
D03*
Y-334500D02*
D03*
X122500D02*
D03*
X117500D02*
D03*
X112500D02*
D03*
X107500D02*
D03*
X102500D02*
D03*
X97500D02*
D03*
X92500D02*
D03*
X87500D02*
D03*
X82500D02*
D03*
X77500D02*
D03*
X72500D02*
D03*
X-72500D02*
D03*
X-77500D02*
D03*
X-82500D02*
D03*
X-87500D02*
D03*
X-92500D02*
D03*
X-97500D02*
D03*
X-102500D02*
D03*
X-107500D02*
D03*
X-112500D02*
D03*
X-117500D02*
D03*
X-122500D02*
D03*
X-127500D02*
D03*
Y-265500D02*
D03*
X-122500D02*
D03*
X-117500D02*
D03*
X-112500D02*
D03*
X-107500D02*
D03*
X-102500D02*
D03*
X-97500D02*
D03*
X-92500D02*
D03*
X-87500D02*
D03*
X-82500D02*
D03*
X-77500D02*
D03*
X-72500D02*
D03*
Y-134500D02*
D03*
X-77500D02*
D03*
X-82500D02*
D03*
X-87500D02*
D03*
X-92500D02*
D03*
X-97500D02*
D03*
X-102500D02*
D03*
X-107500D02*
D03*
X-112500D02*
D03*
X-117500D02*
D03*
X-122500D02*
D03*
X-127500D02*
D03*
Y-65500D02*
D03*
X-122500D02*
D03*
X-117500D02*
D03*
X-112500D02*
D03*
X-107500D02*
D03*
X-102500D02*
D03*
X-97500D02*
D03*
X-92500D02*
D03*
X-87500D02*
D03*
X-82500D02*
D03*
X-77500D02*
D03*
X-72500D02*
D03*
Y65500D02*
D03*
X-77500D02*
D03*
X-82500D02*
D03*
X-87500D02*
D03*
X-92500D02*
D03*
X-97500D02*
D03*
X-102500D02*
D03*
X-107500D02*
D03*
X-112500D02*
D03*
X-117500D02*
D03*
X-122500D02*
D03*
X-127500D02*
D03*
Y134500D02*
D03*
X-122500D02*
D03*
X-117500D02*
D03*
X-112500D02*
D03*
X-107500D02*
D03*
X-102500D02*
D03*
X-97500D02*
D03*
X-92500D02*
D03*
X-87500D02*
D03*
X-82500D02*
D03*
X-77500D02*
D03*
X-72500D02*
D03*
Y265500D02*
D03*
X-77500D02*
D03*
X-82500D02*
D03*
X-87500D02*
D03*
X-92500D02*
D03*
X-97500D02*
D03*
X-102500D02*
D03*
X-107500D02*
D03*
X-112500D02*
D03*
X-117500D02*
D03*
X-122500D02*
D03*
X-127500D02*
D03*
Y334500D02*
D03*
X-122500D02*
D03*
X-117500D02*
D03*
X-112500D02*
D03*
X-107500D02*
D03*
X-102500D02*
D03*
X-97500D02*
D03*
X-92500D02*
D03*
X-87500D02*
D03*
X-82500D02*
D03*
X-77500D02*
D03*
X-72500D02*
D03*
X-327500D02*
D03*
X-322500D02*
D03*
X-317500D02*
D03*
X-312500D02*
D03*
X-307500D02*
D03*
X-302500D02*
D03*
X-297500D02*
D03*
X-292500D02*
D03*
X-287500D02*
D03*
X-282500D02*
D03*
X-277500D02*
D03*
X-272500D02*
D03*
Y265500D02*
D03*
X-277500D02*
D03*
X-282500D02*
D03*
X-287500D02*
D03*
X-292500D02*
D03*
X-297500D02*
D03*
X-302500D02*
D03*
X-307500D02*
D03*
X-312500D02*
D03*
X-317500D02*
D03*
X-322500D02*
D03*
X-327500D02*
D03*
Y134500D02*
D03*
X-322500D02*
D03*
X-317500D02*
D03*
X-312500D02*
D03*
X-307500D02*
D03*
X-302500D02*
D03*
X-297500D02*
D03*
X-292500D02*
D03*
X-287500D02*
D03*
X-282500D02*
D03*
X-277500D02*
D03*
X-272500D02*
D03*
Y65500D02*
D03*
X-277500D02*
D03*
X-282500D02*
D03*
X-287500D02*
D03*
X-292500D02*
D03*
X-297500D02*
D03*
X-302500D02*
D03*
X-307500D02*
D03*
X-312500D02*
D03*
X-317500D02*
D03*
X-322500D02*
D03*
X-327500D02*
D03*
Y-65500D02*
D03*
X-322500D02*
D03*
X-317500D02*
D03*
X-312500D02*
D03*
X-307500D02*
D03*
X-302500D02*
D03*
X-297500D02*
D03*
X-292500D02*
D03*
X-287500D02*
D03*
X-282500D02*
D03*
X-277500D02*
D03*
X-272500D02*
D03*
Y-134500D02*
D03*
X-277500D02*
D03*
X-282500D02*
D03*
X-287500D02*
D03*
X-292500D02*
D03*
X-297500D02*
D03*
X-302500D02*
D03*
X-307500D02*
D03*
X-312500D02*
D03*
X-317500D02*
D03*
X-322500D02*
D03*
X-327500D02*
D03*
Y-265500D02*
D03*
X-322500D02*
D03*
X-317500D02*
D03*
X-312500D02*
D03*
X-307500D02*
D03*
X-302500D02*
D03*
X-297500D02*
D03*
X-292500D02*
D03*
X-287500D02*
D03*
X-282500D02*
D03*
X-277500D02*
D03*
X-272500D02*
D03*
Y-334500D02*
D03*
X-277500D02*
D03*
X-282500D02*
D03*
X-287500D02*
D03*
X-292500D02*
D03*
X-297500D02*
D03*
X-302500D02*
D03*
X-307500D02*
D03*
X-312500D02*
D03*
X-317500D02*
D03*
X-322500D02*
D03*
X-327500D02*
D03*
D19*
X229000Y-347500D02*
D03*
X245000D02*
D03*
X229500Y-147500D02*
D03*
X245500D02*
D03*
X230000Y52500D02*
D03*
X246000D02*
D03*
X229500Y252500D02*
D03*
X245500D02*
D03*
X62500Y360000D02*
D03*
X46500D02*
D03*
X171000Y347500D02*
D03*
X155000D02*
D03*
X171000Y147500D02*
D03*
X155000D02*
D03*
X171000Y-52500D02*
D03*
X155000D02*
D03*
X171000Y-252500D02*
D03*
X155000D02*
D03*
X-40000Y327500D02*
D03*
X-24000D02*
D03*
X-171000Y-347500D02*
D03*
X-155000D02*
D03*
X-171000Y-147500D02*
D03*
X-155000D02*
D03*
X-171000Y52500D02*
D03*
X-155000D02*
D03*
X-171000Y252500D02*
D03*
X-155000D02*
D03*
X-229000Y347500D02*
D03*
X-245000D02*
D03*
X-229000Y147500D02*
D03*
X-245000D02*
D03*
X-229000Y-52500D02*
D03*
X-245000D02*
D03*
X-229000Y-252500D02*
D03*
X-245000D02*
D03*
X340000Y590000D02*
D03*
X324000D02*
D03*
X92000Y655000D02*
D03*
X108000D02*
D03*
X340000Y575000D02*
D03*
X324000D02*
D03*
X401000Y730000D02*
D03*
X385000D02*
D03*
X351500D02*
D03*
X367500D02*
D03*
X192000Y567500D02*
D03*
X208000D02*
D03*
Y552500D02*
D03*
X192000D02*
D03*
D20*
X-361450Y692451D02*
D03*
X-343450D02*
D03*
X-71500Y691701D02*
D03*
X-53500D02*
D03*
X-252249Y661751D02*
D03*
X-270249D02*
D03*
X-356500Y582500D02*
D03*
X-338500D02*
D03*
X61000Y440000D02*
D03*
X79000D02*
D03*
X61000Y460000D02*
D03*
X79000D02*
D03*
X30500D02*
D03*
X12500D02*
D03*
X-216000Y365000D02*
D03*
X-234000D02*
D03*
X36500Y660000D02*
D03*
X18500D02*
D03*
X-166000Y407500D02*
D03*
X-184000D02*
D03*
X-166000Y427500D02*
D03*
X-184000D02*
D03*
X30500Y440000D02*
D03*
X12500D02*
D03*
X30500Y540000D02*
D03*
X12500D02*
D03*
X119000Y470000D02*
D03*
X101000D02*
D03*
X-64000Y582500D02*
D03*
X-46000D02*
D03*
X55000Y660000D02*
D03*
X73000D02*
D03*
X408000Y702500D02*
D03*
X390000D02*
D03*
X261000Y770000D02*
D03*
X279000D02*
D03*
X323500Y555000D02*
D03*
X341500D02*
D03*
X374000Y497500D02*
D03*
X356000D02*
D03*
X-76000Y792500D02*
D03*
X-94000D02*
D03*
X61000D02*
D03*
X79000D02*
D03*
X-166000Y507500D02*
D03*
X-184000D02*
D03*
X-251000Y582500D02*
D03*
X-269000D02*
D03*
X-166000Y655000D02*
D03*
X-184000D02*
D03*
X-64000Y622500D02*
D03*
X-46000D02*
D03*
X-184000Y580000D02*
D03*
X-166000D02*
D03*
X-184000Y700000D02*
D03*
X-166000D02*
D03*
X-206000Y660000D02*
D03*
X-224000D02*
D03*
X12500Y600000D02*
D03*
X30500D02*
D03*
X12500Y520000D02*
D03*
X30500D02*
D03*
X-46000Y562500D02*
D03*
X-64000D02*
D03*
X-46000Y602500D02*
D03*
X-64000D02*
D03*
X12500Y560000D02*
D03*
X30500D02*
D03*
X65500Y520000D02*
D03*
X47500D02*
D03*
X-184000Y467500D02*
D03*
X-166000D02*
D03*
X-184000Y600000D02*
D03*
X-166000D02*
D03*
X101000Y550000D02*
D03*
X119000D02*
D03*
X79000Y480000D02*
D03*
X61000D02*
D03*
X-18500Y395000D02*
D03*
X-36500D02*
D03*
X-184000Y487500D02*
D03*
X-166000D02*
D03*
X-184000Y560000D02*
D03*
X-166000D02*
D03*
X-184000Y540000D02*
D03*
X-166000D02*
D03*
X12500Y480000D02*
D03*
X30500D02*
D03*
X83000Y540000D02*
D03*
X65000D02*
D03*
X83000Y560000D02*
D03*
X65000D02*
D03*
X-206000Y700000D02*
D03*
X-224000D02*
D03*
X-184000Y677500D02*
D03*
X-166000D02*
D03*
X101000Y530000D02*
D03*
X119000D02*
D03*
X154000Y510000D02*
D03*
X136000D02*
D03*
X101000D02*
D03*
X119000D02*
D03*
X154000Y530000D02*
D03*
X136000D02*
D03*
X-68500Y405000D02*
D03*
X-86500D02*
D03*
X154000Y470000D02*
D03*
X136000D02*
D03*
X-269000Y562500D02*
D03*
X-251000D02*
D03*
X12500Y580000D02*
D03*
X30500D02*
D03*
X-184000Y447500D02*
D03*
X-166000D02*
D03*
X-338500Y562500D02*
D03*
X-356500D02*
D03*
X-229000Y572500D02*
D03*
X-211000D02*
D03*
X-131000Y407500D02*
D03*
X-149000D02*
D03*
D21*
X152500Y431000D02*
D03*
Y449000D02*
D03*
X-335000Y391000D02*
D03*
Y409000D02*
D03*
X-355000Y391000D02*
D03*
Y409000D02*
D03*
X-225000Y549000D02*
D03*
Y531000D02*
D03*
X-312451Y619749D02*
D03*
Y601749D02*
D03*
X242500Y756500D02*
D03*
Y738500D02*
D03*
X80000Y680750D02*
D03*
Y698750D02*
D03*
X175000Y501000D02*
D03*
Y519000D02*
D03*
X25000Y621000D02*
D03*
Y639000D02*
D03*
X150000Y711500D02*
D03*
Y693500D02*
D03*
X36250Y680863D02*
D03*
Y698863D02*
D03*
X340000Y479000D02*
D03*
Y461000D02*
D03*
X337500Y496000D02*
D03*
Y514000D02*
D03*
X360000Y479000D02*
D03*
Y461000D02*
D03*
X-315000Y391000D02*
D03*
Y409000D02*
D03*
X-202500Y501000D02*
D03*
Y519000D02*
D03*
X-255000Y391000D02*
D03*
Y409000D02*
D03*
X-235000Y391000D02*
D03*
Y409000D02*
D03*
X-352500Y620000D02*
D03*
Y602000D02*
D03*
X-187500Y636500D02*
D03*
Y618500D02*
D03*
X-167500Y636500D02*
D03*
Y618500D02*
D03*
X35000Y752000D02*
D03*
Y770000D02*
D03*
X115000Y752000D02*
D03*
Y770000D02*
D03*
X100000Y601500D02*
D03*
Y583500D02*
D03*
X-40001Y734999D02*
D03*
Y716999D02*
D03*
X-27500Y613000D02*
D03*
Y631000D02*
D03*
X-7500Y613000D02*
D03*
Y631000D02*
D03*
X-115000Y752000D02*
D03*
Y770000D02*
D03*
X-207500Y636500D02*
D03*
Y618500D02*
D03*
X55000Y752000D02*
D03*
Y770000D02*
D03*
X-10000Y752000D02*
D03*
Y770000D02*
D03*
X-55000Y752000D02*
D03*
Y770000D02*
D03*
X20000Y735000D02*
D03*
Y717000D02*
D03*
X-0Y735000D02*
D03*
Y717000D02*
D03*
X-20000Y735000D02*
D03*
Y717000D02*
D03*
X-253749Y680864D02*
D03*
Y698864D02*
D03*
X-272500Y600999D02*
D03*
Y618999D02*
D03*
X-252500Y601000D02*
D03*
Y619000D02*
D03*
X-332451Y601749D02*
D03*
Y619749D02*
D03*
X-292500Y601000D02*
D03*
Y619000D02*
D03*
X75000Y752000D02*
D03*
Y770000D02*
D03*
X60000Y735000D02*
D03*
Y717000D02*
D03*
X80000Y735000D02*
D03*
Y717000D02*
D03*
X40000Y735000D02*
D03*
Y717000D02*
D03*
X-80000Y735000D02*
D03*
Y717000D02*
D03*
X-135000Y752000D02*
D03*
Y770000D02*
D03*
X95000Y752000D02*
D03*
Y770000D02*
D03*
X-60000Y735000D02*
D03*
Y717000D02*
D03*
X100000Y735000D02*
D03*
Y717000D02*
D03*
X-75000Y752000D02*
D03*
Y770000D02*
D03*
X-95000Y752000D02*
D03*
Y770000D02*
D03*
X-202500Y536000D02*
D03*
Y554000D02*
D03*
X-232500Y601000D02*
D03*
Y619000D02*
D03*
X-275000Y409000D02*
D03*
Y391000D02*
D03*
X-295000Y409000D02*
D03*
Y391000D02*
D03*
X-417451Y754249D02*
D03*
Y772249D02*
D03*
X-397451Y754249D02*
D03*
Y772249D02*
D03*
X-437451Y754249D02*
D03*
Y772249D02*
D03*
D22*
X-52500Y-297500D02*
D03*
Y-94500D02*
D03*
X-50000Y102500D02*
D03*
X-320000Y347500D02*
D03*
X-327500Y352500D02*
D03*
X-52500Y302500D02*
D03*
X350000D02*
D03*
Y102500D02*
D03*
Y-97500D02*
D03*
Y-297500D02*
D03*
X52500Y97500D02*
D03*
X50000Y-102500D02*
D03*
Y-302500D02*
D03*
Y297500D02*
D03*
X-350000Y-302500D02*
D03*
X-347500Y297500D02*
D03*
X-350000Y97500D02*
D03*
Y-102500D02*
D03*
D23*
X-147501Y620949D02*
D03*
Y633649D02*
D03*
Y646349D02*
D03*
Y659049D02*
D03*
X-92501D02*
D03*
Y646349D02*
D03*
Y633649D02*
D03*
Y620949D02*
D03*
X-437451Y621699D02*
D03*
Y634399D02*
D03*
Y647099D02*
D03*
Y659799D02*
D03*
X-382451D02*
D03*
Y647099D02*
D03*
Y634399D02*
D03*
Y621699D02*
D03*
X-147500Y562250D02*
D03*
Y574950D02*
D03*
Y587650D02*
D03*
Y600350D02*
D03*
X-92500D02*
D03*
Y587650D02*
D03*
Y574950D02*
D03*
Y562250D02*
D03*
X-437500Y563450D02*
D03*
Y576150D02*
D03*
Y588850D02*
D03*
Y601550D02*
D03*
X-382500D02*
D03*
Y588850D02*
D03*
Y576150D02*
D03*
Y563450D02*
D03*
D24*
X392500Y545000D02*
D03*
X422500D02*
D03*
X85000Y815000D02*
D03*
X55000D02*
D03*
D25*
X372500Y552500D02*
D03*
Y522500D02*
D03*
D26*
X18000Y783450D02*
D03*
Y796150D02*
D03*
Y808850D02*
D03*
Y821550D02*
D03*
X-38000D02*
D03*
Y808850D02*
D03*
Y796150D02*
D03*
Y783450D02*
D03*
D27*
X-139100Y734250D02*
D03*
X-126400D02*
D03*
X-113700D02*
D03*
X-101000D02*
D03*
Y679250D02*
D03*
X-113700D02*
D03*
X-126400D02*
D03*
X-139100D02*
D03*
X-429050Y735000D02*
D03*
X-416350D02*
D03*
X-403650D02*
D03*
X-390950D02*
D03*
Y680000D02*
D03*
X-403650D02*
D03*
X-416350D02*
D03*
X-429050D02*
D03*
D28*
X-30000Y484500D02*
D03*
X-129500D02*
D03*
X-257750Y485000D02*
D03*
X-357250D02*
D03*
D29*
X140000Y559000D02*
D03*
Y584500D02*
D03*
Y610000D02*
D03*
Y635000D02*
D03*
D30*
Y660500D02*
D03*
D31*
X328500Y765000D02*
D03*
X421500D02*
D03*
D32*
X170000Y685000D02*
D03*
Y680000D02*
D03*
Y675000D02*
D03*
Y670000D02*
D03*
Y665000D02*
D03*
Y660000D02*
D03*
Y655000D02*
D03*
Y650000D02*
D03*
Y645000D02*
D03*
Y640000D02*
D03*
Y635000D02*
D03*
Y630000D02*
D03*
Y625000D02*
D03*
Y620000D02*
D03*
Y615000D02*
D03*
Y610000D02*
D03*
X285000D02*
D03*
Y615000D02*
D03*
Y620000D02*
D03*
Y625000D02*
D03*
Y630000D02*
D03*
Y635000D02*
D03*
Y640000D02*
D03*
Y645000D02*
D03*
Y650000D02*
D03*
Y655000D02*
D03*
Y660000D02*
D03*
Y665000D02*
D03*
Y670000D02*
D03*
Y675000D02*
D03*
Y680000D02*
D03*
Y685000D02*
D03*
D33*
X190000Y590000D02*
D03*
X195000D02*
D03*
X200000D02*
D03*
X205000D02*
D03*
X210000D02*
D03*
X215000D02*
D03*
X220000D02*
D03*
X225000D02*
D03*
X230000D02*
D03*
X235000D02*
D03*
X240000D02*
D03*
X245000D02*
D03*
X250000D02*
D03*
X255000D02*
D03*
X260000D02*
D03*
X265000D02*
D03*
Y705000D02*
D03*
X260000D02*
D03*
X255000D02*
D03*
X250000D02*
D03*
X245000D02*
D03*
X240000D02*
D03*
X235000D02*
D03*
X230000D02*
D03*
X225000D02*
D03*
X220000D02*
D03*
X215000D02*
D03*
X210000D02*
D03*
X205000D02*
D03*
X200000D02*
D03*
X195000D02*
D03*
X190000D02*
D03*
D35*
X424500Y482000D02*
D03*
X405500D02*
D03*
Y508000D02*
D03*
X415000D02*
D03*
X424500D02*
D03*
D36*
X375000Y586500D02*
D03*
X430000D02*
D03*
Y675500D02*
D03*
X375000D02*
D03*
D37*
X374000Y647000D02*
D03*
Y639000D02*
D03*
Y631000D02*
D03*
Y623000D02*
D03*
Y615000D02*
D03*
D38*
X-362450Y672750D02*
D03*
X-313450D02*
D03*
Y666250D02*
D03*
Y659750D02*
D03*
Y653250D02*
D03*
X-362450D02*
D03*
Y659750D02*
D03*
Y666250D02*
D03*
X-72500Y672000D02*
D03*
X-23500D02*
D03*
Y665500D02*
D03*
Y659000D02*
D03*
Y652500D02*
D03*
X-72500D02*
D03*
Y659000D02*
D03*
Y665500D02*
D03*
D39*
X-337950Y663000D02*
D03*
X-48000Y662250D02*
D03*
D40*
X-323950Y669750D02*
D03*
Y665250D02*
D03*
Y660750D02*
D03*
X-351950D02*
D03*
Y665250D02*
D03*
Y669750D02*
D03*
Y656250D02*
D03*
X-323950D02*
D03*
X-34000Y669000D02*
D03*
Y664500D02*
D03*
Y660000D02*
D03*
X-62000D02*
D03*
Y664500D02*
D03*
Y669000D02*
D03*
Y655500D02*
D03*
X-34000D02*
D03*
D42*
X145000Y730000D02*
D03*
X166000D02*
D03*
D43*
X125000Y735000D02*
D03*
Y714000D02*
D03*
X315000Y728000D02*
D03*
Y707000D02*
D03*
X334000Y728000D02*
D03*
Y707000D02*
D03*
D45*
X12900Y760000D02*
D03*
X-32900D02*
D03*
D46*
X-35400Y766500D02*
D03*
X15400D02*
D03*
D69*
X170000Y590000D02*
D03*
X285000Y705000D02*
D03*
M02*
