M48
;Layer_Color=9474304
;FILE_FORMAT=4:4
METRIC,LZ
;TYPE=PLATED
T1F00S00C0.3000
T2F00S00C0.9000
T3F00S00C1.0000
T4F00S00C1.1500
T5F00S00C1.5000
T6F00S00C2.0000
T7F00S00C2.5000
T8F00S00C4.0000
%
T01
X-003475Y-00377998
X-003125Y-003875
X-003125Y-004075
X-00265Y-0042
X-002775Y-003775
X-0029Y-003475
X-00288655Y-00318801
X-00296147
X-00303853
X-00311147
X-00318655Y-0031875
X-00318801Y-00311147
Y-00303655
X-00311294Y-00303706
X-00304
Y-00311199
X-00311294
X-00296294
Y-00303706
X-00288801
Y-00311199
X-00281294
Y-00303706
X-00281147Y-00318801
X-00245Y-0031
X-0023Y-003435
X-002Y-003475
Y-0036
Y-003725
Y-003825
X-0018Y-003475
X-0017Y-003285
X-002Y-00315
X-00118706Y-00311294
X-00111199
X-00103706
X-00103655Y-00318801
X-00111147
X-00118655
Y-0030375
X-00111147
X-00103655
X-00095949
X-00088655
X-00081147Y-00303802
X-00081199Y-00311345
X-00088706Y-00311294
X-00096
X-00095949Y-00318801
X-00088655
X-00081147Y-00318853
X-0004Y-00315
X-0003Y-00345
X-000625Y-003475
Y-00385
X-000875Y-00385
X-000725Y-004075
X-001375
Y-00385
X-0012757Y-00385
X-0014Y-003475
X-0037Y-003435
X-0Y-003475
Y-003375
Y-0036
Y-00375
X000525Y-00377998
X000875Y-003875
Y-004075
X001325Y-0042
X001225Y-003775
X0011Y-003475
X00111345Y-00318801
X00103853
X00096147
X00088853
X00081345Y-0031875
X00081199Y-00311147
Y-00303655
X00088706Y-00303706
X00096
Y-00311199
X00088706
X00103706
Y-00303706
X00111199
Y-00311199
X00118706
Y-00303706
X00118853Y-00318801
X00155Y-0031
X002Y-003075
Y-00315
Y-0035
Y-0036
Y-003725
Y-0038
X0022Y-003475
X0023Y-003285
X0026Y-003475
Y-00376
X0028143
X003125Y-00385
X003375Y-00385
X003275Y-004075
X0027
X00281345Y-00318801
X00288853
X00296345
X00296294Y-00311294
X00288801
X00281294
X00281345Y-0030375
X00288853
X00296345
X00304051
X00311345
X00318853Y-00303802
X00318801Y-00311345
X00311294Y-00311294
X00304
X00304051Y-00318801
X00311345
X00318853Y-00318853
X0036Y-00315
X0037Y-00345
X003375Y-003475
X0017Y-003435
X0003
X-0Y-0031
Y-003
Y-0029
Y-0026
X0003Y-00255
X000625Y-002525
Y-00215
X000875Y-00215
Y-001875
X000525Y-00177998
X0003Y-001435
X-0Y-00145
Y-0011
Y-001025
Y-00095
X0004Y-00085
X0003Y-00055
X000625Y-000525
X000625Y-00015
X000875Y-00015
Y000125
X000525Y00022002
X0003Y000565
X-0Y0006
Y0009
X00081199Y00088853
X00088706Y00088801
X00096
X00103706
X00111199
X00118706
X00118853Y00081199
X00111345
X00103853
X00096147
X00088853
X00081345Y0008125
X0011Y000525
X001225Y000225
X0011857Y-00024
X0014Y-000525
X0018
X0017Y-000715
X00147501Y-00099998
X00155Y-0011
X00118706Y-00111199
Y-00103706
X00111199
X00103706
Y-00111199
X00111199
X00111345Y-00118801
X00103853
X00096147
X00088853
X00081345Y-0011875
X00081199Y-00111147
Y-00103655
X00081147Y-00096199
X00088655Y-0009625
X00095949
X00096Y-00103706
X00088706
Y-00111199
X00096
Y-00088706
X00088706
X00081199Y-00088655
X00081147Y-00081147
X00088655Y-00081199
X00095949
X00103655
X00111147
X00118655
X00118706Y-00088706
X00111199
X00103706
X00103655Y-0009625
X00111147
X00118655
X00118853Y-00118801
X0011Y-001475
X001225Y-001775
X0011857Y-00224
X0014Y-002525
X0018
X002Y-0026
Y-0029
Y-003
X00147501Y-00299998
X00118655Y-0029625
X00111147
X00103655
X00103706Y-00288706
X00111199
X00118706
X00118655Y-00281199
X00111147
X00103655
X00095949
X00088655
X00081147Y-00281147
X00081199Y-00288655
X00088706Y-00288706
X00096
X00095949Y-0029625
X00088655
X00081147Y-00296199
X0004Y-00285
X0017Y-002715
X0023Y-002565
X00245Y-0029
X00252499Y-00300002
X00281294Y-00296294
Y-00288802
X00288801
X00296294
Y-00296294
X00288801
X00304
X00311294
Y-00288802
X00304
X00303853Y-00281199
X00311147
X00318655Y-0028125
X00318801Y-00288853
Y-00296345
X00296147Y-00281199
X00288655
X00281147
X0029Y-002525
X002775Y-002225
X003125Y-002125
Y-00185
X003375Y-00185
Y-001475
X0037Y-00145
X0036Y-00115
X00318801Y-00111345
X00311294Y-00111294
X00304
X00304051Y-00118801
X00311345
X00318853Y-00118853
Y-00103801
X00318801Y-00096345
Y-00088853
X00311294Y-00088801
X00304
Y-00096294
X00311294
X00311345Y-0010375
X00304051
X00296345
X00288853
X00281345
X00281294Y-00096294
Y-00088801
X00288801
X00296294
Y-00096294
X00288801
Y-00111294
X00296294
X00296345Y-00118801
X00288853
X00281345
X00281294Y-00111294
X00281147Y-00081199
X00288655
X00296147
X00303853
X00311147
X00318655Y-0008125
X0029Y-000525
X002775Y-000225
X003125Y-000125
Y00015
X003375Y00015
Y000525
X0037Y00055
X0036Y00085
X00318801Y00088655
X00311294Y00088706
X00304
X00304051Y00081199
X00311345
X00318853Y00081147
X00296345Y00081199
X00288853
X00281345
X00281294Y00088706
X00288801
X00296294
X0026Y000525
X00221
X0023Y000715
X002Y0006
Y000875
X00155Y0009
X0017Y000565
X0028143Y00024
X003475Y-00022002
X0037Y-000565
X0023
X00245Y-0009
X00252499Y-00100002
X0023Y-001285
X0022Y-001475
X002Y-0014
Y-0011
Y-001025
Y-00095
X0017Y-001435
X0026Y-001475
X0028143Y-00176
X003475Y-00222002
X0037Y-002565
X-0003
X-000525Y-00222002
X-000875Y-002125
Y-00185
X-000625Y-00185
Y-001475
X-0004Y-00154
Y-00115
X-00081199Y-00111345
X-00088706Y-00111294
X-00096
X-00095949Y-00118801
X-00088655
X-00081147Y-00118853
Y-00103801
X-00081199Y-00096345
Y-00088853
X-00088706Y-00088801
X-00096
Y-00096294
X-00088706
X-00088655Y-0010375
X-00095949
X-00103655
X-00111147
X-00118655
X-00118706Y-00096294
Y-00088801
X-00111199
X-00103706
Y-00096294
X-00111199
Y-00111294
X-00103706
X-00103655Y-00118801
X-00111147
X-00118655
X-00118706Y-00111294
X-00118853Y-00081199
X-00111345
X-00103853
X-00096147
X-00088853
X-00081345Y-0008125
X-0011Y-000525
X-001225Y-000225
X-000875Y-000125
Y00015
X-000625Y00015
Y000525
X-0004Y000455
Y00085
X-00081199Y00088655
X-00088706Y00088706
X-00096
X-00095949Y00081199
X-00088655
X-00081147Y00081147
X-00103655Y00081199
X-00111147
X-00118655
X-00118706Y00088706
X-00111199
X-00103706
X-0014Y000525
X-001805
X-002Y0006
Y0009
X-00245
X-00281294Y00088801
X-00288801
X-00296294
X-00304
X-00311294
X-00318801Y00088853
X-00318655Y0008125
X-00311147Y00081199
X-00303853
X-00296147
X-00288655
X-00281147
X-0029Y000525
X-002775Y000225
X-003125Y000125
Y-00015
X-003375Y-00015
X-003375Y-000525
X-0037Y-00055
X-0036Y-00085
X-00318801Y-00088655
X-00311294Y-00088706
X-00304
X-00304051Y-00081199
X-00311345
X-00318853Y-00081147
Y-00096199
X-00318801Y-00103655
Y-00111147
X-00311294Y-00111199
X-00304
Y-00103706
X-00311294
X-00311345Y-0009625
X-00304051
X-00296345
X-00288853
X-00281345
X-00281294Y-00103706
Y-00111199
X-00288801
X-00296294
Y-00103706
X-00288801
Y-00088706
X-00296294
X-00296345Y-00081199
X-00288853
X-00281345
X-00281294Y-00088706
X-00281147Y-00118801
X-00288655
X-00296147
X-00303853
X-00311147
X-00318655Y-0011875
X-0029Y-001475
X-002775Y-001775
X-003125Y-001875
Y-00215
X-003375Y-00215
Y-002525
X-0037Y-00255
X-0036Y-00285
X-00318801Y-00288655
X-00311294Y-00288706
X-00304
X-00304051Y-00281199
X-00311345
X-00318853Y-00281147
Y-00296199
X-00311345Y-0029625
X-00304051
X-00296345
X-00288853
X-00281345
X-00281294Y-00288706
X-00288801
X-00296294
X-00296345Y-00281199
X-00288853
X-00281345
X-00252499Y-00299998
X-0023Y-002715
X-0022Y-002525
X-002Y-0026
Y-0029
Y-003
X-00147501Y-00300002
X-00155Y-0029
X-00118706Y-00288802
Y-00296294
X-00111199
X-00103706
Y-00288802
X-00111199
X-00111345Y-00281199
X-00103853
X-00096147
X-00088853
X-00081345Y-0028125
X-00081199Y-00288853
Y-00296345
X-00088706Y-00296294
X-00096
Y-00288802
X-00088706
X-00118853Y-00281199
X-0011Y-002525
X-001225Y-002225
X-0011857Y-00176
X-0014Y-001475
X-0018Y-001475
X-002Y-0014
Y-001125
Y-001025
Y-0009
Y-0006
X-0022Y-000525
X-0023Y-000715
X-0026Y-000525
X-0028143Y-00024
X-00252499Y-00099998
X-00245Y-0011
X-0023Y-001435
X-0017Y-001285
X-00147501Y-00100002
X-00155Y-0009
X-0017Y-000565
X-001695Y000715
X-0023Y000565
X-0037
X-003475Y00022002
X-0037Y-001435
X-003475Y-00177998
X-0028143Y-00224
X-0026Y-002525
X-0017Y-002565
X-0011857Y00024
X-000525Y-00022002
X-0003Y-000565
Y001435
X-000525Y00177998
X-000875Y001875
Y00215
X-000625Y00215
Y002525
X-0003Y00255
X-0004Y00285
X-00081199Y00288655
X-00088706Y00288706
X-00096
X-00095949Y00281199
X-00088655
X-00081147Y00281147
Y00296199
X-00081199Y00303655
Y00311147
X-00088706Y00311199
X-00096
Y00303706
X-00088706
X-00088655Y0029625
X-00095949
X-00103655
X-00111147
X-00118655
X-00118706Y00303706
Y00311199
X-00111199
X-00103706
Y00303706
X-00111199
Y00288706
X-00103706
X-00103655Y00281199
X-00111147
X-00118655
X-00118706Y00288706
X-00118853Y00318801
X-00111345
X-00103853
X-00096147
X-00088853
X-00081345Y0031875
X-0011Y003475
X-00115Y00355
X-0012Y00365
X-001225Y003775
Y0039
X-001125Y004
X-000875Y00395
X-000925Y0042
X-000825Y004205
X-0006Y004475
X-000525
X-000475Y004425
X-000425Y004475
X-000325
X-000375Y004425
X-000275
X-000225Y004475
Y004375
X-000175Y004425
X-0000775
X-000125Y004475
Y004375
X-000365Y004115
X-00055Y003825
X-000625Y00375
X-000365Y00361998
X-00024Y003175
X-00155Y0031
X-00147501Y00299998
X-0017Y002715
X-0018Y002525
X-002
Y0026
Y0029
Y002975
Y00305
Y0034
Y00355
Y0037
X-002Y00399
X-0022
X-00225Y00385
X-00245
X-00265
X-00285Y003825
X-0028143Y00376
X-00305Y003825
X-00325
X-00345Y00383
X-00365Y003825
X-0037Y00345
X-003375Y003475
X-00318853Y00318853
X-00311345Y00318801
X-00304051
X-00304Y00311294
X-00311294
X-00318801Y00311345
X-00318853Y00303801
X-00318801Y00296345
Y00288853
X-00311294Y00288801
X-00304
Y00296294
X-00311294
X-00311345Y0030375
X-00304051
X-00296345
X-00288853
X-00281345
X-00281294Y00296294
Y00288801
X-00288801
X-00296294
Y00296294
X-00288801
Y00311294
X-00296294
X-00296345Y00318801
X-00288853
X-00281345
X-00281294Y00311294
X-00281147Y00281199
X-00288655
X-00296147
X-00303853
X-00311147
X-00318655Y0028125
X-0029Y002525
X-002775Y002225
X-003125Y002125
Y00185
X-003375Y00185
Y001475
X-0037Y00145
X-0036Y00115
X-00318801Y00111345
X-00311294Y00111294
X-00304
X-00304051Y00118801
X-00311345
X-00318853Y00118853
Y00103801
X-00318801Y00096345
X-00311294Y00096294
X-00304
X-00304051Y0010375
X-00311345
X-00296345
X-00288853
X-00281345
X-00281294Y00096294
X-00288801
X-00296294
Y00111294
X-00288801
X-00281294
X-00281345Y00118801
X-00288853
X-00296345
X-00252499Y00100002
X-0023Y001285
X-0022Y001475
X-002Y0014
Y0011
Y001
X-00147501Y00099998
X-00155Y0011
X-00118706Y00111199
Y00103706
X-00111199
X-00103706
Y00111199
X-00111199
X-00111345Y00118801
X-00103853
X-00096147
X-00088853
X-00081345Y0011875
X-00081199Y00111147
Y00103655
X-00081147Y00096199
X-00088655Y0009625
X-00095949
X-00096Y00103706
X-00088706
Y00111199
X-00096
X-00103655Y0009625
X-00111147
X-00118655
X-00118853Y00118801
X-0011Y001475
X-001225Y001775
X-001175Y00224
X-0014Y002525
X-0023Y002565
X-00245Y0029
X-00252499Y00300002
X-0023Y003285
X-0022Y003475
X-00215Y00355
X-0026Y003475
X-00265Y004175
X-00285
X-00305
X-00325
X-00345
X-003875Y00455
X-003925Y0046
Y0047
X-003875Y00465
X-003975
Y00475
X-003925Y0048
X-003875Y00485
X-003975
X-004025Y0048
Y0049
X-003925
X-003875Y00475
X-002875
Y00485
X-002925Y0048
Y0049
Y0047
X-002875Y00465
Y00455
X-002925Y0046
Y0045
X-002825Y004475
X-002775Y004425
X-002725Y004475
X-002675Y004425
X-002625Y004475
X-002525
X-002475Y004425
X-002575
X-002425Y004475
X-002375Y004425
X-002275
X-0022
X-002225Y0045
Y0046
X-002275Y00455
Y00465
X-002225Y0047
X-002275Y00475
X-002225Y0048
X-002275Y00485
X-002225Y0049
X-0019Y004775
X-001725
Y004575
X-0019
Y004375
X-001725
Y004175
X-001925
X-00225
X-00245Y00418
X-002325Y004475
X-00145
X-0014Y004425
X-00135Y004475
X-0013Y004425
X-00125Y004475
X-0012Y004425
X-00115Y004475
X-001Y00455
Y00465
Y00475
Y00485
X-00095Y0048
Y0047
Y0046
Y0049
X-0007Y004775
X-0006
Y004675
X-00065Y004625
Y004725
X-0006Y004575
X-00065Y004525
X-0013Y0048
X-001575Y003975
X-001525Y00375
X-0017Y003435
Y001435
X-0026Y001475
X-0028143Y00176
X-003475Y00222002
X-0037Y002565
X-0036Y00315
X-0Y0031
Y003
Y0029
Y0026
Y002525
X0003Y002565
X000525Y00222002
X000875Y002125
Y00185
X000625Y00185
X000625Y001475
X0003Y00145
X0004Y00115
X00081199Y00111345
X00088706Y00111294
X00096
X00095949Y00118801
X00088655
X00081147Y00118853
Y00103801
X00081199Y00096345
X00088706Y00096294
X00096
X00095949Y0010375
X00088655
X00103655
X00111147
X00118655
X00118706Y00096294
X00111199
X00103706
Y00111294
X00111199
X00118706
X00118655Y00118801
X00111147
X00103655
X001475Y00100001
X0017Y001285
X0018Y001475
X002Y00145
X0023Y001435
X00245Y0011
X00252499Y00099998
X00281294Y00103706
Y00111199
X00288801
X00296294
Y00103706
X00288801
X00288853Y0009625
X00296345
X00304051
X00311345
X00311294Y00103706
X00304
Y00111199
X00311294
X00318801Y00111147
Y00103655
X00318853Y00096199
X00318655Y0011875
X00311147Y00118801
X00303853
X00296147
X00288655
X00281147
X00281345Y0009625
X0029Y001475
X002775Y001775
X003125Y001875
Y00215
X003375Y00215
Y002525
X0037Y00255
X0036Y00285
X00318801Y00288655
X00311294Y00288706
X00304
X00304051Y00281199
X00311345
X00318853Y00281147
Y00296199
X00318801Y00303655
Y00311147
X00311294Y00311199
X00304
Y00303706
X00311294
X00311345Y0029625
X00304051
X00296345
X00288853
X00281345
X00281294Y00303706
Y00311199
X00288801
X00296294
Y00303706
X00288801
Y00288706
X00296294
X00296345Y00281199
X00288853
X00281345
X00281294Y00288706
X00281147Y00318801
X00288655
X00296147
X00303853
X00311147
X00318655Y0031875
X003225Y0035
X003325
X003475Y00377998
X003125Y003875
X003Y003675
X0029Y003675
X0028Y003775
X0029Y003475
X0023Y003435
X002Y00345
Y0036
Y00375
Y0039
Y00405
X001825Y00415
X001875Y004225
X001875Y004375
X001825Y00445
X00175Y004525
X001725Y004625
X001625Y0048
X00154Y0049
X00175
X001375Y004825
X001275Y0048
X001Y004825
X000925Y0048
X000875Y0049
Y0047
X000675
X00055
X00025
X000025Y004725
X-000025Y004675
X000025Y004625
X-000025Y004575
X000025Y004525
X-000025Y004475
X-0Y0044
Y0041
Y0036
Y00345
X0003Y00345
X000375Y0036
X00035Y00375
X0003Y003825
X00035Y0039
X000525Y004275
X000625
X000475Y00435
X00045Y00445
X000375Y0045
X000025Y004825
X-000025Y004775
Y004875
X00075Y004175
X00085Y004125
X000875Y00385
X000975Y003675
X0011857Y00376
X0014Y003475
X0018Y003475
X0017Y003285
X001625Y002975
X00155Y0029
X00118706Y00288801
Y00296294
X00111199
X00103706
Y00288801
X00111199
X00111345Y00281199
X00103853
X00096147
X00088853
X00081345Y0028125
X00081199Y00288853
Y00296345
X00081147Y00303801
X00088655Y0030375
X00095949
X00096Y00296294
X00088706
Y00288801
X00096
Y00311294
X00088706
X00081199Y00311345
X00081147Y00318853
X00088655Y00318801
X00095949
X00103655
X00111147
X00118655
X00118706Y00311294
X00111199
X00103706
X00103655Y0030375
X00111147
X00118655
X00118853Y00281199
X0011Y002525
X001225Y002225
X0011857Y00176
X0014Y001475
X002Y0011
Y001025
Y00095
Y00255
Y002625
X001925Y002575
X0017Y002565
X00229501Y00261
X0023Y002715
X0026Y002525
X0028143Y00224
X00252499Y00299998
X00245Y0031
X002Y00305
X001525Y004125
X0028Y004375
X003295Y004275
X0033Y004505
X0036Y0045
X0035Y0047
X00388Y00467
X002575Y004775
X002525Y00485
X0037Y003435
X003475Y00177998
X0037Y001435
X-0Y0011
Y001
X0004Y00315
X000625Y003475
X00415Y00482
X004375Y004925
X0044Y00542
Y00558
X0043Y00568
X004075Y005565
Y00545
Y0053635
X003975Y005775
X0043075Y00602
Y00614
X0043025Y0062925
X004305Y0064275
X004425Y006425
Y006225
X00415Y00625
Y006425
X003925Y0064275
X0040025Y0063375
X003925Y00675
X0039525Y006855
X004125Y00675
X00408Y007025
X0043Y007
X0043075Y0071725
X00431Y0074225
X0041Y0073
X00411Y007865
X0042975
X004305Y006565
X0037Y00655
X00372Y00663
X00355Y00675
X003515Y00721
X00345Y00745
X003325Y007385
X003175
X003Y007525
X002975Y007625
X002925Y0077
X0025
X00225Y00765
X00215Y0077
X002025
X00185Y007685
X00175Y007575
X001795Y00795
X00225Y00795
X002325Y00815
X002475
X0026Y0081
X00325Y00795
X003675Y008
X003825Y007825
X00375Y00765
X002875Y007225
X002525
X002425
X002325Y007475
X002325Y0069
X00225Y006825
X0025Y006925
X0026Y0069
X00277Y00690898
X00269727Y00679727
X00270074Y00669926
X0027Y0066
X00265Y006525
X003Y006575
X003075Y0068
X0032Y00605
X00295Y006025
X0028Y00585
X00275Y0055
X003Y005425
X003325Y00545
X00351Y005555
X0035Y00575
Y0059
X003625Y006
X003725Y00565
X00351Y00514
X00356Y00509
X002425Y005
X002475Y004925
X002075
X002Y005
X00189998Y00502498
X002205Y005125
X00215Y00545
X002155Y0056
X00215Y00575
X002075
X00207Y00603
X00185Y00605
Y0065
X00209Y00647
Y00635
X001925Y006725
X001625Y0071
X001375Y007075
X001345Y007275
X001365Y007375
X001475Y007425
X001275Y007465
X001125Y007125
X0011Y006925
X001275
X00125Y00667
X00113
X00093Y00666
X00092Y00645
X000725Y006475
X000465Y0066
X000475Y00685
X00055Y0068
X0007Y006875
X0009
Y00726
X0007Y007225
Y0074
X00065Y00745
X00045
X0005Y0074
Y007225
X0003
Y007425
X0001Y0074
Y0073
Y0071
X-0Y00705
Y00745
X00045Y00778
X00055Y0078
X00061
X0009Y007825
X00105Y007775
X0007Y008035
X00075Y00815
X00068Y00835
X000675Y00855
X00049557Y00698863
X000075Y0066
X00005Y0061
X000025Y006045
X00005Y0059
X00039
X000525Y005925
X000775Y00595
Y005835
X000875Y006075
X001125Y00595
X00115Y005725
X001Y005675
X000925Y0056
X000915Y0055
X000925Y0054
X0009Y0053
X000925Y0052
X001125
X001275
Y0054
X001125
X0016
Y0052
X0013Y005
X00074Y0053
X00055
Y0054
Y0056
X00039Y0055
X0004Y0053
X000225
X00005
X-000025Y005175
Y005075
X000025Y005025
Y005125
X000075Y005075
X000125Y005025
X000175Y005075
X000225Y005025
X000175Y004975
X000125Y004925
X000075Y004975
X-000025
X000025Y004925
X00005Y0055
X000375Y0061
X0013
X0015Y00645
X001825Y0056
X-000125Y005275
X-0001725Y005225
X-0000775
X-000275
X-000375
X-000475
X-000525Y005275
X-000425
X-000325
X-000225
X-000575Y005225
X-00065Y00525
Y005175
Y005075
X-0006Y005025
Y005125
Y004925
X-00065Y004975
X-00095Y005
X-001Y00495
Y00505
Y00515
X-00095Y0052
Y0051
X-00105Y00525
X-00109999Y00520001
X-00119999
X-00129999
X-00124999Y00525001
X-00119999Y00530001
X-00114999Y00525001
X-00109999Y00530001
X-00105Y00535
X-001Y0053
Y0054
X-00105Y00545
X-00109999Y00540001
X-00114999Y00545001
X-00109999Y00550001
X-00119999
X-0012Y0056
X-00124999Y00555001
Y00565001
X-00129999Y00560001
Y00550001
X-00134999Y00555001
Y00565001
X-00139999Y00560001
Y00570001
Y00580001
X-00134999Y00575001
Y00585001
Y00595001
X-00144999
X-00139999Y00590001
Y00600001
X-00134999Y00605001
X-00139999Y00610001
X-00144999Y00605001
X-00149999Y00610001
Y00620001
X-00144999Y00615002
X-00139999Y00620001
X-00134999Y00615001
X-0013Y0062
X-00124999Y00615001
Y00625001
X-00119999Y00620001
X-00114999Y00615001
Y00625001
X-00119999Y00630001
X-0012Y0064
X-00124999Y00635001
X-00129999Y00630001
X-00134999Y00635001
X-00139999Y00630001
X-00144999Y00625001
X-00149999Y00630001
X-00144999Y00635001
Y00645001
X-00149999Y00640001
Y00650001
X-00144999Y00655001
Y00665001
X-00149999Y00660001
Y00670001
X-00144999Y00675001
X-00149999Y00680001
X-00144999Y00687501
X-001325Y006825
Y00676
X-00129999Y00670001
X-00124999Y00665001
X-00120001Y00668999
X-0012005Y00676
X-0012Y006825
X-0011975Y007
X-0012475Y00705
X-0012Y0071
X-0012475Y00715
X-0012975Y0071
Y0072
X-0012475Y00725
X-0011475
X-00119749Y00719999
X-0011475Y00715
X-0010975Y0071
X-0011475Y00705
X-0010975Y007
X-0010475Y00705
X-0009975Y007
Y0071
X-0010475Y00715
Y00725
X-0009975Y0072
X-0010975
X-00105Y00745
X-00085
X-00065Y00744
X-00046Y00745
X-0005Y0073
X-0003
Y0071
X-0001
Y0074
X-0002Y00745
X-000225Y00752
X-0001Y0078
X-00065Y00778
X-00075Y0078
X-00095
X-00115
X-00125Y00778
X-0014Y0079
X-001075
X-00085Y008025
X-00125Y00745
X-00145Y0074375
X-0013475Y00725
X-0013975Y0072
X-0013475Y00715
X-0013975Y0071
X-0013475Y00705
X-0013975Y007
X-0012975
X-00134999Y00665001
X-00139999Y00660001
Y00670001
X-00134999Y00655001
X-0013Y0066
X-00124999Y00655001
X-00119999Y00660001
X-00114999Y00665001
Y00655001
X-00119999Y00650001
X-00114999Y00645001
Y00635001
X-00129999Y00640001
Y00650001
X-00124999Y00645001
X-00134999
X-00139999Y00640001
Y00650001
X-00134999Y00625001
X-00129999Y00610001
X-00124999Y00605001
X-00129999Y00600001
X-00124999Y00595001
X-0012Y006
X-00114999Y00595001
X-00119999Y00590001
X-00114999Y00585001
Y00575001
X-00119999Y00580001
X-00124999Y00585001
X-00129999Y00590001
Y00580001
X-00124999Y00575001
X-00129999Y00570001
X-00119999
X-00114999Y00565001
Y00555001
Y00535001
X-00124999
X-00119999Y00540001
X-00124999Y00545001
X-00129999Y00540001
X-00134999Y00545001
X-00139999Y00540001
X-00144999Y00545001
X-00149999Y00550001
X-00144999Y00555001
Y00565001
X-00149999Y00560001
Y00570001
X-00144999Y00575001
Y00585001
X-00149999Y00590001
Y00580001
X-0016Y0059
Y0061
X-00149999Y00600001
X-001775Y006125
Y00625
X-00175Y00645
X-001925Y006475
X-001975Y006425
X-002175
X-00215Y0067
X-00225Y006725
X-00245
Y00651751
X-002425Y00625
X-002625
X-002825
X-003025
X-00322451
X-003425
X-00342949Y00653001
X-0034295Y006595
Y0066625
X-00342949Y00673001
X-0033795Y0066975
Y00663
Y0065625
X-0033295Y006595
X-00332949Y00653001
X-0033295Y0066625
X-00332949Y00673001
X-0036995Y0068
X-003767
X-003837
X-00381951Y00667999
X-00374951Y00668
X-00389451Y00667999
X-00396951Y00668746
X-0039395Y0065975
X-003825Y0064
X-00375
X-00371Y006343
X-00375Y006275
X-00382451
X-003825Y00615
X-00375
X-0037Y0062
Y0061
Y006025
Y00595
Y005875
X-00375Y005825
X-003825
X-0039
Y0057
X-003825
X-00375
X-0037Y00565
Y00575
Y005325
X-00365Y005275
X-0037Y005225
X-0038
X-00385Y005275
X-00375
X-0038Y005325
X-0039
X-003975
Y00525
Y00515
X-003875
X-0039Y005225
X-004025Y0052
Y0051
X-003975Y00505
X-003875
X-003925Y0051
Y005
X-003875Y00495
X-003975
X-004025Y005
Y005375
Y005475
X-00395Y0055
Y0054
X-0036Y005325
X-0035
X-00355Y005275
X-0036Y005225
X-0035
X-0034
X-00345Y005275
X-002875
X-002925Y005225
X-002825
X-002725
X-002625
X-002525
X-002575Y005275
X-002475
X-002375
X-002425Y005225
X-002325
X-002275Y00515
X-002225Y0052
Y0051
X-002275Y00505
Y00495
X-002225Y005
X-002125Y005125
Y0053
X-0019
Y0052
Y004975
X-001725
X-00166Y0052
X-00149999Y00520001
X-00144999Y00525001
X-00149999Y00530001
Y00540001
X-00144999Y00535001
X-00134999
X-00129999Y00530001
X-00134999Y00525001
X-00139999Y00530001
Y00520001
Y00550001
X-0016Y0055
Y0057
X-0019
X-00195Y005625
X-0019Y0055
X-002125Y0056
X-0023Y00585
X-002225Y00595
X-002425
X-002625
X-002825
X-003025
X-003225
X-003425
X-0039395Y0060895
X-0037095Y0064715
X-003725Y0069
X-0036995Y007
X-0039Y00700749
X-00395Y00705749
X-004Y00700749
Y00710749
Y00720749
X-00395Y00725749
X-0039Y00720749
X-00395Y00715749
X-0039Y00710749
X-00397451Y00754249
Y00772249
X-002625Y00707364
X-0026575Y0069025
X-00280249Y00661751
X-002775Y005725
X-00245
X-002575Y00552
X-002675Y005275
X-002775
X-002875Y00515
X-002925Y0051
X-002875Y00505
X-002925Y005
X-002875Y00495
X-002025Y004925
X-0019Y0059
X-001975Y0061
X-001775Y006675
X-001675Y00665
X-001775Y0069
X-001675Y007125
X-002125Y0069
X-00106Y00667499
X-00098876Y0066725
X-00092
X-00085001
X-0008675Y0067925
X-0008
X-000825Y0069
Y006975
X-0007Y0071
X-0005
X-00052999Y00672251
X-00053Y006655
Y0065875
X-00052999Y00652251
X-00048Y006555
Y0066225
Y00669
X-0004325Y006725
X-00043Y006655
Y0065875
X-00042999Y00652251
X-000375Y006375
X-000175
Y00605
X-000375Y006125
Y005925
X-000525
X-000725
X-0008105Y00595
X-00081Y0058765
X-00086999Y00581301
X-00094999
Y00568801
X-00086999
X-000775Y005675
X-00081Y0056225
Y0057495
X-000725Y005725
X-00075Y0058
Y006125
X-0008105Y006075
X-00085Y00615
X-00081Y00621
X-00075Y00625
X-000725Y006325
X-00081Y006337
X-00075499Y00640051
X-00087Y0064
X-00095
Y006275
X-00087
X-00081Y006464
X-00065Y00635
X-000575
X-00104Y006525
X-0009375Y0067925
X-00104Y0061185
X-00114999Y00605001
X-00119999Y00610001
X-0040495Y0060575
X-0040995Y0061075
X-0041995
X-00419951Y00620749
X-0042495Y0061575
Y0062575
X-004325Y006275
X-0043995
Y0064075
X-004325Y0064
X-0042495Y0063575
X-0041495
X-00409951Y00640749
X-0040495Y0063575
X-0040995Y0063075
X-0040495Y0062575
X-0040995Y0062075
X-0040495Y0061575
X-0041495
Y0062575
X-0041995Y0063075
Y0064075
X-0041495Y0064575
X-0041995Y0065075
X-00419951Y00660749
X-0042495Y0065575
Y0066575
X-0043Y00669749
X-0043495Y0066575
Y0067575
X-0043995Y0067075
Y0068075
X-0043495Y0068575
X-004225Y006825
Y0067625
X-0041995Y0067075
X-0041495Y0066575
X-00409951Y00669749
X-0041Y0067625
Y006825
Y00700749
X-00415Y00705749
X-0042Y00700749
Y00710749
X-0041
X-00415Y00715749
Y00725749
X-0042Y00720749
X-00425Y00725749
X-0043Y00720749
X-00425Y00715749
X-0043Y00710749
X-00425Y00705749
X-0043Y00700749
X-00405Y00705749
Y00715749
X-00409999Y00720749
X-00405Y00725749
X-00417451Y00754249
Y00772249
X-00437451
Y00754249
X-0044Y006525
X-004325
X-0042495Y0064575
X-0040495
X-0040995Y0065075
X-0040495Y0065575
X-0040995Y0066075
X-0040495Y0066575
X-0041495Y0065575
Y0060575
X-0041995Y0060075
X-0042495Y0060575
X-0042995Y0061075
X-0043995
X-00434949Y00615751
X-004325Y00595
X-0044
Y005825
X-004325
X-0042495Y0058575
Y0057575
X-0041995Y0058075
X-0041495Y0057575
Y0058575
X-0041995Y0059075
X-0041495Y0059575
X-00409951Y00600749
X-0040995Y0059075
X-0040495Y0059575
Y0058575
X-0040995Y0058075
X-0040495Y0057575
X-0040995Y0057075
X-0040495Y0056575
Y0055575
X-00409951Y00560749
X-0041495Y0055575
X-0041995Y0055075
Y0056075
X-0041495Y0056575
X-0042495
X-0042995Y0056075
Y0055075
X-004325Y00545
X-00425Y005425
X-004175
X-0042Y00535
X-00419701Y00525999
X-004175Y005175
X-004075Y00515
X-0041Y005225
X-004125Y0053
X-00405
X-0041Y005375
Y005475
X-0042495Y0055575
X-0043495
X-0044Y0055
Y0057
X-004325
X-0041995Y0057075
X-0042495Y0059575
X-0043Y005375
X-004275Y0053
X-00415Y005075
X-004075Y00505
X-0041Y00495
T02
X-002Y-00325
X-0
X002
Y-00275
Y-00125
Y-00075
Y00075
X-0
Y-00075
Y-00125
Y-00275
X-002
Y-00125
Y-00075
Y00075
Y00125
Y00275
Y00325
X-0
Y00275
Y00125
X002
Y00275
Y00325
T03
X001Y00835
X0017
T04
X00135Y0076
Y00785
Y0081
Y00835
T05
X-003424Y0073
T06
X-002916Y0073
X-002408
X-0024Y0078
X-0029
X-00339951Y00780749
X-0019Y0073
T07
X-003678Y007554
X-001646
T08
X-004125Y-004125
X004125
X002Y-002
X-002
X-004125Y004125
X-002Y002
X002
X004125Y004125
X004125Y00825
X-0011Y0083
X-002154Y008316
X-00317
X-004125Y00825
M30
